<?xml version="1.0" encoding="utf-8"?>
<!-- Generator: Adobe Illustrator 19.0.0, SVG Export Plug-In . SVG Version: 6.00 Build 0)  -->
<svg version="1.1" id="Capa_1" xmlns="http://www.w3.org/2000/svg" xmlns:xlink="http://www.w3.org/1999/xlink" x="0px" y="0px"
	 viewBox="-97 220.9 400 400" style="enable-background:new -97 220.9 400 400;" xml:space="preserve">
<style type="text/css">
	.st0{fill:none;}
	.st1{fill:#9EC6E8;}
	.st2{fill:#66973B;}
	.st3{opacity:0.7;fill:#66973B;enable-background:new    ;}
	.st4{fill:#183246;}
	.st5{opacity:0.7;fill:#9EC6E8;enable-background:new    ;}
</style>
<g>
	<g id="Capa_1_1_">
		<rect x="-97" y="220.9" class="st0" width="400" height="400"/>
	</g>
	<polygon class="st1" points="100.2,279.9 -3.8,279.9 -3.8,452 168.3,452 168.3,349 134,384.4 134,418.4 30.8,418.4 30.8,315 
		65.3,315 	"/>
	<polygon class="st2" points="168.3,279.9 168.3,327 141.5,354.1 141.5,307.2 	"/>
	<polygon class="st3" points="122,280.4 168.3,280.4 141.5,307.2 94.7,307.2 	"/>
	<g>
		<path class="st4" d="M3.8,491H0v6.8h-5v-22.7h9.3c5.4,0,8.7,3.3,8.7,7.9l0,0C13.1,488.3,9,491,3.8,491z M8,483.1
			c0-2.2-1.5-3.4-4.1-3.4H0v6.9h3.9C6.5,486.6,8,485.1,8,483.1L8,483.1z"/>
		<path class="st4" d="M26.1,498.2C19,498.2,14,493,14,486.5l0,0c0-6.5,5.2-11.7,12.1-11.7c7.1,0,12.1,5.2,12.1,11.7l0,0
			C38.4,492.9,33.2,498.2,26.1,498.2z M33.1,486.5c0-3.9-2.9-7.2-6.9-7.2s-6.8,3.1-6.8,7.1l0,0c0,3.9,2.9,7.2,6.9,7.2
			S33.1,490.4,33.1,486.5L33.1,486.5z"/>
		<path class="st4" d="M55,497.8l-4.9-7.3h-3.9v7.3h-5v-22.7h10.3c5.3,0,8.6,2.9,8.6,7.5l0,0c0,3.7-2,6-4.9,7.1l5.6,8.2L55,497.8
			C55,497.9,55,497.8,55,497.8z M55.1,482.8c0-2.2-1.5-3.3-3.9-3.3h-5v6.5h5C53.6,486.1,55.1,484.9,55.1,482.8L55.1,482.8z"/>
		<path class="st4" d="M73.4,479.7v18.1h-5v-18.1h-6.9v-4.6h18.9v4.6H73.4z"/>
		<path class="st4" d="M96.5,497.8l-2-5.2h-9.7l-2,5.2h-5.2l9.8-22.9H92l9.8,22.9H96.5z M89.6,480.9l-3,7.3h6L89.6,480.9z"/>
		<path class="st4" d="M103.6,497.8v-22.7h5v18.2h11.3v4.5H103.6z"/>
		<path class="st4" d="M139.1,497.8h-8.8v-22.7h8.8c7.2,0,12.1,4.9,12.1,11.3l0,0C151.2,492.9,146.3,497.8,139.1,497.8z M146,486.5
			c0-4.1-2.7-6.8-6.8-6.8h-3.8v13.6h3.8C143.2,493.3,146,490.6,146,486.5L146,486.5z"/>
		<path class="st4" d="M154.1,497.8v-22.7h17.1v4.5H159v4.6h10.8v4.5H159v4.8h12.4v4.5h-17.3V497.8z"/>
		<path class="st4" d="M5.3,518.8v18.1h-5v-18.1h-6.9v-4.6h18.9v4.6H5.3z"/>
		<path class="st4" d="M28.3,536.9l-4.9-7.3h-3.9v7.3h-5v-22.7h10.3c5.3,0,8.6,2.9,8.6,7.5l0,0c0,3.7-2,6-4.9,7.1l5.6,8.2
			L28.3,536.9L28.3,536.9z M28.4,521.9c0-2.2-1.5-3.3-3.9-3.3h-5v6.5h5C27,525.1,28.4,523.9,28.4,521.9L28.4,521.9z"/>
		<path class="st4" d="M53.4,536.9l-2-5.2h-9.7l-2.2,5.2h-5l9.8-22.9h4.6l9.7,22.9H53.4z M46.4,520l-3,7.3h6L46.4,520z"/>
		<path class="st4" d="M76.4,536.9l-11-14.4v14.4h-4.9v-22.7h4.6l10.6,14v-14h4.9v22.7H76.4z"/>
		<path class="st4" d="M92.5,537.3c-3.4,0-6.9-1.2-9.7-3.7l3-3.5c2,1.6,4.2,2.7,6.8,2.7c2,0,3.3-0.8,3.3-2.2l0,0
			c0-1.2-0.8-1.9-4.6-2.9c-4.6-1.2-7.5-2.4-7.5-6.9l0,0c0-4.1,3.3-6.8,8-6.8c3.3,0,6.1,1.1,8.4,2.9l-2.6,3.8c-2-1.4-3.9-2.2-5.9-2.2
			c-1.9,0-3,0.8-3,2l0,0c0,1.5,1,2,4.9,3c4.6,1.2,7.2,2.9,7.2,6.8l0,0C101,534.7,97.4,537.3,92.5,537.3z"/>
		<path class="st4" d="M112.6,530h-3.8v6.8h-5v-22.7h9.3c5.4,0,8.7,3.3,8.7,7.9l0,0C121.7,527.3,117.6,530,112.6,530z M116.6,522
			c0-2.2-1.5-3.4-4.1-3.4h-3.8v6.9h3.9C115.1,525.6,116.6,524.1,116.6,522L116.6,522z"/>
		<path class="st4" d="M138.4,536.9l-2-5.2h-9.7l-2,5.2h-5l9.8-22.9h4.6l9.8,22.9H138.4z M131.6,520l-3,7.3h6L131.6,520z"/>
		<path class="st4" d="M159.4,536.9l-4.9-7.3h-3.9v7.3h-4.9v-22.7H156c5.3,0,8.6,2.9,8.6,7.5l0,0c0,3.7-2,6-4.9,7.1l5.6,8.2
			L159.4,536.9L159.4,536.9z M159.5,521.9c0-2.2-1.5-3.3-3.9-3.3h-5v6.5h5C158.1,525.1,159.5,523.9,159.5,521.9L159.5,521.9z"/>
		<path class="st4" d="M167.4,536.9v-22.7h17.1v4.5h-12.2v4.6h10.8v4.5h-10.8v4.8h12.4v4.5h-17.3V536.9z"/>
		<path class="st4" d="M203.6,536.9l-11-14.4v14.4h-4.9v-22.7h4.6l10.6,14v-14h4.9v22.7H203.6z"/>
		<path class="st4" d="M222.4,537.3c-6.7,0-11.7-5.2-11.7-11.7l0,0c0-6.5,4.9-11.7,11.8-11.7c4.4,0,6.8,1.5,9,3.5l-3.1,3.7
			c-1.8-1.6-3.5-2.6-5.9-2.6c-3.8,0-6.7,3.1-6.7,7.1l0,0c0,3.9,2.7,7.2,6.7,7.2c2.6,0,4.2-1.1,6-2.7l3.1,3.3
			C229.3,535.8,226.7,537.3,222.4,537.3z"/>
		<path class="st4" d="M234.2,536.9v-22.7h5v22.7H234.2z"/>
		<path class="st4" d="M260.4,536.9l-2-5.2h-9.7l-2,5.2h-5l9.8-22.9h4.6l9.8,22.9H260.4z M253.4,520l-3,7.3h6L253.4,520z"/>
	</g>
	<g>
		<polygon class="st5" points="-6.8,555.8 0,555.8 5.3,563.8 -1.6,563.8 		"/>
		<polygon class="st1" points="-6.8,571.7 0,571.7 5.3,563.8 -1.6,563.8 		"/>
		<polygon class="st3" points="4,555.8 10.9,555.8 16.1,563.8 9.3,563.8 		"/>
		<polygon class="st2" points="4,571.7 10.9,571.7 16.1,563.8 9.3,563.8 		"/>
	</g>
	<g>
		<path class="st4" d="M32.7,572.5l-4.2-6h-3.8v6h-3v-17.3h7.8c3.9,0,6.4,2,6.4,5.4c0,2.9-1.8,4.6-4.1,5.3l4.6,6.5L32.7,572.5
			L32.7,572.5z M29,557.9h-4.5v5.9H29c2.2,0,3.5-1.1,3.5-2.9C32.7,558.9,31.3,557.9,29,557.9z"/>
		<path class="st4" d="M42.6,555.2v17.3h-3v-17.3H42.6z M39.9,553.7l2.6-4.1l2.7,1.2l-3,2.9L39.9,553.7L39.9,553.7z"/>
		<path class="st4" d="M55.5,572.8c-5.3,0-9-4.1-9-9s3.8-9,9.1-9s9,4.1,9,9C64.5,568.7,60.8,572.8,55.5,572.8z M55.5,557.7
			c-3.4,0-5.9,2.7-5.9,6.1s2.4,6.1,5.9,6.1s5.9-2.7,5.9-6.1C61.4,560.5,58.9,557.7,55.5,557.7z"/>
		<path class="st4" d="M83.7,572.8c-5,0-8.8-3.9-8.8-9c0-4.9,3.7-9,9-9c3.1,0,5.2,1.1,6.8,2.7l-1.9,2.3c-1.4-1.2-2.9-2.2-4.9-2.2
			c-3.3,0-5.7,2.7-5.7,6.1s2.4,6.1,5.7,6.1c2.2,0,3.5-0.8,4.9-2.3l1.9,2C88.9,571.6,87,572.8,83.7,572.8z"/>
		<path class="st4" d="M108.5,565c0,5.2-2.9,7.8-7.5,7.8c-4.5,0-7.3-2.6-7.3-7.6v-9.9h3v9.8c0,3.3,1.6,4.9,4.4,4.9
			c2.8,0,4.4-1.6,4.4-4.8v-9.9h3V565L108.5,565L108.5,565z"/>
		<path class="st4" d="M128.5,572.5h-3.3l-1.8-4.2h-8.2l-1.8,4.2h-3.1l7.6-17.4h2.9L128.5,572.5z M119.5,558.6l-3,6.9h6L119.5,558.6
			z"/>
		<path class="st4" d="M142.6,572.5l-4.2-6h-3.8v6h-3v-17.3h7.8c3.9,0,6.4,2,6.4,5.4c0,2.9-1.8,4.6-4.1,5.3l4.6,6.5L142.6,572.5
			L142.6,572.5z M139,557.9h-4.5v5.9h4.5c2.2,0,3.5-1.1,3.5-2.9C142.5,558.9,141.1,557.9,139,557.9z"/>
		<path class="st4" d="M156.7,572.5h-3.1v-14.4h-5.4v-2.9h14v2.9h-5.4L156.7,572.5L156.7,572.5z"/>
		<path class="st4" d="M172.6,572.8c-5.3,0-9-4.1-9-9s3.8-9,9.1-9c5.3,0,9,4.1,9,9S177.9,572.8,172.6,572.8z M172.6,557.7
			c-3.4,0-5.9,2.7-5.9,6.1s2.4,6.1,5.9,6.1c3.4,0,5.9-2.7,5.9-6.1C178.4,560.5,176,557.7,172.6,557.7z"/>
	</g>
</g>
</svg>
