<?xml version="1.0" encoding="utf-8"?>
<!-- Generator: Adobe Illustrator 19.0.0, SVG Export Plug-In . SVG Version: 6.00 Build 0)  -->
<svg version="1.1" id="Capa_1" xmlns="http://www.w3.org/2000/svg" xmlns:xlink="http://www.w3.org/1999/xlink" x="0px" y="0px"
	 viewBox="-97 220.9 400 400" style="enable-background:new -97 220.9 400 400;" xml:space="preserve">
<style type="text/css">
	.st0{fill:none;}
	.st1{fill:#80B04F;}
	.st2{fill:#B9BABB;}
	.st3{fill:#D47C2E;}
	.st4{fill:#C73827;}
	.st5{fill:#EABF36;}
	.st6{fill:#4E7ABB;}
	.st7{fill:none;stroke:#B9BABB;stroke-width:0.412;stroke-miterlimit:3.864;}
	.st8{fill:none;stroke:#B9BABB;stroke-width:0.27;stroke-miterlimit:3.864;}
	.st9{fill:none;stroke:#B9BABB;stroke-width:0.101;stroke-miterlimit:3.864;}
	.st10{fill:none;stroke:#B9BABB;stroke-width:0.135;stroke-miterlimit:3.864;}
	.st11{fill:#202124;}
</style>
<g>
	<rect x="-97" y="220.9" class="st0" width="400" height="400"/>
	<g>
		<path class="st1" d="M106.8,405.3h1.5h1.5h0.2h0.2l0.2,0.1l0.2,0.1l0.1,0.1l0.1,0.1l0.6,0.1l0.6,0.1l0.1,0.1l0.1,0.1l0.1,0.1
			l0.1,0.1c0.1,0.1,0.2,0.1,0.3,0.2c0.1,0.1,0.2,0.2,0.2,0.4l0.4,0.1l0.4,0.1c0.2,0.3,0.5,0.7,0.7,1c0.2,0.4,0.5,0.8,0.8,1.2v0.4
			v0.4c0.1-0.1,0.2,0,0.2,0.1s0,0.3,0,0.3c0,0.1,0.3,0.1,0.4,0.3c0.1,0.1,0.2,0.4-0.2,0.8l-0.6,0.2l-0.6,0.2
			c-0.1,0.2-0.1,0.5-0.1,0.7s0,0.5,0,0.7c0.1-0.1,0.2,0,0.2,0.1s0,0.3,0,0.3l0.2,0.1l0.2,0.1v0.4v0.4l-0.1,0.2l-0.1,0.2v0.4v0.4h0.6
			h0.6c0,0.1,0,0.1-0.1,0.2s-0.1,0.1-0.2,0.2v0.2v0.2l-0.4,0.3l-0.4,0.3l-0.5,0.4l-0.4,0.4c-0.1,0.1-0.1,0.3-0.1,0.5
			c0.1,0.2,0.1,0.4,0,0.6c-0.2,0.3-0.8,1.3-1.5,2.1c-0.7,0.9-1.5,1.6-2,1.5c0,0.2-0.4,0.4-0.7,0.5c-0.4,0.1-0.8,0.2-0.9,0.2v-0.9
			V422c-0.2-0.2-0.4-0.1-0.7,0c-0.2,0.1-0.4,0.1-0.6-0.1h-1.1h-1.1c-0.1,0.3-0.6,0.3-1.2,0.1c-0.5-0.2-1.1-0.6-1.1-1.2
			c-0.8-0.1-1.2,0.2-1.6,0.5s-0.8,0.7-1.4,0.7c-0.2,0-0.5,0.1-0.7,0.3c-0.2,0.2-0.3,0.4-0.2,0.6l-0.3-0.2l-0.3-0.2v-0.3v-0.3
			l-0.4-0.4l-0.4-0.4l-0.1-0.2l-0.1-0.2c-0.1-0.1-0.2,0-0.3,0.1c-0.1,0.1-0.2,0.3-0.3,0.3h-0.6h-0.6h-0.2h-0.2
			c-0.2,0-0.4,0.1-0.6,0.3c-0.2,0.2-0.3,0.4-0.6,0.4c0.1,0.1,0,0.1-0.1,0.2c-0.1,0-0.2,0-0.2,0s-0.2,0.2-0.3,0.3
			c-0.1,0.1-0.3,0.3-0.2,0.4l-0.3,0.1l-0.3,0.1c0,0.1-0.3,0.3-0.7,0.5c-0.4,0.2-0.8,0.5-1,0.6h-0.4h-0.4v0.1v0.1l-0.3,0.2l-0.3,0.2
			c-0.6,0-0.5-0.3-0.3-0.7c0.2-0.4,0.4-0.9,0.1-1.1v-0.3v-0.3l0.2-0.2l0.2-0.2v-0.2v-0.2c0.3-0.2,0.7-0.7,1.1-1.2
			c0.3-0.5,0.6-1.1,0.6-1.5c0.1,0,0.9-0.8,2-1.8c1.1-1.1,2.5-2.4,3.7-3.7c0.7-0.8,1.3-1.6,1.9-2.2c0.5-0.6,0.9-1.1,1.3-1.6
			c0.3-0.2,0.6-0.5,0.8-0.7c0.3-0.2,0.5-0.4,0.7-0.6c0.5-0.4,1-0.7,1.5-1.1s0.9-0.7,1.4-1.1h0.4h0.4c-0.1-0.3,0.2-0.3,0.5-0.4
			C106.7,405.5,107,405.5,106.8,405.3"/>
		<path class="st2" d="M77.6,382.7c0.7,0.5,1.5,1.1,2.1,1.5c0.6,0.5,1,0.8,1.1,1c0.4,0.8,0.7,1.5,0.9,2.1c0.2,0.6,0.5,1.2,0.8,1.6
			c0.1,0.3,3.4,3.2,6.9,6.1s7,5.8,7.4,5.9c0.3,0.2-0.3,1.7-1,3.1s-1.4,2.8-1.5,2.9c-0.4,0.1-1.1,0.3-1.7,0.5s-1.1,0.5-1.1,0.6
			c-0.1,0.2-0.4,2-0.5,3.8s0,3.6,0.7,3.9c0,0,0.1,0,0.3,0.1c0.2,0,0.4,0.1,0.7,0.2l-0.1,0.1l-0.1,0.1v0.4v0.4l-0.7,0.7l-0.7,0.7
			c-0.1-0.1-0.4,0.2-0.5,0.6c-0.2,0.4-0.3,0.8-0.3,0.8c-0.1,0.2-0.3,0.5-0.6,0.9c-0.3,0.3-0.6,0.7-1.1,1.2c-0.2-0.1-0.4,0-0.5,0.1
			s-0.2,0.3-0.2,0.5l-0.6,0.6l-0.6,0.6c-0.2,0-1.3,0.5-2.2,1.1c-1,0.6-1.9,1.3-1.9,1.4h-0.4h-0.4l-0.7,0.1l-0.7,0.1l-0.3-0.1
			l-0.3-0.1l-0.4-0.1l-0.3-0.1l-0.3-0.1l-0.4-0.1l-0.2-0.1l-0.2-0.1l-0.4-0.2l-0.3-0.2h-0.2h-0.2l-0.4-0.4l-0.4-0.4
			c0-0.2-0.1-0.5-0.2-0.7c-0.1-0.3-0.3-0.6-0.3-0.8c0-0.1,0-0.3-0.1-0.4c-0.1-0.2-0.1-0.3-0.2-0.3l-0.1-0.3l-0.1-0.3l-0.2-0.1
			l-0.2-0.1l-0.1-0.5l-0.1-0.5c0-0.2,0-0.5,0-0.8s-0.1-0.5-0.2-0.8c0,0-0.1-0.3-0.1-0.6c-0.1-0.3-0.2-0.7-0.3-0.9
			c-0.1,0.1-0.3-0.1-0.3-0.3c-0.1-0.2-0.1-0.5-0.1-0.5V416v-0.5c0,0,0-0.3-0.1-0.7c-0.1-0.4-0.2-0.8-0.3-1.1
			c-0.2,0.1-0.2-0.1-0.2-0.3c0-0.2,0.1-0.4,0.2-0.4v-0.7v-0.7l0.1-0.5l0.1-0.5v-0.2v-0.2l0.1-0.2l0.1-0.3v-0.8v-0.8l0.1-1l0.1-1
			l0.1-0.9l0.1-0.9v-0.7v-0.7L74,402l0.1-0.9l0.1-0.1l0.1-0.1l0.1-0.5l0.1-0.5v-0.5v-0.5l0.1-0.5l0.1-0.5c0.2,0,0.4-0.5,0.5-1
			s0.2-0.9,0.2-0.9v-0.3v-0.3l0.1-0.6l0.1-0.6v-0.6V393l0.1-0.3l0.1-0.3v-0.8v-0.8l0.1-0.3l0.1-0.3v-0.6V389c0-0.3,0.1-0.5,0.3-0.6
			c0.2-0.2,0.3-0.2,0.4-0.3l-0.1-0.2l-0.1-0.1v-0.3v-0.3l0.1-0.3l0.1-0.3v-0.2v-0.2l0.1-0.2l0.1-0.2v-0.5v-0.5
			c0.2,0,0.3-0.4,0.4-0.7c0.1-0.4,0.1-0.8,0-0.9c0.1,0,0.1-0.1,0.2-0.1C77.6,382.8,77.6,382.8,77.6,382.7 M91.9,418.7L91.9,418.7
			l-0.2,0.2C91.7,418.8,91.8,418.7,91.9,418.7c0.1-0.2,0.2-0.3,0.4-0.5c-0.1,0.1-0.2,0.2-0.2,0.3C92,418.6,92,418.7,91.9,418.7
			 M126.3,314.6c-0.3-0.1-1.1,0.7-2.3,1.4c-1.2,0.7-2.7,1.3-4.2,0.8c-0.7-0.2-1.3-0.7-2-1.2c-0.6-0.5-1.2-0.9-1.9-1.1
			c-0.3-0.1-0.8,0-1.2,0.2c-0.4,0.2-0.8,0.5-1.2,0.8c-0.2,0.2-0.5,0.4-0.8,0.7c-0.3,0.3-0.6,0.6-0.7,0.9c0.1,0.1,1.2,0.2,2.4,0.3
			c1.2,0.1,2.3,0.2,2.6,0.3c0.2,0.1,1.9,0.7,3.6,1.3c1.7,0.6,3.3,1.2,3.5,1.2c0.2,0.1,0.3,0.2,0.3,0.3c0,0.1,0,0.3-0.1,0.4
			c-0.1,0.4-0.4,0.6-0.8,0.9c-0.3,0.3-0.7,0.5-0.8,0.9c-0.1,0.4,1.3,0.7,2.8,0.8c1.5,0.1,3,0.1,3.1-0.3c0-0.1,0-0.3-0.1-0.6
			c-0.1-0.2-0.1-0.5-0.1-0.6c0.1-0.3,0.4-0.4,0.6-0.5c0.3-0.1,0.5-0.2,0.6-0.4c0.1-0.5-0.4-2-1.1-3.5
			C127.9,316.2,127,314.8,126.3,314.6 M133.9,312.9c-0.5-0.1-1.6,0.3-2.6,0.9c-1,0.5-1.9,1.1-1.8,1.1c0.4,0.7,1.7,2.8,3,4.8
			s2.6,3.8,3.1,3.9c0.1,0,2-0.6,4-1.3c2-0.7,4-1.5,4.3-1.7c-0.1-0.6-0.3-1.1-0.5-1.6c-0.3-0.5-0.6-0.9-1.2-1.5
			c-0.1-0.1-1.1-0.7-2.1-1.4c-1-0.7-2.1-1.3-2.3-1.4c-0.1,0-0.2,0-0.3,0.1c-0.1,0-0.2,0.1-0.3,0c0,0-0.7-0.4-1.5-0.9
			C135,313.5,134.2,313,133.9,312.9 M125.4,307.8c-0.1,0-0.5,0-0.8,0c-0.3,0.1-0.6,0.2-0.7,0.3c-0.1,0.2,0.1,0.9,0.3,1.6
			c0.3,0.7,0.7,1.4,1.1,1.5c0.1,0,0.8,0.1,1.6,0c0.8-0.1,1.6-0.3,1.7-0.8c0.1-0.3-0.2-0.5-0.5-0.6c-0.3-0.2-0.7-0.3-0.9-0.5
			c0-0.1-0.4-0.4-0.8-0.8C126.1,308.2,125.6,307.9,125.4,307.8 M186.6,395.6c-0.1,0-0.2,0-0.3,0s-0.2,0.1-0.2,0.1c0,0.1,0,0.3,0,0.5
			s0.1,0.4,0.2,0.6c0,0.2-0.1,0.4-0.1,0.7c0,0.3,0,0.5,0.1,0.7c0.1,0.3,0.3,0.6,0.4,0.9c0.1,0.3,0.2,0.6,0.1,0.9
			c-0.1,0.7,0,1.4,0.1,2.1c0.2,0.7,0.4,1.4,0.5,2.1c0.6,0.2,1.2-0.2,1.6-0.7c0.4-0.5,0.7-1.1,0.8-1.3c0-0.1-0.1-0.3-0.2-0.6
			c-0.1-0.2-0.3-0.5-0.4-0.7c-0.5-0.8-0.8-2-1-3s-0.3-1.9-0.4-1.9c-0.1,0-0.2,0-0.3,0s-0.1,0-0.3,0c-0.1,0-0.2-0.1-0.3-0.2
			C186.8,395.7,186.7,395.6,186.6,395.6 M179.2,381.9c-0.5-0.5-1-0.3-1.5,0.1c-0.4,0.4-0.8,1-0.8,1.2c-0.1,0.4,0.5,2.8,1.3,5.1
			c0.8,2.3,1.9,4.6,2.5,4.8c0.1,0,0.2,0,0.4,0c0.1,0,0.3,0,0.4,0c0-0.1,0.1-0.1,0.1-0.2s0.1-0.2,0.1-0.4c-0.3-0.1-0.3-0.3-0.3-0.4
			c0-0.2,0.1-0.3,0.1-0.4c0.3,0.2,0.5,0.2,0.7,0.2s0.4-0.2,0.4-0.3c0.2-0.8-0.2-2.2-0.8-3.4c-0.5-1.3-1.2-2.4-1.2-2.8
			c-0.4-0.5-0.7-1.2-0.9-1.8C179.5,382.9,179.3,382.3,179.2,381.9 M172.2,370.7c-0.5-0.2-0.7,0-0.9,0.2s-0.4,0.5-1.1,0.6
			c-0.3,0.4-1.3,0.7-2.2,1c-0.9,0.2-1.7,0.4-1.8,0.4c-0.1,0.2,0.5,0.9,1.1,1.5s1.2,1.2,1.3,1.2c0.2,0.1,0.6,0,1-0.1s0.8-0.2,0.9-0.2
			l0.6,0.2l0.6,0.2c0.2,0.4,0.4,0.6,0.6,0.7c0.3,0.1,0.6,0.1,1,0.3c0.3,0.1,0.7,0.5,1.2,0.8c0.5,0.4,0.9,0.7,1.1,0.8
			c0.1,0,0.2,0,0.3,0s0.2-0.1,0.3,0c0.9,0.4,1.8,0.4,2.5,0.1s1.2-0.8,1.4-1.3c0-0.1,0.1-0.6,0.2-1.3c0.1-0.6,0.2-1.4,0.2-1.9
			c-0.1-0.1-0.3-0.2-0.5-0.4c-0.2-0.1-0.4-0.2-0.5-0.3c-0.6-0.2-1.2-0.2-1.7-0.2s-1.1-0.1-1.7-0.2c-0.3-0.1-0.6-0.3-0.9-0.5
			c-0.3-0.2-0.6-0.4-0.8-0.5c-0.1,0-0.2,0-0.3,0s-0.2,0-0.3,0s-0.4-0.3-0.8-0.5C172.7,371,172.3,370.7,172.2,370.7 M164.6,365.1
			c0,0-0.1,0.3-0.1,0.7c-0.1,0.3-0.1,0.7-0.2,0.8c0,0.1-0.1,0.2-0.2,0.3c-0.1,0.1-0.2,0.2-0.2,0.3c0,0.1,0,0.4,0.1,0.7
			c0.1,0.3,0.2,0.6,0.4,0.7c0,0,0.6-0.2,1.1-0.4c0.6-0.2,1.1-0.4,1.1-0.4c0.1-0.4-0.3-1.2-0.9-1.8
			C165.2,365.3,164.6,364.9,164.6,365.1 M193.1,363.4c-0.2,0.1-0.6,0.3-1.1,0.3c-0.4,0.1-0.9,0.1-0.9,0.1c-0.1,0-0.2-0.1-0.3-0.2
			s-0.2-0.2-0.3-0.2c-0.4-0.1-0.8,0.3-1.2,0.7c-0.4,0.5-0.7,1.1-0.9,1.5c-0.2,0.6-0.1,1,0,1.3s0.3,0.6,0.1,1
			c-0.1,0.2-0.3,0.3-0.5,0.5s-0.4,0.3-0.5,0.7c0,0,0.1,1,0.3,2s0.4,1.9,0.5,2c0.5,0.2,1,0,1.4-0.3s0.6-0.7,0.8-1.1
			c0-0.1,0-0.3,0-0.5s0-0.4,0-0.5s0.2-0.3,0.4-0.4c0.2-0.2,0.4-0.3,0.5-0.4c0-0.1,0-0.3,0-0.4c0-0.2-0.1-0.3-0.2-0.3
			c-0.2-0.2-0.2-0.3-0.3-0.5c0-0.1,0-0.3,0-0.4c0.1-0.5,0.8-0.7,1.4-0.9c0.6-0.2,1.3-0.4,1.4-1c0.1-0.3,0-0.9-0.1-1.5
			s-0.3-1.2-0.4-1.4H193L193.1,363.4z M81.5,368.2v-0.1V368c0.1-0.1,0.2-0.3,0.3-0.5c0.1-0.2,0.2-0.4,0.1-0.5v-0.2v-0.2l0.1-0.2
			l0.1-0.2c1.8,0.5,4.8,1.5,8.6,2.5c3.8,1,8.3,2.1,12.9,2.9c6.1,1.1,12.4,1.7,17.3,1.9c4.9,0.2,8.3,0.1,8.5-0.4
			c0.2-1.1,2.2-2.8,4.2-4.3s3.9-2.6,4.1-2.7c0.2,0,0.8,0,1.3,0s1,0,1.1,0.1c0.1,0,1.2,0.5,2.4,0.9c1.1,0.5,2.3,0.9,2.4,0.9
			c0.2,0.1,0.8,0.1,1.3,0.1s1.1-0.1,1.2-0.5c0.1-0.3-0.1-1.1-0.2-1.9c-0.2-0.8-0.4-1.5-0.5-1.6c-0.1,0-0.3-0.2-0.4-0.3
			c-0.2-0.1-0.4-0.2-0.5-0.3c-0.1,0-1.1,0.6-2,1.1c-1,0.5-2,1-1.9,0.7c0,0-0.8-1.1-1.6-2.2s-1.5-2.2-1.5-2.4c0-0.1,0.6-0.9,1.3-1.7
			c0.6-0.8,1.2-1.5,1.3-1.5c0,0,0.2,0,0.5,0.1c0.3,0,0.5,0.1,0.6,0.1s0.5,0.3,0.9,0.5s0.8,0.5,0.9,0.5c0.1,0,0.4-0.2,0.6-0.5
			c0.2-0.3,0.5-0.6,0.5-0.7c0.2-0.7-0.4-3.2-1-5.5c-0.7-2.3-1.4-4.5-1.5-4.7c-0.5-1.7-1.5-4-2.4-5.9s-1.7-3.5-1.9-3.8
			c-0.1-0.1-0.2-0.4-0.4-0.7c-0.2-0.3-0.4-0.6-0.5-0.6s-0.3,0-0.6,0c-0.2,0-0.4,0-0.5,0c-0.5-0.2-0.4-0.6-0.4-1
			c0.1-0.4,0.1-0.8-0.4-0.9c-0.2,0-1.3-0.3-2.5-0.5s-2.4-0.4-2.8-0.3c-0.3,0.1-0.9,0.2-1.4,0.3c-0.5,0.1-1,0.2-1.1,0.2
			s-0.3-0.2-0.4-0.5c-0.1-0.2-0.2-0.5-0.1-0.7c0.1-0.3,1-0.9,2-1.4c0.9-0.5,1.9-1,1.9-1c0.2,0,0.8-0.1,1.3-0.2s1-0.3,1.1-0.7
			c0.1-0.2,0-0.4-0.1-0.7c-0.1-0.3-0.3-0.5-0.6-0.6c-0.8-0.3-3.4,0-5.7,0.3c-2.3,0.4-4.5,0.9-4.6,1.3c-0.2,0.5-0.7,0.8-1.1,1
			s-0.9,0.2-0.9,0.2c-0.3-0.1-1-0.2-1.6-0.4c-0.6-0.2-1.2-0.3-1.2-0.5l0.2-0.8l0.3-0.8c0.1-0.1,0.2-0.1,0.3-0.1
			c0.1-0.1,0.2-0.1,0.2-0.2c0.1-0.2,0-0.4-0.2-0.6s-0.4-0.3-0.6-0.4s-2.9-0.5-5.5-0.8c-2.6-0.4-5.1-0.6-5.2-0.4
			c-0.2,0.6,0.8,1.3,1.9,1.9c1.2,0.5,2.6,1,3.3,1.2c0.5,0.1,1,1.1,1.5,2.2c0.4,1,0.8,2.1,0.8,2.5c-0.1,0.5-0.6,1.6-1.3,2.9
			c-0.6,1.3-1.4,2.7-2.1,3.8c-0.2,0.3-0.6,0.4-0.9,0.4c-0.4,0.1-0.7,0.2-0.8,0.5c-0.1,0.2,0.1,1,0.3,1.8c0.2,0.8,0.3,1.5,0.3,1.8
			c-0.1,0.2-1.4,0.2-2.7,0.1c-1.3-0.1-2.6-0.3-2.6-0.3c-0.2-0.1-0.5-0.1-0.7-0.3c-0.2-0.2-0.3-0.4-0.2-0.7c0.1-0.2,0.3-0.7,0.6-1.1
			c0.3-0.5,0.5-0.9,0.5-0.9c0-0.1,0-0.3-0.1-0.5s-0.2-0.3-0.3-0.3c-0.1,0-1.3,0.1-2.6,0.2c-1.2,0.2-2.5,0.4-2.6,0.8
			c-0.3,1.1,0.1,1.5,0.6,1.7s1,0.3,0.9,0.8c-0.2,0.6-0.9,0.8-1.7,0.8c-0.7,0-1.5-0.1-1.8-0.1c-0.2,0-2-0.2-3.8-0.3
			c-1.8-0.1-3.6-0.2-3.7-0.1s-0.5,1-1.2,2.3s-1.5,3.2-2.4,5.1V352v-0.3c0.1,0,0.1-0.2,0.2-0.3c0.1-0.1,0.1-0.2,0.2-0.2v-0.4v-0.4
			l0.1-0.2l0.1-0.2v-0.3v-0.3c0.3-0.1,0.4-0.5,0.5-0.9s0.1-0.8,0.1-0.8v-0.2v-0.2l0.1-0.2l0.1-0.2v-0.4v-0.4l0.1-0.1l0.1-0.1v-0.2
			v-0.2l0.1-0.3l0.1-0.3v-0.3v-0.3l0.1-0.3l0.1-0.3v-0.4v-0.4l0.1-0.2l0.1-0.2v-0.4v-0.4l0.1-0.2l0.1-0.2v-0.5v-0.5l0.1-0.2l0.1-0.2
			v-0.4v-0.4c0.1-0.1,0.3-0.2,0.4-0.3c0.1-0.1,0.1-0.2-0.2-0.1v-0.2v-0.2l0.1-0.3l0.1-0.2v-0.5v-0.5v-0.1v-0.1l0.1-0.2l0.1-0.2
			l0.1-0.3l0.1-0.3v-0.4v-0.4l0.1-0.4l0.1-0.4v-0.6v-0.6l0.1-0.3l0.1-0.3v-0.6V331l0.1-0.2l0.1-0.2c0-0.1,0-0.2,0-0.3
			c0-0.1,0-0.2,0-0.3v-0.3v-0.3c0.1-0.2,0.1-0.4,0.2-0.5s0.2-0.1,0.2,0l0.1-0.7l0.1-0.7l0.2-0.4l0.2-0.4v-0.5v-0.5l0.1-0.3l0.1-0.3
			v-0.7v-0.7l0.1-0.3l0.1-0.3v-1v-1l-0.1-0.3l-0.1-0.3l-0.1-0.8l-0.1-0.8l0.1-0.2l0.1-0.2l-0.1-0.4l-0.1-0.4c0-0.2,0-0.4,0-0.6
			s0-0.5-0.1-0.7V316v-0.4c0.2,0.1,0.3,0.1,0.5,0.2s0.3,0.1,0.5,0.2c0.1,0,1,0.1,1.8,0.1s1.7,0.1,1.8,0.1c1,0.3,1.4,0.9,1.8,1.4
			c0.4,0.6,0.9,1.2,2,1.5c0.4,0.1,1.1-0.1,1.8-0.4c0.7-0.3,1.3-0.6,1.5-0.7s0.5-0.3,0.7-0.6c0.2-0.2,0.4-0.5,0.5-0.7
			c0-0.1,0-0.8-0.1-1.4c-0.1-0.7-0.2-1.3-0.2-1.3c-0.1-0.6,0.3-0.7,0.6-0.7c0.4-0.1,0.8-0.1,0.9-0.5c0.1-0.2,0.1-0.5,0.1-0.7
			s-0.2-0.4-0.5-0.5c-0.1,0-1.7,0-3.3,0c-1.6,0-3.2,0-3.3,0.1c-0.5,0-1.7,0.2-3,0.3c-1.2,0.1-2.5,0.3-3.1,0.4c-0.1,0-0.2,0-0.4,0
			c-0.2,0-0.4,0-0.7,0V312v-0.6l-0.1-0.2l-0.1-0.2c0-0.2-0.1-0.5-0.1-0.9c-0.1-0.4-0.2-0.8-0.3-1.2c1.3-0.5,2.7-1,4-1.4
			s2.4-0.5,3.1-0.3c0.1,0,0.6,0.3,1.1,0.5s1,0.5,1.1,0.5c0.8,0.2,1.1-0.4,1.6-1s1.2-1.1,3-0.6c0.1,0,0.8,0.2,1.5,0.4
			c0.7,0.1,1.4,0.2,1.5-0.1c0.1-0.2,0-0.4-0.2-0.6s-0.4-0.4-0.6-0.5c-0.1,0-0.6-0.3-1.1-0.5s-1-0.5-1.2-0.5l-0.6-0.2l-0.6-0.2
			l-2.1-0.8l-2.1-0.8c-1.7-0.1-3.5,0-5.2,0.2s-3.5,0.4-5.2,0.8c-0.2,0-0.8,0.2-1.3,0.3c-0.5,0.2-0.9,0.5-0.8,0.8
			c0,0.1,0.1,0.2,0,0.3c0,0.1,0,0.2-0.1,0.3c-0.1,0-0.3-0.1-0.4-0.1s-0.2-0.1-0.4-0.1c-0.1-0.1-0.6,0-1.1,0.2s-1.1,0.6-1.4,0.8
			l-0.6,0.5l-0.6,0.5l-0.2,0.4l-0.2,0.4l-0.1,0.1l-0.1,0.1l-0.1,0.2l-0.1,0.2c-0.7-1.6-1.6-3.4-2.3-4.9c-0.7-1.4-1.3-2.5-1.4-2.5
			c-0.4,0.1-1.1,0.3-2,0.6c-0.9,0.3-1.9,0.7-3,1.2c0-0.3,0.1-0.6,0.1-0.9s0-0.5,0-0.5v-0.3v-0.3l0.1-0.9l0.1-0.9
			c9.8-3.4,19.9-5.3,30-5.7c10-0.4,19.9,0.7,29.2,3.5c26.6,8,46.5,25.7,57.8,47.7s14,48.3,6.2,73.3c-7.6,24.5-25,43.7-46.9,54.9
			c-21.9,11.2-48.3,14.4-74,6.7c-0.5-0.2-1.1-0.3-1.6-0.5s-1.1-0.3-1.6-0.5c0-0.6-0.1-1.1-0.1-1.6s-0.1-1-0.1-1.5
			c0.9,0.4,1.6,0.7,2.2,0.9c0.5,0.2,0.8,0.3,0.8,0.4c0.2,0.1,1.1,0.3,2,0.5s1.6,0.4,1.5,0.2c-0.4-0.4-1.6-3.1-2.7-5.7
			c-1.1-2.7-2.2-5.3-2.3-5.5l-0.1-0.2l-0.1-0.2c0.3-0.3,0.6-0.5,0.9-0.8s0.7-0.6,1-0.9c0.8,1.7,2.1,5,3.4,7.9s2.6,5.4,3.3,5.6
			c0.7,0.2,3.8,0.9,7.5,1.6c3.7,0.6,8.1,1.2,11.4,1c0.3,0,1.5-0.8,3.6-2.3s5.1-3.5,8.9-6c6.6-4.3,11.2-8.1,14-11
			c2.9-2.8,4-4.6,3.8-4.6c0,0-5,0.6-11.4,1.1c-6.4,0.6-14.3,1.1-20,1.1c-3.2,0-6.3-0.2-9.4-0.4c-3-0.2-5.9-0.5-8.4-0.8
			c0.4-0.4,0.8-0.8,1.2-1.2c0.4-0.4,0.8-0.8,1.2-1.3c2.6,0.3,5.4,0.6,8.2,0.7c2.8,0.2,5.7,0.3,8.5,0.3c7.2-0.1,15.1-0.7,21.3-1.4
			c6.2-0.7,10.6-1.4,11-1.7c0.6-0.5,4.1-9.3,7.4-18c3.3-8.7,6.4-17.3,6.1-17.4c-0.1,0-5.3,0.8-11.7,1.6c-6.5,0.8-14.2,1.7-19.5,1.8
			c-0.6,0-1.2,0-1.8,0c-0.6,0-1.2,0-1.7,0c0.3-0.4,0.7-0.8,1-1.3s0.7-1,1-1.5c0.6,0,1.1,0,1.7,0s1.1,0,1.7,0
			c6.8-0.1,13.5-1,18.6-1.9s8.5-1.7,8.6-1.7c0.2,0,0.3-0.1,0.4-0.2c0.1-0.1,0.1-0.2,0.1-0.3c0.1-0.2,0.3-2.6,0.4-4.9
			c0.2-2.4,0.4-4.8,0.4-5.1c-0.1-0.1-0.2-0.2-0.3-0.3c-0.1-0.1-0.2-0.1-0.3-0.2c-0.1-0.2-0.1-0.6-0.2-1c0-0.4-0.1-0.8-0.3-0.9
			c-0.3-0.1-0.8-0.1-1.2-0.1c-0.5,0-0.9,0-1.2-0.1c-1.1-0.3-1.5-1-1.7-1.5c-0.2-0.6-0.4-1.1-1.1-1.4c-0.6-0.2-1.7-0.2-2.7-0.2
			s-1.9,0-2.1,0c-0.3,0-2.1-0.1-3.8-0.1c-1.7-0.1-3.3-0.2-3.4-0.3c-0.3-0.3-1.2-1.2-2.2-2.7s-2.1-3.6-2.8-6.1
			c-0.5-2.2-0.3-5.4,0.1-8s0.9-4.7,0.9-4.9c0,0-2.8-0.1-7.1-0.5c-4.2-0.4-9.9-1-15.5-2c-4.3-0.7-8.6-1.7-12.3-2.6
			c-3.7-0.9-6.7-1.7-8.6-2.3v-0.3v-0.3l0.1-0.1l0.1-0.1h-0.1h-0.1L81.5,368.2L81.5,368.2z M177,448.8c0-0.1-3.7,0.7-7.6,1.6
			c-3.8,0.8-7.6,1.7-7.7,1.7c-1.2,0.2-3.2,0.5-5.3,0.8c-2,0.3-4.1,0.7-5.3,1c-0.8,0.2-4.3,0.9-7.6,1.6c-3.4,0.7-6.6,1.5-6.8,1.8
			c-0.8,1-4.4,4.1-7.9,7c-3.5,3-6.9,5.8-7.4,6.2c-1.3,1-5,3.6-8.5,5.8c-3.4,2.3-6.6,4.3-6.6,4.4c0,0,2.8-0.3,6.4-0.7
			c3.6-0.4,8-1,11.2-1.6c1.2-0.1,4.8-0.9,9.6-2.3s10.6-3.4,16.3-6c0.7-0.4,2.9-1.5,5.7-3.2s6.1-3.9,9.1-6.3c3.4-2.9,6.4-5.7,8.6-7.8
			C175.6,450.6,176.9,449.1,177,448.8 M180.6,419.2c-0.7-0.2-1.3,0.3-1.7,0.9s-0.6,1.4-0.7,1.6c-0.1,0.5-0.8,2.6-1.5,4.6
			s-1.3,4-1.4,4.2c-0.5,1.5-1.8,2.1-3,2.4c-1.2,0.4-2.4,0.5-2.6,1.2c-0.1,0.2-0.2,0.6-0.2,0.9c-0.1,0.3-0.2,0.6-0.2,0.7
			s-1,0.8-2.5,1.8c-1.4,1-3.3,2.2-4.9,3.4c-1.1,0.7-3.7,1.7-6,2.5s-4.3,1.3-4.3,1.2c0,0-0.5-0.1-1-0.5c-0.6-0.3-1.2-0.8-1.5-1.6
			c-0.1-0.2-0.3-1.6-0.6-3.1c-0.2-1.5-0.4-3.1-0.3-3.6c0.2-1,0.8-2.5,1.1-3.9s0.2-2.7-1-3c-0.3-0.1-2.3,4.9-4.5,10.3
			c-2.1,5.4-4.3,11.1-4.6,12.3c-0.1,0.2-0.1,0.4,0,0.6s0.2,0.4,0.5,0.5c0.1,0,5-0.9,10.1-1.9s10.4-2,11.3-2.1
			c1.6-0.2,3.8-0.5,5.8-0.9s3.7-1,4.3-1.8c1.3-1,3.8-7.3,5.8-13.4c2.1-6.1,3.9-12,3.9-12c0-0.1,0.1-0.5,0.1-0.8
			C181,419.7,180.9,419.3,180.6,419.2 M189.8,414.5c-0.3-0.1-1,0.4-1.7,0.8c-0.7,0.5-1.4,0.9-1.9,0.8c-0.1,0-0.5-0.1-0.9-0.1
			s-0.7,0-0.8,0.2c0,0.1,0,0.4,0,0.6c0.1,0.3,0.2,0.5,0.3,0.7l-4.6,13.9l-4.7,13.9c0,0.1,1.1,0,2.3-0.1s2.4-0.3,2.4-0.3
			c0.2-0.2,1-1,1.8-1.9c0.8-0.8,1.6-1.7,1.7-2.2c0-0.1,0.1-0.8,0.1-1.6c0.1-0.7,0.1-1.5,0.2-1.6c0-0.1,0.7-0.6,1.5-1.1
			s1.6-1.2,1.9-1.6c0.3-0.5,0.7-1.1,1-1.5s0.5-0.7,0.5-0.8c0-0.1-0.5-1.2-1.1-2.3c-0.5-1.2-1-2.5-0.9-3c0-0.1,0.7-0.7,1.5-1.4
			c0.7-0.6,1.5-1.4,1.6-1.7c0-0.1,0.5-1.2,1-2.4c0.5-1.1,0.9-2.3,1-2.4c0.1-0.3,0.2-0.7,0.1-1.1c-0.1-0.4-0.4-0.8-0.9-0.9
			c-0.1,0-0.5-0.1-0.8-0.1c-0.3-0.1-0.6-0.1-0.5-0.1s0.5-0.6,0.6-1.2C190.5,415.3,190.4,414.7,189.8,414.5 M155.2,329.8
			c-0.1,0-1.5,1-2.9,2s-2.8,2-2.9,2c0,0,0.2,1.1,0.4,2.2s0.3,2.3,0.1,2.5c-0.1,0.1-1.2,0.3-2.4,0.1c-1.2-0.2-2.5-0.9-3.1-2.8
			c-0.4-1.7-1.3-2.4-2-2.5c-0.8-0.2-1.4,0.1-1.5,0.3c-0.1,0.4,1.4,5.6,3,10.7s3.3,10.1,3.5,10.2c0.1,0,1.1,0.1,2.2,0.2
			c1,0.1,2.1,0.2,2.2,0.2c0.2,0.1,2.7-1.4,5.2-2.9s5-2.9,5.3-2.8c1.2,0.4,1.2,0.9,1.1,1.5c-0.1,0.5-0.3,1.1,0.5,1.3
			c0.5,0.2,1.3-0.2,2.1-0.7c0.7-0.5,1.4-1,1.5-1.1c0.3-0.1,0.9-0.3,1.5-0.5c0.5-0.2,1-0.4,1-0.5c0.2-0.5-0.3-0.6-0.7-0.7
			s-0.9-0.2-0.7-0.7c0-0.1,0.2-0.4,0.3-0.8s0.2-0.8,0.1-1c-0.1,0-0.5-0.1-0.8-0.1s-0.7,0.1-0.8,0.4c0,0.1-0.1,0.6-0.1,1.1
			s-0.1,0.9-0.1,0.9c-0.8,0.3-1.7,0.3-2.4,0.2c-0.7-0.1-1.3-0.4-1.5-0.4c-0.1,0-1.5-1.3-3-2.6c-1.4-1.3-2.8-2.6-2.8-2.6
			c0.2-0.8,1.5-1.5,2.7-2.1s2.4-1,2.5-1.3c-0.8-1-2.3-3.3-3.7-5.5C157.2,331.9,155.8,329.9,155.2,329.8 M152.6,307.8
			c-0.1,0,0.1,2.1,0.4,4.3c0.2,2.2,0.5,4.4,0.4,4.7c-0.1,0.2-0.3,0.8-0.6,1.4s-0.5,1.1-0.6,1.2c-0.1,0.5-0.1,0.8,0.1,1.2
			c0.2,0.3,0.6,0.5,1.1,0.7c0.1,0,0.5,0.1,0.9,0.1s0.8,0.1,0.9,0.1c0.1,0,1.5,1.1,2.8,2.3c1.3,1.2,2.7,2.4,2.6,2.6
			c0,0.1-0.6,0.6-1.1,1.1s-1,1-1,1.1c0.2,0.7,1.9,3,3.6,5.3c1.7,2.2,3.3,4.3,3.5,4.5c0.4-0.1,1.6-0.6,3-0.9s3-0.6,4.2-0.2
			c0.1,0,0.8,0.1,1.5,0.2s1.4,0.2,1.5,0.2c0.8,0.2,1.9,0.9,2.9,1.5c0.9,0.6,1.7,1.2,1.7,1.2c0.2,0.1,0.9-0.4,1.4-0.9
			c0.6-0.5,1.1-1.1,1.2-1.3c0-0.1-2.8-3.4-5.9-6.9c-3.1-3.5-6.5-7.3-7.6-8.4c-0.9-0.9-4.8-4.6-8.7-8
			C156.8,311.3,153,308,152.6,307.8 M118.1,297.9c-0.1,0-2.1-0.4-4.1-0.9s-4.1-0.9-4.3-1c-0.1,0-3,0.1-6.1,0.3
			c-3.1,0.2-6.3,0.4-7.1,0.5c-0.2,0-2.1,0.2-4.3,0.6c-2.1,0.4-4.5,1-5.6,1.8c0.2,0.2,0.3,0.4,0.4,0.6s0.2,0.4,0.4,0.6l6.5-0.9
			l6.5-0.9c0,0,0.2,0.2,0.5,0.3c0.2,0.2,0.5,0.3,0.5,0.4l1.2,0.3l1.2,0.3c0.3,0.1,0.8,0,1.3-0.1s1-0.2,1.3-0.1
			c0.1,0,0.8,0.6,1.5,1.2c0.8,0.6,1.6,1.2,1.9,1.3c0.8,0.2,1.5,0.3,2.1,0.4c0.5,0.1,0.9,0.1,1,0.1l1,0.3l1,0.3l0.9,0.3l0.9,0.3
			c0.1,0,0.6,0.3,1,0.7c0.4,0.3,0.9,0.6,0.9,0.6c0.2,0.1,0.9-0.1,1.6-0.3c0.7-0.2,1.3-0.5,1.3-0.7c0-0.1,0.1-0.4,0.1-0.8
			c0-0.3,0.1-0.6,0.1-0.7s0.1-0.2,0.2-0.3c0.1-0.1,0.2-0.2,0.3-0.3c-0.6-0.8-1.2-1.5-1.9-2.2C119.6,299.3,118.8,298.6,118.1,297.9
			 M139.9,303c-0.1,0-0.3-0.2-0.5-0.4c-0.2-0.2-0.4-0.3-0.4-0.2c0,0-1.9,1.4-3.7,2.7c-1.8,1.4-3.7,2.8-3.5,2.9
			c0.1,0,0.9,0.7,1.8,1.3c0.9,0.6,1.9,1.3,2.4,1.4l1.6,0.6l1.6,0.6c1.4,0.4,2.9,1.4,4.3,2.3c1.3,0.9,2.5,1.7,3.3,2
			c0.2,0.1,0.8-0.4,1.4-1c0.6-0.5,1.1-1.1,1.1-1.1l0.3-1l0.3-1c0-0.1-0.3-1-0.6-1.9c-0.4-0.9-0.8-1.9-1-2c-1-0.7-2.6-1.9-3.9-2.9
			c-1.3-1-2.4-1.8-2.6-1.9c0,0-0.4,0-0.8-0.1C140.5,303.1,140,303,139.9,303 M128,298.3c-1-0.3-2.9-0.6-4.5-0.7
			c-1.6-0.2-2.9-0.2-2.7-0.2c0.2,0.1,1.5,1.7,3,3.4c1.4,1.7,2.9,3.6,3.4,4.3c0.3,0,1.4-0.4,2.4-1.1c1.1-0.6,2.1-1.5,2.3-2.1l0.2-0.6
			l0.2-0.6c0-0.1-0.7-0.6-1.6-1.1C129.9,299.1,128.8,298.5,128,298.3 M76.9,319.2c0,0.1,0.1,0.3,0.2,0.5s0.3,0.4,0.5,0.4l-0.1,0.2
			l-0.1,0.2l-0.1,0.2l-0.1,0.2l-0.1,0.2l-0.1,0.2l-0.1,0.2l-0.1,0.2l-0.1,0.3l-0.1,0.3l-0.1,0.3l-0.1,0.3l-0.1,0.2l-0.1,0.2
			l-0.1,0.2l-0.1,0.2l-0.1,0.2l-0.1,0.2l-0.1,0.3v0.2v0.2v0.2l-0.1,0.2l-0.1,0.2l-0.1,0.3l-0.1,0.3l-0.1,0.2l-0.1,0.2l-0.1,0.3
			l-0.1,0.3l-0.1,0.3l-0.1,0.3l-0.1,0.2l-0.1,0.2l-0.1,0.3l-0.1,0.3l-0.1,0.3v0.3l-0.1,0.4L74,330v0.7v0.7c-1,3.3-2.1,6.8-3.2,10.2
			c-1.1,3.4-2.2,6.8-3.2,10.1c-0.5,0.4-1,0.8-1.4,1.2c-0.4,0.3-0.6,0.5-0.6,0.6c0,0,0,0.4,0,0.7c0,0.4,0,0.8,0,0.8
			c-0.1,0.2-0.2,0.4-0.4,0.6c-0.2,0.2-0.4,0.4-0.6,0.5c-0.1,0.1-0.3,0.2-0.4,0.3c-0.1,0.1-0.3,0.2-0.4,0.3c0.4-1.6,0.8-4.1,1.1-6.4
			c0.3-2.4,0.4-4.7,0.4-6.1c0-1.7,0.4-4,0.9-6.1s1.1-4.1,1.6-5c0.4-1,0.8-3.7,1.1-6.3c0.3-2.6,0.5-5.1,0.5-5.5
			c0-0.3,0.1-0.6,0.1-0.9s0.1-0.7,0.1-1l0.1-0.1l0.1-0.1c1.3-0.8,2.7-1.6,3.7-2.3c1-0.6,1.7-1,1.8-1.1c0.3-0.2,0.9-0.4,1.5-0.6
			s1.3-0.5,2.1-0.8l-0.2,0.3l-0.2,0.3v0.2v0.2l-0.3,0.5l-0.4,0.5l-0.1,0.1l-0.1,0.1l-0.1,0.1l-0.1,0.1l-0.1,0.4l-0.1,0.4v0.1v0.1
			l-0.1,0.1L77,318l-0.1,0.1l-0.1,0.1l-0.1,0.1l-0.1,0.1c-0.3,0.2-0.6,0.3-0.9,0.5C77.1,318.9,76.9,319.1,76.9,319.2 M63.4,368.1
			c-0.1,0-0.2-0.1-0.3-0.2c-0.1-0.1-0.3-0.2-0.4-0.3v-0.5v-0.5l0.1-0.4v-0.4c0.3-0.1,0.4-0.9,0.5-1.8s0.2-1.8,0.3-2
			c0.2,0,0.3-0.2,0.3-0.4c0.1-0.2,0.1-0.4,0.1-0.4l0.3-0.9l0.3-0.9c0-0.1,0.1-0.3,0.1-0.4s0.1-0.3,0.1-0.4c0.2,0.2,0.4,0.3,0.6,0.5
			s0.5,0.3,0.7,0.5c-0.5,1.7-1,3.2-1.5,4.7C64.1,365.7,63.7,367,63.4,368.1"/>
		<path d="M86,426v0.1v0.1h-0.1h-0.1v0.1v0.1H86h0.2c0-0.1,0.1-0.1,0.1-0.2s0.1-0.1,0.1-0.2h-0.2H86z M84.8,427.4
			c-0.1,0-0.2,0.1-0.3,0.2c-0.1,0.1-0.2,0.2-0.2,0.3l-0.2,0.1l-0.2,0.1h0.3h0.3l0.1-0.1l0.1-0.1v-0.2L84.8,427.4L84.8,427.4z"/>
		<path d="M84.6,427.3L84.6,427.3h0.2c-0.1,0.1-0.2,0.1-0.3,0.2c-0.1,0.1-0.2,0.2-0.1,0.3h-0.2H84c-0.1,0.1-0.2,0.2-0.3,0.3
			c-0.1,0.1-0.2,0.2-0.3,0.3c-0.1,0-0.2,0-0.3,0c-0.1,0-0.1,0.1-0.2,0.2v-0.1v-0.1h0.2h0.2c0-0.1,0.1-0.2,0.2-0.3
			c0.1-0.1,0.2-0.2,0.3-0.3H84h0.2c0-0.1,0-0.2,0.1-0.2C84.5,427.4,84.5,427.4,84.6,427.3"/>
		<path d="M84.6,427.3L84.6,427.3h0.2c-0.1,0.1-0.2,0.1-0.3,0.2c-0.1,0.1-0.2,0.2-0.1,0.3h-0.2H84c-0.1,0.1-0.2,0.2-0.3,0.3
			c-0.1,0.1-0.2,0.2-0.3,0.3c-0.1,0-0.2,0-0.3,0c-0.1,0-0.1,0.1-0.2,0.2v-0.1v-0.1h0.2h0.2c0-0.1,0.1-0.2,0.2-0.3
			c0.1-0.1,0.2-0.2,0.3-0.3H84h0.2c0-0.1,0-0.2,0.1-0.2C84.5,427.4,84.5,427.4,84.6,427.3"/>
		<path d="M84.6,427.3L84.6,427.3h0.2c-0.1,0.1-0.2,0.1-0.3,0.2c-0.1,0.1-0.2,0.2-0.1,0.3h-0.2H84c-0.1,0.1-0.2,0.2-0.3,0.3
			c-0.1,0.1-0.2,0.2-0.3,0.3c-0.1,0-0.2,0-0.3,0c-0.1,0-0.1,0.1-0.2,0.2v-0.1v-0.1h0.2h0.2c0-0.1,0.1-0.2,0.2-0.3
			c0.1-0.1,0.2-0.2,0.3-0.3H84h0.2c0-0.1,0-0.2,0.1-0.2C84.5,427.4,84.5,427.4,84.6,427.3"/>
		<path d="M84.6,427.3L84.6,427.3h0.2c-0.1,0.1-0.2,0.1-0.3,0.2c-0.1,0.1-0.2,0.2-0.1,0.3h-0.2H84c-0.1,0.1-0.2,0.2-0.3,0.3
			c-0.1,0.1-0.2,0.2-0.3,0.3c-0.1,0-0.2,0-0.3,0c-0.1,0-0.1,0.1-0.2,0.2v-0.1v-0.1h0.2h0.2c0-0.1,0.1-0.2,0.2-0.3
			c0.1-0.1,0.2-0.2,0.3-0.3H84h0.2c0-0.1,0-0.2,0.1-0.2C84.5,427.4,84.5,427.4,84.6,427.3"/>
		<path d="M84.6,427.3L84.6,427.3h0.2c-0.1,0.1-0.2,0.1-0.3,0.2c-0.1,0.1-0.2,0.2-0.1,0.3h-0.2H84c-0.1,0.1-0.2,0.2-0.3,0.3
			c-0.1,0.1-0.2,0.2-0.3,0.3c-0.1,0-0.2,0-0.3,0c-0.1,0-0.1,0.1-0.2,0.2v-0.1v-0.1h0.2h0.2c0-0.1,0.1-0.2,0.2-0.3
			c0.1-0.1,0.2-0.2,0.3-0.3H84h0.2c0-0.1,0-0.2,0.1-0.2C84.5,427.4,84.5,427.4,84.6,427.3"/>
		<path d="M84.6,427.3L84.6,427.3h0.2c-0.1,0.1-0.2,0.1-0.3,0.2c-0.1,0.1-0.2,0.2-0.1,0.3h-0.2H84c-0.1,0.1-0.2,0.2-0.3,0.3
			c-0.1,0.1-0.2,0.2-0.3,0.3c-0.1,0-0.2,0-0.3,0c-0.1,0-0.1,0.1-0.2,0.2v-0.1v-0.1h0.2h0.2c0-0.1,0.1-0.2,0.2-0.3
			c0.1-0.1,0.2-0.2,0.3-0.3H84h0.2c0-0.1,0-0.2,0.1-0.2C84.5,427.4,84.5,427.4,84.6,427.3"/>
		<path d="M84.6,427.3L84.6,427.3h0.2c-0.1,0.1-0.2,0.1-0.3,0.2c-0.1,0.1-0.2,0.2-0.1,0.3h-0.2H84c-0.1,0.1-0.2,0.2-0.3,0.3
			c-0.1,0.1-0.2,0.2-0.3,0.3c-0.1,0-0.2,0-0.3,0c-0.1,0-0.1,0.1-0.2,0.2v-0.1v-0.1h0.2h0.2c0-0.1,0.1-0.2,0.2-0.3
			c0.1-0.1,0.2-0.2,0.3-0.3H84h0.2c0-0.1,0-0.2,0.1-0.2C84.5,427.4,84.5,427.4,84.6,427.3"/>
		<path d="M84.6,427.3L84.6,427.3h0.2c-0.1,0.1-0.2,0.1-0.3,0.2c-0.1,0.1-0.2,0.2-0.1,0.3h-0.2H84c-0.1,0.1-0.2,0.2-0.3,0.3
			c-0.1,0.1-0.2,0.2-0.3,0.3c-0.1,0-0.2,0-0.3,0c-0.1,0-0.1,0.1-0.2,0.2v-0.1v-0.1h0.2h0.2c0-0.1,0.1-0.2,0.2-0.3
			c0.1-0.1,0.2-0.2,0.3-0.3H84h0.2c0-0.1,0-0.2,0.1-0.2C84.5,427.4,84.5,427.4,84.6,427.3"/>
		<path d="M83.4,428.2L83.4,428.2l0.2,0.1c-0.1,0-0.1,0-0.1,0.1c0,0,0,0.1-0.1,0.1s-0.1,0-0.2,0s-0.1,0-0.2,0.2v-0.1v-0.1h0.2h0.2
			C83.4,428.4,83.4,428.4,83.4,428.2C83.4,428.3,83.4,428.2,83.4,428.2"/>
		<path d="M83.4,428.2L83.4,428.2l0.2,0.1c-0.1,0-0.1,0-0.1,0.1c0,0,0,0.1-0.1,0.1s-0.1,0-0.2,0s-0.1,0-0.2,0.2v-0.1v-0.1h0.2h0.2
			C83.4,428.4,83.4,428.4,83.4,428.2C83.4,428.3,83.4,428.2,83.4,428.2"/>
		<path d="M83.4,428.2L83.4,428.2l0.2,0.1c-0.1,0-0.1,0-0.1,0.1c0,0,0,0.1-0.1,0.1s-0.1,0-0.2,0s-0.1,0-0.2,0.2v-0.1v-0.1h0.2h0.2
			C83.4,428.4,83.4,428.4,83.4,428.2C83.4,428.3,83.4,428.2,83.4,428.2"/>
		<path d="M83.4,428.2L83.4,428.2l0.2,0.1c-0.1,0-0.1,0-0.1,0.1c0,0,0,0.1-0.1,0.1s-0.1,0-0.2,0s-0.1,0-0.2,0.2v-0.1v-0.1h0.2h0.2
			C83.4,428.4,83.4,428.4,83.4,428.2C83.4,428.3,83.4,428.2,83.4,428.2"/>
		<path d="M83.4,428.2L83.4,428.2l0.2,0.1c-0.1,0-0.1,0-0.1,0.1c0,0,0,0.1-0.1,0.1s-0.1,0-0.2,0s-0.1,0-0.2,0.2v-0.1v-0.1h0.2h0.2
			C83.4,428.4,83.4,428.4,83.4,428.2C83.4,428.3,83.4,428.2,83.4,428.2"/>
		<path d="M83.4,428.2L83.4,428.2l0.2,0.1c-0.1,0-0.1,0-0.1,0.1c0,0,0,0.1-0.1,0.1s-0.1,0-0.2,0s-0.1,0-0.2,0.2v-0.1v-0.1h0.2h0.2
			C83.4,428.4,83.4,428.4,83.4,428.2C83.4,428.3,83.4,428.2,83.4,428.2"/>
		<path d="M83.4,428.2L83.4,428.2l0.2,0.1c-0.1,0-0.1,0-0.1,0.1c0,0,0,0.1-0.1,0.1s-0.1,0-0.2,0s-0.1,0-0.2,0.2v-0.1v-0.1h0.2h0.2
			C83.4,428.4,83.4,428.4,83.4,428.2C83.4,428.3,83.4,428.2,83.4,428.2"/>
		<path d="M83.4,428.2L83.4,428.2l0.2,0.1c-0.1,0-0.1,0-0.1,0.1c0,0,0,0.1-0.1,0.1s-0.1,0-0.2,0s-0.1,0-0.2,0.2v-0.1v-0.1h0.2h0.2
			C83.4,428.4,83.4,428.4,83.4,428.2C83.4,428.3,83.4,428.2,83.4,428.2"/>
		<path d="M83.4,428.2L83.4,428.2l0.2,0.1c-0.1,0-0.1,0-0.1,0.1c0,0,0,0.1-0.1,0.1s-0.1,0-0.2,0s-0.1,0-0.2,0.2v-0.1v-0.1h0.2h0.2
			C83.4,428.4,83.4,428.4,83.4,428.2C83.4,428.3,83.4,428.2,83.4,428.2"/>
		<path d="M83.4,428.2L83.4,428.2l0.2,0.1c-0.1,0-0.1,0-0.1,0.1c0,0,0,0.1-0.1,0.1s-0.1,0-0.2,0s-0.1,0-0.2,0.2v-0.1v-0.1h0.2h0.2
			C83.4,428.4,83.4,428.4,83.4,428.2C83.4,428.3,83.4,428.2,83.4,428.2"/>
		<path d="M83.4,428.2L83.4,428.2l0.2,0.1c-0.1,0-0.1,0-0.1,0.1c0,0,0,0.1-0.1,0.1s-0.1,0-0.2,0s-0.1,0-0.2,0.2v-0.1v-0.1h0.2h0.2
			C83.4,428.4,83.4,428.4,83.4,428.2C83.4,428.3,83.4,428.2,83.4,428.2"/>
		<path d="M83.4,428.2L83.4,428.2l0.2,0.1c-0.1,0-0.1,0-0.1,0.1c0,0,0,0.1-0.1,0.1s-0.1,0-0.2,0s-0.1,0-0.2,0.2v-0.1v-0.1h0.2h0.2
			C83.4,428.4,83.4,428.4,83.4,428.2C83.4,428.3,83.4,428.2,83.4,428.2"/>
		<path d="M83.4,428.2L83.4,428.2l0.2,0.1c-0.1,0-0.1,0-0.1,0.1c0,0,0,0.1-0.1,0.1s-0.1,0-0.2,0s-0.1,0-0.2,0.2v-0.1v-0.1h0.2h0.2
			C83.4,428.4,83.4,428.4,83.4,428.2C83.4,428.3,83.4,428.2,83.4,428.2"/>
		<path d="M83.4,428.2L83.4,428.2l0.2,0.1c-0.1,0-0.1,0-0.1,0.1c0,0,0,0.1-0.1,0.1s-0.1,0-0.2,0s-0.1,0-0.2,0.2v-0.1v-0.1h0.2h0.2
			C83.4,428.4,83.4,428.4,83.4,428.2C83.4,428.3,83.4,428.2,83.4,428.2"/>
		<path d="M83.4,428.2L83.4,428.2l0.2,0.1c-0.1,0-0.1,0-0.1,0.1c0,0,0,0.1-0.1,0.1s-0.1,0-0.2,0s-0.1,0-0.2,0.2v-0.1v-0.1h0.2h0.2
			C83.4,428.4,83.4,428.4,83.4,428.2C83.4,428.3,83.4,428.2,83.4,428.2"/>
		<path d="M83.4,428.2L83.4,428.2l0.2,0.1c-0.1,0-0.1,0-0.1,0.1c0,0,0,0.1-0.1,0.1s-0.1,0-0.2,0s-0.1,0-0.2,0.2v-0.1v-0.1h0.2h0.2
			C83.4,428.4,83.4,428.4,83.4,428.2C83.4,428.3,83.4,428.2,83.4,428.2"/>
		<path d="M83.4,428.2L83.4,428.2l0.2,0.1c-0.1,0-0.1,0-0.1,0.1c0,0,0,0.1-0.1,0.1s-0.1,0-0.2,0s-0.1,0-0.2,0.2v-0.1v-0.1h0.2h0.2
			C83.4,428.4,83.4,428.4,83.4,428.2C83.4,428.3,83.4,428.2,83.4,428.2"/>
		<path d="M83.4,428.2L83.4,428.2l0.2,0.1c-0.1,0-0.1,0-0.1,0.1c0,0,0,0.1-0.1,0.1s-0.1,0-0.2,0s-0.1,0-0.2,0.2v-0.1v-0.1h0.2h0.2
			C83.4,428.4,83.4,428.4,83.4,428.2C83.4,428.3,83.4,428.2,83.4,428.2"/>
		<path d="M83.4,428.2L83.4,428.2l0.2,0.1c-0.1,0-0.1,0-0.1,0.1c0,0,0,0.1-0.1,0.1s-0.1,0-0.2,0s-0.1,0-0.2,0.2v-0.1v-0.1h0.2h0.2
			C83.4,428.4,83.4,428.4,83.4,428.2C83.4,428.3,83.4,428.2,83.4,428.2"/>
		<path d="M95.2,440.8h1.5h1.5c0.1,0,0.2,0.1,0.2,0.2c0.1,0.1,0.1,0.2,0,0.2h-0.3h-0.3c-0.1,0.2-0.2,0.4-0.3,0.6
			c-0.1,0.2-0.3,0.4-0.5,0.5l-0.1,0.4l-0.1,0.4c-0.2,0.1-0.4,0.3-0.6,0.5s-0.4,0.4-0.3,0.7c-0.1,0.2-0.5,0.6-0.7,0.9
			c-0.3,0.4-0.6,0.7-0.6,0.7v0.3v0.3c-0.1,0.1-0.2,0.2-0.3,0.3c-0.1,0.1-0.3,0.1-0.4,0.2c-0.1,0.6-0.8,1.4-1.4,2.1s-1.3,1.4-1.3,1.8
			h-0.1H91l-0.2,0.2l-0.3,0.2v0.2v0.2c-0.1,0.1-0.3,0.3-0.4,0.4c-0.1,0.2-0.2,0.3-0.3,0.5h-0.1h-0.1c-0.2,0.2-0.9,0.8-1.5,1.4
			s-1.1,1.2-1.1,1.5c-0.5,0.4-0.9,0.9-1.4,1.4s-0.9,0.9-1.4,1.3c-0.2,0.2-0.7,0.4-1.1,0.7c-0.4,0.3-0.8,0.5-0.7,0.7
			c-0.4,0.3-0.9,1-1.5,1.7c-0.6,0.6-1.2,1.1-1.7,1.1c-0.4,0.5-0.9,1.1-1.5,1.6s-1.1,1-1.8,1.3c-0.1,0.1-0.2,0.3-0.3,0.5
			c-0.1,0.2-0.2,0.3-0.2,0.5c-0.3,0.2-0.5,0.6-0.8,0.9c-0.2,0.3-0.5,0.6-0.8,0.7h0.1H74c-0.1,0.2-0.2,0.5-0.2,0.8
			c0,0.2,0.1,0.4,0.2,0.4l-0.1,0.3l-0.1,0.3c-0.2,0-0.3,0.2-0.3,0.3c0,0.1,0.1,0.2,0.2,0.1c0,0.1,0,0.7-0.1,1.2s-0.3,1-0.5,0.8
			c0.3,0.3,0.5,0.9,0.5,1.4s-0.1,1-0.5,0.9c0,0.3-0.1,0.7-0.2,1.1c-0.1,0.3-0.2,0.6,0,0.6v0.3v0.3l0.2,0.1l0.2,0.1l0.4,0.5l0.4,0.5
			c0.1,0.9-0.2,1.2-0.3,1.4c-0.1,0.2-0.1,0.3,0.5,0.6v0.3v0.3c0.3,0,0.3,0.2,0.1,0.4c-0.2,0.2-0.5,0.3-0.6,0.3l0.3,0.2l0.3,0.3
			c0.1,0.2-0.2,0.3-0.3,0.5c-0.2,0.2-0.2,0.4,0.3,0.7v0.1v0.1c-0.1,0.1-0.2,0-0.2,0.1c-0.1,0-0.2,0.1-0.2,0.5c0,0.2,0.1,0.6,0.1,0.9
			s0,0.6-0.3,0.6l0.2,0.1l0.2,0.1c0.1,0.1,0,0.2-0.1,0.3c-0.1,0.1-0.3,0.2-0.3,0.2c0,0.6,0.2,1.1,0.4,1.6c0.2,0.5,0.3,1,0.3,1.8
			c-0.2,0-0.2,0-0.2,0.1s0.1,0.2,0.2,0.1c0,0.3-1.2,1-4.6,1.6s-9,1-17.7,0.8c-0.6,0-1.1-0.1-1.4-0.1c-0.4,0-0.6,0-0.6,0l-0.1-0.3
			l-0.1-0.3h-0.5H49c0,0-0.3,0.1-0.5,0.2s-0.5,0.1-0.5,0.1c-0.3,0-0.5,0-0.7-0.1c-0.2,0-0.4-0.1-0.7-0.2v-0.5V490
			c0.9,0.1,1.2-0.1,1.1-0.5c0-0.4-0.4-0.8-0.7-1.1v-0.3v-0.3c0.1,0,0.4-0.1,0.7-0.2c0.2-0.1,0.5-0.2,0.5-0.5l-0.2-0.2l-0.2-0.2
			c-0.3,0.1-0.4,0-0.4-0.1s0.1-0.2,0.2-0.1l0.5-0.6l0.5-0.6c0.1-0.1,0.2-0.1,0.3,0s0.3,0.2,0.4,0.2v0.1v0.1c0.2-0.1,0.7,0,1-0.1
			c0.4,0,0.6-0.1,0.3-0.4H51h0.4V485v-0.2h-0.5h-0.5v-0.5v-0.5l0.2-0.2l0.2-0.2H51h0.2v0.1v0.1H52h0.8l0.1-0.1l0.1-0.1V483v-0.4
			c-0.3,0.3-0.4,0.1-0.4-0.1c-0.1-0.2-0.1-0.5-0.2-0.3v0.1v0.1h-0.3h-0.3c0.1,0.1-0.1,0.4-0.3,0.6s-0.5,0.4-0.6,0.3V483v-0.3h-0.3
			h-0.3c0-0.2-0.2-0.2-0.5-0.1s-0.7,0.2-0.8,0.1c-0.2-0.1-0.4-0.3-0.6-0.6c-0.2-0.3-0.3-0.5-0.2-0.8h0.1h0.1v0.1v0.1
			c0.1,0.1,0.1,0,0.2,0s0.1-0.1,0.1-0.2c0.4-0.1,0.8-0.2,1.1-0.3c0.4-0.1,0.8-0.2,1.1-0.1c0.1,0,0.1-0.1,0.1-0.3
			c0-0.2,0-0.4,0.1-0.7c0.4-0.1,0.8-0.3,1.1-0.6c0.3-0.3,0.7-0.6,1-0.8c0-0.1,0-0.2,0-0.4c0-0.1,0.1-0.2,0.2-0.3h0.3H54v0.1v0.1
			c0.4,0,0.7-0.1,1-0.3c0.3-0.1,0.6-0.2,1-0.2c0.3,0,0.8,0.3,1.1,0.5c0.4,0.2,0.7,0.4,1,0.4c0.4-0.1,0.7-0.3,0.9-0.6
			c0.3-0.2,0.5-0.5,0.9-0.6s0.9-0.1,1.3-0.1c0.4,0,0.6-0.1,0.5-0.4h0.5h0.5c-0.1,0.2,0,0,0.3-0.3c0.2-0.3,0.6-0.7,0.8-0.6
			c0.3-0.6,0.7-0.9,1-1.1s0.6-0.3,0.7-0.5V474v-0.3c0.1-0.1,0.3-0.3,0.5-0.5s0.4-0.3,0.6-0.2l0.1-0.2l0.1-0.2c0,0,0.1,0,0.2,0
			s0.1-0.1,0-0.2l-0.5-0.5l-0.5-0.5c-0.1-0.1-0.1,0-0.2,0c0,0.1-0.1,0.1-0.1,0.2c-0.1,0.2-0.2,0.4-0.3,0.5c-0.1,0.1-0.3,0.2-0.6,0.2
			c-0.5,0.6-0.9,0.9-1.3,1.1s-0.8,0.4-1.1,0.8h-0.3h-0.3c-0.2,0.4-0.6,0.6-1,0.8c-0.4,0.1-0.9,0.2-1.3,0.1c0.1,0.2,0,0.2-0.2,0.2
			c-0.1,0-0.2-0.1-0.1-0.2c-0.2,0.1-1.2,0.3-2.2,0.4s-2,0.3-2.2,0.2v-0.1v-0.1c-0.3,0.2-1.6,0.1-2.9,0c-1.3-0.1-2.7-0.3-3-0.3
			c0.1,0.2-0.1,0.2-0.2,0.2c-0.1,0-0.2-0.1-0.1-0.2c-0.3,0.2-0.6,0.2-0.9,0.2c-0.3,0-0.6-0.1-0.9-0.2c-0.1,0-0.3-0.1-0.5-0.1
			c-0.2-0.1-0.3-0.2-0.2-0.3c-0.2,0.1-0.4,0.1-0.7,0.2c-0.2,0-0.5,0-0.7,0c0.1-0.2,0-0.2-0.2-0.1c-0.1,0-0.3,0.1-0.3,0.1
			c-0.4-0.3-1.1-0.7-1.8-1s-1.5-0.5-2-0.3c-0.2-0.3-0.5-0.4-0.9-0.5s-0.7-0.1-1.1-0.1l-0.2,0.1l-0.2,0.1h-0.3h-0.3
			c0.1,0.1-0.1,0.2-0.3,0.3c-0.2,0.1-0.4,0.1-0.4-0.1c-0.1-0.2-0.1-0.5,0-0.9c0.1-0.3,0.2-0.7,0.4-0.7c0.4,0,0.8-0.1,1.2-0.2
			s0.7-0.1,0.9,0.2c0.1,0.1,0.3,0.1,0.5,0c0.2,0,0.3-0.1,0.2,0c0.5-0.3,0.6-0.2,0.7-0.1c0.1,0.1,0.1,0.2,0.4,0.1l0.1,0.3l0.1,0.3
			c0.1,0,0.2,0.1,0.4,0.2c0.1,0.1,0.2,0.1,0.2,0h0.5h0.5c-0.1,0.3,0,0.2,0.2,0.1s0.4-0.2,0.5,0.1l0.4,0.1l0.4,0.1
			c-0.1,0.2,0,0.2,0.2,0.1c0.1-0.1,0.3-0.2,0.3-0.1c0.2,0.2,0.4,0.3,0.6,0.4c0.2,0,0.4,0,0.5-0.1c0,0,0.2,0.1,0.3,0.2
			s0.2,0.1,0.2-0.2c0.4,0,0.8,0,1.1,0.1c0.4,0.1,0.8,0.1,1.1,0.2v0.1v0.1c0.4-0.2,0.8-0.2,1.2-0.1s0.9,0.2,1.3,0.2v-0.1v-0.1
			c0.4,0,0.8,0,1.3,0c0.4,0,0.8,0.1,1.2,0.2c-0.1-0.1,0-0.2,0.1-0.2s0.3,0,0.4,0v0.1v0.1l0.2-0.1l0.2-0.1c0,0,0.1,0,0.2,0
			c0.1,0,0.1,0.1,0,0.1c0.3-0.1,0.6-0.1,0.8-0.1s0.4,0,0.3-0.1h0.3h0.3l0.1-0.1l0.1-0.1l0.2,0.2l0.2,0.2l0.4-0.4l0.4-0.4
			c0.1-0.1,0.3-0.2,0.5-0.2c0.2-0.1,0.3-0.1,0.2,0v-0.2v-0.2c0.2-0.1,0.7-0.5,1.1-0.9c0.4-0.4,0.8-0.7,0.7-0.9l0.2-0.2l0.2-0.2
			c0.1,0,0.1,0,0.2,0c0.1,0,0.1,0.1,0,0.2c0.5,0,0.9-0.2,1.4-0.4c0.5-0.2,0.9-0.3,1.4-0.3l0.1-0.2l0.1-0.2c0.2-0.1,0.5-0.2,0.8-0.3
			c0.3-0.1,0.6-0.2,0.7-0.2l0.6-0.6l0.6-0.6v-0.1v-0.1l-0.2-0.1l-0.2-0.1c-0.1-0.1,0-0.1,0.1-0.2s0.2-0.2,0.1-0.4
			c0.4,0,1.2-0.2,1.8-0.4c0.7-0.2,1.3-0.4,1.4-0.3l0.4-0.4l0.4-0.4v-0.3v-0.3c0.3-0.7,0.7-1.2,1-1.8c0.4-0.6,0.7-1.2,0.9-1.9
			c0.1-0.3,0.3-0.8,0.4-1.2c0.2-0.4,0.4-0.8,0.6-1h0.1h0.1V458v-0.3c0.2-0.3,0.3-0.3,0.4-0.4s0.3-0.2,0.6-0.7
			c0.1-0.1,0.3-0.2,0.5-0.2s0.3,0,0.4,0.2v0.3v0.3c0,0,0.1,0.1,0.2,0.1c0.1,0.1,0.1,0.1,0,0.2h-0.1h-0.1v0.1v0.1l0.2,0.1l0.2,0.1
			c0.1,0.1,0,0.2-0.1,0.2s-0.2,0.1-0.1,0.2c0,0,0.1,0.5,0.2,1s0,1-0.2,1l0.3,0.2l0.3,0.3h0.1h0.1l0.4-0.6l0.4-0.6
			c0.1,0,0.3,0,0.5-0.1s0.3-0.2,0.2-0.4l-0.1-0.1l-0.1-0.1h0.2h0.2c-0.1-0.2-0.2-0.4-0.2-0.6s0-0.4,0-0.6c0.2,0.1,0.1-0.1,0.1-0.4
			c0-0.2,0-0.6,0.4-0.8c0.2-0.1,0.9-0.6,1.5-1.2c0.6-0.5,1.1-1.1,1.1-1.3c0.2-0.3,1.2-1.2,2.3-2c1.1-0.8,2.2-1.6,2.5-1.5
			c0.1-0.1,0.3-0.3,0.3-0.5c0.1-0.2,0.1-0.4,0.2-0.6c0.2,0.1,0.2,0,0.1-0.2c-0.1-0.1-0.2-0.3-0.2-0.3l0.2-0.2l0.2-0.2h0.3h0.3
			c0.1-0.1,0-0.1,0-0.2c-0.1,0-0.2,0-0.2-0.1c-0.1-0.1,0-0.2,0.2-0.3c0.2-0.1,0.4-0.2,0.5-0.1c0.1-0.1,0.2-0.3,0.3-0.4
			c0.1-0.2,0.2-0.3,0.2-0.5c0.1,0,0.1,0,0.1,0.1s0.1,0.1,0.1,0.2l0.6-0.6l0.6-0.6h0.1h0.1c0.2-0.3,0.4-0.6,0.6-0.9s0.5-0.5,0.8-0.7
			c0-0.3,0.1-0.6,0.2-0.9s0.2-0.6,0.3-0.9c0.8,0,1.3-0.4,1.7-0.8C94.3,441.7,94.7,441.2,95.2,440.8 M54.7,479.3
			c-0.1,0-0.1,0.1-0.2,0.2c-0.1,0.1-0.1,0.2-0.1,0.2h-0.2H54v0.1v0.1h0.1h0.1v0.1v0.1h-0.1H54v0.1v0.1h0.5H55c0-0.1,0-0.1,0.1-0.2
			c0,0,0.1-0.1,0.2-0.1c0-0.1,0.1-0.1,0.1-0.2c0,0,0.1-0.1,0.2-0.1v-0.2v-0.2l-0.1-0.1l-0.1-0.1h-0.2h-0.5V479.3z M51.5,480.5v0.4
			v0.4l0.1,0.1l0.1,0.1h0.4h0.3c-0.2-0.3,0.1-0.5,0.3-0.7c0.3-0.2,0.6-0.3,0.6-0.4v-0.3v-0.3h-0.1h-0.1c0,0,0,0.2,0,0.3
			c0,0.1,0,0.2-0.2,0.1s-0.4-0.3-0.6-0.4c-0.2-0.1-0.4-0.1-0.6,0.2c0,0,0,0.1,0,0.2s0,0.2,0,0.2h-0.1L51.5,480.5L51.5,480.5z
			 M54.7,480.9L54.7,480.9v0.2c-0.1,0-0.2,0.1-0.3,0.2s-0.1,0.2-0.2,0.3h-0.1H54v0.2v0.2h0.1h0.1v0.1v0.1H54h-0.2v0.6v0.6H54h0.2
			c0-0.2,0.1-0.3,0.2-0.3c0.1,0,0.3,0.1,0.4,0c0-0.1,0-0.2,0.2-0.2c0.1,0,0.2,0,0.3,0v-0.2v-0.2h0.1h0.1v-0.2v-0.2l-0.1-0.1
			l-0.1-0.1h-0.2h-0.2v-0.5v-0.5h-0.1H54.7z M56.8,481.4v0.1v0.1h-0.2h-0.2v0.1v0.1h0.1h0.1v0.1v0.1h-0.1h-0.1v0.1v0.1
			c0.2,0,0.2,0,0.2,0.1s0,0.2,0,0.3H57h0.4c0-0.1,0-0.2,0-0.3c0-0.1,0-0.2,0-0.3h0h0.1v-0.2v-0.2h0.1h0.1v-0.1v-0.1h-0.2h-0.2v0.1
			v0.1h-0.1h-0.1v-0.1v-0.1H57L56.8,481.4L56.8,481.4z M56.5,483.9c0,0.1,0,0.2,0,0.2c0,0.1,0,0.2,0,0.2h-0.1l0,0v0.1v0.1
			c0.1,0.1,0.2,0.1,0.3,0.2s0.2,0.2,0.2,0.3H57h0.1c0-0.1,0-0.2,0-0.3c0-0.1,0-0.2,0-0.3h0.1h0.1v-0.2V484h-0.4h-0.4V483.9z
			 M54.3,484.1v0.1v0.1h-0.2h-0.2v0.1v0.1H54h0.1v0.1v0.1H54h-0.1v0.3v0.3l0.1,0.1l0.1,0.1h0.1h0.1c0-0.1,0-0.2,0-0.2
			c0-0.1,0-0.2,0-0.2h0.2h0.2l0.1-0.1l0.1-0.1v-0.4v-0.4h-0.3H54.3z M51.5,484.6v0.1v0.1h-0.1h-0.1v0.1v0.1c0.1,0.1,0.1,0.1,0.2,0.2
			c0.1,0.1,0.2,0.1,0.2,0.1v0.2v0.2c0.1,0,0.1,0,0.2,0.1c0.1,0,0.1,0.1,0.1,0.2h0.1h0.1c0-0.1,0-0.2,0-0.3c0-0.1,0.1-0.2,0.2-0.2
			c0-0.1,0.1-0.1,0.1-0.2c0,0,0.1-0.1,0.2-0.1v-0.3v-0.3h-0.6L51.5,484.6L51.5,484.6z M54,485.9c0,0.1,0,0.2,0,0.2
			c0,0.1,0,0.2,0,0.2h-0.1h-0.1v0.2v0.2h-0.1h-0.1v0.2v0.2c0.2,0,0.2,0.2,0.2,0.3c0,0.1,0,0.3,0,0.4h-0.1h-0.1v0.6v0.6h-0.1h-0.1
			v0.1v0.1h0.3H54c0-0.1,0-0.1,0-0.2c0,0,0.1-0.1,0.2-0.1c0-0.1,0.1-0.1,0.1-0.2c0,0,0.1-0.1,0.2-0.1v-0.2v-0.2h0.1h0.1v-0.1V488
			c-0.1-0.1-0.2-0.2-0.3-0.3c-0.1-0.1-0.3-0.2-0.4-0.2v-0.1v-0.1c0.2-0.1,0.2-0.2,0.3-0.2c0.1-0.1,0.2-0.1,0.4-0.1v-0.3v-0.3
			c0-0.1-0.1-0.1-0.2-0.2c-0.1-0.1-0.2-0.1-0.2-0.1V486v-0.1h0.1h0.1v0.1v-0.1h-0.2H54z M56.4,486.2v0.1v0.1h-0.1h-0.1v0.2v0.2h0.2
			h0.2c0-0.1,0-0.2,0-0.2c0-0.1,0-0.2,0-0.2h0.1h0.1v-0.1v-0.1h-0.2H56.4z M49.7,486.6v0.1v0.1h-0.3h-0.2c0,0.1,0,0.2-0.1,0.2
			s-0.2,0-0.3,0v0.1v0.1c0.1,0.1,0.1,0.1,0.2,0.2c0.1,0.1,0.2,0.1,0.2,0.1c0,0.1,0,0.2,0,0.3c0,0.1,0,0.2,0,0.3h-0.1H49v0.4v0.4
			h-0.1h-0.1v0.1v0.1h-0.2h-0.2v0.1v0.1c0.1,0,0.2,0,0.2,0c0.1,0,0.2,0,0.2,0v0.2v0.2h0.3h0.3c0-0.2,0.1-0.2,0.3-0.2s0.4,0,0.6-0.2
			v-0.2v-0.2l-0.1-0.1l-0.1-0.1H50h-0.1v0.1v0.1h-0.1h-0.1v0.1v-0.1h0.1h0.1v-0.2v-0.2c-0.1,0-0.2,0-0.2,0c-0.1,0-0.2,0-0.2,0v-0.2
			V488c0.1,0,0.2-0.1,0.3-0.2s0.1-0.2,0.2-0.3h0.1h0.1v-0.2v-0.2c-0.2,0-0.2,0-0.3-0.1c0-0.1,0-0.2,0-0.3h-0.1L49.7,486.6
			L49.7,486.6z M51,487.1v0.1v0.1l0.1,0.1l0.1,0.1h0.3h0.3l0.1-0.1l0.1-0.1v-0.1v-0.1h-0.6H51z M55.9,487.7v0.1v0.1L56,488l0.1,0.1
			h0.1h0.1c0-0.2,0-0.2,0.1-0.3c0.1,0,0.2,0,0.3,0v-0.1v-0.1h-0.4L55.9,487.7L55.9,487.7z M51.3,488.4v0.1v0.1h-0.1h-0.1v0.3v0.3H51
			h-0.1v0.2v0.2l0.1,0.1l0.1,0.1h0.2h0.2c0-0.2,0-0.2,0.1-0.3c0.1,0,0.2,0,0.3,0l0.1-0.1l0.1-0.1v-0.2v-0.2c-0.2,0-0.2,0-0.2-0.1
			s0-0.3,0-0.3H52h0.1v-0.1v-0.1h-0.5h-0.3V488.4z M53.3,490.5v0.1v0.1h-0.1h-0.1v0.1v0.1h0.1h0.1v0.1v0.1h-0.1h-0.1v0.1v0.1
			c0.1,0,0.2,0,0.2,0c0.1,0,0.2,0,0.2,0v0.1v0.1h0.1h0.1c0-0.2,0-0.2,0.1-0.3c0.1,0,0.2,0,0.3,0l0.1-0.1l0.1-0.1v-0.3v-0.3h-0.6
			L53.3,490.5L53.3,490.5z M58.7,490.5c-0.1,0.1-0.1,0.1-0.2,0.2c-0.1,0.1-0.1,0.2-0.1,0.2h-0.2H58c0,0.1-0.1,0.1-0.1,0.2
			c0,0-0.1,0.1-0.2,0.1v0.1v0.1h0.2h0.2c0-0.2,0-0.2,0.1-0.3c0.1,0,0.2,0,0.3,0l0.1-0.1l0.1-0.1v-0.2L58.7,490.5l-0.1,0L58.7,490.5
			L58.7,490.5z"/>
		<path d="M95,441L95,441h0.2v0.1v0.1h-0.1H95v0.2v0.2h-0.1h-0.1c0,0.1-0.1,0.2-0.1,0.2c-0.1,0.1-0.1,0.1-0.2,0.2
			c-0.1,0-0.1,0-0.2,0.1c0,0-0.1,0.1-0.1,0.2h-0.1H94v-0.1v-0.1c0.1,0,0.2-0.1,0.3-0.2c0.1-0.1,0.2-0.2,0.2-0.3
			c0.2,0,0.2-0.1,0.2-0.2s0-0.2,0-0.3h0.1h0.1L95,441L95,441z"/>
		<path d="M94.3,446L94.3,446h0.2v0.2v0.2c-0.1,0-0.1,0.1-0.2,0.1l-0.1,0.1h-0.1H94v-0.1v-0.1h0.1h0.1c0-0.1,0-0.1,0-0.2
			C94.3,446.2,94.3,446.1,94.3,446"/>
		<path d="M94.5,441.7L94.5,441.7h0.2v0.1v0.1c-0.1,0-0.1,0-0.2,0.1c0,0.1-0.1,0.1-0.1,0.2c-0.1,0-0.1,0-0.2,0.1
			c0,0-0.1,0.1-0.1,0.2H94h-0.1v-0.1v-0.1c0.1,0,0.2-0.1,0.3-0.2C94.4,441.9,94.5,441.7,94.5,441.7"/>
		<path d="M94.5,441.7L94.5,441.7h0.2v0.1v0.1c-0.1,0-0.1,0-0.2,0.1c0,0.1-0.1,0.1-0.1,0.2c-0.1,0-0.1,0-0.2,0.1
			c0,0-0.1,0.1-0.1,0.2H94h-0.1v-0.1v-0.1c0.1,0,0.2-0.1,0.3-0.2C94.4,441.9,94.5,441.7,94.5,441.7"/>
		<path d="M94.5,441.7L94.5,441.7h0.2v0.1v0.1c-0.1,0-0.1,0-0.2,0.1c0,0.1-0.1,0.1-0.1,0.2c-0.1,0-0.1,0-0.2,0.1
			c0,0-0.1,0.1-0.1,0.2H94h-0.1v-0.1v-0.1c0.1,0,0.2-0.1,0.3-0.2C94.4,441.9,94.5,441.7,94.5,441.7"/>
		<path d="M95.4,440.1L95.4,440.1h0.2v0.3v0.3h-0.1h-0.1c0.4,0.1,1,0,1.6,0s1.1,0,1.4,0.2v0.1v0.1h-0.3h-0.3
			c-0.2,0.2-0.3,0.4-0.4,0.6s-0.2,0.4-0.7,0.7v0.3v0.3h-0.2h-0.1v0.2v0.2c-0.1,0-0.2,0.1-0.2,0.1c-0.1,0.1-0.1,0.1-0.2,0.2v0.3v0.3
			h-0.2h-0.4v0.3v0.3h-0.2H95v0.2v0.2c-0.1,0.1-0.1,0.1-0.2,0.2c-0.1,0-0.1,0.1-0.2,0.1v-1.9V442c0.2-0.2,0.1-0.3,0.1-0.5
			s0.1-0.4,0.7-0.7v-0.3L95.4,440.1z"/>
		<path d="M95.4,440.1L95.4,440.1h0.2v0.3v0.3h-0.1h-0.1c0.4,0.1,1,0,1.6,0s1.1,0,1.4,0.2v0.1v0.1h-0.3h-0.3
			c-0.2,0.2-0.3,0.4-0.4,0.6s-0.2,0.4-0.7,0.7v0.3v0.3h-0.2h-0.1v0.2v0.2c-0.1,0-0.2,0.1-0.2,0.1c-0.1,0.1-0.1,0.1-0.2,0.2v0.3v0.3
			h-0.2h-0.4v0.3v0.3h-0.2H95v0.2v0.2c-0.1,0.1-0.1,0.1-0.2,0.2c-0.1,0-0.1,0.1-0.2,0.1v-1.9V442c0.2-0.2,0.1-0.3,0.1-0.5
			s0.1-0.4,0.7-0.7v-0.3L95.4,440.1z"/>
		<path d="M95.4,440.1L95.4,440.1h0.2v0.3v0.3h-0.1h-0.1c0.4,0.1,1,0,1.6,0s1.1,0,1.4,0.2v0.1v0.1h-0.3h-0.3
			c-0.2,0.2-0.3,0.4-0.4,0.6s-0.2,0.4-0.7,0.7v0.3v0.3h-0.2h-0.1v0.2v0.2c-0.1,0-0.2,0.1-0.2,0.1c-0.1,0.1-0.1,0.1-0.2,0.2v0.3v0.3
			h-0.2h-0.4v0.3v0.3h-0.2H95v0.2v0.2c-0.1,0.1-0.1,0.1-0.2,0.2c-0.1,0-0.1,0.1-0.2,0.1v-1.9V442c0.2-0.2,0.1-0.3,0.1-0.5
			s0.1-0.4,0.7-0.7v-0.3L95.4,440.1z"/>
		<path d="M95.4,440.1L95.4,440.1h0.2v0.3v0.3h-0.1h-0.1c0.4,0.1,1,0,1.6,0s1.1,0,1.4,0.2v0.1v0.1h-0.3h-0.3
			c-0.2,0.2-0.3,0.4-0.4,0.6s-0.2,0.4-0.7,0.7v0.3v0.3h-0.2h-0.1v0.2v0.2c-0.1,0-0.2,0.1-0.2,0.1c-0.1,0.1-0.1,0.1-0.2,0.2v0.3v0.3
			h-0.2h-0.4v0.3v0.3h-0.2H95v0.2v0.2c-0.1,0.1-0.1,0.1-0.2,0.2c-0.1,0-0.1,0.1-0.2,0.1v-1.9V442c0.2-0.2,0.1-0.3,0.1-0.5
			s0.1-0.4,0.7-0.7v-0.3L95.4,440.1z"/>
		<path d="M95.4,440.1L95.4,440.1h0.2v0.3v0.3h-0.1h-0.1c0.4,0.1,1,0,1.6,0s1.1,0,1.4,0.2v0.1v0.1h-0.3h-0.3
			c-0.2,0.2-0.3,0.4-0.4,0.6s-0.2,0.4-0.7,0.7v0.3v0.3h-0.2h-0.1v0.2v0.2c-0.1,0-0.2,0.1-0.2,0.1c-0.1,0.1-0.1,0.1-0.2,0.2v0.3v0.3
			h-0.2h-0.4v0.3v0.3h-0.2H95v0.2v0.2c-0.1,0.1-0.1,0.1-0.2,0.2c-0.1,0-0.1,0.1-0.2,0.1v-1.9V442c0.2-0.2,0.1-0.3,0.1-0.5
			s0.1-0.4,0.7-0.7v-0.3L95.4,440.1z"/>
		<polygon points="95.5,440.1 95.4,440.1 95.4,440.4 95.4,440.8 95.5,440.8 95.7,440.8 95.7,440.4 95.7,440.1 		"/>
		<path d="M95.4,440.8c0.2,0,0.9,0,1.6,0s1.3,0.1,1.4,0.2v0.1v0.1h-0.3h-0.3c-0.2,0.2-0.3,0.4-0.4,0.6s-0.2,0.4-0.7,0.7v0.3v0.3
			h-0.2h-0.1v0.2v0.2c-0.1,0-0.2,0.1-0.2,0.1c-0.1,0.1-0.1,0.1-0.2,0.2v0.3v0.3h-0.2h-0.4v0.3v0.3h-0.2H95v0.2v0.2
			c-0.1,0.1-0.1,0.1-0.2,0.2c-0.1,0-0.1,0.1-0.2,0.1v-1.9V442c0.2-0.2,0.1-0.4,0.2-0.6c0-0.2,0.1-0.4,0.7-0.3v-0.3H95.4z"/>
		<polygon points="95.5,440.1 95.4,440.1 95.4,440.4 95.4,440.8 95.5,440.8 95.7,440.8 95.7,440.4 95.7,440.1 		"/>
		<path d="M95.4,440.8c0.2,0,0.9,0,1.6,0s1.3,0.1,1.4,0.2v0.1v0.1h-0.3h-0.3c-0.2,0.2-0.3,0.4-0.4,0.6s-0.2,0.4-0.7,0.7v0.3v0.3
			h-0.2h-0.1v0.2v0.2c-0.1,0-0.2,0.1-0.2,0.1c-0.1,0.1-0.1,0.1-0.2,0.2v0.3v0.3h-0.2h-0.4v0.3v0.3h-0.2H95v0.2v0.2
			c-0.1,0.1-0.1,0.1-0.2,0.2c-0.1,0-0.1,0.1-0.2,0.1v-1.9V442c0.2-0.2,0.1-0.4,0.2-0.6c0-0.2,0.1-0.4,0.7-0.3v-0.3H95.4z"/>
		<path d="M95.4,440.8c0.2,0,0.9,0,1.6,0s1.3,0.1,1.4,0.2v0.1v0.1h-0.3h-0.3c-0.2,0.2-0.3,0.4-0.4,0.6s-0.2,0.4-0.7,0.7v0.3v0.3
			h-0.2h-0.1v0.2v0.2c-0.1,0-0.2,0.1-0.2,0.1c-0.1,0.1-0.1,0.1-0.2,0.2v0.3v0.3h-0.2h-0.4v0.3v0.3h-0.2H95v0.2v0.2
			c-0.1,0.1-0.1,0.1-0.2,0.2c-0.1,0-0.1,0.1-0.2,0.1v-1.9V442c0.2-0.2,0.1-0.4,0.2-0.6c0-0.2,0.1-0.4,0.7-0.3v-0.3H95.4z"/>
		<path d="M95.4,440.8c0.2,0,0.9,0,1.6,0s1.3,0.1,1.4,0.2v0.1v0.1h-0.3h-0.3c-0.2,0.2-0.3,0.4-0.4,0.6s-0.2,0.4-0.7,0.7v0.3v0.3
			h-0.2h-0.1v0.2v0.2c-0.1,0-0.2,0.1-0.2,0.1c-0.1,0.1-0.1,0.1-0.2,0.2v0.3v0.3h-0.2h-0.4v0.3v0.3h-0.2H95v0.2v0.2
			c-0.1,0.1-0.1,0.1-0.2,0.2c-0.1,0-0.1,0.1-0.2,0.1v-1.9V442c0.2-0.2,0.1-0.4,0.2-0.6c0-0.2,0.1-0.4,0.7-0.3v-0.3H95.4z"/>
		<path d="M95.4,440.8c0.2,0,0.9,0,1.6,0s1.3,0.1,1.4,0.2v0.1v0.1h-0.3h-0.3c-0.2,0.2-0.3,0.4-0.4,0.6s-0.2,0.4-0.7,0.7v0.3v0.3
			h-0.2h-0.1v0.2v0.2c-0.1,0-0.2,0.1-0.2,0.1c-0.1,0.1-0.1,0.1-0.2,0.2v0.3v0.3h-0.2h-0.4v0.3v0.3h-0.2H95v0.2v0.2
			c-0.1,0.1-0.1,0.1-0.2,0.2c-0.1,0-0.1,0.1-0.2,0.1v-1.9V442c0.2-0.2,0.1-0.4,0.2-0.6c0-0.2,0.1-0.4,0.7-0.3v-0.3H95.4z"/>
		<path d="M95.4,440.8c0.2,0,0.9,0,1.6,0s1.3,0.1,1.4,0.2v0.1v0.1h-0.3h-0.3c-0.2,0.2-0.3,0.4-0.4,0.6s-0.2,0.4-0.7,0.7v0.3v0.3
			h-0.2h-0.1v0.2v0.2c-0.1,0-0.2,0.1-0.2,0.1c-0.1,0.1-0.1,0.1-0.2,0.2v0.3v0.3h-0.2h-0.4v0.3v0.3h-0.2H95v0.2v0.2
			c-0.1,0.1-0.1,0.1-0.2,0.2c-0.1,0-0.1,0.1-0.2,0.1v-1.9V442c0.2-0.2,0.1-0.4,0.2-0.6c0-0.2,0.1-0.4,0.7-0.3v-0.3H95.4z"/>
		<path d="M95.4,440.8c0.2,0,0.9,0,1.6,0s1.3,0.1,1.4,0.2v0.1v0.1h-0.3h-0.3c-0.2,0.2-0.3,0.4-0.4,0.6s-0.2,0.4-0.7,0.7v0.3v0.3
			h-0.2h-0.1v0.2v0.2c-0.1,0-0.2,0.1-0.2,0.1c-0.1,0.1-0.1,0.1-0.2,0.2v0.3v0.3h-0.2h-0.4v0.3v0.3h-0.2H95v0.2v0.2
			c-0.1,0.1-0.1,0.1-0.2,0.2c-0.1,0-0.1,0.1-0.2,0.1v-1.9V442c0.2-0.2,0.1-0.4,0.2-0.6c0-0.2,0.1-0.4,0.7-0.3v-0.3H95.4z"/>
		<path d="M95.4,440.8c0.2,0,0.9,0,1.6,0s1.3,0.1,1.4,0.2v0.1v0.1h-0.3h-0.3c-0.2,0.2-0.3,0.4-0.4,0.6s-0.2,0.4-0.7,0.7v0.3v0.3
			h-0.2h-0.1v0.2v0.2c-0.1,0-0.2,0.1-0.2,0.1c-0.1,0.1-0.1,0.1-0.2,0.2v0.3v0.3h-0.2h-0.4v0.3v0.3h-0.2H95v0.2v0.2
			c-0.1,0.1-0.1,0.1-0.2,0.2c-0.1,0-0.1,0.1-0.2,0.1v-1.9V442c0.2-0.2,0.1-0.4,0.2-0.6c0-0.2,0.1-0.4,0.7-0.3v-0.3H95.4z"/>
		<path d="M95.4,440.8c0.2,0,0.9,0,1.6,0s1.3,0.1,1.4,0.2v0.1v0.1h-0.3h-0.3c-0.2,0.2-0.3,0.4-0.4,0.6s-0.2,0.4-0.7,0.7v0.3v0.3
			h-0.2h-0.1v0.2v0.2c-0.1,0-0.2,0.1-0.2,0.1c-0.1,0.1-0.1,0.1-0.2,0.2v0.3v0.3h-0.2h-0.4v0.3v0.3h-0.2H95v0.2v0.2
			c-0.1,0.1-0.1,0.1-0.2,0.2c-0.1,0-0.1,0.1-0.2,0.1v-1.9V442c0.2-0.2,0.1-0.4,0.2-0.6c0-0.2,0.1-0.4,0.7-0.3v-0.3H95.4z"/>
		<path d="M95.4,440.8c0.2,0,0.9,0,1.6,0s1.3,0.1,1.4,0.2v0.1v0.1h-0.3h-0.3c-0.2,0.2-0.3,0.4-0.4,0.6s-0.2,0.4-0.7,0.7v0.3v0.3
			h-0.2h-0.1v0.2v0.2c-0.1,0-0.2,0.1-0.2,0.1c-0.1,0.1-0.1,0.1-0.2,0.2v0.3v0.3h-0.2h-0.4v0.3v0.3h-0.2H95v0.2v0.2
			c-0.1,0.1-0.1,0.1-0.2,0.2c-0.1,0-0.1,0.1-0.2,0.1v-1.9V442c0.2-0.2,0.1-0.4,0.2-0.6c0-0.2,0.1-0.4,0.7-0.3v-0.3H95.4z"/>
		<path d="M95.4,440.8c0.2,0,0.9,0,1.6,0s1.3,0.1,1.4,0.2v0.1v0.1h-0.3h-0.3c-0.2,0.2-0.3,0.4-0.4,0.6s-0.2,0.4-0.7,0.7v0.3v0.3
			h-0.2h-0.1v0.2v0.2c-0.1,0-0.2,0.1-0.2,0.1c-0.1,0.1-0.1,0.1-0.2,0.2v0.3v0.3h-0.2h-0.4v0.3v0.3h-0.2H95v0.2v0.2
			c-0.1,0.1-0.1,0.1-0.2,0.2c-0.1,0-0.1,0.1-0.2,0.1v-1.9V442c0.2-0.2,0.1-0.4,0.2-0.6c0-0.2,0.1-0.4,0.7-0.3v-0.3H95.4z"/>
		<path d="M95.4,440.8c0.2,0,0.9,0,1.6,0s1.3,0.1,1.4,0.2v0.1v0.1h-0.3h-0.3c-0.2,0.2-0.3,0.4-0.4,0.6s-0.2,0.4-0.7,0.7v0.3v0.3
			h-0.2h-0.1v0.2v0.2c-0.1,0-0.2,0.1-0.2,0.1c-0.1,0.1-0.1,0.1-0.2,0.2v0.3v0.3h-0.2h-0.4v0.3v0.3h-0.2H95v0.2v0.2
			c-0.1,0.1-0.1,0.1-0.2,0.2c-0.1,0-0.1,0.1-0.2,0.1v-1.9V442c0.2-0.2,0.1-0.4,0.2-0.6c0-0.2,0.1-0.4,0.7-0.3v-0.3H95.4z"/>
		<path d="M95.4,440.8c0.2,0,0.9,0,1.6,0s1.3,0.1,1.4,0.2v0.1v0.1h-0.3h-0.3c-0.2,0.2-0.3,0.4-0.4,0.6s-0.2,0.4-0.7,0.7v0.3v0.3
			h-0.2h-0.1v0.2v0.2c-0.1,0-0.2,0.1-0.2,0.1c-0.1,0.1-0.1,0.1-0.2,0.2v0.3v0.3h-0.2h-0.4v0.3v0.3h-0.2H95v0.2v0.2
			c-0.1,0.1-0.1,0.1-0.2,0.2c-0.1,0-0.1,0.1-0.2,0.1v-1.9V442c0.2-0.2,0.1-0.4,0.2-0.6c0-0.2,0.1-0.4,0.7-0.3v-0.3H95.4z"/>
		<path d="M95.4,440.8c0.2,0,0.9,0,1.6,0s1.3,0.1,1.4,0.2v0.1v0.1h-0.3h-0.3c-0.2,0.2-0.3,0.4-0.4,0.6s-0.2,0.4-0.7,0.7v0.3v0.3
			h-0.2h-0.1v0.2v0.2c-0.1,0-0.2,0.1-0.2,0.1c-0.1,0.1-0.1,0.1-0.2,0.2v0.3v0.3h-0.2h-0.4v0.3v0.3h-0.2H95v0.2v0.2
			c-0.1,0.1-0.1,0.1-0.2,0.2c-0.1,0-0.1,0.1-0.2,0.1v-1.9V442c0.2-0.2,0.1-0.4,0.2-0.6c0-0.2,0.1-0.4,0.7-0.3v-0.3H95.4z"/>
		<path d="M95.4,440.8c0.2,0,0.9,0,1.6,0s1.3,0.1,1.4,0.2v0.1v0.1h-0.3h-0.3c-0.2,0.2-0.3,0.4-0.4,0.6s-0.2,0.4-0.7,0.7v0.3v0.3
			h-0.2h-0.1v0.2v0.2c-0.1,0-0.2,0.1-0.2,0.1c-0.1,0.1-0.1,0.1-0.2,0.2v0.3v0.3h-0.2h-0.4v0.3v0.3h-0.2H95v0.2v0.2
			c-0.1,0.1-0.1,0.1-0.2,0.2c-0.1,0-0.1,0.1-0.2,0.1v-1.9V442c0.2-0.2,0.1-0.4,0.2-0.6c0-0.2,0.1-0.4,0.7-0.3v-0.3H95.4z"/>
		<path d="M95.4,440.8c0.2,0,0.9,0,1.6,0s1.3,0.1,1.4,0.2v0.1v0.1h-0.3h-0.3c-0.2,0.2-0.3,0.4-0.4,0.6s-0.2,0.4-0.7,0.7v0.3v0.3
			h-0.2h-0.1v0.2v0.2c-0.1,0-0.2,0.1-0.2,0.1c-0.1,0.1-0.1,0.1-0.2,0.2v0.3v0.3h-0.2h-0.4v0.3v0.3h-0.2H95v0.2v0.2
			c-0.1,0.1-0.1,0.1-0.2,0.2c-0.1,0-0.1,0.1-0.2,0.1v-1.9V442c0.2-0.2,0.1-0.4,0.2-0.6c0-0.2,0.1-0.4,0.7-0.3v-0.3H95.4z"/>
		<path d="M95.4,440.8c0.2,0,0.9,0,1.6,0s1.3,0.1,1.4,0.2v0.1v0.1h-0.3h-0.3c-0.2,0.2-0.3,0.4-0.4,0.6s-0.2,0.4-0.7,0.7v0.3v0.3
			h-0.2h-0.1v0.2v0.2c-0.1,0-0.2,0.1-0.2,0.1c-0.1,0.1-0.1,0.1-0.2,0.2v0.3v0.3h-0.2h-0.4v0.3v0.3h-0.2H95v0.2v0.2
			c-0.1,0.1-0.1,0.1-0.2,0.2c-0.1,0-0.1,0.1-0.2,0.1v-1.9V442c0.2-0.2,0.1-0.4,0.2-0.6c0-0.2,0.1-0.4,0.7-0.3v-0.3H95.4z"/>
		<path d="M95.4,440.8c0.2,0,0.9,0,1.6,0s1.3,0.1,1.4,0.2v0.1v0.1h-0.3h-0.3c-0.2,0.2-0.3,0.4-0.4,0.6s-0.2,0.4-0.7,0.7v0.3v0.3
			h-0.2h-0.1v0.2v0.2c-0.1,0-0.2,0.1-0.2,0.1c-0.1,0.1-0.1,0.1-0.2,0.2v0.3v0.3h-0.2h-0.4v0.3v0.3h-0.2H95v0.2v0.2
			c-0.1,0.1-0.1,0.1-0.2,0.2c-0.1,0-0.1,0.1-0.2,0.1v-1.9V442c0.2-0.2,0.1-0.4,0.2-0.6c0-0.2,0.1-0.4,0.7-0.3v-0.3H95.4z"/>
		<path d="M95.4,440.8c0.2,0,0.9,0,1.6,0s1.3,0.1,1.4,0.2v0.1v0.1h-0.3h-0.3c-0.2,0.2-0.3,0.4-0.4,0.6s-0.2,0.4-0.7,0.7v0.3v0.3
			h-0.2h-0.1v0.2v0.2c-0.1,0-0.2,0.1-0.2,0.1c-0.1,0.1-0.1,0.1-0.2,0.2v0.3v0.3h-0.2h-0.4v0.3v0.3h-0.2H95v0.2v0.2
			c-0.1,0.1-0.1,0.1-0.2,0.2c-0.1,0-0.1,0.1-0.2,0.1v-1.9V442c0.2-0.2,0.1-0.4,0.2-0.6c0-0.2,0.1-0.4,0.7-0.3v-0.3H95.4z"/>
		<path d="M95.4,440.8c0.2,0,0.9,0,1.6,0s1.3,0.1,1.4,0.2v0.1v0.1h-0.3h-0.3c-0.2,0.2-0.3,0.4-0.4,0.6s-0.2,0.4-0.7,0.7v0.3v0.3
			h-0.2h-0.1v0.2v0.2c-0.1,0-0.2,0.1-0.2,0.1c-0.1,0.1-0.1,0.1-0.2,0.2v0.3v0.3h-0.2h-0.4v0.3v0.3h-0.2H95v0.2v0.2
			c-0.1,0.1-0.1,0.1-0.2,0.2c-0.1,0-0.1,0.1-0.2,0.1v-1.9V442c0.2-0.2,0.1-0.4,0.2-0.6c0-0.2,0.1-0.4,0.7-0.3v-0.3H95.4z"/>
		<path d="M95.4,440.8c0.2,0,0.9,0,1.6,0s1.3,0.1,1.4,0.2v0.1v0.1h-0.3h-0.3c-0.2,0.2-0.3,0.4-0.4,0.6s-0.2,0.4-0.7,0.7v0.3v0.3
			h-0.2h-0.1v0.2v0.2c-0.1,0-0.2,0.1-0.2,0.1c-0.1,0.1-0.1,0.1-0.2,0.2v0.3v0.3h-0.2h-0.4v0.3v0.3h-0.2H95v0.2v0.2
			c-0.1,0.1-0.1,0.1-0.2,0.2c-0.1,0-0.1,0.1-0.2,0.1v-1.9V442c0.2-0.2,0.1-0.4,0.2-0.6c0-0.2,0.1-0.4,0.7-0.3v-0.3H95.4z"/>
		<path d="M95.4,440.8c0.2,0,0.9,0,1.6,0s1.3,0.1,1.4,0.2v0.1v0.1h-0.3h-0.3c-0.2,0.2-0.3,0.4-0.4,0.6s-0.2,0.4-0.7,0.7v0.3v0.3
			h-0.2h-0.1v0.2v0.2c-0.1,0-0.2,0.1-0.2,0.1c-0.1,0.1-0.1,0.1-0.2,0.2v0.3v0.3h-0.2h-0.4v0.3v0.3h-0.2H95v0.2v0.2
			c-0.1,0.1-0.1,0.1-0.2,0.2c-0.1,0-0.1,0.1-0.2,0.1v-1.9V442c0.2-0.2,0.1-0.4,0.2-0.6c0-0.2,0.1-0.4,0.7-0.3v-0.3H95.4z"/>
		<path d="M95.4,440.8c0.2,0,0.9,0,1.6,0s1.3,0.1,1.4,0.2v0.1v0.1h-0.3h-0.3c-0.2,0.2-0.3,0.4-0.4,0.6s-0.2,0.4-0.7,0.7v0.3v0.3
			h-0.2h-0.1v0.2v0.2c-0.1,0-0.2,0.1-0.2,0.1c-0.1,0.1-0.1,0.1-0.2,0.2v0.3v0.3h-0.2h-0.4v0.3v0.3h-0.2H95v0.2v0.2
			c-0.1,0.1-0.1,0.1-0.2,0.2c-0.1,0-0.1,0.1-0.2,0.1v-1.9V442c0.2-0.2,0.1-0.4,0.2-0.6c0-0.2,0.1-0.4,0.7-0.3v-0.3H95.4z"/>
		<path d="M95.4,440.8c0.2,0,0.9,0,1.6,0s1.3,0.1,1.4,0.2v0.1v0.1h-0.3h-0.3c-0.2,0.2-0.3,0.4-0.4,0.6s-0.2,0.4-0.7,0.7v0.3v0.3
			h-0.2h-0.1v0.2v0.2c-0.1,0-0.2,0.1-0.2,0.1c-0.1,0.1-0.1,0.1-0.2,0.2v0.3v0.3h-0.2h-0.4v0.3v0.3h-0.2H95v0.2v0.2
			c-0.1,0.1-0.1,0.1-0.2,0.2c-0.1,0-0.1,0.1-0.2,0.1v-1.9V442c0.2-0.2,0.1-0.4,0.2-0.6c0-0.2,0.1-0.4,0.7-0.3v-0.3H95.4z"/>
		<path d="M95.4,440.8c0.2,0,0.9,0,1.6,0s1.3,0.1,1.4,0.2v0.1v0.1h-0.3h-0.3c-0.2,0.2-0.3,0.4-0.4,0.6s-0.2,0.4-0.7,0.7v0.3v0.3
			h-0.2h-0.1v0.2v0.2c-0.1,0-0.2,0.1-0.2,0.1c-0.1,0.1-0.1,0.1-0.2,0.2v0.3v0.3h-0.2h-0.4v0.3v0.3h-0.2H95v0.2v0.2
			c-0.1,0.1-0.1,0.1-0.2,0.2c-0.1,0-0.1,0.1-0.2,0.1v-1.9V442c0.2-0.2,0.1-0.4,0.2-0.6c0-0.2,0.1-0.4,0.7-0.3v-0.3H95.4z"/>
		<path d="M95.4,440.8c0.2,0,0.9,0,1.6,0s1.3,0.1,1.4,0.2v0.1v0.1h-0.3h-0.3c-0.2,0.2-0.3,0.4-0.4,0.6s-0.2,0.4-0.7,0.7v0.3v0.3
			h-0.2h-0.1v0.2v0.2c-0.1,0-0.2,0.1-0.2,0.1c-0.1,0.1-0.1,0.1-0.2,0.2v0.3v0.3h-0.2h-0.4v0.3v0.3h-0.2H95v0.2v0.2
			c-0.1,0.1-0.1,0.1-0.2,0.2c-0.1,0-0.1,0.1-0.2,0.1v-1.9V442c0.2-0.2,0.1-0.4,0.2-0.6c0-0.2,0.1-0.4,0.7-0.3v-0.3H95.4z"/>
		<path d="M95.4,440.8c0.2,0,0.9,0,1.6,0s1.3,0.1,1.4,0.2v0.1v0.1h-0.3h-0.3c-0.2,0.2-0.3,0.4-0.4,0.6s-0.2,0.4-0.7,0.7v0.3v0.3
			h-0.2h-0.1v0.2v0.2c-0.1,0-0.2,0.1-0.2,0.1c-0.1,0.1-0.1,0.1-0.2,0.2v0.3v0.3h-0.2h-0.4v0.3v0.3h-0.2H95v0.2v0.2
			c-0.1,0.1-0.1,0.1-0.2,0.2c-0.1,0-0.1,0.1-0.2,0.1v-1.9V442c0.2-0.2,0.1-0.4,0.2-0.6c0-0.2,0.1-0.4,0.7-0.3v-0.3H95.4z"/>
		<path d="M95.4,440.8c0.2,0,0.9,0,1.6,0s1.3,0.1,1.4,0.2v0.1v0.1h-0.3h-0.3c-0.2,0.2-0.3,0.4-0.4,0.6s-0.2,0.4-0.7,0.7v0.3v0.3
			h-0.2h-0.1v0.2v0.2c-0.1,0-0.2,0.1-0.2,0.1c-0.1,0.1-0.1,0.1-0.2,0.2v0.3v0.3h-0.2h-0.4v0.3v0.3h-0.2H95v0.2v0.2
			c-0.1,0.1-0.1,0.1-0.2,0.2c-0.1,0-0.1,0.1-0.2,0.1v-1.9V442c0.2-0.2,0.1-0.4,0.2-0.6c0-0.2,0.1-0.4,0.7-0.3v-0.3H95.4z"/>
		<path d="M95.4,440.8c0.2,0,0.9,0,1.6,0s1.3,0.1,1.4,0.2v0.1v0.1h-0.3h-0.3c-0.2,0.2-0.3,0.4-0.4,0.6s-0.2,0.4-0.7,0.7v0.3v0.3
			h-0.2h-0.1v0.2v0.2c-0.1,0-0.2,0.1-0.2,0.1c-0.1,0.1-0.1,0.1-0.2,0.2v0.3v0.3h-0.2h-0.4v0.3v0.3h-0.2H95v0.2v0.2
			c-0.1,0.1-0.1,0.1-0.2,0.2c-0.1,0-0.1,0.1-0.2,0.1v-1.9V442c0.2-0.2,0.1-0.4,0.2-0.6c0-0.2,0.1-0.4,0.7-0.3v-0.3H95.4z"/>
		<path d="M95.4,440.8c0.2,0,0.9,0,1.6,0s1.3,0.1,1.4,0.2v0.1v0.1h-0.3h-0.3c-0.2,0.2-0.3,0.4-0.4,0.6s-0.2,0.4-0.7,0.7v0.3v0.3
			h-0.2h-0.1v0.2v0.2c-0.1,0-0.2,0.1-0.2,0.1c-0.1,0.1-0.1,0.1-0.2,0.2v0.3v0.3h-0.2h-0.4v0.3v0.3h-0.2H95v0.2v0.2
			c-0.1,0.1-0.1,0.1-0.2,0.2c-0.1,0-0.1,0.1-0.2,0.1v-1.9V442c0.2-0.2,0.1-0.4,0.2-0.6c0-0.2,0.1-0.4,0.7-0.3v-0.3H95.4z"/>
		<path d="M95.4,440.8c0.2,0,0.9,0,1.6,0s1.3,0.1,1.4,0.2v0.1v0.1h-0.3h-0.3c-0.2,0.2-0.3,0.4-0.4,0.6s-0.2,0.4-0.7,0.7v0.3v0.3
			h-0.2h-0.1v0.2v0.2c-0.1,0-0.2,0.1-0.2,0.1c-0.1,0.1-0.1,0.1-0.2,0.2v0.3v0.3h-0.2h-0.4v0.3v0.3h-0.2H95v0.2v0.2
			c-0.1,0.1-0.1,0.1-0.2,0.2c-0.1,0-0.1,0.1-0.2,0.1v-1.9V442c0.2-0.2,0.1-0.4,0.2-0.6c0-0.2,0.1-0.4,0.7-0.3v-0.3H95.4z"/>
		<path d="M95.4,440.8c0.2,0,0.9,0,1.6,0s1.3,0.1,1.4,0.2v0.1v0.1h-0.3h-0.3c-0.2,0.2-0.3,0.4-0.4,0.6s-0.2,0.4-0.7,0.7v0.3v0.3
			h-0.2h-0.1v0.2v0.2c-0.1,0-0.2,0.1-0.2,0.1c-0.1,0.1-0.1,0.1-0.2,0.2v0.3v0.3h-0.2h-0.4v0.3v0.3h-0.2H95v0.2v0.2
			c-0.1,0.1-0.1,0.1-0.2,0.2c-0.1,0-0.1,0.1-0.2,0.1v-1.9V442c0.2-0.2,0.1-0.4,0.2-0.6c0-0.2,0.1-0.4,0.7-0.3v-0.3H95.4z"/>
		<path d="M95.4,440.8c0.2,0,0.9,0,1.6,0s1.3,0.1,1.4,0.2v0.1v0.1h-0.3h-0.3c-0.2,0.2-0.3,0.4-0.4,0.6s-0.2,0.4-0.7,0.7v0.3v0.3
			h-0.2h-0.1v0.2v0.2c-0.1,0-0.2,0.1-0.2,0.1c-0.1,0.1-0.1,0.1-0.2,0.2v0.3v0.3h-0.2h-0.4v0.3v0.3h-0.2H95v0.2v0.2
			c-0.1,0.1-0.1,0.1-0.2,0.2c-0.1,0-0.1,0.1-0.2,0.1v-1.9V442c0.2-0.2,0.1-0.4,0.2-0.6c0-0.2,0.1-0.4,0.7-0.3v-0.3H95.4z"/>
		<path d="M95.4,440.8c0.2,0,0.9,0,1.6,0s1.3,0.1,1.4,0.2v0.1v0.1h-0.3h-0.3c-0.2,0.2-0.3,0.4-0.4,0.6s-0.2,0.4-0.7,0.7v0.3v0.3
			h-0.2h-0.1v0.2v0.2c-0.1,0-0.2,0.1-0.2,0.1c-0.1,0.1-0.1,0.1-0.2,0.2v0.3v0.3h-0.2h-0.4v0.3v0.3h-0.2H95v0.2v0.2
			c-0.1,0.1-0.1,0.1-0.2,0.2c-0.1,0-0.1,0.1-0.2,0.1v-1.9V442c0.2-0.2,0.1-0.4,0.2-0.6c0-0.2,0.1-0.4,0.7-0.3v-0.3H95.4z"/>
		<path d="M95.4,440.8c0.2,0,0.9,0,1.6,0s1.3,0.1,1.4,0.2v0.1v0.1h-0.3h-0.3c-0.2,0.2-0.3,0.4-0.4,0.6s-0.2,0.4-0.7,0.7v0.3v0.3
			h-0.2h-0.1v0.2v0.2c-0.1,0-0.2,0.1-0.2,0.1c-0.1,0.1-0.1,0.1-0.2,0.2v0.3v0.3h-0.2h-0.4v0.3v0.3h-0.2H95v0.2v0.2
			c-0.1,0.1-0.1,0.1-0.2,0.2c-0.1,0-0.1,0.1-0.2,0.1v-1.9V442c0.2-0.2,0.1-0.4,0.2-0.6c0-0.2,0.1-0.4,0.7-0.3v-0.3H95.4z"/>
		<path d="M95.4,440.8c0.2,0,0.9,0,1.6,0s1.3,0.1,1.4,0.2v0.1v0.1h-0.3h-0.3c-0.2,0.2-0.3,0.4-0.4,0.6s-0.2,0.4-0.7,0.7v0.3v0.3
			h-0.2h-0.1v0.2v0.2c-0.1,0-0.2,0.1-0.2,0.1c-0.1,0.1-0.1,0.1-0.2,0.2v0.3v0.3h-0.2h-0.4v0.3v0.3h-0.2H95v0.2v0.2
			c-0.1,0.1-0.1,0.1-0.2,0.2c-0.1,0-0.1,0.1-0.2,0.1v-1.9V442c0.2-0.2,0.1-0.4,0.2-0.6c0-0.2,0.1-0.4,0.7-0.3v-0.3H95.4z"/>
		<path d="M95.4,440.8c0.2,0,0.9,0,1.6,0s1.3,0.1,1.4,0.2v0.1v0.1h-0.3h-0.3c-0.2,0.2-0.3,0.4-0.4,0.6s-0.2,0.4-0.7,0.7v0.3v0.3
			h-0.2h-0.1v0.2v0.2c-0.1,0-0.2,0.1-0.2,0.1c-0.1,0.1-0.1,0.1-0.2,0.2v0.3v0.3h-0.2h-0.4v0.3v0.3h-0.2H95v0.2v0.2
			c-0.1,0.1-0.1,0.1-0.2,0.2c-0.1,0-0.1,0.1-0.2,0.1v-1.9V442c0.2-0.2,0.1-0.4,0.2-0.6c0-0.2,0.1-0.4,0.7-0.3v-0.3H95.4z"/>
		<path d="M95.4,440.8c0.2,0,0.9,0,1.6,0s1.3,0.1,1.4,0.2v0.1v0.1h-0.3h-0.3c-0.2,0.2-0.3,0.4-0.4,0.6s-0.2,0.4-0.7,0.7v0.3v0.3
			h-0.2h-0.1v0.2v0.2c-0.1,0-0.2,0.1-0.2,0.1c-0.1,0.1-0.1,0.1-0.2,0.2v0.3v0.3h-0.2h-0.4v0.3v0.3h-0.2H95v0.2v0.2
			c-0.1,0.1-0.1,0.1-0.2,0.2c-0.1,0-0.1,0.1-0.2,0.1v-1.9V442c0.2-0.2,0.1-0.4,0.2-0.6c0-0.2,0.1-0.4,0.7-0.3v-0.3H95.4z"/>
		<path d="M95.4,440.8c0.2,0,0.9,0,1.6,0s1.3,0.1,1.4,0.2v0.1v0.1h-0.3h-0.3c-0.2,0.2-0.3,0.4-0.4,0.6s-0.2,0.4-0.7,0.7v0.3v0.3
			h-0.2h-0.1v0.2v0.2c-0.1,0-0.2,0.1-0.2,0.1c-0.1,0.1-0.1,0.1-0.2,0.2v0.3v0.3h-0.2h-0.4v0.3v0.3h-0.2H95v0.2v0.2
			c-0.1,0.1-0.1,0.1-0.2,0.2c-0.1,0-0.1,0.1-0.2,0.1v-1.9V442c0.2-0.2,0.1-0.4,0.2-0.6c0-0.2,0.1-0.4,0.7-0.3v-0.3H95.4z"/>
		<path d="M95.4,440.8c0.2,0,0.9,0,1.6,0s1.3,0.1,1.4,0.2v0.1v0.1h-0.3h-0.3c-0.2,0.2-0.3,0.4-0.4,0.6s-0.2,0.4-0.7,0.7v0.3v0.3
			h-0.2h-0.1v0.2v0.2c-0.1,0-0.2,0.1-0.2,0.1c-0.1,0.1-0.1,0.1-0.2,0.2v0.3v0.3h-0.2h-0.4v0.3v0.3h-0.2H95v0.2v0.2
			c-0.1,0.1-0.1,0.1-0.2,0.2c-0.1,0-0.1,0.1-0.2,0.1v-1.9V442c0.2-0.2,0.1-0.4,0.2-0.6c0-0.2,0.1-0.4,0.7-0.3v-0.3H95.4z"/>
		<path d="M95.4,440.8c0.2,0,0.9,0,1.6,0s1.3,0.1,1.4,0.2v0.1v0.1h-0.3h-0.3c-0.2,0.2-0.3,0.4-0.4,0.6s-0.2,0.4-0.7,0.7v0.3v0.3
			h-0.2h-0.1v0.2v0.2c-0.1,0-0.2,0.1-0.2,0.1c-0.1,0.1-0.1,0.1-0.2,0.2v0.3v0.3h-0.2h-0.4v0.3v0.3h-0.2H95v0.2v0.2
			c-0.1,0.1-0.1,0.1-0.2,0.2c-0.1,0-0.1,0.1-0.2,0.1v-1.9V442c0.2-0.2,0.1-0.4,0.2-0.6c0-0.2,0.1-0.4,0.7-0.3v-0.3H95.4z"/>
		<path d="M95.4,440.8c0.2,0,0.9,0,1.6,0s1.3,0.1,1.4,0.2v0.1v0.1h-0.3h-0.3c-0.2,0.2-0.3,0.4-0.4,0.6s-0.2,0.4-0.7,0.7v0.3v0.3
			h-0.2h-0.1v0.2v0.2c-0.1,0-0.2,0.1-0.2,0.1c-0.1,0.1-0.1,0.1-0.2,0.2v0.3v0.3h-0.2h-0.4v0.3v0.3h-0.2H95v0.2v0.2
			c-0.1,0.1-0.1,0.1-0.2,0.2c-0.1,0-0.1,0.1-0.2,0.1v-1.9V442c0.2-0.2,0.1-0.4,0.2-0.6c0-0.2,0.1-0.4,0.7-0.3v-0.3H95.4z"/>
		<path d="M95.4,440.8c0.2,0,0.9,0,1.6,0s1.3,0.1,1.4,0.2v0.1v0.1h-0.3h-0.3c-0.2,0.2-0.3,0.4-0.4,0.6s-0.2,0.4-0.7,0.7v0.3v0.3
			h-0.2h-0.1v0.2v0.2c-0.1,0-0.2,0.1-0.2,0.1c-0.1,0.1-0.1,0.1-0.2,0.2v0.3v0.3h-0.2h-0.4v0.3v0.3h-0.2H95v0.2v0.2
			c-0.1,0.1-0.1,0.1-0.2,0.2c-0.1,0-0.1,0.1-0.2,0.1v-1.9V442c0.2-0.2,0.1-0.4,0.2-0.6c0-0.2,0.1-0.4,0.7-0.3v-0.3H95.4z"/>
		<path d="M95.4,440.8c0.2,0,0.9,0,1.6,0s1.3,0.1,1.4,0.2v0.1v0.1h-0.3h-0.3c-0.2,0.2-0.3,0.4-0.4,0.6s-0.2,0.4-0.7,0.7v0.3v0.3
			h-0.2h-0.1v0.2v0.2c-0.1,0-0.2,0.1-0.2,0.1c-0.1,0.1-0.1,0.1-0.2,0.2v0.3v0.3h-0.2h-0.4v0.3v0.3h-0.2H95v0.2v0.2
			c-0.1,0.1-0.1,0.1-0.2,0.2c-0.1,0-0.1,0.1-0.2,0.1v-1.9V442c0.2-0.2,0.1-0.4,0.2-0.6c0-0.2,0.1-0.4,0.7-0.3v-0.3H95.4z"/>
		<path d="M95.4,440.8c0.2,0,0.9,0,1.6,0s1.3,0.1,1.4,0.2v0.1v0.1h-0.3h-0.3c-0.2,0.2-0.3,0.4-0.4,0.6s-0.2,0.4-0.7,0.7v0.3v0.3
			h-0.2h-0.1v0.2v0.2c-0.1,0-0.2,0.1-0.2,0.1c-0.1,0.1-0.1,0.1-0.2,0.2v0.3v0.3h-0.2h-0.4v0.3v0.3h-0.2H95v0.2v0.2
			c-0.1,0.1-0.1,0.1-0.2,0.2c-0.1,0-0.1,0.1-0.2,0.1v-1.9V442c0.2-0.2,0.1-0.4,0.2-0.6c0-0.2,0.1-0.4,0.7-0.3v-0.3H95.4z"/>
		<path d="M95.4,440.8c0.2,0,0.9,0,1.6,0s1.3,0.1,1.4,0.2v0.1v0.1h-0.3h-0.3c-0.2,0.2-0.3,0.4-0.4,0.6s-0.2,0.4-0.7,0.7v0.3v0.3
			h-0.2h-0.1v0.2v0.2c-0.1,0-0.2,0.1-0.2,0.1c-0.1,0.1-0.1,0.1-0.2,0.2v0.3v0.3h-0.2h-0.4v0.3v0.3h-0.2H95v0.2v0.2
			c-0.1,0.1-0.1,0.1-0.2,0.2c-0.1,0-0.1,0.1-0.2,0.1v-1.9V442c0.2-0.2,0.1-0.4,0.2-0.6c0-0.2,0.1-0.4,0.7-0.3v-0.3H95.4z"/>
		<path d="M95.4,440.8c0.2,0,0.9,0,1.6,0s1.3,0.1,1.4,0.2v0.1v0.1h-0.3h-0.3c-0.2,0.2-0.3,0.4-0.4,0.6s-0.2,0.4-0.7,0.7v0.3v0.3
			h-0.2h-0.1v0.2v0.2c-0.1,0-0.2,0.1-0.2,0.1c-0.1,0.1-0.1,0.1-0.2,0.2v0.3v0.3h-0.2h-0.4v0.3v0.3h-0.2H95v0.2v0.2
			c-0.1,0.1-0.1,0.1-0.2,0.2c-0.1,0-0.1,0.1-0.2,0.1v-1.9V442c0.2-0.2,0.1-0.4,0.2-0.6c0-0.2,0.1-0.4,0.7-0.3v-0.3H95.4z"/>
		<path d="M95.4,440.8c0.2,0,0.9,0,1.6,0s1.3,0.1,1.4,0.2v0.1v0.1h-0.3h-0.3c-0.2,0.2-0.3,0.4-0.4,0.6s-0.2,0.4-0.7,0.7v0.3v0.3
			h-0.2h-0.1v0.2v0.2c-0.1,0-0.2,0.1-0.2,0.1c-0.1,0.1-0.1,0.1-0.2,0.2v0.3v0.3h-0.2h-0.4v0.3v0.3h-0.2H95v0.2v0.2
			c-0.1,0.1-0.1,0.1-0.2,0.2c-0.1,0-0.1,0.1-0.2,0.1v-1.9V442c0.2-0.2,0.1-0.4,0.2-0.6c0-0.2,0.1-0.4,0.7-0.3v-0.3H95.4z"/>
		<path d="M95.4,440.8c0.2,0,0.9,0,1.6,0s1.3,0.1,1.4,0.2v0.1v0.1h-0.3h-0.3c-0.2,0.2-0.3,0.4-0.4,0.6s-0.2,0.4-0.7,0.7v0.3v0.3
			h-0.2h-0.1v0.2v0.2c-0.1,0-0.2,0.1-0.2,0.1c-0.1,0.1-0.1,0.1-0.2,0.2v0.3v0.3h-0.2h-0.4v0.3v0.3h-0.2H95v0.2v0.2
			c-0.1,0.1-0.1,0.1-0.2,0.2c-0.1,0-0.1,0.1-0.2,0.1v-1.9V442c0.2-0.2,0.1-0.4,0.2-0.6c0-0.2,0.1-0.4,0.7-0.3v-0.3H95.4z"/>
		<path d="M95.4,440.8c0.2,0,0.9,0,1.6,0s1.3,0.1,1.4,0.2v0.1v0.1h-0.3h-0.3c-0.2,0.2-0.3,0.4-0.4,0.6s-0.2,0.4-0.7,0.7v0.3v0.3
			h-0.2h-0.1v0.2v0.2c-0.1,0-0.2,0.1-0.2,0.1c-0.1,0.1-0.1,0.1-0.2,0.2v0.3v0.3h-0.2h-0.4v0.3v0.3h-0.2H95v0.2v0.2
			c-0.1,0.1-0.1,0.1-0.2,0.2c-0.1,0-0.1,0.1-0.2,0.1v-1.9V442c0.2-0.2,0.1-0.4,0.2-0.6c0-0.2,0.1-0.4,0.7-0.3v-0.3H95.4z"/>
		<path d="M95.4,440.8c0.2,0,0.9,0,1.6,0s1.3,0.1,1.4,0.2v0.1v0.1h-0.3h-0.3c-0.2,0.2-0.3,0.4-0.4,0.6s-0.2,0.4-0.7,0.7v0.3v0.3
			h-0.2h-0.1v0.2v0.2c-0.1,0-0.2,0.1-0.2,0.1c-0.1,0.1-0.1,0.1-0.2,0.2v0.3v0.3h-0.2h-0.4v0.3v0.3h-0.2H95v0.2v0.2
			c-0.1,0.1-0.1,0.1-0.2,0.2c-0.1,0-0.1,0.1-0.2,0.1v-1.9V442c0.2-0.2,0.1-0.4,0.2-0.6c0-0.2,0.1-0.4,0.7-0.3v-0.3H95.4z"/>
		<path d="M95,441L95,441h0.2v0.1v0.1h-0.1H95v0.3v0.3h-0.1c0,0-0.1,0-0.1,0.1c0,0,0,0-0.1,0c0,0,0,0,0-0.1c0-0.2,0-0.3,0.1-0.3
			C94.8,441.3,94.9,441.2,95,441"/>
		<path class="st3" d="M6.7,307.1h0.2h0.2c0.1,0.1,0.3,0.2,0.5,0.3c0.2,0.1,0.4,0.1,0.5,0.2c0,0,0,0.1,0,0.2s0.1,0.2,0.2,0.2
			c-0.1,0.1-0.1,0.2-0.2,0.3c0,0.1-0.1,0.1-0.1,0.3c0,0.1,0,0.2,0,0.3c0,0.1,0.1,0.1,0.2,0.1v0.4v0.4l0.1,0.1h0.1v1v1l0.1,0.1h0.1
			v0.4v0.4c-0.2,0-0.2,0.1-0.2,0.2s0,0.2,0,0.3H8.3H8.2v0.1v0.1c0,0-0.1,0-0.1,0.1L8,313.7c0,0.1,0,0.1,0.1,0.1l0.1,0.1
			c0,0.1,0,0.2,0,0.4s0.1,0.3,0.3,0.3v0.3v0.3H8.4H8.3v0.1v0.1c0,0-0.1,0-0.1,0.1l-0.1,0.1c0,0.1,0,0.1,0.1,0.1l0.1,0.1
			c0,0,0,0.2,0,0.3c0,0.1,0.1,0.2,0.2,0.2v0.1c0,0.1,0,0.1,0,0.2c0,0.3-0.1,0.3-0.1,0.3c-0.1,0-0.1,0-0.1,0.4c0,0.2,0.1,0.2,0.1,0.3
			c0.1,0.1,0.1,0.2,0.1,0.4c0,0.2,0,0.3-0.1,0.4s-0.2,0.2-0.3,0.3v0.7v0.7c0,0,0,0-0.1,0s-0.1,0.1-0.2,0.2c-0.1,0.1-0.2,0.2-0.2,0.2
			c0,0.1,0,0.1,0,0.1c0,0.1,0,0.2,0,0.3c0,0.1,0.1,0.1,0.2,0.1v0.8v0.8H7.7c0,0-0.1,0-0.1,0.1v0.6v0.6H7.5H7.4v0.6v0.6l0.1,0.1h0.1
			v0.2v0.2H7.5H7.4v0.1v0.1C7.3,326,7.2,326,7.1,326C7,326.1,7,326.1,7,326.3c0,0.1,0.2,0.3,0.3,0.4s0.3,0.4,0.4,0.4
			c-0.1,0-0.1,0.1-0.2,0.1s-0.1,0.1-0.1,0.1c-0.1,0-0.1,0-0.2,0.1c0,0-0.1,0.1,0,0.2c-0.1,0-0.1,0-0.2,0c-0.1,0-0.2,0.1-0.3,0.2
			c-0.1,0-0.1-0.1-0.2-0.1c-0.1-0.1-0.1-0.1-0.2-0.1c0,0,0,0-0.1,0c0,0-0.1,0.1-0.2,0.2c-0.1,0-0.1,0-0.1-0.1l-0.1-0.1
			c-0.1,0-0.2,0-0.3-0.1c-0.1,0-0.1-0.1-0.2-0.2c-0.2,0-0.3-0.1-0.5-0.2c-0.1-0.1-0.2-0.3-0.2-0.3H4.4H4.2l-0.3,0.3l-0.3,0.3
			l-0.2,0.1l-0.2,0.1l-0.1-0.1L3,327.4l-0.2-0.1l-0.4-0.1l-0.2,0.1L2,327.4v0.2v0.2H1.9H1.8v0.2v0.2l-0.1,0.2l-0.1,0.2H1.5H1.4v0.2
			v0.2l-0.2,0.2L1,329.4v0.3v0.3l-0.1,0.4l-0.1,0.4H0.2h-0.4l-0.1-0.2l-0.1-0.2v-0.7V329l-0.2,0l-0.1-0.1h0.1h0.1v-0.1v-0.1l-0.1,0
			l-0.1-0.1v-1.7v-1.7l0.1-0.9l0.1-0.9l0.1-0.6l0.1-0.6l0.1-1.1l0.1-1.1l0.1-0.6l0.1-0.6l0.1-0.3l0.1-0.3l0.1-0.8l0.1-0.8l0.1-0.6
			l0.1-0.6l0.1-0.5l0.1-0.5l0.1-0.6l0.1-0.6l0.1-0.3l0.1-0.3l0.1-0.2l0.1-0.2l0.1-0.2l0.1-0.2l0.1-0.2l0.1-0.2l0.2-0.3l0.2-0.3
			l0.1-0.2l0.1-0.2l0.1-0.2l0.1-0.2l0.1-0.2l0.1-0.2H3h0.1l0.2-0.2l0.2-0.2l0.1-0.2l0.1-0.2c0,0,0.2-0.1,0.3-0.2
			c0.2-0.1,0.4-0.2,0.4-0.3l0.1-0.1c0-0.1,0.1-0.1,0.2-0.2c0.2,0,0.3,0.1,0.3,0.2s0,0.1,0.1,0.1s0.1,0,0.2,0s0.1-0.1,0-0.2l0.1-0.1
			l0.1-0.1l0.1-0.3l0.1-0.3l0.2-0.1L6.7,307.1z"/>
		<path class="st4" d="M39.6,276.3l0.2,0.2l0.2,0.2l-0.1,0.6l-0.1,0.6c0.2,0.2,0.3,0.6,0.4,1c0.1,0.4,0.1,0.8,0.1,1.1
			c-0.3,0.2-0.2,0.5-0.1,0.7c0.2,0.2,0.4,0.5,0.3,0.7c-0.1,0.2-0.1,0.5-0.1,0.8s0,0.5,0.1,0.5c0,0.3,0.1,0.6,0.2,0.9
			c0.1,0.3,0.3,0.6,0.5,0.8c-0.2,0-0.2,0.1-0.2,0.2s0.1,0.3,0.3,0.2v0.4v0.4l-0.5,0.3l-0.5,0.3v0.6v0.6c-0.2,0-0.3,0.2-0.4,0.4
			c-0.1,0.2-0.1,0.4,0.1,0.4v0.4v0.4l0.3,0.3l0.3,0.3c0.1,0.2-0.1,0.4-0.1,0.6c-0.1,0.2,0,0.4,0.4,0.5v0.5v0.5l0.2,0.2l0.2,0.2v0.4
			v0.4l-0.1,0.1l-0.1,0.1l0.1,0.1l0.1,0.1c0,0.2-0.1,0.4-0.3,0.7c-0.1,0.3-0.3,0.6-0.2,1l0.1,0.1l0.1,0.1c0.1,0.7,0,1.4-0.2,2.1
			c-0.1,0.7-0.4,1.4-0.5,2.1c-0.2-0.1-0.4,0.2-0.6,0.5c-0.2,0.3-0.3,0.8-0.4,0.9c-0.2,0.1-0.8,0.4-1.2,0.7c-0.4,0.2-0.8,0.3-0.7,0
			l0,0H37c-0.2,0.2-0.4,0.4-0.5,0.6s-0.3,0.5-0.3,0.7l-0.7,0.1l-0.7,0.1c-0.3,0.2-0.4,0.5-0.5,0.8s-0.1,0.7,0,1l-0.2,0.3l-0.2,0.3
			v0.2v0.2l-0.3,0.4l-0.3,0.4l-0.5-0.2l-0.5-0.2l-0.1-0.4l-0.1-0.4l-0.7-0.4l-0.2-0.2c0.1-0.5,0.1-1,0-1.5c0-0.5,0-1,0-1.6
			c-0.2,0.1-0.4,0.1-0.6-0.1c-0.2-0.1-0.4-0.3-0.4-0.5c-0.3,0.4-0.7,0.6-1.1,0.9s-0.8,0.5-1.1,0.9c-0.1-0.2,0-0.3,0.1-0.4
			s0.2-0.1,0.2-0.1l-0.2-0.4l-0.2-0.4c0-0.1,0.1-0.2,0.1-0.4c0-0.2,0.1-0.3-0.1-0.2v-0.7v-0.7c-0.3,0.1-0.3-0.5-0.2-1.2
			c0.1-0.7,0.3-1.6,0.3-2c0.1-1,0.2-2.1,0.3-3.1c0.1-1,0.2-2.1,0.5-3.1l0.1-0.1L29,290c0.6-2,1.6-6,3.3-9.3
			C33.8,277.5,36.2,275,39.6,276.3"/>
		<path class="st5" d="M66.7,277.2c0.2,0,0.6-0.1,0.9,0c0.4,0,0.7,0.1,0.9,0.3c0.3,0.3,0.5,0.4,0.6,0.5s0.1,0.2,0.1,0.2
			c0.1,0.1,0.2,0.5,0.4,0.9c0.2,0.3,0.4,0.6,0.6,0.5l0.1,0.5l0.1,0.5v0.4v0.4c-0.2-0.1-0.4,0-0.5,0.2c-0.1,0.1-0.3,0.3-0.4,0.4
			c0.5,0,0.7,0.1,0.8,0.3c0.1,0.2,0,0.5-0.2,0.9c-0.1,0-0.2,0.1-0.3,0.2c-0.1,0.1-0.3,0.3-0.3,0.3s-0.1,0.4-0.3,0.9
			c-0.2,0.4-0.3,0.9-0.4,1l0.2,0.2l0.2,0.2v0.3v0.3c0,0,0,0.1-0.1,0.2c0,0.1-0.1,0.2-0.1,0.3c-0.1,0.2-0.1,0.3-0.1,0.5
			s0,0.5-0.2,0.8c0,0-0.1,0.1-0.1,0.3c-0.1,0.2-0.2,0.3-0.3,0.4l0.3,0.4l0.4,0.4c-0.2,0.2-0.4,0.6-0.4,0.9c-0.1,0.4-0.1,0.7-0.1,0.7
			v0.4v0.4c0,0-0.2,0.2-0.4,0.4c-0.1,0.2-0.2,0.4,0.1,0.4l0.4,0.7l0.4,0.7l0.1,0.3l0.1,0.3c-0.1,0.1-0.1,0.2-0.1,0.3
			c0,0.1,0,0.3,0.1,0.4l-0.4,0.4l-0.4,0.4c0,0.2,0,0.4,0.1,0.5s0.2,0.3,0.3,0.5c0,0.1-0.2,0.2-0.3,0.2c-0.1,0-0.3,0-0.4,0
			c0,0.2-0.1,0.4,0,0.7c0,0.2,0.1,0.5,0.3,0.6l-0.1,0.4l-0.1,0.4l-0.1,0.7l-0.1,0.7c-0.1-0.1-0.2,0-0.2,0.1
			c-0.1,0.1-0.1,0.2-0.2,0.2v1v1c-0.2,0.3-0.2,0.7-0.2,1s-0.1,0.5-0.6,0.5l-0.3-0.1l-0.4-0.1c0,0.1-0.1,0.1-0.2,0.2
			s-0.2,0.1-0.2,0.2c0,0-0.1,0.1-0.3,0.2c-0.1,0.1-0.3,0.3-0.4,0.3l-0.3,0.2l-0.3,0.2c0.1,0.4,0,0.8-0.1,1.1s-0.3,0.6-0.4,1
			c-0.2,0.2-0.4,0.3-0.6,0.4s-0.4,0.3-0.6,0.5h-0.3h-0.2c-0.1-0.3-0.3-0.6-0.4-0.8c-0.1-0.3-0.2-0.5-0.1-0.9l-0.1-0.1l-0.1-0.1V306
			v-1.3c-0.1,0.1-0.3,0.1-0.4-0.1c-0.1-0.1-0.2-0.3-0.1-0.4c-0.3,0-0.8-0.1-1.3-0.2s-0.9-0.2-0.9-0.1h-0.3h-0.3
			c0,0.4-0.2,0.7-0.4,0.9c-0.2,0.2-0.5,0.5-0.7,0.7c-0.1,0-0.2,0-0.3,0s-0.2-0.1-0.2-0.2h-0.3H56c-0.1-0.2,0-0.3,0-0.3
			c0.1-0.1,0.2-0.1,0.2,0v-0.5V304l0.1-0.9l0.1-0.9c0,0-0.1,0-0.1-0.1c-0.1-0.1-0.1-0.1-0.1-0.2h0.1h0.1l0.1-1l0.1-1v-0.5v-0.5
			l0.1-1.1l0.1-1.1l0.1-0.3l0.1-0.3c0.1,0.1,0.2-0.1,0.2-0.2s0-0.3,0-0.3s0.1-0.3,0.1-0.6c0-0.3,0-0.6-0.1-0.6V294v-0.3
			c0,0,0-0.1,0.1-0.2c0-0.1,0.1-0.2,0.1-0.3c0,0,0-0.1,0.1-0.2s0.1-0.2,0.1-0.3l0.1-0.3l0.1-0.3v-0.6v-0.6l0.1-0.6l0.1-0.6h0.1h0.1
			c0-0.1,0-0.1,0-0.2s0-0.2,0-0.2l0.1-0.5l0.1-0.5l0.1-0.7l0.1-0.7l0.1-0.5l0.1-0.5l0.1-0.5l0.1-0.5c0,0,0-0.1,0.1-0.2
			s0.1-0.2,0.1-0.3l0.1-0.5l0.1-0.5l0.2-0.3l0.2-0.3l0.2-0.3l0.2-0.3c0,0,0-0.1,0.1-0.2c0-0.1,0.1-0.2,0.1-0.3c0,0,0-0.1,0.1-0.2
			s0.1-0.2,0.1-0.3c0.1-0.2,0.4-0.4,0.7-0.7c0.3-0.3,0.6-0.6,0.7-1.1c0,0,0.4-0.3,0.8-0.7c0.5-0.4,1-0.8,1.3-1.2L65,277L66.7,277.2z
			"/>
		<path class="st6" d="M85.6,307c-0.1,0.1,0,0.1,0.1,0.2s0.2,0.1,0.3,0.2c0.1,0.1,0.3,0.6,0.5,1.2s0.5,1.2,0.7,1.4v0.5v0.5l-0.1,0.3
			l-0.1,0.3v0.6v0.6l0.3,0.2l0.3,0.2c0,0,0.1,0.3,0.2,0.6c0.1,0.4,0.1,0.8-0.1,1.1c-0.1,0.2-0.2,0.2-0.4,0.1
			c-0.2-0.1-0.3-0.1-0.3-0.1v0.4v0.4c-0.2,0.2-0.6,0.8-1,1.5c-0.3,0.7-0.6,1.3-0.6,1.6h0.4h0.4c0.2,0.3,0.8,0.7,1.1,1.1
			c0.3,0.4,0.5,0.8-0.1,1v0.4v0.4l-0.1,0.2l-0.1,0.2v0.3v0.3l0.1,0.7l0.1,0.7c-0.1-0.1-0.1,0,0,0.1c0,0.1,0,0.3,0,0.4
			s-0.1,0.1-0.2,0.2s-0.1,0.1-0.1,0.2l0.1,0.1l0.1,0.1c0,0.1-0.1,0.1-0.2,0.2c-0.1,0-0.2,0.1-0.3,0.1c0,0.1,0.1,0.2,0.1,0.3
			c0.1,0.1,0.2,0.3,0.1,0.6h-0.1h-0.1c0,0-0.2,0.2-0.3,0.4c-0.1,0.2-0.2,0.5,0,0.6l-0.2,0.4l-0.2,0.4c-0.4,0.3-0.6,0.5-0.7,0.6
			s-0.2,0.2-0.6,0.5l-0.3,0.1l-0.3,0.1c0,0,0.1,0.2,0.2,0.4c0.1,0.2,0.1,0.4-0.1,0.5c-0.1,0.1-0.4-0.1-0.7-0.3
			c-0.3-0.2-0.6-0.5-0.6-0.6h-0.4H82l-0.4-0.4l-0.4-0.4v-0.4V328c-0.9-0.7-1.4-0.8-1.9-0.6c-0.5,0.2-1.1,0.8-2.1,1.7
			c0,0.1,0,0.2,0,0.3c-0.1,0.1-0.1,0.2-0.2,0.1v0.5v0.5c0,0-0.1,0-0.2,0.1s-0.1,0.2-0.1,0.4l-0.3,0.3l-0.3,0.3
			c0,0.1-0.2,0.4-0.4,0.7c-0.2,0.3-0.5,0.5-0.7,0.3c-0.1-0.2-0.1-0.5-0.1-0.7s0-0.4-0.1-0.5v-0.7V330l0.1-0.4l0.1-0.4l0.1-0.3v-0.3
			l0.1-0.3l0.1-0.3l0.1-0.2l0.1-0.2l0.1-0.3l0.1-0.3l0.1-0.3l0.1-0.3l0.1-0.2l0.1-0.2l0.1-0.3l0.1-0.3l0.1-0.2l0.1-0.2v-0.2v-0.2
			v-0.3V324l0.1-0.2l0.1-0.2l0.1-0.2l0.1-0.2L77,323l0.1-0.2l0.1-0.3l0.1-0.3l0.1-0.3l0.1-0.3l0.1-0.2l0.1-0.2l0.1-0.2l0.1-0.2
			l0.1-0.2l0.1-0.2l0.1-0.2l0.1-0.2l0.1-0.2l0.1-0.2l0.1-0.2l0.1-0.2l0.1-0.2v-0.2l0.1-0.2l0.1-0.2l0.1-0.1l0.1-0.1l0.1-0.1l0.1-0.1
			l0.1-0.1l0.1-0.1l0.1-0.1l0.1-0.1v-0.1v-0.1l0.1-0.4l0.1-0.4l0.1-0.1l0.1-0.1l0.1-0.1l0.1-0.1l0.4-0.5l0.3-0.5V315v-0.2l1.2-2.3
			l1.2-2.3l0.1-0.4l0.1-0.3l0.1-0.1l0.1-0.1v-0.1v-0.1L84,309v-0.1l0.1-0.2l0.1-0.2l0.1-0.1l0.1-0.1l0.2-0.4l0.2-0.4l0.6-0.5
			l0.6-0.5c0.5-0.3,1.6-0.9,2.2-1C87,305.3,87.1,305.6,85.6,307"/>
		<path class="st7" d="M44.1,391.6L43.2,424l-0.9,32.4 M22,376.7l5.1,0.2l5.1,0.2 M5.2,414l14.6-13l14.6-13"/>
		<path class="st8" d="M42.9,391.3L42,423.9l-0.9,32.6 M46,391.3l-0.9,32.6l-0.9,32.6"/>
		<path class="st9" d="M17.4,433.2l4.4,1.4l4.4,1.4 M19.2,429.3L23,430l3.8,0.7 M20.9,425.8l3.2,0.3l3.2,0.3 M26,396.3l8.2,4.4
			l8.2,4.3 M45.8,406.9l4,2.2l4,2.1 M16.9,400.4l1.3,0.1l1.3,0.1 M18,396l2.7,0.6l2.7,0.6 M19.5,390.4l4,1.6l4,1.6 M21.1,384.1
			l10,6.2l10,6.2 M23,376.5l-1,3.9l-1,3.9l-2.5,9.9l-2.6,9.9 M32.6,378.6l-2.9,4.5l-2.9,4.5"/>
		<polyline class="st8" points="8.9,411.4 15,418.2 21,424.9 25.3,421.3 29.7,417.7 		"/>
		<polyline class="st9" points="26.2,405.6 29.1,409.2 32.1,412.7 		"/>
		<polyline class="st10" points="34.1,400.8 31.9,404.8 29.7,408.9 21.1,416.3 12.5,423.8 		"/>
		<polyline class="st9" points="10.8,417.4 11.7,416.2 12.6,415 14.9,413 17.2,411.1 		"/>
		<polyline class="st10" points="13.7,406.8 20.8,414.6 28,422.3 		"/>
		<polyline class="st8" points="17.4,404 23.5,410.8 29.5,417.5 		"/>
		<path class="st9" d="M24.9,444.3l8.2-0.5l8.2-0.5 M26.8,430.8l3.5-0.4l3.5-0.4 M5.4,414.1l2.7,1.7l2.7,1.7l2,2.3l2,2.3"/>
		<polyline class="st10" points="28.2,422.5 29.2,424.1 30.3,425.8 35.7,432.1 41,438.3 		"/>
		<path class="st9" d="M45.5,416.6h4.1h4.1 M31.2,416.1l5.4,1.2l5.4,1.1 M30.2,425.7l5.7,0.3l5.7,0.3 M45.2,426.6l2.8,0.2l2.8,0.2"
			/>
		<polyline class="st7" points="54.2,408.9 54.2,409.7 54.2,410.5 53.7,413.5 53.2,416.5 52.4,419.7 51.5,422.9 51.3,437 51,451.2 
					"/>
		<path class="st8" d="M45,442.3l5.3,0.2l5.3,0.2 M44.3,451.7l5.6-0.7l5.6-0.7"/>
		<polyline class="st9" points="45,434.8 49.8,434.8 54.7,434.8 55.3,434.8 56,434.8 		"/>
		<polyline class="st10" points="55.2,434.8 55.3,439.3 55.4,443.8 		"/>
		<polyline class="st8" points="42.5,394.2 38.5,401.3 34.5,408.5 31.4,415.5 28.2,422.5 26.5,435.1 24.7,447.7 		"/>
		<polyline class="st9" points="20.9,425.4 17.5,433.1 14,440.7 19.3,443 24.6,445.2 		"/>
		<path d="M6.9,327.9v-0.3v-0.3H7h0.1c0-0.1,0-0.2,0-0.2s0.1,0,0.2-0.1c0,0,0-0.1,0.1-0.1s0.1-0.1,0.2-0.1c0-0.1-0.2-0.2-0.4-0.4
			C7,326.2,6.9,326,6.9,326c0-0.2,0.1-0.2,0.1-0.3c0.1,0,0.2-0.1,0.3-0.2v-0.1v-0.1h0.1h0.1v-0.2V325H7.4c0,0-0.1,0-0.1-0.1v-0.6
			v-0.6h0.1h0.1v-0.6v-0.6c0,0,0.1,0,0.1-0.1h0.1v-0.8v-0.8c-0.1,0-0.2,0-0.2-0.1s0-0.2,0-0.3v-0.1c0-0.1,0.1-0.2,0.2-0.2
			c0-0.1,0.1-0.2,0.2-0.2c0.1,0,0.1,0,0.1,0v-0.7v-0.7c0.1-0.1,0.2-0.2,0.3-0.3c0.1-0.1,0.1-0.2,0.1-0.4c0-0.2-0.1-0.3-0.1-0.4
			c-0.1-0.1-0.1-0.2-0.1-0.3c0-0.3,0.1-0.4,0.1-0.4c0.1,0,0.1,0,0.1-0.3c0-0.1,0-0.1,0-0.2s0-0.1,0-0.1c-0.1,0-0.2-0.1-0.2-0.2
			s0-0.3,0-0.3c-0.1,0-0.1,0-0.1-0.1L8,315.4l0.1-0.1c0,0,0.1,0,0.1-0.1v-0.1V315h0.1h0.1v-0.3v-0.3c-0.2,0-0.3-0.2-0.3-0.3
			c0-0.1,0.1-0.3,0-0.4c-0.1,0-0.1,0-0.1-0.1l-0.1-0.1l0.1-0.1c0,0,0.1,0,0.1-0.1v-0.1v-0.1h0.1h0.1c0-0.1,0-0.2,0-0.3
			c0-0.1,0.1-0.2,0.2-0.2v-0.4v-0.4H8.4c0,0-0.1,0-0.1-0.1v-1v-1H8.2c0,0-0.1,0-0.1-0.1v-0.4V309c-0.1,0-0.2,0-0.2-0.1s0-0.2,0-0.3
			c0-0.1,0-0.2,0.1-0.3c0-0.1,0.1-0.1,0.2-0.3c-0.1-0.1-0.2-0.2-0.2-0.2c0-0.1,0-0.2,0-0.2c-0.1,0-0.2,0-0.3-0.1
			c-0.1,0-0.3-0.1-0.4-0.2h0.5h0.6l0.2,0.1l0.2,0.1l0.2,0.1l0.2,0.1c0,0.1,0,0.1,0.1,0.2c0,0,0.1,0.1,0.2,0.1l0.2,0.1l0.2,0.1
			l0.1,0.1l0.1,0.1l0.2,0.2l0.2,0.2c0,0.1,0.1,0.2,0.2,0.3c0.1,0.1,0.2,0.2,0.3,0.2c0,0,0.2,0.4,0.5,0.7c0.3,0.4,0.6,0.8,0.7,0.9
			c0,0.1,0.1,0.4,0.3,0.7c0.2,0.3,0.3,0.6,0.3,0.6c0.1,0.1,0.1,0.2,0.2,0.3c0.1,0.1,0.1,0.2,0.2,0.2v0.2v0.2h0.1h0.1v0.2v0.2
			c0,0.1,0.1,0.4,0.2,0.7c0.1,0.3,0.2,0.7,0.2,0.7l0.1,0.4l0.1,0.4c0,0.1,0.1,0.7,0.2,1.2c0,0.5,0.1,1,0.1,1h0.1h0.1
			c0,0-0.2,0.2-0.2,0.4c-0.1,0.2,0,0.3,0.2,0.3v0.5v0.6l0.2,0.3l0.2,0.3c0.1,0,0.1,0,0.1,0.1l0.1,0.1H15h-0.1c0,0.1,0,0.3,0.1,0.5
			s0.1,0.4,0.1,0.4l0.2,0.8l0.2,0.8l0.2,0.9l0.2,0.9l0.2,0.9l0.2,0.9l0.1,1.4l0.1,1.4l0.1,0.9l0.1,0.9l0.1,0.6l0.1,0.6v0.4v0.4v0.4
			v0.4l0.1,0.5l0.1,0.5c0,0,0,0.2,0.1,0.4c0.1,0.2,0.2,0.4,0.4,0.4v0.4v0.4v0.4v0.4v0.4v0.4l0.1,0.3l0.1,0.3c0.1,0,0.2,0.2,0.3,0.5
			c0.1,0.2,0.2,0.5,0.2,0.5s0,0.2,0.1,0.4c0.1,0.2,0.2,0.4,0.4,0.4v0.4v0.4l0.1,0.5l0.1,0.5l0.1,0.5l0.1,0.5l0.1,0.6l0.1,0.6
			l0.1,0.3l0.1,0.3l0.1,0.5l0.1,0.5l0.1,0.6l0.1,0.6c0.1,0,0.2,0,0.3,0.1c0.1,0.1,0.2,0.1,0.2,0.2v0.4v0.4h0.1h0.1
			c0,0.1,0,0.3,0.1,0.5s0.2,0.4,0.3,0.4v0.3v0.3c0.1,0,0.2,0.2,0.3,0.5c0.1,0.2,0.2,0.5,0.2,0.5h0.1h0.1c0.1,0.1,0.1,0.4,0.2,0.6
			s0.1,0.5,0.1,0.5c0.1,0,0.2,0.2,0.3,0.5c0.1,0.2,0.2,0.5,0.2,0.5h0.1h0.1c0,0.1,0,0.4,0.1,0.6s0.2,0.5,0.2,0.5h0.1h0.1
			c0,0.1,0.1,0.4,0.2,0.7c0.1,0.3,0.3,0.6,0.3,0.6c0.1,0.1,0.1,0.2,0.2,0.4c0.1,0.2,0.2,0.3,0.2,0.4v0.2v0.2c0.1,0,0.2,0.1,0.2,0.1
			c0.1,0.1,0.2,0.1,0.2,0.2v0.2v0.2c-0.1,0-0.2,0.1-0.3,0.2c-0.1,0.1-0.2,0.2-0.2,0.3h-0.2h-0.2c-0.2,0.2-0.4,0.4-0.7,0.7
			c-0.2,0.2-0.5,0.4-0.6,0.7c-0.1,0-0.1,0-0.2,0.1c0,0-0.1,0.1-0.1,0.2l-0.4,0.1l-0.4,0.1l-0.3,0.1l-0.3,0.1l-0.4,0.1l-0.3,0.1
			c-0.1,0-0.2,0-0.3,0.1c-0.1,0-0.2,0.1-0.2,0.2c-0.1,0-0.2,0-0.3,0c-0.1,0-0.2,0.1-0.1,0.3l-0.6,0.1l-0.6,0.1l-0.6,0.1l-0.6,0.1
			l-0.5,0.1l-0.5,0.1h-0.2h-0.2c-0.1,0.1-0.1,0.1-0.2,0.2s-0.1,0.1-0.2,0.2c-0.1,0-0.3,0.1-0.5,0.2c-0.2,0.1-0.4,0.2-0.4,0.3
			l-0.6,0.1l-0.6,0.1h-0.4H12c0-0.1-0.1-0.1-0.2-0.2c-0.1,0-0.2-0.1-0.3-0.1c-0.1-0.1-0.3-0.2-0.4-0.4c-0.1-0.1-0.2-0.3-0.3-0.4
			c0.1-0.1,0.1-0.1,0.2-0.2s0.2-0.1,0.3-0.1v-1.5v-1.5h0.1h1c0-0.1,0.1-0.3,0.1-0.4c0-0.2,0-0.3-0.2-0.3v-0.2V357
			c-0.1,0-0.2-0.1-0.2-0.1c-0.1,0-0.1-0.1-0.2-0.1H12h0.1l-0.1-0.2l-0.1-0.2V356v-0.4l0.1-0.3l0.1-0.3l0.1-0.8l0.1-0.8l-0.1-0.6
			l-0.1-0.6l-0.1-0.1l-0.1-0.1v0v-0.2c0.1,0,0.1,0,0.2-0.1c0,0,0.1-0.1,0.1-0.2c0.2-0.1,0.2-0.1,0.2-0.2s-0.1-0.2-0.1-0.3h-1.9H8.3
			v-0.2v-0.2c0.1,0,0.2,0,0.2,0s0.1-0.1,0-0.2l0.5-0.1l0.5-0.1h0.6h0.6c0-0.1,0.1-0.1,0.3-0.2c0.1,0,0.3-0.1,0.4-0.1l0.4-0.1
			l0.4-0.1v-0.1v-0.1c0.2-0.1,0.3-0.2,0.2-0.3c0-0.1-0.2-0.3-0.2-0.4h0.1h0.1c-0.2-0.2-0.3-0.4-0.5-0.6s-0.3-0.4-0.5-0.6h-0.9H9.4
			l-0.1-0.1l-0.1-0.1H8.8H8.4v-0.3v-0.3l0.1-0.2l0.1-0.2c0,0,0.1-0.1,0.1-0.2c0.1-0.1,0.1-0.2,0.1-0.3h0.6H10v-0.1v-0.1l0.1-0.1
			l0.1-0.1c0-0.1-0.1-0.4-0.2-0.6c-0.1-0.2-0.2-0.4-0.2-0.4l-0.1-0.1l-0.1-0.1c0-0.1,0.1-0.3,0-0.4c0-0.1-0.1-0.2-0.3-0.3l-0.1-0.5
			l-0.1-0.5h0.1h0.2v-0.5v-0.5l0.1-0.8l0.1-0.8c-0.1-0.1-0.1-0.1-0.2-0.2c-0.1-0.1-0.1-0.1-0.2-0.2v-0.3V339l0.1-0.2l0.1-0.2
			c0,0,0.1-0.1,0.1-0.3c0-0.2,0-0.4-0.2-0.6c-0.1,0-0.2,0-0.3,0s-0.2,0-0.3,0c0.1-0.2,0.3-0.4,0.4-0.6c0.1-0.2,0-0.3-0.5-0.3
			c0,0-0.2-0.3-0.4-0.6c-0.2-0.3-0.5-0.6-0.7-0.8v-0.2V335c0.1,0,0.2-0.1,0.3-0.2s0.2-0.2,0.2-0.3h0.2h0.2c0.1-0.2-0.1-0.3-0.3-0.4
			s-0.5-0.2-0.6-0.2l0,0.1l-0.1-0.1v-0.2v-0.2c0.1,0,0.3-0.1,0.4-0.1c0.1-0.1,0.3-0.1,0.3-0.1c0.1-0.2,0-0.3-0.1-0.3s-0.3,0-0.3-0.1
			c0.1,0,0.2,0,0.2-0.1c0,0,0-0.1,0-0.2h0.2h0.2c0.1-0.3,0.1-0.4,0-0.4c0-0.1-0.1-0.1-0.3-0.3H7.2H6.5c-0.1-0.1-0.2-0.2-0.2-0.2
			c-0.1-0.1-0.2-0.1-0.2-0.2c0.1,0,0.2,0,0.2,0s0.1-0.1,0-0.2l0.4-0.1l0.4-0.1c0.1-0.1,0.3,0,0.4,0c0.2,0,0.3,0,0.3-0.2l0.2-0.3
			l0.2-0.3c0.1,0,0.4,0,0.6-0.1c0.3-0.1,0.5-0.1,0.5-0.1c0-0.1,0-0.1,0.1-0.2c0,0,0.1-0.1,0.2,0l-0.1-0.2l-0.1-0.1
			c-0.7,0.2-1.5,0.2-2.1,0.1c-0.6,0-1-0.1-1-0.1c-0.1,0-0.1-0.1-0.1-0.2s0.1-0.2,0.1-0.2l0.1-0.2l0.5-0.1c0,0,0.2-0.1,0.4-0.2
			s0.5-0.2,0.5-0.3h0.1H8c0.1-0.2,0-0.3-0.2-0.3c-0.1,0-0.4,0-0.5,0c-0.1-0.1-0.1-0.1-0.2-0.2C7.1,328,7,328,6.9,327.9"/>
		<path d="M39.9,276.6c0.6,0.4,1.5,1.1,2.2,1.9s1.4,1.6,1.5,2.2c0.1,0.3,0.2,1,0.3,1.6c0.1,0.7,0.3,1.3,0.4,1.5h0.2h0.2v0.8v0.8
			c0.3,0,0.4,0.2,0.4,0.4c0,0.3,0,0.6,0,0.7c0.1,0.5,0.2,0.9,0.3,1.3s0.1,0.9,0.1,1.4v1.1v1.1v1.2v1.2l-0.1,1.1l-0.1,1.1
			c-0.2-0.1-0.2,0.2-0.1,0.5c0,0.3,0.1,0.7,0.1,0.7v1.4v1.4c0,0.1,0,0.4,0,0.6c0,0.3-0.1,0.5-0.2,0.4l0.1,1.9l0.1,1.9v2v2
			c0.2,0,0.4,0.4,0.4,0.8s-0.1,0.7-0.4,0.6l-0.1,2.1l-0.1,2.1l-0.1,0.7l-0.1,0.7c0,0.1,0,0.4-0.1,0.7c0,0.3-0.1,0.4-0.2,0.1v1v1
			l-0.1,0.1l-0.1,0.1v1.1v1.1c-0.2,0-0.1,0.3,0,0.8c0.2,0.5,0.3,1.1,0.2,1.7c-0.2,0.9-0.3,1.7-0.3,2.5s-0.1,1.5-0.4,2.2
			c-0.1,0.2,0.1,0.2,0.2,0.2c0.1,0,0.3,0,0.3,0.1c0,0.2-0.1,0.4-0.2,0.7c-0.1,0.3-0.1,0.5,0.2,0.8s0.2,0.8,0.2,1.1
			c-0.1,0.4-0.2,0.6,0.1,0.5v1.9v1.9c0.1,0,0.1,0.1,0.1,0.3c0,0.2-0.1,0.4-0.1,0.6c0,0.1,0,0.2,0.1,0.3c0,0.1,0.1,0.1,0.1,0.1v0.8
			v0.8c-0.1,0-0.2,0.1-0.2,0.2s0.1,0.2,0.2,0.1l0.1,1l0.1,1v0.9v0.9c-0.1,0-0.1,0.6-0.1,1.3c0,0.6,0,1.3-0.1,1.3l0.1,1.2l0.1,1.2
			v0.7v0.7v1.1v1.1c0,0.1-0.2,0.5-0.3,0.7c-0.1,0.3-0.2,0.5,0.1,0.4c0.1,0.4-0.1,1.9-0.3,3.3s-0.4,2.7-0.4,2.8
			c-0.4,0.5-0.8,0.8-1.3,1s-1,0.2-1.6,0.2l-0.1,0.1l-0.1,0.1h-1h-1c0.3,0.6-0.4,1.2-1.4,1.6c-1,0.3-2.1,0.4-2.5-0.2
			c-0.2-0.3,0.2-1,0.5-1.6s0.4-1.3-0.3-1.6h-1.2H33l0.1-0.1l0.1-0.1h0.2h0.2l0.1-0.6l0.1-0.6v-0.2V356h0.1H34v-0.7V355
			c-0.2,0-0.2-0.1-0.2-0.3c0-0.1,0-0.3-0.1-0.3c-0.2-0.1-0.4-0.2-0.7-0.4c-0.2-0.1-0.3-0.3-0.2-0.3h1.1h1.5
			c-0.4-1.3,0.6-2.6,1.5-3.9s1.8-2.6,1.1-3.7c-0.2-0.4-0.5-3.3-0.7-6.2c-0.2-2.9-0.3-5.8-0.4-6.1h-1h-1c0.1-0.2-0.3-0.4-0.7-0.6
			s-0.7-0.3-0.5-0.3h0.9h0.9v0.1v0.1c0.1,0,0.6,0,1-0.1s0.7-0.2,0.7-0.3c0-1-0.8-1.9-1.2-2.8s-0.3-1.7,1.7-2.4
			c-0.1-0.4,0-0.8,0.2-1.1c0.1-0.4,0.2-0.7,0.1-1.2c-0.1-0.2-0.1-0.4-0.1-0.6c0-0.1,0-0.2,0.1-0.3V324v-0.3h0.1h0.1V323v-0.9
			l0.1-0.3l0.1-0.3c0.1-0.4,0.1-0.6,0.1-0.8c0-0.3-0.1-0.5-0.1-1l0.1-2.2l0.1-2.2v-0.4v-0.4c0-0.2,0.1-0.4,0.1-0.5
			c0.1-0.2,0.2-0.4,0.1-0.7c-0.1-0.6-0.2-1.1-0.2-1.7s0.1-1.2,0.2-2c0.1-0.4,0.1-0.7-0.1-1c-0.2-0.3-0.5-0.6-1-0.9l-0.5-0.2
			l-0.5-0.2c-0.1-0.2-0.1-0.6,0.1-1c0.1-0.4,0.3-0.7,0.4-0.7c0,0,0.1,0,0.2-0.1c0.1,0,0.1-0.1,0.1-0.1c-0.1-0.5-0.6-0.7-1-0.9
			c-0.4-0.2-0.6-0.3-0.4-0.5c0.1-0.1,0.8-0.2,1.5-0.2c0.7-0.1,1.3-0.2,1.3-0.4c0-0.5,0.1-0.9,0.2-1.3c0.1-0.4,0.3-0.8,0.4-1.2
			l0.1-0.1l0.1-0.1c0.1-0.1,0.2-0.5,0.4-0.9s0.4-0.6,0.6-0.5c0.2-0.7,0.4-1.4,0.5-2.1s0.2-1.4,0.2-2.1l-0.1-0.1l-0.1-0.1
			c-0.1-0.4,0.1-0.7,0.2-1c0.1-0.3,0.3-0.5,0.3-0.7l-0.1-0.1l-0.1-0.1l0.1-0.1l0.1-0.1v-0.4V292l-0.2-0.2l-0.2-0.2v-0.5v-0.5
			c-0.4-0.1-0.4-0.3-0.4-0.5c0.1-0.2,0.2-0.5,0.1-0.6l-0.3-0.3l-0.3-0.3v-0.4v-0.4c-0.2,0-0.2-0.2-0.1-0.4c0.1-0.2,0.2-0.3,0.4-0.4
			v-0.6v-0.6l0.5-0.3l0.5-0.3v-0.4v-0.4c-0.2,0.1-0.3,0-0.3-0.2c0-0.1,0-0.3,0.2-0.2c-0.2-0.2-0.4-0.5-0.5-0.8s-0.2-0.6-0.2-0.9
			c-0.1,0-0.2-0.2-0.1-0.5c0-0.3,0.1-0.6,0.1-0.8c0-0.2-0.2-0.4-0.3-0.7c-0.1-0.2-0.2-0.5,0.1-0.7c-0.1-0.3-0.1-0.7-0.1-1.1
			c-0.1-0.4-0.1-0.8-0.4-1l0.1-0.6l0.1-0.6L39.9,276.6L39.9,276.6z"/>
		<path d="M70.1,279.5c-0.2,0.1-0.3-0.1-0.5-0.4s-0.3-0.6-0.4-0.9c0.3,0.3,0.8,0.9,1.2,1.4c0.4,0.5,0.8,1,0.8,1
			c0.1,0.2,0.1,0.5,0.2,0.8s0.2,0.5,0.5,0.6c0,0,0.1,0.8,0.3,1.7c0.2,0.8,0.5,1.7,0.9,1.7l0.3,0.7l0.4,0.7l0.1,0.7l0.1,0.7v0.7v0.7
			l0.1,0.6l0.1,0.6l0.1,0.4l0.1,0.4v2.1v2.1c0,0.2-0.1,0.5-0.1,0.8s0,0.5,0.1,0.4v0.6v0.6l-0.1,0.6l-0.1,0.6l-0.1,1l-0.1,1v0.3v0.3
			c0,0-0.1,0.6-0.1,1.2c-0.1,0.6-0.1,1.1-0.1,1.1c0,0.1-0.1,0.3-0.1,0.5s-0.1,0.4-0.2,0.4l-0.1,1.1l-0.1,1.1c0.2-0.2,0.2,0,0.2,0.3
			s-0.1,0.5-0.2,0.5l-0.1,0.5l-0.1,0.5l-0.1,0.5l-0.1,0.5c0.1,0.9-0.2,1.5-0.5,2.1s-0.6,1.1-0.5,1.9l-0.1,0.4l-0.1,0.4v0.5v0.5
			l-0.1,0.6l-0.2,0.4c-0.1-0.1-0.2,0-0.3,0.2c-0.1,0.2-0.2,0.4-0.2,0.4s0.1,0.2,0.2,0.4c0.1,0.2,0.1,0.3-0.2,0.3v0.7v0.7
			c-0.1,0-0.2,0.1-0.2,0.2s0,0.2,0,0.2v0.9v0.9l0.1,1l0.1,1c0,0,0,0.7-0.1,1.5c-0.1,0.7-0.3,1.5-0.6,1.5v0.6v0.6h-0.1H70
			c-0.2,0.3-0.3,0.8-0.3,1.3s0,0.9,0.1,1.3l-0.1,0.5l-0.1,0.5l-0.1,0.5l-0.1,0.5c0,0-0.1,0.4-0.3,0.9c-0.2,0.5-0.4,0.9-0.6,1
			c-0.2,0.3-0.3,0.6-0.3,0.9s0,0.7,0,1l-0.1,0.5l-0.1,0.5l-0.1,0.4l-0.1,0.4v0.5v0.5c-0.2,0.1-0.3,0.3-0.4,0.5s-0.2,0.3-0.3,0.3v0.4
			v0.4l-0.1,0.6l-0.1,0.6v0.7v0.7v0.8v0.7c0.1-0.1,0.2,0.4,0.2,0.8c0,0.5-0.1,0.9-0.3,0.9l-0.1,0.9l-0.1,0.9v0.7v0.7l-0.1,0.8
			l-0.1,0.8l-0.1,0.6l-0.1,0.6l-0.1,0.3l-0.1,0.3v0.6v0.6l-0.1,0.8l-0.1,0.8c-0.2-0.1-0.3,0.1-0.4,0.3c-0.1,0.2-0.2,0.4-0.3,0.5
			c0.1,0.4,0,0.8-0.1,1.2c-0.1,0.4-0.3,0.8-0.4,1.2l-0.3,0.9l-0.3,0.9c0,0,0,0.2-0.1,0.4c-0.1,0.2-0.2,0.4-0.3,0.4
			c-0.2,0.3-0.2,1.2-0.3,2.2c-0.1,0.9-0.3,1.7-0.6,1.7v1.2v1.2l-0.1,0.7l-0.1,0.7c-0.2-0.1-0.2,0.1-0.2,0.3c0,0.2,0,0.4,0,0.5h0.5
			h0.5c0.1,0,0,0.1-0.1,0.1s-0.2,0.1-0.3,0.1l-0.3,0.5l-0.3,0.5c0,0,0.2,0.3,0.3,0.5s0.1,0.4-0.3,0.3v0.9v0.9h0.1h0.1l-0.2,0.3
			l-0.2,0.3c-0.3,0.2-0.5-0.2-0.6-0.7s-0.2-1.2-0.3-1.3h-0.3h-0.3l-0.2-0.3l-0.2-0.3V372v-0.2l-0.6-0.5l-0.6-0.5
			c0-0.1,0-0.2-0.1-0.3c0-0.1-0.1-0.2-0.2-0.2c-0.4,0-1.7-0.7-3-1.4c-1.3-0.7-2.6-1.4-2.7-1.6v-0.4v-0.4l-0.2-0.2l-0.2-0.2v-0.8V365
			c0.1,0,0.1,0,0-0.1c0-0.1-0.1-0.2-0.1-0.3c0-0.1,0.1-0.3,0.3-0.5s0.3-0.4,0.4-0.6c-0.1-0.2-0.2-0.5-0.2-0.8s-0.1-0.6,0-0.8h0.1
			h0.1v-0.2v-0.2c0.1-0.2,0.2-0.4,0.4-0.6c0.1-0.2,0.3-0.3,0.6-0.6v-0.4v-0.4l0.1-0.2l0.1-0.2l0.1-0.5l0.1-0.5l-0.2-0.1l-0.2-0.1
			l0.2-0.1l0.2-0.1l0.1-0.6l0.1-0.6c0.1-0.2,0.5-0.3,0.8-0.4s0.6,0,0.6-0.1c0.2-0.2,0.2-0.4,0.1-0.6c-0.1-0.2-0.1-0.4,0.1-0.5
			c0.1,0,0-0.1,0-0.2c-0.1-0.1-0.2-0.2-0.2-0.2h0.1h0.1l-0.2-0.6l-0.2-0.6l0.1-1.1l0.1-1.1l0.7-0.7l0.7-0.7l0.1-0.3l0.1-0.3v-0.4
			v-0.4c-0.1,0-0.2-0.1-0.2-0.2s0-0.2,0-0.3l0.6-0.5l0.6-0.5v-0.5v-0.6h0.1H59l0.4-0.4l0.4-0.4c0,0,0.1-0.3,0.2-0.6
			c0.1-0.3,0.2-0.6,0.3-0.7l0.1-0.3l0.1-0.3l0.1-0.6l0.1-0.6c-0.2,0-0.4-0.1-0.6-0.2c-0.2-0.1-0.4-0.2-0.5-0.2l-0.4-0.3l-0.4-0.3
			v-0.4V340c0.1,0.1,0.3,0,0.4-0.1c0.1-0.1,0.2-0.2,0.3-0.4h0.9h0.9v-0.4v-0.4l0.1-0.1l0.1-0.1c-0.1-0.3-0.2-0.6-0.2-0.9
			s-0.1-0.6,0-0.9c-0.3-0.4-0.5-0.6-0.5-0.8c0-0.2,0.1-0.4,0.2-0.9c0-0.1,0-0.3,0-0.4s0-0.3,0.2-0.3l0.2-0.5l0.2-0.5l0.1-0.3
			l0.1-0.3l0.1-0.6l0.1-0.6l0.1-0.9l0.1-0.9c0-0.1,0.1-0.1,0.2-0.2s0.2-0.1,0.3-0.1v-1v-1l-0.1-0.1l-0.1-0.1h0.1h0.1v-2v-2l-0.5-0.2
			l-0.5-0.2c-0.1-0.3,0.1-0.5,0.3-0.7s0.6-0.2,0.8-0.2l0.3-0.3l0.3-0.3c0,0,0.2,0,0.3,0c0.1,0,0.2,0,0.2-0.1
			c-0.1-0.1-0.2-0.2-0.3-0.4c-0.1-0.1-0.2-0.3-0.2-0.4l0.1-0.5l0.1-0.5c0.1,0,0.3-0.1,0.4-0.2s0.3-0.3,0.3-0.3v-0.4v-0.4l-0.1-0.1
			l-0.1-0.1c0-0.1,0.1-0.1,0.2-0.2s0.2-0.1,0.2-0.2l-0.1-0.1l-0.1-0.1v-0.2v-0.2c0.1-0.2,0.2-0.4,0.3-0.4c0.1-0.1,0.1-0.1,0.1-0.1
			l0.4-0.4l0.4-0.4V315v-0.6c0.1-0.1,0.1-0.1,0.2-0.2s0.2-0.1,0.3-0.1v-0.7v-0.7l0.1-0.5l0.1-0.5l0.1-0.3l0.1-0.3h0.1
			c0.1,0,0.1,0,0.1-0.1l-0.1-0.2l-0.1-0.2l0.1-0.6l0.1-0.6l-0.2-0.7l-0.2-0.7c-0.2,0-0.2-0.1-0.2-0.3c0-0.2,0-0.3,0-0.4l-0.1-0.1
			l-0.1-0.1c0.1-0.1,0.4-0.1,0.7-0.3c0.2-0.1,0.4-0.3-0.1-0.7h-0.8h-0.8l0.3-0.3l0.3-0.3c0.1-0.1,0.3-0.2,0.4-0.3
			c0.1-0.1,0.3-0.2,0.3-0.2c0-0.1,0.1-0.1,0.2-0.2s0.2-0.1,0.2-0.2l0.3,0.1l0.4,0.1c0.5,0.1,0.5-0.2,0.6-0.5c0-0.3,0-0.7,0.2-1v-1
			v-1c0.1,0,0.2-0.1,0.2-0.2c0.1-0.1,0.1-0.2,0.2-0.1l0.1-0.7l0.1-0.7l0.1-0.4l0.1-0.4c-0.2-0.1-0.2-0.4-0.3-0.6c0-0.2,0-0.5,0-0.7
			c0.1,0,0.3,0,0.4,0s0.3-0.1,0.3-0.2c-0.1-0.2-0.3-0.3-0.3-0.5c-0.1-0.2-0.1-0.3-0.1-0.5l0.4-0.4l0.4-0.4c0-0.1-0.1-0.2-0.1-0.4
			c0-0.1,0-0.2,0.1-0.3l-0.1-0.3l-0.1-0.3l-0.4-0.7l-0.4-0.7c-0.3,0-0.3-0.2-0.1-0.4c0.1-0.2,0.4-0.4,0.4-0.4v-0.4v-0.4
			c0,0,0-0.3,0.1-0.7c0.1-0.4,0.2-0.8,0.4-0.9l-0.3-0.4l-0.3-0.4c0.1-0.1,0.2-0.3,0.3-0.4c0.1-0.2,0.1-0.3,0.1-0.3
			c0.1-0.3,0.2-0.6,0.2-0.8c0-0.2,0-0.4,0.1-0.6l0.1-0.2l0.1-0.2V286v-0.3l-0.2-0.2l-0.2-0.2c0.1-0.1,0.3-0.6,0.4-1
			c0.2-0.4,0.3-0.8,0.3-0.9c0.1-0.1,0.2-0.2,0.3-0.3c0.1-0.1,0.3-0.3,0.3-0.2c0.2-0.4,0.2-0.7,0.2-0.9c-0.1-0.2-0.4-0.3-0.8-0.3
			c0.2-0.1,0.3-0.3,0.4-0.4s0.3-0.2,0.5-0.2v-0.4v-0.4l-0.1-0.5L70.1,279.5z"/>
		<path d="M89,306.1h0.3h0.3l0.1,0.1l0.1,0.1l0.1,0.1l0.1,0.1c0.1,0.1,0.3,0.2,0.5,0.4c0.2,0.2,0.3,0.4,0.2,0.7l0.3,0.3l0.3,0.3
			c0,0.1,0.1,0.8,0.3,1.4c0.2,0.7,0.3,1.4,0.3,1.6l0.1,0.2l0.1,0.2v1v1c0.1-0.1,0.3,0.1,0.4,0.2c0.1,0.2,0.2,0.3,0.1,0.4
			c-0.3,0.3-0.3,1-0.3,1.9c0,0.8,0.1,1.7,0.1,2.3l0.1,0.4l0.1,0.4l-0.1,0.2l-0.1,0.2l0.1,0.8l0.1,0.8l0.1,0.3l0.1,0.3v1v1l-0.1,0.3
			l-0.1,0.3v0.7v0.7l-0.1,0.3l-0.1,0.3v0.5v0.5l-0.2,0.4l-0.2,0.4l-0.1,0.7l-0.1,0.7c-0.1-0.2-0.3,0.1-0.4,0.4
			c-0.1,0.4-0.1,0.9-0.1,1.2l-0.1,0.2l-0.1,0.2v0.6v0.6l-0.1,0.3l-0.1,0.3v0.6v0.6l-0.1,0.4l-0.1,0.4v0.4v0.4l-0.1,0.3l-0.1,0.3
			l-0.1,0.3l-0.1,0.3v0.5v0.5l-0.1,0.3l-0.1,0.3v0.2v0.2c0.3-0.1,0.3,0,0.2,0.1c-0.1,0.1-0.3,0.3-0.4,0.3v0.4v0.4l-0.1,0.2l-0.1,0.2
			v0.5v0.5l-0.1,0.2l-0.1,0.2v0.4v0.4l-0.1,0.2l-0.1,0.2v0.4v0.4l-0.1,0.3l-0.1,0.3v0.3v0.3l-0.1,0.3l-0.1,0.3v0.2v0.2l-0.1,0.1
			l-0.1,0.1v0.4v0.4l-0.1,0.2l-0.1,0.2v0.2v0.2c0,0,0,0.4-0.1,0.8s-0.3,0.8-0.5,0.8v0.3v0.3l-0.1,0.2l-0.1,0.2v0.4v0.4
			c-0.1,0-0.2,0.1-0.2,0.2c-0.1,0.1-0.1,0.3-0.2,0.3v0.4v0.4c-0.2,0.1-0.4,0.6-0.5,1c-0.1,0.5-0.3,0.9-0.4,0.9
			c0,0.1-0.1,0.9-0.3,1.7c-0.2,0.8-0.4,1.5-0.6,1.5c0,0.2-0.2,1.1-0.4,2.2c-0.3,1-0.6,2.2-0.8,2.7c-0.3,0-0.4,0.5-0.5,0.9
			s-0.3,0.8-0.6,0.6v0.3v0.3l-0.1,0.1l-0.1,0.1v0.5v0.5l-0.1,0.2l-0.1,0.2v0.2v0.2c0.1,0.3-0.1,0.5-0.3,0.8
			c-0.2,0.2-0.3,0.5-0.2,0.6h0.1h0.1l-0.1,0.1l-0.1,0.1v0.5v0.5l-0.2,0.4l-0.2,0.4v0.3v0.3c0.1-0.1,0.2,0.1,0.2,0.2
			c0,0.2,0,0.4-0.2,0.3c0,0.2,0.1,0.5,0,0.8s-0.2,0.5-0.5,0.6v0.6v0.6c0,0-0.1,0.3-0.3,0.6c-0.1,0.3-0.2,0.7-0.2,1
			c-0.1,0.2-0.2,0.2-0.3,0.2c-0.1,0-0.3,0-0.4,0c-0.3,0.2-0.1,0.2,0.2,0.2c0.2,0.1,0.5,0.2,0.5,0.4l-0.3,0.2l-0.3,0.2
			c-0.2,0.3-0.4,1-0.6,1.8c-0.2,0.9-0.3,1.9-0.3,2.8l-0.4,0.2l-0.3,0.2v0.2v0.2h0.2h0.2c-0.1,0.1-0.2,0.1-0.3,0.1
			c-0.1,0-0.2,0-0.3,0c-0.1,0.1-0.1,0.2-0.1,0.3c0,0.1-0.1,0.2-0.2,0.2c0,0.2,0,0.6,0,0.9c-0.1,0.4-0.2,0.7-0.4,0.8v0.5v0.5
			l-0.1,0.2l-0.1,0.2v0.2v0.2l-0.1,0.3l-0.1,0.3v0.3v0.3l0.1,0.2l0.1,0.2c-0.1,0.1-0.2,0.2-0.4,0.3c-0.2,0.2-0.3,0.4-0.3,0.6v0.6
			v0.6l-0.1,0.3l-0.1,0.3v0.8v0.8l-0.1,0.3l-0.1,0.3v0.6v0.6l-0.1,0.6l-0.1,0.6v0.3v0.3c0,0-0.1,0.5-0.2,1s-0.3,1-0.5,1l-0.1,0.5
			l-0.1,0.5v0.5v0.5l-0.1,0.5l-0.1,0.5l-0.1,0.1l-0.1,0.1l-0.1,0.9l-0.1,0.9v0.7v0.7l-0.1,0.9l-0.1,0.9l-0.1,1l-0.1,1v0.8v0.8
			l-0.1,0.3l-0.1,0.3v0.2v0.2l-0.1,0.5l-0.1,0.5v0.7v0.7c-0.1,0-0.2,0.2-0.2,0.4c0,0.2,0,0.4,0.2,0.3c0.1,0.2,0.3,0.7,0.3,1.1
			c0.1,0.4,0.1,0.7,0.1,0.7v0.5v0.5c0,0,0,0.2,0.1,0.5c0.1,0.2,0.2,0.4,0.3,0.3c0.1,0.2,0.3,0.6,0.3,0.9c0.1,0.3,0.1,0.6,0.1,0.6
			c0.1,0.2,0.2,0.5,0.2,0.8s0,0.6,0,0.8l0.1,0.5l0.1,0.5l0.2,0.1l0.2,0.1l0.1,0.3l0.1,0.3c0.1-0.1,0.2,0.1,0.2,0.3
			c0.1,0.2,0.1,0.4,0.1,0.4c0,0.2,0.2,0.5,0.3,0.8c0.1,0.3,0.2,0.6,0.2,0.7l0.4,0.4l0.4,0.4H78h0.2l0.4,0.2l0.4,0.2l0.2,0.1l0.2,0.1
			l0.3,0.1l0.3,0.1l0.3,0.1l0.4,0.1l0.3,0.1l0.3,0.1l0.7-0.1l0.7-0.1h0.4h0.4c0-0.1,0.9-0.8,1.9-1.4s2-1.2,2.2-1.1l0.6-0.6l0.6-0.6
			c0-0.2,0-0.4,0.2-0.5c0.1-0.1,0.3-0.2,0.5-0.1c0.4-0.4,0.8-0.8,1.1-1.2c0.3-0.3,0.5-0.6,0.6-0.8c0,0,0.2-0.4,0.3-0.8
			c0.2-0.4,0.4-0.7,0.5-0.6l0.7-0.7l0.7-0.7V417v-0.4c0.9-0.9,1.5-1.6,1.9-2.2c0.5-0.6,0.8-1.1,1.4-1.7c0.7-0.9,1.3-1.8,2-2.5
			s1.4-1.3,2.2-1.6c2.3-1.4,3.3-1.7,3.2-1.3c-0.1,0.3-1.1,1.3-2.6,2.5c-0.4,0.5-0.8,1-1.3,1.6s-1.1,1.3-1.9,2.2
			c-1.1,1.3-2.5,2.7-3.7,3.7c-1.1,1.1-2,1.8-2,1.8c0,0.4-0.2,1-0.6,1.5s-0.8,1-1.1,1.2v0.2v0.2l-0.6,0.5l-0.6,0.5
			c0.1,0.1,0,0.2-0.1,0.3c-0.1,0.1-0.2,0.1-0.3,0.1c-0.4,0.3-0.8,0.7-1.2,1.2c-0.4,0.4-0.7,0.9-0.9,1.4v0.1v0.1h0.4H88
			c-0.1-0.2,0-0.5,0.2-0.7s0.4-0.3,0.7-0.2v0.4v0.4l-0.3,0.3l-0.3,0.3c0.1,0.3,0,0.5-0.1,0.6c-0.1,0.2-0.3,0.3-0.4,0.5h-0.5h-0.5
			c-0.3,0.2-0.6,0.5-0.9,0.7s-0.7,0.4-1.1,0.4l-0.4,0.3l-0.4,0.3l-0.3,0.4l-0.3,0.4H83h-0.4l-0.1,0.1l-0.1,0.1h-1H81
			c0-0.2,0.1-0.3,0.2-0.3s0.3,0,0.4-0.1c0.1,0,0.2-0.1,0.3-0.2c0.1-0.1,0.1-0.2,0.2-0.3l-0.1-0.1l-0.1-0.2c-0.2,0-0.6,0.3-1,0.5
			c-0.4,0.3-0.7,0.6-0.4,0.8c-0.3,0.2-0.5,0.3-0.8,0.3c-0.2,0.1-0.5,0.1-0.8,0h-0.3h-0.3h-2.2h-2.2h-0.3h-0.3L72,431l-1.3-0.1
			l-0.3-0.1l-0.3-0.1l-0.4-0.1l-0.4-0.1l-0.1-0.2l-0.1-0.2h0.1h0.2v-0.4v-0.4c-0.1,0-0.5-0.5-0.8-1c-0.4-0.5-0.7-1.1-0.8-1.2
			c0,0-0.1-0.2-0.1-0.3c0-0.1-0.1-0.2,0-0.2c-0.1-0.2-0.1-0.4-0.2-0.6s-0.1-0.3-0.4-0.3c-0.1-0.1-0.4-0.6-0.7-1
			c-0.3-0.4-0.6-0.7-0.9-0.6c-0.4-0.4-0.8-0.8-1.2-1.3c-0.4-0.5-0.7-1-0.9-1.5l-0.3-0.6l-0.3-0.6h-0.1h-0.1
			c-0.1-0.1-0.2-0.5-0.2-0.8c-0.1-0.3,0-0.6,0.2-0.7H63h0.4l0.1,0.1l0.1,0.1h0.1h0.1l0.3,0.4l0.2,0.4l0.4,0.1l0.4,0.1l0.1,0.2l0.2,0
			h0.1l0.1,0.1l0.3,0.1l0.3,0.1l0.2,0.2l0.2,0.2H67h0.4l0.2,0.1l0.2,0.1l0.4,0.4l0.4,0.4c0.2-0.1,0.4,0,0.5,0.2s0.3,0.4,0.4,0.5h0.6
			h0.6c0.1-0.1,0-0.1,0-0.2s-0.2-0.2-0.2-0.2c0.2-0.6,0.3-0.7,0.3-0.8c0,0-0.3,0-0.7-0.2c-0.1,0-0.1-0.2,0-0.3
			c0.1-0.1,0.2-0.2,0.2-0.1v-0.4v-0.4c-0.2,0-0.3-0.2-0.4-0.5c-0.1-0.2-0.1-0.5-0.1-0.7l-0.4-0.4l-0.4-0.4v-0.2v-0.2
			c-0.4-0.4-0.8-1-1.3-1.4s-1-0.7-1.7-0.6l-0.3-0.5l-0.3-0.5V414v-0.4v-0.1v-0.1v-0.1v-0.1V413v-0.2l0.1-0.3l0.1-0.3V412v-0.2
			l0.2-0.2l0.2-0.2h0.4h0.4l0.3-0.3l0.3-0.3v-1.3v-1.3l-0.1-0.1l-0.1-0.1h0.1h0.1c0.1-0.2,0.1-0.4,0.1-0.6s0-0.5-0.2-0.7
			c-0.1-0.3-0.7-0.5-1.2-0.7s-1-0.4-0.9-0.7l-0.8-0.3l-0.6-0.3l-0.2-0.4l-0.2-0.4l-0.5-0.1l-0.5-0.1l-0.2,0.1l-0.2,0.1h-0.3h-0.3
			l-0.2,0.1l-0.2,0.1h-0.9h-0.7c-0.4,0-0.4-0.3-0.3-0.6c0.1-0.3,0.4-0.6,0.5-0.7c0.3-0.1,0.5-0.2,0.7-0.3c0.2-0.1,0.4-0.2,0.7-0.4
			c0.4-0.1,0.9,0.2,1.3,0.3c0.4,0.1,0.8-0.1,1-1.2h0.3h0.3c0,0,0.3-0.5,0.6-1.1c0.3-0.6,0.5-1.2,0.4-1.4H65h0.1
			c0.1-0.1,0-0.4,0.1-0.5c0.1-0.2,0.2-0.3,0.6-0.2l-0.3-0.5l-0.3-0.5c-0.2-0.5,0.3-0.6,0.6-0.7c0.4-0.1,0.7-0.1,0.4-0.5h-0.9h-0.9
			c-0.1-0.1-0.1-0.3,0-0.4s0.1-0.3,0.2-0.4h0.1h0.1v-0.5v-0.4c0.4-0.6,1.3-0.8,1.9-0.9c0.6-0.2,0.9-0.4,0.2-1v-0.8v-0.9V390v-0.5
			l-0.2-0.2l-0.2-0.2v-0.4v-0.4l0.1-0.1l0.1-0.1c0.1-0.4,0-0.6,0-0.8c-0.1-0.2-0.1-0.4,0-0.6v-0.1v-0.1l0.1-0.1l0.1-0.1v-0.6v-0.6
			c-0.2,0.1-0.2-0.3-0.1-0.6c0.1-0.4,0.3-0.7,0.3-0.8l0.2-0.1h0.2l0.2-0.1l0.2-0.1h0.3h0.3c-0.1-0.5-1-1.4-1.4-2.1s-0.4-1.2,1.4-0.9
			l0.1-0.1l0.1-0.1c0.1,0,0.1,0,0.2-0.1c0.1,0,0.1,0,0.2-0.1c0.2-0.1,0.2-0.3,0.4-0.5c0.2-0.2,0.4-0.4,1.1-0.4l0.1-0.4l0.1-0.4
			c-0.1,0.1-0.3,0.1-0.4-0.1s-0.2-0.4-0.1-0.6l0.3-0.4l0.3-0.4c-0.2-0.2-0.3-0.5-0.2-0.8c0-0.3,0.2-0.6,0.4-0.8c0.1,0,0-0.1,0-0.2
			c-0.1-0.1-0.2-0.2-0.2-0.2H71h0.1v-0.6v-0.6v-0.2v-0.2l0.1-0.2l0.1-0.2v-0.2v-0.2l0.1-0.2l0.1-0.2v-0.2v-0.2l0.1-0.2l0.1-0.2V371
			v-0.2l0.1-0.3l0.1-0.3l0.1-0.1l0.1-0.1l0.1-0.1l0.1-0.1l0.1-0.4l0.1-0.4l-0.2-0.2l-0.2-0.2h0.1h0.1v0.4v-0.6
			c0.2-0.3,0.6-0.5,1.1-0.6c0.4-0.1,0.9-0.1,1.2-0.1c0.1-0.3,0-0.5-0.2-0.7c-0.2-0.1-0.4-0.2-0.7-0.1c-0.5-0.2-0.5-0.8-0.2-1.4
			s0.7-1.2,0.9-1.5c0.2-0.2,0.2-0.4,0.3-0.5s0.1-0.2,0.2-0.4H75h0.1v-0.4v-0.4V362v-0.3l0.1-0.2l0.1-0.2c0-0.2,0.2-0.2,0.3-0.2
			c0.1,0,0.3,0,0.4-0.1c0.2-0.2,0.3-0.4,0.4-0.6s0.2-0.5,0.5-0.6l-0.3-0.3l-0.3-0.3l-0.1-0.5l-0.1-0.5v-0.5v-0.5
			c1.4-1.9,1.4-2,1.2-2c-0.2,0-0.6,0,0-1.7v-0.3v-0.3c0.1-0.2,0.2-0.6,0.4-0.9c0.2-0.3,0.3-0.4,0.5-0.3l0.3-0.3l0.3-0.3h0.4h0.4
			c-0.2,0.3,0,0.2,0.3,0.1c0.2-0.1,0.5-0.4,0.5-0.4c-0.1-0.1-0.2-0.5-0.2-0.9s0.1-0.8,0.4-0.8v-0.8v-0.8l0.1-0.3l0.1-0.3l0.1-0.5
			l0.1-0.5l-0.2-0.3l-0.2-0.3l0.2-0.6l0.6-0.7l0.1-0.2l0.1-0.2l0.1-0.5l0.1-0.5l0.1-0.3L82,342v-0.3v-0.3v-1.1v-1.1
			c0-0.1,0.2-0.2,0.3-0.2c0.1,0,0.3,0,0.4,0l-0.1-0.5l-0.1-0.5h-0.2h-0.2c-0.3-0.6-0.1-1.2,0.1-1.8c0.2-0.6,0.5-1.2,0.3-1.8
			c-0.1-0.3,0.4-0.7,0.8-1s0.9-0.6,0.7-0.8h-0.4h-0.4l-0.2-0.2l-0.2-0.1l-0.2-0.1l-0.2-0.1l0.6-0.7l0.6-0.6h0.8h0.8
			c-0.1-0.2,0.1-0.2,0.2-0.3c0.1-0.1,0.2-0.1,0-0.3c-0.2,0-0.3,0.1-0.4,0.1s-0.2,0-0.4,0c0-0.1-0.1-0.3-0.1-0.4
			c-0.1-0.1-0.1-0.2-0.1-0.2l0.3-0.1l0.3-0.1c0.3-0.3,0.4-0.4,0.6-0.5c0.1-0.1,0.3-0.3,0.7-0.6l0.2-0.4l0.2-0.4
			c-0.1-0.1-0.1-0.4,0-0.6s0.2-0.4,0.3-0.4h0.1h0.1c0.1-0.2,0-0.4-0.1-0.6c-0.1-0.1-0.2-0.2-0.1-0.3c0,0,0.1-0.1,0.3-0.1
			c0.1,0,0.2-0.1,0.2-0.2l-0.1-0.1l-0.1-0.1c-0.1-0.1,0-0.2,0.1-0.2c0.1-0.1,0.2-0.1,0.2-0.2s0-0.3,0-0.4s0-0.2,0-0.1l-0.1-0.7
			l-0.1-0.7v-0.3v-0.3l0.1-0.2l0.1-0.2v-0.4v-0.4c0.6-0.2,0.5-0.5,0.1-1c-0.3-0.4-0.9-0.9-1.1-1.1h-0.4h-0.8c0-0.2,0.3-0.9,0.6-1.5
			c0.3-0.7,0.7-1.3,1-1.5v-0.4v-0.4c0,0,0.1,0.1,0.3,0.1c0.2,0,0.3,0.1,0.4-0.1c0.2-0.3,0.2-0.7,0.1-1.1s-0.2-0.6-0.2-0.6l-0.3-0.2
			l-0.3-0.2v-0.6v-0.6l0.1-0.3l0.1-0.3v-0.5v-0.5c-0.2-0.3-0.5-0.9-0.7-1.4c-0.2-0.6-0.4-1.1-0.5-1.2c0,0-0.2-0.1-0.3-0.2
			c-0.1-0.1-0.2-0.1-0.1-0.2c0.5-0.5,0.8-0.8,1-1s0.2-0.4,0.2-0.5c0.2,0,0.3,0.1,0.5,0.1c0.2,0.1,0.3,0.1,0.5,0.1
			c0.1,0,0.2-0.1,0.2-0.1c0.1-0.1,0.1-0.1,0.2-0.1c0,0,0.1,0.1,0.1,0.2s0.1,0.1,0.1,0.2l0.1,0.1l0.1,0.1l0.2,0.1L89,306.1z"/>
		<path d="M112.3,403.9h0.6h0.6h0.1h0.1l0.1,0.1l0.1,0.1l0.5,0.4l0.5,0.3l0.2,0.1l0.2,0.1c0.1,0.1,0.3,0.1,0.4,0.2s0.3,0.2,0.4,0.3
			c0.2,0.2,0.4,0.6,0.6,0.9c0.2,0.4,0.4,0.7,0.4,0.7l0.4,0.5l0.4,0.5c0.1,0.3,0.4,1,0.6,1.6s0.3,1.2,0.1,1.4c-0.1,0.1,0,0.4,0.1,0.6
			s0.2,0.4,0.1,0.3l0.2,0.3l0.2,0.4v0.3v0.3l0.1,0.3l0.1,0.3v0.5v0.5l-0.2,0.3l-0.2,0.3l-0.1,0.3l-0.1,0.3c-0.1,0.3-0.4,0.7-0.7,1.1
			c-0.3,0.4-0.7,0.8-1,1.1c-0.2,0.1-0.3,0.5-0.5,0.8s-0.4,0.5-0.6,0.5l-0.4,0.3l-0.4,0.3c-0.3,0.1-0.4,0.4-0.6,0.6s-0.4,0.4-0.7,0.5
			l-0.2,0.1l-0.2,0.1l-0.4,0.4l-0.4,0.4c-0.1,0-0.1,0.1-0.2,0.2c0,0.1-0.1,0.2-0.2,0.2c0,0-0.1,0.1-0.2,0.1s-0.1,0.1-0.2,0.1
			l-0.1,0.1l-0.1,0.1l-0.3,0.2l-0.3,0.2l-0.4,0.4l-0.4,0.4c0.1,0.4,0,0.6-0.2,0.6c-0.1,0.1-0.3,0-0.4,0.1l-0.1,0.2l-0.1,0.2
			l-0.2,0.1l-0.2,0.1l-0.2,0.2l-0.2,0.2l-0.4,0.3l-0.4,0.3l-0.4,0.5l-0.4,0.5l-0.2,0.2l-0.2,0.2l-0.2,0.2l-0.2,0.2
			c0.1,0.6-0.3,1-0.8,1.3c-0.4,0.3-0.8,0.6-0.6,0.9l-0.4,0.5l-0.4,0.5l-0.1,0.1l0.4,0.3c-0.1,0.3-0.2,0.5-0.4,0.8
			c-0.1,0.2-0.3,0.5-0.5,0.8l-0.1,0.1l-0.1,0.1v0.1v0.1c0,0-0.3,0.1-0.5,0.3c-0.2,0.2-0.4,0.4-0.2,0.6l-0.3,0.5l-0.4,0.5l-0.1,0.1
			l-0.1,0.1c0,0.1,0,0.2,0,0.2c0,0.1,0,0.2,0,0.2c-0.2,0.3-0.4,0.6-0.6,0.9s-0.5,0.5-0.8,0.7l-0.1,0.4l-0.1,0.4h-0.2h-0.2
			c-0.1,0.1,0,0.2,0,0.3c0,0.1,0.1,0.3,0,0.3l-0.3,0.4l-0.3,0.4c-0.1,0.2-0.2,0.7-0.4,1.1c-0.2,0.4-0.4,0.7-0.8,0.6
			c-0.1,0.2-0.2,0.5-0.3,0.8c-0.2,0.3-0.3,0.5-0.6,0.7c0.1,0.2-0.2,0.4-0.5,0.6s-0.6,0.4-0.7,0.5s-0.1,0.2-0.2,0.3
			c-0.1,0.1-0.2,0.3-0.2,0.3l-0.2,0.2l-0.2,0.2l-0.3,0.2l-0.3,0.2c0-0.7-0.2-1.8-0.2-2.8s0.2-1.9,1-2.3c-0.1-0.3,0-0.5,0.1-0.6
			c0.1-0.2,0.2-0.3,0.1-0.7c0-0.1-0.3-0.1-0.5-0.2s-0.4-0.3-0.2-0.8c0.1-0.2,0.7-0.6,1.4-1.1c0.6-0.5,1.3-0.9,1.2-1.2l0.7-0.7
			l0.7-0.7l0.1-0.3l0.1-0.3l0.8-0.9l0.8-0.9c0.1,0.1,0.3-0.2,0.7-0.5c0.3-0.3,0.7-0.7,1.2-0.8v-0.1V431l0.4-0.2l0.4-0.2l-0.3-0.3
			l-0.3-0.2h0.4h0.4l-0.2-0.4l-0.2-0.4v-0.4v-0.4c0.5,0.2,1.2-0.5,1.8-1.2c0.6-0.7,1.2-1.5,1.5-1.4l0.7-0.8l0.7-0.8
			c0,0,0.1-0.2,0.4-0.4c0.2-0.2,0.6-0.4,1-0.7v0.4v0.4c0.2,0,0.6,0,0.9-0.2c0.4-0.1,0.7-0.3,0.7-0.5c0.5,0.1,1.3-0.7,2-1.5
			c0.7-0.9,1.3-1.8,1.5-2.1c0.1-0.2,0-0.4,0-0.6c-0.1-0.2-0.1-0.4,0.1-0.5l0.5-0.4l0.4-0.4l0.4-0.3l0.4-0.3V417v-0.2
			c0-0.1,0.1-0.1,0.2-0.2s0.1-0.1,0.1-0.2h-0.6h-0.6V416v-0.4l0.1-0.2l0.1-0.2v-0.4V414l-0.2-0.1l-0.2-0.1c0,0,0-0.2,0-0.3
			c0-0.1-0.1-0.2-0.2-0.1c0-0.2,0-0.5,0-0.7s0-0.5,0.1-0.7l0.6-0.2l0.6-0.2c0.4-0.4,0.3-0.7,0.2-0.8c-0.1-0.2-0.4-0.2-0.4-0.3
			c0,0,0-0.2,0-0.3c0-0.1-0.1-0.2-0.2-0.1v-0.4V409c-0.3-0.4-0.5-0.8-0.8-1.2c-0.2-0.4-0.5-0.7-0.7-1l-0.4-0.1l-0.4-0.1
			c-0.1-0.1-0.1-0.3-0.2-0.4s-0.2-0.2-0.3-0.2l-0.1-0.1l-0.1-0.1l-0.1-0.1l-0.1-0.1l-0.6-0.1l-0.6-0.1l-0.1-0.1l-0.1-0.1l-0.2-0.1
			l-0.2-0.1h-0.2h-0.2h-1.5h-1.5c0.2,0.2-0.1,0.2-0.5,0.3c-0.3,0.1-0.6,0.1-0.5,0.4h-0.8H105c-0.6,0.5-1.3,1-2,1.6s-1.5,1.1-2.2,1.6
			c-1.3,0.5-2.5,0.9-2.5,0.6s1.3-1.4,5.1-3.7c0.4-0.3,1.1-0.7,1.9-1c0.7-0.3,1.5-0.6,2-0.5c-0.1-0.2,0.2-0.2,0.6-0.2
			s0.7-0.1,0.8-0.2h0.6h0.6c-0.1,0.1,0,0.2,0.1,0.2s0.2-0.1,0.1-0.2h0.3h0.3l0.4-0.1l0.4-0.1h0.2h0.2h0.2h0.2V403.9z"/>
	</g>
	<g>
		<path class="st11" d="M6.8,513c2-0.3,4.9-0.6,7.9-0.6c4.1,0,6.9,0.7,8.9,2.3c1.6,1.3,2.5,3.3,2.5,5.8c0,3.7-2.5,6.2-5.2,7.2v0.1
			c2,0.8,3.3,2.8,4,5.5c0.9,3.6,1.7,6.9,2.3,8h-5.4c-0.4-0.9-1.1-3.2-1.9-6.8c-0.8-3.8-2.2-4.9-5.2-5h-2.6v11.8H6.8V513z M12,525.7
			h3.1c3.5,0,5.8-1.9,5.8-4.7c0-3.2-2.2-4.6-5.6-4.6c-1.7,0-2.7,0.1-3.2,0.3L12,525.7L12,525.7z"/>
		<path class="st11" d="M31.3,541.3v-20.8h5.3v20.8H31.3z M40.3,511.6l-5.2,6.3h-3.6l3.7-6.3L40.3,511.6L40.3,511.6z"/>
		<path class="st11" d="M62,530.8c0,7.6-5.4,11-10.7,11c-5.9,0-10.4-4-10.4-10.7c0-6.8,4.5-11,10.7-11S62,524.5,62,530.8z M46.3,531
			c0,4,2,7,5.2,7c3,0,5.1-2.9,5.1-7.1c0-3.2-1.4-6.9-5-6.9C47.8,524,46.3,527.5,46.3,531z"/>
		<path class="st11" d="M95.9,540.5c-1.2,0.6-4,1.3-7.4,1.3c-9.1,0-14.7-5.7-14.7-14.4c0-9.5,6.6-15.2,15.3-15.2
			c3.5,0,5.9,0.7,7,1.3l-1.2,4.2c-1.4-0.6-3.2-1.1-5.6-1.1c-5.8,0-10.1,3.7-10.1,10.6c0,6.3,3.7,10.4,10,10.4c2.1,0,4.3-0.4,5.7-1.1
			L95.9,540.5z"/>
		<path class="st11" d="M118,535.1c0,2.5,0.1,4.5,0.2,6.2h-4.6l-0.3-3.2h-0.1c-0.9,1.5-2.9,3.6-6.6,3.6c-3.8,0-7.2-2.3-7.2-9v-12.2
			h5.2v11.3c0,3.5,1.1,5.7,3.9,5.7c2.1,0,3.5-1.5,4-2.8c0.2-0.5,0.3-1,0.3-1.6v-12.5h5.2V535.1z"/>
		<path class="st11" d="M135.4,541.3l-0.3-2.3H135c-1.3,1.6-3.5,2.8-6.1,2.8c-4.2,0-6.5-3-6.5-6.2c0-5.2,4.6-7.9,12.3-7.8v-0.3
			c0-1.4-0.6-3.6-4.2-3.6c-2,0-4.2,0.6-5.6,1.5l-1-3.4c1.5-0.9,4.2-1.8,7.5-1.8c6.6,0,8.6,4.2,8.6,8.7v7.5c0,1.9,0.1,3.7,0.3,5h-4.9
			V541.3z M134.7,531.2c-3.7-0.1-7.2,0.7-7.2,3.9c0,2,1.3,3,3,3c2.1,0,3.6-1.4,4.1-2.9c0.1-0.4,0.2-0.8,0.2-1.2v-2.8H134.7z"/>
		<path class="st11" d="M145.4,527.3c0-2.8,0-4.8-0.2-6.7h4.6l0.2,4h0.2c1-2.9,3.5-4.4,5.7-4.4c0.5,0,0.8,0,1.2,0.1v4.9
			c-0.4-0.1-0.9-0.2-1.5-0.2c-2.5,0-4.2,1.6-4.7,4c-0.1,0.5-0.2,1-0.2,1.6v10.7h-5.3V527.3z"/>
		<path class="st11" d="M167.5,514.7v5.9h5v3.9h-5v9.2c0,2.5,0.7,3.8,2.7,3.8c0.9,0,1.6-0.1,2-0.3l0.1,4c-0.8,0.3-2.1,0.5-3.8,0.5
			c-1.9,0-3.5-0.6-4.5-1.7c-1.1-1.2-1.6-3.1-1.6-5.8v-9.8h-3v-3.9h3v-4.7L167.5,514.7z"/>
		<path class="st11" d="M196,530.8c0,7.6-5.4,11-10.7,11c-5.9,0-10.4-4-10.4-10.7c0-6.8,4.5-11,10.7-11
			C191.8,520.1,196,524.5,196,530.8z M180.3,531c0,4,2,7,5.2,7c3,0,5.1-2.9,5.1-7.1c0-3.2-1.4-6.9-5-6.9
			C181.8,524,180.3,527.5,180.3,531z"/>
	</g>
	<g>
		<path class="st11" d="M-46.8,588.9c-1,0.5-3.6,1.2-6.9,1.2c-10.2,0-14.6-6.7-14.6-14.2c0-10,7-15.1,15.1-15.1
			c3.1,0,5.7,0.6,6.8,1.3l-1.4,6c-1.2-0.5-2.9-1-5-1c-4.2,0-7.8,2.6-7.8,8.4c0,5.2,2.9,8.4,7.9,8.4c1.8,0,3.7-0.4,4.9-0.8
			L-46.8,588.9z"/>
		<path class="st11" d="M-35.6,563.2c0,2-1.5,3.6-3.7,3.6c-2.3,0-3.7-1.6-3.7-3.6c0-2.1,1.5-3.6,3.7-3.6S-35.6,561.1-35.6,563.2z
			 M-42.9,589.6v-20.7h7.3v20.7H-42.9z"/>
		<path class="st11" d="M-11.2,582.6c0,2.9,0.1,5.3,0.2,7.1h-6.2l-0.3-2.7h-0.2c-0.7,1.1-2.5,3.2-6,3.2c-4.4,0-7-3-7-9V569h7.3v11
			c0,2.7,0.8,4.1,2.5,4.1c1.4,0,2.1-1,2.3-1.8c0.2-0.3,0.2-0.7,0.2-1.1V569h7.3v13.6H-11.2z"/>
		<path class="st11" d="M13.8,559.7V583c0,2.6,0.1,5.2,0.2,6.6H7.6l-0.3-2.8H7.2c-1.3,2.4-3.7,3.3-6,3.3c-4.6,0-8.4-4.2-8.4-10.7
			c0-6.9,4.2-10.9,8.9-10.9c2.2,0,4,0.7,4.9,2h0.1v-10.7L13.8,559.7L13.8,559.7z M6.6,577.8c0-0.3,0-0.6,0-1
			c-0.3-1.4-1.4-2.7-2.9-2.7c-2.4,0-3.5,2.3-3.5,5c0,3.2,1.5,4.8,3.5,4.8c1.5,0,2.6-1.1,2.8-2.5c0.1-0.4,0.1-0.9,0.1-1.4V577.8z"/>
		<path class="st11" d="M36.4,584.6c0,2.1,0.1,4,0.3,5.1h-6.5l-0.4-1.8h-0.1c-1.4,1.6-3.4,2.3-5.5,2.3c-4,0-6.5-3.1-6.5-6.5
			c0-5.6,4.8-8,11.5-8v-0.2c0-0.8-0.6-1.8-3.2-1.8c-2.1,0-4.3,0.8-5.6,1.6l-1.3-4.8c1.3-0.7,4.1-1.9,8.2-1.9c6.8,0,9.2,4,9.2,9.1
			L36.4,584.6L36.4,584.6z M29.3,580.2c-2.9,0-4.6,0.9-4.6,2.7c0,1.3,0.8,2,2.1,2c1,0,2.2-0.8,2.5-1.9c0.1-0.3,0.1-0.7,0.1-1.1v-1.7
			H29.3z"/>
		<path class="st11" d="M61.3,559.7V583c0,2.6,0.1,5.2,0.2,6.6h-6.4l-0.3-2.8h-0.1c-1.3,2.4-3.7,3.3-6,3.3c-4.6,0-8.4-4.2-8.4-10.7
			c0-6.9,4.2-10.9,8.9-10.9c2.2,0,4,0.7,4.9,2h0.1v-10.7L61.3,559.7L61.3,559.7z M54.1,577.8c0-0.3,0-0.6,0-1
			c-0.3-1.4-1.4-2.7-2.9-2.7c-2.4,0-3.5,2.3-3.5,5c0,3.2,1.5,4.8,3.5,4.8c1.5,0,2.6-1.1,2.8-2.5c0.1-0.4,0.1-0.9,0.1-1.4
			C54.1,580,54.1,577.8,54.1,577.8z"/>
		<path class="st11" d="M91.9,578.2h-9.8v5.2H93v6.2H74.9v-28.4h17.7v6.2H82.2v4.6H92v6.2H91.9z"/>
		<path class="st11" d="M117.2,559.7V583c0,2.6,0.1,5.2,0.2,6.6H111l-0.3-2.8h-0.1c-1.3,2.4-3.7,3.3-6,3.3c-4.6,0-8.4-4.2-8.4-10.7
			c0-6.9,4.2-10.9,8.9-10.9c2.2,0,4,0.7,4.9,2h0.1v-10.7L117.2,559.7L117.2,559.7z M109.9,577.8c0-0.3,0-0.6,0-1
			c-0.3-1.4-1.4-2.7-2.9-2.7c-2.4,0-3.5,2.3-3.5,5c0,3.2,1.5,4.8,3.5,4.8c1.4,0,2.6-1.1,2.8-2.5c0.1-0.4,0.1-0.9,0.1-1.4V577.8z"/>
		<path class="st11" d="M141.7,582.6c0,2.9,0.1,5.3,0.2,7.1h-6.2l-0.3-2.7h-0.2c-0.7,1.1-2.5,3.2-6,3.2c-4.4,0-7-3-7-9V569h7.3v11
			c0,2.7,0.8,4.1,2.5,4.1c1.4,0,2.1-1,2.3-1.8c0.2-0.3,0.2-0.7,0.2-1.1V569h7.3v13.6H141.7z"/>
		<path class="st11" d="M161.8,589.2c-1.2,0.5-3.3,0.9-5.5,0.9c-6.6,0-10.7-4-10.7-10.7c0-5.9,3.9-11,11.6-11c1.5,0,3.2,0.2,4.6,0.7
			l-1,5.6c-0.7-0.3-1.7-0.5-3.1-0.5c-2.7,0-4.6,1.9-4.6,5c0,3.4,2.3,5,4.8,5c1.3,0,2.3-0.1,3.2-0.5L161.8,589.2z"/>
		<path class="st11" d="M183.1,584.6c0,2.1,0.1,4,0.3,5.1h-6.5l-0.4-1.8h-0.1c-1.4,1.6-3.4,2.3-5.5,2.3c-4,0-6.5-3.1-6.5-6.5
			c0-5.6,4.8-8,11.5-8v-0.2c0-0.8-0.6-1.8-3.2-1.8c-2.1,0-4.3,0.8-5.6,1.6l-1.3-4.8c1.3-0.7,4.1-1.9,8.2-1.9c6.8,0,9.2,4,9.2,9.1
			L183.1,584.6L183.1,584.6z M176,580.2c-2.9,0-4.6,0.9-4.6,2.7c0,1.3,0.8,2,2.1,2c1,0,2.2-0.8,2.5-1.9c0.1-0.3,0.1-0.7,0.1-1.1
			v-1.7H176z"/>
		<path class="st11" d="M208,559.7V583c0,2.6,0.1,5.2,0.2,6.6h-6.4l-0.3-2.8h-0.1c-1.3,2.4-3.7,3.3-6,3.3c-4.6,0-8.4-4.2-8.4-10.7
			c0-6.9,4.2-10.9,8.9-10.9c2.2,0,4,0.7,4.9,2h0.1v-10.7L208,559.7L208,559.7z M200.8,577.8c0-0.3,0-0.6,0-1
			c-0.3-1.4-1.4-2.7-2.9-2.7c-2.4,0-3.5,2.3-3.5,5c0,3.2,1.5,4.8,3.5,4.8c1.4,0,2.6-1.1,2.8-2.5c0.1-0.4,0.1-0.9,0.1-1.4
			L200.8,577.8L200.8,577.8z"/>
		<path class="st11" d="M233.2,579.1c0,7.5-5.2,11-10.7,11c-5.9,0-10.5-4-10.5-10.7c0-6.6,4.2-10.9,10.9-10.9
			C229.1,568.4,233.2,572.8,233.2,579.1z M219.4,579.3c0,3.1,1,5.5,3.2,5.5c1.9,0,3-2.1,3-5.5c0-2.9-0.9-5.5-3.1-5.5
			C220.2,573.8,219.4,576.5,219.4,579.3z"/>
		<path class="st11" d="M237.1,575.9c0-3.3-0.1-5.3-0.2-7h6.2l0.2,3.7h0.2c1-3.2,3.6-4.2,5.3-4.2c0.6,0,0.9,0,1.5,0.1v7.1
			c-0.5-0.1-1.1-0.2-1.9-0.2c-2.1,0-3.6,0.9-3.9,2.6c-0.1,0.4-0.1,0.8-0.1,1.3v10.2h-7.3V575.9z"/>
		<path class="st11" d="M270.8,584.6c0,2.1,0.1,4,0.3,5.1h-6.5l-0.4-1.8h-0.1c-1.4,1.6-3.4,2.3-5.5,2.3c-4,0-6.5-3.1-6.5-6.5
			c0-5.6,4.8-8,11.5-8v-0.2c0-0.8-0.6-1.8-3.2-1.8c-2.1,0-4.3,0.8-5.6,1.6l-1.3-4.8c1.3-0.7,4.1-1.9,8.2-1.9c6.8,0,9.2,4,9.2,9.1
			L270.8,584.6L270.8,584.6z M263.7,580.2c-2.9,0-4.6,0.9-4.6,2.7c0,1.3,0.8,2,2.1,2c1,0,2.2-0.8,2.5-1.9c0.1-0.3,0.1-0.7,0.1-1.1
			v-1.7H263.7z"/>
	</g>
</g>
</svg>
