<?xml version="1.0" encoding="utf-8"?>
<!-- Generator: Adobe Illustrator 18.0.0, SVG Export Plug-In . SVG Version: 6.00 Build 0)  -->
<!DOCTYPE svg PUBLIC "-//W3C//DTD SVG 1.1//EN" "http://www.w3.org/Graphics/SVG/1.1/DTD/svg11.dtd">
<svg version="1.1" xmlns="http://www.w3.org/2000/svg" xmlns:xlink="http://www.w3.org/1999/xlink" x="0px" y="0px"
	 viewBox="240 0 1440 1440" enable-background="new 240 0 1440 1440" xml:space="preserve">
<g id="Capa_1">
	<g id="Capa_1_1_">
		<rect x="240" fill="none" width="1440" height="1440"/>
	</g>
</g>
<g id="Capa_3">
	<g>
		
			<path fill-rule="evenodd" clip-rule="evenodd" fill="none" stroke="#775E2D" stroke-width="39.3661" stroke-miterlimit="22.9256" d="
			M958.9,932c214.5,0,389.4-174.9,389.4-389.4c0-214.5-174.9-389.4-389.4-389.4c-214.5,0-389.4,174.9-389.4,389.4
			C569.5,757,744.4,932,958.9,932z"/>
		<g>
			<path fill="#33384C" d="M424,1107v-0.2c0-19.4,14.9-34.6,35.1-34.6c13.6,0,22.4,5.7,28.3,13.9l-13.9,10.8
				c-3.8-4.8-8.2-7.8-14.6-7.8c-9.3,0-15.9,7.9-15.9,17.6v0.2c0,10,6.6,17.8,15.9,17.8c6.9,0,11-3.2,15-8.1l13.9,9.9
				c-6.3,8.7-14.8,15-29.5,15C439.3,1141.4,424,1126.9,424,1107z"/>
			<path fill="#33384C" d="M491.6,1107v-0.2c0-19.1,15.4-34.6,36-34.6c20.6,0,35.8,15.3,35.8,34.5v0.2c0,19.1-15.4,34.6-36,34.6
				S491.6,1126.1,491.6,1107z M544.5,1107v-0.2c0-9.6-6.9-18-17.1-18c-10.1,0-16.8,8.2-16.8,17.8v0.2c0,9.6,6.9,18,17,18
				C537.7,1124.8,544.5,1116.6,544.5,1107z"/>
			<path fill="#33384C" d="M573,1073.5h17.2l27.4,35.2v-35.2h18.3v66.6h-16.2l-28.5-36.6v36.6H573V1073.5z"/>
			<path fill="#33384C" d="M642.7,1130.2l10.3-12.3c6.6,5.2,13.9,8,21.6,8c5,0,7.6-1.7,7.6-4.6v-0.2c0-2.8-2.2-4.3-11.2-6.4
				c-14.2-3.2-25.1-7.2-25.1-20.9v-0.2c0-12.4,9.8-21.3,25.8-21.3c11.3,0,20.2,3,27.4,8.9l-9.2,13c-6.1-4.3-12.8-6.6-18.7-6.6
				c-4.5,0-6.7,1.9-6.7,4.3v0.2c0,3,2.3,4.4,11.5,6.5c15.3,3.3,24.8,8.3,24.8,20.8v0.2c0,13.6-10.8,21.7-26.9,21.7
				C662.1,1141.2,650.9,1137.5,642.7,1130.2z"/>
			<path fill="#33384C" d="M709.8,1073.5h53.6v15.7h-35.3v10.1h32v14.6h-32v10.6h35.8v15.7h-54.1V1073.5z"/>
			<path fill="#33384C" d="M767.8,1130l11.9-11.2c3.2,3.9,6.3,6.2,10.4,6.2c4.7,0,7.6-3.1,7.6-9.3v-42.2h18.4v42.3
				c0,8.4-2.1,14.3-6.6,18.8c-4.4,4.4-10.7,6.8-18.3,6.8C779.6,1141.2,772.5,1136.4,767.8,1130z"/>
			<path fill="#33384C" d="M824.7,1107v-0.2c0-19.1,15.4-34.6,36-34.6c20.6,0,35.8,15.3,35.8,34.5v0.2c0,19.1-15.4,34.6-36,34.6
				S824.7,1126.1,824.7,1107z M877.7,1107v-0.2c0-9.6-6.9-18-17.1-18c-10.1,0-16.8,8.2-16.8,17.8v0.2c0,9.6,6.9,18,17,18
				C870.9,1124.8,877.7,1116.6,877.7,1107z"/>
			<path fill="#33384C" d="M932.5,1073.5h25.7c23.8,0,37.6,13.7,37.6,32.9v0.2c0,19.2-14,33.5-38,33.5h-25.3V1073.5z M958.5,1123.7
				c11,0,18.4-6.1,18.4-16.8v-0.2c0-10.7-7.3-16.8-18.4-16.8H951v33.9H958.5z"/>
			<path fill="#33384C" d="M1005.4,1073.5h53.6v15.7h-35.3v10.1h32v14.6h-32v10.6h35.8v15.7h-54.1V1073.5z"/>
			<path fill="#33384C" d="M1068.9,1073.5h18.5v50.5h32.3v16.2h-50.7V1073.5z"/>
			<path fill="#33384C" d="M1177,1073h17.8l28.4,67.1h-19.8l-4.9-11.9h-25.7l-4.8,11.9h-19.4L1177,1073z M1193.1,1113.8l-7.4-18.9
				l-7.5,18.9H1193.1z M1188.3,1051.4l16.8,5.4l-14,12.2h-12.8L1188.3,1051.4z"/>
			<path fill="#33384C" d="M1229.6,1073.5h31.5c10.2,0,17.2,2.7,21.7,7.2c3.9,3.8,5.9,8.9,5.9,15.5v0.2c0,10.2-5.4,16.9-13.7,20.5
				l15.9,23.2h-21.3l-13.4-20.2h-0.2h-7.9v20.2h-18.5V1073.5z M1260.3,1105.4c6.3,0,9.9-3,9.9-7.9v-0.2c0-5.2-3.8-7.9-10-7.9h-12.1
				v16H1260.3z"/>
			<path fill="#33384C" d="M1298.1,1073.5h34.2c8.4,0,14.3,2.1,18.2,6c2.7,2.7,4.3,6.2,4.3,10.8v0.2c0,7.7-4.4,12.3-10.3,14.9
				c8.1,2.7,13.2,7.2,13.2,16.3v0.2c0,11.4-9.3,18.4-25.2,18.4h-34.4V1073.5z M1327.7,1100c5.6,0,8.8-1.9,8.8-5.8v-0.2
				c0-3.6-2.9-5.7-8.4-5.7h-12v11.7H1327.7z M1330.4,1125.2c5.6,0,8.9-2.2,8.9-6.1v-0.2c0-3.6-2.9-6-9-6h-14.1v12.3H1330.4z"/>
			<path fill="#33384C" d="M1363.9,1107v-0.2c0-19.1,15.4-34.6,36-34.6c20.6,0,35.8,15.3,35.8,34.5v0.2c0,19.1-15.4,34.6-36,34.6
				C1379.1,1141.4,1363.9,1126.1,1363.9,1107z M1416.8,1107v-0.2c0-9.6-6.9-18-17.1-18c-10.1,0-16.8,8.2-16.8,17.8v0.2
				c0,9.6,6.9,18,17,18C1410.1,1124.8,1416.8,1116.6,1416.8,1107z"/>
			<path fill="#33384C" d="M1445.3,1073.5h18.5v50.5h32.3v16.2h-50.7V1073.5z"/>
		</g>
		<g>
			<polygon opacity="0.7" fill-rule="evenodd" clip-rule="evenodd" fill="#759951" points="425.7,1181.8 463.7,1181.8 492.6,1225.4 
				454.6,1225.4 			"/>
			<polygon fill-rule="evenodd" clip-rule="evenodd" fill="#759951" points="425.7,1269 463.7,1269 492.6,1225.4 454.6,1225.4 			
				"/>
			<polygon opacity="0.7" fill-rule="evenodd" clip-rule="evenodd" fill="#759951" points="484.9,1181.8 522.8,1181.8 551.7,1225.4 
				513.8,1225.4 			"/>
			<polygon fill-rule="evenodd" clip-rule="evenodd" fill="#759951" points="484.9,1269 522.8,1269 551.7,1225.4 513.8,1225.4 			
				"/>
		</g>
		<g>
			<path fill="#33384C" d="M635.5,1285.2l-24.5-34.7h-21.9v34.7h-17.5v-99.6H616c22.9,0,37,12.1,37,31.6c0,16.5-9.8,26.5-23.8,30.3
				l26.9,37.7H635.5z M614.6,1201.5h-25.5v33.4h25.6c12.5,0,20.5-6.5,20.5-16.8C635.2,1207.2,627.6,1201.5,614.6,1201.5z"/>
			<path fill="#33384C" d="M693,1185.6v99.6h-17.5v-99.6H693z M677.1,1177.3l15.1-23.3l15.7,7l-17.4,16.4H677.1z"/>
			<path fill="#33384C" d="M767.2,1286.9c-30.6,0-51.9-23.2-51.9-51.4c0-28.2,21.6-51.7,52.2-51.7c30.6,0,51.9,23.2,51.9,51.4
				C819.4,1263.4,797.8,1286.9,767.2,1286.9z M767.2,1200c-19.8,0-33.6,15.8-33.6,35.3c0,19.5,14.1,35.6,33.9,35.6
				c19.8,0,33.6-15.8,33.6-35.3C801.1,1216,787,1200,767.2,1200z"/>
			<path fill="#33384C" d="M929.6,1286.9c-29,0-50.7-22.6-50.7-51.4c0-28.5,21.2-51.7,51.4-51.7c18.4,0,29.5,6.4,39,15.5l-11.2,13
				c-8-7.4-16.5-12.4-27.9-12.4c-19.1,0-32.9,15.7-32.9,35.3c0,19.6,13.8,35.6,32.9,35.6c12.2,0,20.1-5,28.6-13l11.2,11.4
				C959.6,1280.1,948.2,1286.9,929.6,1286.9z"/>
			<path fill="#33384C" d="M1072,1242.1c0,29.7-16.8,44.7-42.8,44.7c-25.9,0-42.4-14.9-42.4-43.8v-57.4h17.5v56.6
				c0,18.5,9.5,28.5,25.2,28.5c15.5,0,25-9.4,25-27.8v-57.4h17.5V1242.1z"/>
			<path fill="#33384C" d="M1187.9,1285.2h-18.5l-10.1-24.1h-47.1l-10.2,24.1H1084l43.8-100.3h16.2L1187.9,1285.2z M1135.7,1205.8
				l-17.1,39.9h34.3L1135.7,1205.8z"/>
			<path fill="#33384C" d="M1268.9,1285.2l-24.5-34.7h-21.9v34.7H1205v-99.6h44.4c22.9,0,37,12.1,37,31.6c0,16.5-9.8,26.5-23.8,30.3
				l26.9,37.7H1268.9z M1248,1201.5h-25.5v33.4h25.6c12.5,0,20.5-6.5,20.5-16.8C1268.6,1207.2,1260.9,1201.5,1248,1201.5z"/>
			<path fill="#33384C" d="M1349.6,1285.2h-17.6v-83.4h-31.6v-16.2h80.8v16.2h-31.6V1285.2z"/>
			<path fill="#33384C" d="M1441.8,1286.9c-30.6,0-51.9-23.2-51.9-51.4c0-28.2,21.6-51.7,52.2-51.7c30.6,0,51.9,23.2,51.9,51.4
				C1494,1263.4,1472.4,1286.9,1441.8,1286.9z M1441.8,1200c-19.8,0-33.6,15.8-33.6,35.3c0,19.5,14.1,35.6,33.9,35.6
				c19.8,0,33.6-15.8,33.6-35.3C1475.7,1216,1461.6,1200,1441.8,1200z"/>
		</g>
		<g>
			<path fill-rule="evenodd" clip-rule="evenodd" fill="#7D9C49" d="M956.3,586.1c0,0-161.2-138.8-14.5-374.7
				c0,0,236.4,163,45.4,368.4c0,0-31.3-137.7-20.4-200.2C966.8,379.7,930.3,519,956.3,586.1z"/>
			<path fill-rule="evenodd" clip-rule="evenodd" fill="#7D9C49" d="M903,607c0,0-180.6,57.1-290.5-164.6
				c0,0,234.2-102.6,300.3,138.3c0,0-119-40.9-161.2-78.3C751.6,502.4,840,595.3,903,607z"/>
			<path fill-rule="evenodd" clip-rule="evenodd" fill="#7D9C49" d="M871.8,665.3c0,0-57.7,108.2-208.9,55.5
				c0,0,61.8-153.5,201.5-72.1c0,0-73.5,35-110,36.8C754.4,685.5,837.4,688.4,871.8,665.3z"/>
			<path fill-rule="evenodd" clip-rule="evenodd" fill="#7D9C49" d="M1089.1,657.8c0,0,69.7-50.6,149,29.2c0,0-86.3,78-149.4-16.4
				c0,0,57.2,0.5,80.8,10.6C1169.5,681.2,1118,653.8,1089.1,657.8z"/>
			<path fill-rule="evenodd" clip-rule="evenodd" fill="#7D9C49" d="M1009.5,606.6c0,0,19.5-185.6,263-197.6
				c0,0,0.6,251.9-243,216.8c0,0,83.7-91.3,134.2-114.8C1163.6,511,1044.8,554.4,1009.5,606.6z"/>
		</g>
		<path fill-rule="evenodd" clip-rule="evenodd" fill="#775E2D" d="M1045.3,957.7c0,0-31.5-127.8-8.6-204.9
			c22.9-77.1,56.5-93,53.5-104.8c-3-11.8-19.9-6.4-25.5,4.4c-5.7,10.8-28.2,34.1-48.3,30.1c-20.1-4-23.7-77.5-38.3-85
			c-14.6-7.5-10.3,26.5-5.3,56c5,29.5-22.9,12.8-39.6-22.7c-16.8-35.5-27.3-25.2-29.4-20.3c-2.1,5,37.1,68.4,34,71.4
			c-3.1,3-52.8-49.8-57.8-48.3c-5,1.4-13.5,5.5-1.8,22.1c11.8,16.6,49.4,44.6,46.8,49.2c-2.6,4.6-33.6-20.9-45.1-21.6
			c-11.5-0.7-7.2,13.8,13.2,27.1c20.4,13.4,70.7,28.2,71.1,77.8c0.4,49.7-13.2,169.8-13.2,169.8L1045.3,957.7z"/>
		<path fill-rule="evenodd" clip-rule="evenodd" fill="#775E2D" d="M1326.3,984.7c0,0-407.1-56.5-653.1,19.8
			C673.1,1004.4,947.4,848.9,1326.3,984.7z"/>
	</g>
</g>
</svg>
