<?xml version="1.0" encoding="utf-8"?>
<!-- Generator: Adobe Illustrator 19.0.0, SVG Export Plug-In . SVG Version: 6.00 Build 0)  -->
<svg version="1.1" id="Capa_1" xmlns="http://www.w3.org/2000/svg" xmlns:xlink="http://www.w3.org/1999/xlink" x="0px" y="0px"
	 viewBox="-97 220.9 400 400" style="enable-background:new -97 220.9 400 400;" xml:space="preserve">
<style type="text/css">
	.st0{fill:#183246;}
	.st1{fill:#FFFFFF;}
	.st2{fill:#A0C44A;}
	.st3{fill:#9EC6E8;}
	.st4{opacity:0.7;fill-rule:evenodd;clip-rule:evenodd;fill:#9EC6E8;}
	.st5{fill-rule:evenodd;clip-rule:evenodd;fill:#86BAE3;}
	.st6{opacity:0.7;fill-rule:evenodd;clip-rule:evenodd;fill:#66973B;}
	.st7{fill-rule:evenodd;clip-rule:evenodd;fill:#66973B;}
	.st8{fill:#66973B;}
	.st9{fill-rule:evenodd;clip-rule:evenodd;fill:#9EC6E8;}
	.st10{fill-rule:evenodd;clip-rule:evenodd;fill:#D6E8F6;}
</style>
<g>
	<circle class="st0" cx="98.7" cy="378.3" r="97.3"/>
	<path class="st1" d="M91.8,277.9c-55.4,3.8-97.4,52-93.6,107.4c3.8,55.4,52,97.4,107.4,93.6c55.4-3.8,97.4-52,93.6-107.4
		C195.4,316,147.2,274,91.8,277.9z M105.2,471.5c-51.4,3.5-96-35.3-99.5-86.7c-3.5-51.4,35.3-96,86.7-99.5
		c51.4-3.5,96,35.3,99.5,86.7C195.4,423.4,156.6,467.9,105.2,471.5z"/>
	<path class="st2" d="M7.2,396.5c0,0,11.7,73,88.5,75.1c0,0,45.8,4.4,76.9-34.9c0,0-34.5-5.6-79.5-25.2
		C93.1,411.5,43.2,383.1,7.2,396.5z"/>
	<path id="XMLID_5_" class="st3" d="M106.2,485.9C46.8,490-4.8,445.1-8.9,385.7c-4.1-59.3,40.9-110.9,100.2-115
		c59.3-4.1,110.9,40.9,115,100.2C210.4,430.3,165.5,481.9,106.2,485.9z M91.8,277.9c-55.4,3.8-97.4,52-93.6,107.4
		c3.8,55.4,52,97.4,107.4,93.6c55.4-3.8,97.4-52,93.6-107.4C195.4,316,147.2,274,91.8,277.9z"/>
	<g>
		<polygon class="st4" points="-11.5,552 -2.6,552 4.2,562.2 -4.7,562.2 		"/>
		<polygon class="st5" points="-11.5,572.5 -2.6,572.5 4.2,562.2 -4.7,562.2 		"/>
		<polygon class="st6" points="2.4,552 11.3,552 18.1,562.2 9.2,562.2 		"/>
		<polygon class="st7" points="2.4,572.5 11.3,572.5 18.1,562.2 9.2,562.2 		"/>
	</g>
	<g>
		<path class="st0" d="M38,572.9l-3.9-5.8h-3.2v5.8h-4v-18.3h8.4c4.3,0,6.9,2.3,6.9,6v0.1c0,3-1.6,4.8-3.9,5.7l4.5,6.5H38z
			 M38.1,560.9c0-1.7-1.2-2.6-3.2-2.6h-4v5.3H35C37,563.5,38.1,562.5,38.1,560.9L38.1,560.9z"/>
		<path class="st0" d="M46.9,572.9v-18.3h4v18.3H46.9z M47.3,553.2l3-4.6l3.4,1.5l-3.3,3.1H47.3z"/>
		<path class="st0" d="M65.4,573.2c-5.6,0-9.7-4.2-9.7-9.4v-0.1c0-5.2,4.1-9.5,9.7-9.5s9.7,4.2,9.7,9.4v0.1
			C75.1,569,71,573.2,65.4,573.2z M70.9,563.8c0-3.1-2.3-5.7-5.5-5.7c-3.2,0-5.5,2.6-5.5,5.7v0.1c0,3.1,2.3,5.7,5.5,5.7
			C68.6,569.5,70.9,567,70.9,563.8L70.9,563.8z"/>
		<path class="st0" d="M97,573.2c-5.4,0-9.4-4.2-9.4-9.4v-0.1c0-5.2,3.9-9.5,9.5-9.5c3.4,0,5.5,1.1,7.2,2.8l-2.6,3
			c-1.4-1.3-2.8-2.1-4.7-2.1c-3.1,0-5.3,2.6-5.3,5.7v0.1c0,3.1,2.2,5.7,5.3,5.7c2.1,0,3.4-0.8,4.8-2.1l2.6,2.6
			C102.6,572,100.5,573.2,97,573.2z"/>
		<path class="st0" d="M116.3,573.2c-4.9,0-7.9-2.7-7.9-8.1v-10.4h4V565c0,3,1.5,4.5,3.9,4.5s3.9-1.5,3.9-4.4v-10.5h4V565
			C124.3,570.5,121.2,573.2,116.3,573.2z"/>
		<path class="st0" d="M142.3,572.9l-1.7-4.1h-7.7l-1.7,4.1h-4.1l7.8-18.4h3.7l7.8,18.4H142.3z M136.7,559.3l-2.4,5.9h4.9
			L136.7,559.3z"/>
		<path class="st0" d="M161.4,572.9l-3.9-5.8h-3.2v5.8h-4v-18.3h8.4c4.3,0,6.9,2.3,6.9,6v0.1c0,3-1.6,4.8-3.9,5.7l4.5,6.5H161.4z
			 M161.4,560.9c0-1.7-1.2-2.6-3.2-2.6h-4v5.3h4.1C160.3,563.5,161.4,562.5,161.4,560.9L161.4,560.9z"/>
		<path class="st0" d="M178.4,558.4v14.6h-4v-14.6h-5.6v-3.7h15.2v3.7H178.4z"/>
		<path class="st0" d="M196.1,573.2c-5.6,0-9.7-4.2-9.7-9.4v-0.1c0-5.2,4.1-9.5,9.7-9.5c5.6,0,9.7,4.2,9.7,9.4v0.1
			C205.8,569,201.7,573.2,196.1,573.2z M201.6,563.8c0-3.1-2.3-5.7-5.5-5.7c-3.2,0-5.5,2.6-5.5,5.7v0.1c0,3.1,2.3,5.7,5.5,5.7
			C199.4,569.5,201.6,567,201.6,563.8L201.6,563.8z"/>
	</g>
	<g>
		<g>
			<path class="st8" d="M-3.2,512.8h-9.9v-6.6h27.1v6.6H4v26.1h-7.2V512.8z"/>
			<path class="st8" d="M33.1,539.4c-4.4,0-7.8-1.2-10.4-3.6c-2.5-2.4-3.8-6.1-3.8-10.9v-18.7h7.2v18.5c0,2.7,0.6,4.7,1.9,6
				c1.2,1.4,3,2,5.2,2c2.2,0,3.9-0.7,5.2-2c1.2-1.3,1.9-3.3,1.9-5.9v-18.7h7.2v18.4c0,2.5-0.3,4.7-1,6.5c-0.7,1.8-1.6,3.4-2.9,4.6
				c-1.2,1.2-2.8,2.1-4.5,2.8C37.2,539.1,35.2,539.4,33.1,539.4z"/>
			<path class="st8" d="M54.7,506.2h14.9c4.1,0,7.3,1.1,9.5,3.3c1.9,1.9,2.8,4.4,2.8,7.5v0.1c0,2.6-0.6,4.8-1.9,6.5
				c-1.3,1.7-3,2.9-5.1,3.7l8,11.7h-8.4l-7-10.5h-0.1h-5.6v10.5h-7.2V506.2z M69.2,522c1.8,0,3.1-0.4,4.1-1.3c1-0.8,1.4-2,1.4-3.4
				v-0.1c0-1.6-0.5-2.7-1.5-3.5c-1-0.8-2.4-1.2-4.2-1.2h-7.1v9.4H69.2z"/>
			<path class="st8" d="M88.8,506.2H96v32.7h-7.2V506.2z"/>
			<path class="st8" d="M115.8,539.3c-2.5,0-4.9-0.4-7.3-1.3c-2.4-0.9-4.6-2.2-6.5-3.9l4.2-5.1c1.5,1.2,3,2.2,4.6,2.9
				c1.6,0.7,3.3,1.1,5.2,1.1c1.5,0,2.7-0.3,3.5-0.8c0.8-0.5,1.2-1.3,1.2-2.3v-0.1c0-0.5-0.1-0.9-0.3-1.2c-0.2-0.4-0.5-0.7-1-1
				c-0.5-0.3-1.2-0.6-2-0.9c-0.9-0.3-2-0.6-3.3-1c-1.7-0.4-3.2-0.9-4.5-1.4c-1.3-0.5-2.5-1.1-3.4-1.8c-0.9-0.7-1.7-1.6-2.2-2.7
				c-0.5-1.1-0.8-2.4-0.8-4.1v-0.1c0-1.5,0.3-2.8,0.8-4c0.6-1.2,1.3-2.2,2.3-3.1c1-0.9,2.2-1.5,3.6-2c1.4-0.5,2.9-0.7,4.6-0.7
				c2.4,0,4.6,0.4,6.6,1.1c2,0.7,3.9,1.7,5.5,3.1l-3.7,5.4c-1.5-1-2.9-1.8-4.3-2.4c-1.4-0.6-2.8-0.9-4.2-0.9c-1.4,0-2.5,0.3-3.2,0.8
				c-0.7,0.5-1,1.2-1,2v0.1c0,0.5,0.1,1,0.3,1.4c0.2,0.4,0.6,0.7,1.1,1c0.5,0.3,1.3,0.6,2.2,0.9c0.9,0.3,2.1,0.6,3.5,1
				c1.7,0.4,3.1,0.9,4.4,1.5c1.3,0.5,2.4,1.2,3.3,2c0.9,0.8,1.6,1.7,2,2.7c0.5,1,0.7,2.3,0.7,3.7v0.1c0,1.6-0.3,3.1-0.9,4.3
				c-0.6,1.3-1.4,2.3-2.5,3.2c-1.1,0.9-2.3,1.5-3.8,2C119.2,539.1,117.6,539.3,115.8,539.3z"/>
			<path class="st8" d="M134,506.2h7.8l8.6,13.8l8.6-13.8h7.8v32.7h-7.1v-21.3l-9.2,14h-0.2l-9.1-13.8v21.2H134V506.2z"/>
			<path class="st8" d="M190.4,539.4c-2.5,0-4.8-0.4-7-1.3c-2.1-0.9-3.9-2.1-5.5-3.6c-1.5-1.5-2.7-3.3-3.6-5.3
				c-0.9-2-1.3-4.2-1.3-6.6v-0.1c0-2.3,0.4-4.5,1.3-6.6c0.9-2,2.1-3.8,3.6-5.4c1.5-1.5,3.4-2.8,5.5-3.6c2.1-0.9,4.5-1.3,7-1.3
				c2.5,0,4.8,0.4,7,1.3c2.1,0.9,3.9,2.1,5.5,3.6c1.5,1.5,2.7,3.3,3.6,5.3c0.9,2,1.3,4.2,1.3,6.6v0.1c0,2.3-0.4,4.5-1.3,6.6
				c-0.9,2-2.1,3.8-3.6,5.4c-1.5,1.5-3.4,2.8-5.5,3.6C195.3,539,193,539.4,190.4,539.4z M190.5,532.8c1.4,0,2.8-0.3,4-0.8
				c1.2-0.5,2.2-1.3,3.1-2.2c0.9-0.9,1.5-2,2-3.2c0.5-1.2,0.7-2.5,0.7-3.9v-0.1c0-1.4-0.2-2.7-0.7-4c-0.5-1.2-1.2-2.3-2.1-3.3
				c-0.9-0.9-1.9-1.7-3.2-2.2c-1.2-0.5-2.5-0.8-4-0.8c-1.5,0-2.8,0.3-4,0.8c-1.2,0.5-2.2,1.3-3.1,2.2c-0.9,0.9-1.5,2-2,3.2
				c-0.5,1.2-0.7,2.5-0.7,3.9v0.1c0,1.4,0.2,2.7,0.7,4c0.5,1.2,1.2,2.3,2.1,3.3c0.9,0.9,1.9,1.7,3.1,2.2
				C187.7,532.5,189.1,532.8,190.5,532.8z"/>
		</g>
	</g>
	<path class="st7" d="M-19.9,403.4C-4.6,356.9,36.5,323.9,85,319c56.4-5.7,109,27.7,128.5,80.4c-42-3.5-89.5-27.2-138-29
		C42.9,369.1,9,376.8-19.9,403.4z"/>
	<path class="st9" d="M-39.9,426.3c35.4-49.7,82.2-61.4,125.7-58.4c73.9,5.1,142.9,57.5,197.4,12.9c-24.5,46.2-58,55.8-88,56.9
		C102.1,441.1,36,346.5-39.9,426.3z"/>
	<path class="st10" d="M237.8,419.1c-49.6,16-108.7-25-171.2-29.9c-19.9-1.6-40.5,0.2-60.3,7.6c51.3,0.5,102.3,50.5,167.4,48.2
		C194.4,444.2,218,438.3,237.8,419.1z"/>
</g>
</svg>
