<?xml version="1.0" encoding="utf-8"?>
<!-- Generator: Adobe Illustrator 19.0.0, SVG Export Plug-In . SVG Version: 6.00 Build 0)  -->
<svg version="1.1" id="Capa_1" xmlns="http://www.w3.org/2000/svg" xmlns:xlink="http://www.w3.org/1999/xlink" x="0px" y="0px"
	 viewBox="-97 220.9 400 400" style="enable-background:new -97 220.9 400 400;" xml:space="preserve">
<style type="text/css">
	.st0{fill:none;}
	.st1{fill:#66973B;}
	.st2{fill:#9EC6E8;}
	.st3{fill:#183246;}
	.st4{fill:none;stroke:#FFFFFF;stroke-width:1.1251;stroke-miterlimit:10;}
	.st5{fill:#FFFFFF;stroke:#FFFFFF;stroke-width:1.8752;stroke-linecap:round;stroke-linejoin:round;stroke-miterlimit:10;}
	.st6{opacity:0.7;fill:#9EC6E8;enable-background:new    ;}
	.st7{opacity:0.7;fill:#66973B;enable-background:new    ;}
</style>
<g>
	<rect x="-97" y="220.9" class="st0" width="400" height="400"/>
	<g>
		<circle class="st1" cx="101.1" cy="372" r="109.5"/>
		<circle class="st2" cx="101.1" cy="372" r="100.5"/>
		<circle class="st3" cx="101.1" cy="372" r="93.2"/>
		<circle class="st4" cx="101.1" cy="372" r="100.5"/>
		<polygon class="st5" points="102.7,451.5 33.5,425.8 21.9,421.5 62.3,390.7 98.8,408.1 		"/>
		<polygon class="st5" points="21.3,450.3 102.1,453 33.7,432.7 		"/>
		<polygon class="st5" points="106.1,451.5 165.2,392.6 115,380.1 102.4,410.5 		"/>
		<polygon class="st5" points="110.2,450.6 164.3,399.5 192.8,413.2 		"/>
		<polygon class="st5" points="110.1,452.2 173,427.9 185.9,451.1 		"/>
		<polygon class="st3" points="102.9,449.1 37,424.6 26,420.5 64.4,391.2 99.2,407.8 		"/>
		<polygon class="st3" points="25.4,447.9 102.4,450.5 37.2,431.2 		"/>
		<polygon class="st3" points="106.1,449.1 162.4,393 114.6,381.1 102.6,410 		"/>
		<polygon class="st3" points="110.1,448.2 161.6,399.6 188.7,412.6 		"/>
		<polygon class="st3" points="109.9,449.7 169.8,426.6 182.1,448.6 		"/>
		<path class="st5" d="M75.3,300.2v3.9l0.9,0.3c1.5,1.7,2.3,3.7,2.3,6.2v67.6c0,3-0.1,6.4-0.1,6.4l19.7,29.3
			c0.8,0.8,1.8,1.2,2.9,1.2l0,0c1.1,0,2.1-0.4,2.9-1.2l19.8-28.6c0,0,0-4.1,0-7.1v-67.6c0-2.5,0.8-4.5,2.3-6.2l0.9-0.3v-3.9
			L75.3,300.2L75.3,300.2z M115.7,314.1v64.1c0,3-1.1,5.2-3.2,7.1l-5.4,7.7c0,0-2.4-2.1-6.1-2.1s-6.1,2.1-6.1,2.1l-5.3-7.7
			c-2-1.9-3.2-4.1-3.2-7.1v-64.1c0-0.9,0.1-1.7,0.3-2.4L97,314v64.3c0,2.7-0.9,4.7-2.5,6.5c1.9-0.4,4.1-0.6,6.5-0.6s4.6,0.2,6.6,0.7
			c-1.7-1.8-2.6-3.8-2.6-6.5v-64.3l10.4-2.3C115.6,312.4,115.7,313.2,115.7,314.1z"/>
		<g>
			<polygon class="st6" points="17,567.1 23.2,567.1 28,574.3 21.7,574.3 			"/>
			<polygon class="st2" points="17,581.5 23.2,581.5 28,574.3 21.7,574.3 			"/>
			<polygon class="st7" points="26.7,567.1 33,567.1 37.8,574.3 31.5,574.3 			"/>
			<polygon class="st1" points="26.7,581.5 33,581.5 37.8,574.3 31.5,574.3 			"/>
		</g>
		<g>
			<g>
				<path class="st1" d="M53.5,581.5l-3.2-4.6h-2.9v4.6H45v-13.2h5.9c3,0,4.9,1.6,4.9,4.2c0,2.2-1.3,3.5-3.2,4l3.6,5H53.5z
					 M50.7,570.4h-3.4v4.4h3.4c1.7,0,2.7-0.9,2.7-2.2C53.4,571.1,52.4,570.4,50.7,570.4z"/>
				<path class="st1" d="M63.7,568.3v13.2h-2.3v-13.2H63.7z M61.6,567.2l2-3.1l2.1,0.9l-2.3,2.2L61.6,567.2L61.6,567.2z"/>
				<path class="st1" d="M76.2,581.7c-4.1,0-6.9-3.1-6.9-6.8s2.9-6.9,6.9-6.9c4.1,0,6.9,3.1,6.9,6.8
					C83.1,578.6,80.3,581.7,76.2,581.7z M76.2,570.2c-2.6,0-4.5,2.1-4.5,4.7c0,2.6,1.9,4.7,4.5,4.7c2.6,0,4.5-2.1,4.5-4.7
					S78.8,570.2,76.2,570.2z"/>
				<path class="st1" d="M103,581.7c-3.9,0-6.7-3-6.7-6.8s2.8-6.9,6.8-6.9c2.4,0,3.9,0.8,5.2,2.1l-1.5,1.7c-1.1-1-2.2-1.6-3.7-1.6
					c-2.5,0-4.4,2.1-4.4,4.7c0,2.6,1.8,4.7,4.4,4.7c1.6,0,2.7-0.7,3.8-1.7l1.5,1.5C107,580.8,105.5,581.7,103,581.7z"/>
				<path class="st1" d="M124.6,575.8c0,3.9-2.2,5.9-5.7,5.9c-3.4,0-5.6-2-5.6-5.8v-7.6h2.3v7.5c0,2.5,1.3,3.8,3.3,3.8
					c2.1,0,3.3-1.2,3.3-3.7v-7.6h2.3L124.6,575.8L124.6,575.8z"/>
				<path class="st1" d="M142.6,581.5h-2.5l-1.3-3.2h-6.2l-1.4,3.2h-2.4l5.8-13.3h2.2L142.6,581.5z M135.6,571l-2.3,5.3h4.6
					L135.6,571z"/>
				<path class="st1" d="M155.9,581.5l-3.2-4.6h-2.9v4.6h-2.3v-13.2h5.9c3,0,4.9,1.6,4.9,4.2c0,2.2-1.3,3.5-3.2,4l3.6,5H155.9z
					 M153.2,570.4h-3.4v4.4h3.4c1.7,0,2.7-0.9,2.7-2.2C155.9,571.1,154.9,570.4,153.2,570.4z"/>
				<path class="st1" d="M169.3,581.5H167v-11.1h-4.2v-2.2h10.7v2.2h-4.2V581.5z"/>
				<path class="st1" d="M184.2,581.7c-4.1,0-6.9-3.1-6.9-6.8s2.9-6.9,6.9-6.9c4.1,0,6.9,3.1,6.9,6.8
					C191.1,578.6,188.2,581.7,184.2,581.7z M184.2,570.2c-2.6,0-4.5,2.1-4.5,4.7c0,2.6,1.9,4.7,4.5,4.7s4.5-2.1,4.5-4.7
					C188.6,572.3,186.8,570.2,184.2,570.2z"/>
			</g>
		</g>
		<g>
			<path class="st3" d="M19.3,523.6V504H34v3.8H23.6v4h9.2v3.8h-9.2v4.1h10.6v3.8H19.3C19.3,523.5,19.3,523.6,19.3,523.6z"/>
			<path class="st3" d="M44.6,523.6H37V504h7.6c6.1,0,10.4,4.2,10.4,9.7v0.1C55,519.3,50.7,523.6,44.6,523.6z M50.5,513.8
				c0-3.5-2.4-5.9-5.9-5.9h-3.3v11.8h3.3C48.1,519.7,50.5,517.3,50.5,513.8L50.5,513.8z"/>
			<path class="st3" d="M65.9,523.9c-5.2,0-8.5-2.9-8.5-8.7V504h4.3v11c0,3.2,1.6,4.8,4.2,4.8c2.6,0,4.2-1.6,4.2-4.7V504h4.3v11
				C74.5,521,71.1,523.9,65.9,523.9z"/>
			<path class="st3" d="M87,523.9c-5.7,0-10-4.4-10-10v-0.1c0-5.6,4.2-10.1,10.2-10.1c3.7,0,5.9,1.2,7.7,3l-2.7,3.2
				c-1.5-1.4-3-2.2-5-2.2c-3.3,0-5.7,2.7-5.7,6.1v0.1c0,3.3,2.3,6.1,5.7,6.1c2.2,0,3.6-0.9,5.1-2.3l2.7,2.8
				C93,522.6,90.7,523.9,87,523.9z"/>
			<path class="st3" d="M111.9,523.6l-1.8-4.4h-8.3l-1.8,4.4h-4.4l8.4-19.7h4l8.4,19.7H111.9z M106,509.1l-2.6,6.3h5.2L106,509.1z"
				/>
			<path class="st3" d="M126.3,523.9c-5.7,0-10-4.4-10-10v-0.1c0-5.6,4.2-10.1,10.2-10.1c3.7,0,5.9,1.2,7.7,3l-2.7,3.2
				c-1.5-1.4-3-2.2-5-2.2c-3.3,0-5.7,2.7-5.7,6.1v0.1c0,3.3,2.3,6.1,5.7,6.1c2.2,0,3.6-0.9,5.1-2.3l2.7,2.8
				C132.3,522.6,130.1,523.9,126.3,523.9z"/>
			<path class="st3" d="M136.9,523.6V504h4.3v19.5L136.9,523.6L136.9,523.6z"/>
			<path class="st3" d="M154.5,523.9c-6,0-10.4-4.5-10.4-10v-0.1c0-5.6,4.4-10.1,10.4-10.1s10.4,4.5,10.4,10v0.1
				C164.9,519.3,160.6,523.9,154.5,523.9z M160.4,513.8c0-3.3-2.5-6.1-5.9-6.1c-3.5,0-5.9,2.7-5.9,6.1v0.1c0,3.3,2.5,6.1,5.9,6.1
				C158,519.9,160.4,517.2,160.4,513.8L160.4,513.8z M153.1,502.5l3.2-4.9l3.7,1.6l-3.6,3.3L153.1,502.5L153.1,502.5z"/>
			<path class="st3" d="M181.4,523.6l-9.5-12.4v12.4h-4.2V504h4l9.2,12v-12h4.2v19.5L181.4,523.6L181.4,523.6z"/>
		</g>
		<g>
			<path class="st3" d="M31.1,555.2h-4.2v-9.3l-9.4-14.3h4.9l6.6,10.5l6.7-10.5h4.8l-9.4,14.2V555.2z"/>
			<path class="st3" d="M73,555.6c-6.9,0-12-5.4-12-12.2c0-6.7,5-12.2,12.2-12.2c4.4,0,7,1.5,9.2,3.7l-2.7,3.1
				c-1.9-1.8-3.9-2.9-6.6-2.9c-4.5,0-7.8,3.7-7.8,8.4s3.3,8.4,7.8,8.4c2.9,0,4.8-1.2,6.8-3.1l2.7,2.7C80.1,554,77.4,555.6,73,555.6z
				"/>
			<path class="st3" d="M110.6,545c0,7-4,10.6-10.2,10.6c-6.1,0-10.1-3.5-10.1-10.4v-13.6h4.1V545c0,4.4,2.3,6.7,6,6.7
				c3.7,0,5.9-2.2,5.9-6.6v-13.6h4.1V545L110.6,545L110.6,545z"/>
			<path class="st3" d="M120.2,531.6h4.1v19.8h12.4v3.8h-16.6L120.2,531.6L120.2,531.6z"/>
			<path class="st3" d="M151.5,555.2h-4.2v-19.8h-7.5v-3.8H159v3.8h-7.5V555.2z"/>
			<path class="st3" d="M177.3,555.6c-7.3,0-12.3-5.5-12.3-12.2s5.1-12.2,12.4-12.2c7.3,0,12.3,5.5,12.3,12.2
				C189.6,550.1,184.5,555.6,177.3,555.6z M177.3,535c-4.7,0-8,3.7-8,8.4c0,4.6,3.3,8.4,8,8.4s8-3.7,8-8.4S182,535,177.3,535z"/>
		</g>
		<path class="st2" d="M75.3,300.2v3.9l0.9,0.3c1.5,1.7,2.3,3.7,2.3,6.2v67.6c0,3-0.1,6.4-0.1,6.4l19.7,29.3
			c0.8,0.8,1.8,1.2,2.9,1.2l0,0c1.1,0,2.1-0.4,2.9-1.2l19.8-28.6c0,0,0-4.1,0-7.1v-67.6c0-2.5,0.8-4.5,2.3-6.2l0.9-0.3v-3.9
			L75.3,300.2L75.3,300.2z M115.7,314.1v64.1c0,3-1.1,5.2-3.2,7.1l-5.4,7.7c0,0-2.4-2.1-6.1-2.1s-6.1,2.1-6.1,2.1l-5.3-7.7
			c-2-1.9-3.2-4.1-3.2-7.1v-64.1c0-0.9,0.1-1.7,0.3-2.4L97,314v64.3c0,2.7-0.9,4.7-2.5,6.5c1.9-0.4,4.1-0.6,6.5-0.6s4.6,0.2,6.6,0.7
			c-1.7-1.8-2.6-3.8-2.6-6.5v-64.3l10.4-2.3C115.6,312.4,115.7,313.2,115.7,314.1z"/>
	</g>
</g>
</svg>
