<?xml version="1.0" encoding="utf-8"?>
<!-- Generator: Adobe Illustrator 18.0.0, SVG Export Plug-In . SVG Version: 6.00 Build 0)  -->
<!DOCTYPE svg PUBLIC "-//W3C//DTD SVG 1.1//EN" "http://www.w3.org/Graphics/SVG/1.1/DTD/svg11.dtd">
<svg version="1.1" xmlns="http://www.w3.org/2000/svg" xmlns:xlink="http://www.w3.org/1999/xlink" x="0px" y="0px"
	 viewBox="240 0 1440 1440" enable-background="new 240 0 1440 1440" xml:space="preserve">
<g id="Capa_1">
	<g id="Capa_1_1_">
		<rect x="240" fill="none" width="1440" height="1440"/>
	</g>
</g>
<g id="Capa_3">
	<g>
		<path fill-rule="evenodd" clip-rule="evenodd" fill="#253546" d="M837,270.9c-158.6,31.7-278.2,171.8-278.2,339.8
			c0,191.4,155.1,346.5,346.5,346.5c191.4,0,346.5-155.1,346.5-346.5h-64c0,156-126.5,282.5-282.5,282.5
			c-156,0-282.5-126.5-282.5-282.5c0-132.5,91.2-243.6,214.2-274.2V270.9z"/>
		<g>
			<g>
				<path fill="#253546" d="M636.4,998.9h34.5c8,0,15.2,1.1,21.4,3.3c6.3,2.2,11.6,5.2,15.9,9.1c4.3,3.9,7.6,8.6,9.9,14
					c2.3,5.4,3.4,11.4,3.4,17.8v0.3c0,6.5-1.1,12.5-3.5,18c-2.3,5.5-5.6,10.3-10,14.3c-4.3,4-9.7,7.1-16.1,9.4
					c-6.4,2.3-13.5,3.4-21.6,3.4h-34V998.9z M671.3,1066.4c7.4,0,13.4-2,18-5.9c4.5-3.9,6.8-9.5,6.8-16.8v-0.3
					c0-7.2-2.3-12.7-6.8-16.7c-4.5-4-10.5-5.9-18-5.9h-10.1v45.5H671.3z"/>
				<path fill="#253546" d="M802.5,998.2h23.9l38.1,90.2H838l-6.5-16h-34.5l-6.4,16h-26.1L802.5,998.2z M824.3,1053.2l-10-25.5
					l-10.1,25.5H824.3z"/>
				<path fill="#253546" d="M932.5,1020.6h-26.9v-21.7h78.6v21.7h-26.9v67.8h-24.8V1020.6z"/>
				<path fill="#253546" d="M1077.5,1090.2c-6.9,0-13.3-1.2-19.2-3.6c-5.9-2.4-11-5.7-15.2-9.9c-4.3-4.2-7.6-9.1-10-14.7
					c-2.4-5.6-3.6-11.6-3.6-18v-0.3c0-6.4,1.2-12.4,3.6-18.1c2.4-5.7,5.8-10.6,10.2-14.8c4.3-4.2,9.5-7.6,15.4-10
					c5.9-2.4,12.3-3.6,19.2-3.6c6.9,0,13.3,1.2,19.2,3.6c5.9,2.4,11,5.7,15.2,9.9c4.3,4.2,7.6,9.1,10,14.7c2.4,5.6,3.6,11.6,3.6,18
					v0.3c0,6.4-1.2,12.4-3.6,18.1c-2.4,5.7-5.8,10.6-10.2,14.8c-4.3,4.2-9.5,7.5-15.4,10C1090.8,1089,1084.4,1090.2,1077.5,1090.2z
					 M1077.7,1067.8c3.4,0,6.5-0.6,9.4-1.9c2.8-1.3,5.2-3,7.2-5.2c2-2.2,3.5-4.7,4.6-7.6c1.1-2.9,1.7-6,1.7-9.2v-0.3
					c0-3.2-0.6-6.3-1.7-9.2c-1.1-2.9-2.7-5.5-4.7-7.7c-2.1-2.2-4.5-4-7.3-5.3c-2.8-1.3-5.9-2-9.4-2c-3.4,0-6.5,0.6-9.3,1.9
					c-2.8,1.3-5.2,3-7.2,5.2c-2,2.2-3.5,4.7-4.6,7.6c-1.1,2.9-1.6,6-1.6,9.2v0.3c0,3.2,0.6,6.3,1.7,9.2c1.1,2.9,2.7,5.5,4.7,7.7
					c2,2.2,4.4,4,7.2,5.3C1071.1,1067.2,1074.2,1067.8,1077.7,1067.8z"/>
				<path fill="#253546" d="M1211.3,1090c-8,0-15.6-1.2-22.8-3.7c-7.2-2.5-13.6-6.2-19.1-11.2l13.8-16.5c9,7.2,18.6,10.7,29,10.7
					c3.3,0,5.9-0.5,7.6-1.6c1.7-1.1,2.6-2.6,2.6-4.5v-0.3c0-0.9-0.2-1.8-0.6-2.5c-0.4-0.7-1.2-1.4-2.4-2.1c-1.2-0.7-2.7-1.3-4.6-2
					c-1.9-0.6-4.4-1.3-7.5-2c-4.8-1.1-9.2-2.3-13.3-3.6c-4.1-1.3-7.7-3-10.7-5.1c-3-2.1-5.4-4.7-7.2-7.8c-1.8-3.1-2.6-7-2.6-11.6
					v-0.3c0-4.2,0.8-8,2.4-11.5c1.6-3.5,3.9-6.5,6.9-9.1c3-2.6,6.7-4.5,10.9-5.9c4.3-1.4,9.1-2.1,14.5-2.1c7.7,0,14.5,1,20.5,3
					c6,2,11.4,5,16.3,8.9l-12.4,17.6c-4.1-2.9-8.3-5.1-12.6-6.6c-4.3-1.5-8.5-2.2-12.5-2.2c-3,0-5.2,0.6-6.7,1.7
					c-1.5,1.1-2.2,2.5-2.2,4.1v0.3c0,1,0.2,1.9,0.7,2.7c0.5,0.8,1.3,1.5,2.4,2.1c1.1,0.6,2.7,1.3,4.7,1.9c2,0.6,4.5,1.3,7.6,2
					c5.1,1.1,9.7,2.4,13.9,3.9c4.1,1.5,7.7,3.3,10.6,5.4c2.9,2.1,5.1,4.7,6.7,7.7c1.5,3,2.3,6.6,2.3,10.8v0.3
					c0,4.6-0.9,8.7-2.6,12.3c-1.8,3.6-4.2,6.6-7.4,9.1c-3.2,2.5-7,4.4-11.4,5.7C1221.7,1089.3,1216.7,1090,1211.3,1090z"/>
				<path fill="#253546" d="M659.6,1131.5h13.7l28.8,67.8h-15.5l-6.2-15.1H652l-6.2,15.1h-15.1L659.6,1131.5z M675.2,1171.1
					l-8.9-21.8l-8.9,21.8H675.2z"/>
				<path fill="#253546" d="M727,1132h31.2c7.7,0,13.6,2,17.6,6c3.1,3.1,4.6,6.9,4.6,11.4v0.2c0,1.9-0.2,3.6-0.7,5.1
					c-0.5,1.5-1.1,2.8-1.9,4c-0.8,1.2-1.7,2.2-2.8,3.1c-1.1,0.9-2.2,1.7-3.4,2.3c3.9,1.5,7,3.5,9.2,6c2.2,2.5,3.4,6,3.4,10.5v0.2
					c0,3.1-0.6,5.8-1.8,8.1c-1.2,2.3-2.9,4.2-5.1,5.8c-2.2,1.5-4.9,2.7-8,3.5c-3.1,0.8-6.5,1.2-10.3,1.2h-32V1132z M755,1159.2
					c3.3,0,5.9-0.6,7.8-1.7s2.9-2.9,2.9-5.4v-0.2c0-2.2-0.8-4-2.5-5.1c-1.7-1.2-4.1-1.8-7.2-1.8h-14.6v14.2H755z M759,1186.3
					c3.3,0,5.8-0.6,7.7-1.8c1.9-1.2,2.8-3,2.8-5.5v-0.2c0-2.2-0.9-4-2.6-5.3c-1.7-1.3-4.5-2-8.4-2h-17.1v14.8H759z"/>
				<path fill="#253546" d="M811.6,1132h14.8v67.3h-14.8V1132z"/>
				<path fill="#253546" d="M857.7,1132h50.7v13.2h-36v13.7H904v13.2h-31.7v14.1h36.5v13.2h-51.1V1132z"/>
				<path fill="#253546" d="M936.6,1132h30.8c8.5,0,15.1,2.3,19.6,6.8c3.8,3.8,5.8,9,5.8,15.4v0.2c0,5.4-1.3,9.9-4,13.3
					s-6.1,5.9-10.4,7.5l16.4,24h-17.3l-14.4-21.5h-0.2h-11.4v21.5h-14.8V1132z M966.4,1164.7c3.7,0,6.5-0.9,8.4-2.6
					c2-1.7,2.9-4,2.9-6.9v-0.2c0-3.2-1-5.6-3.1-7.2c-2.1-1.6-4.9-2.4-8.6-2.4h-14.7v19.3H966.4z"/>
				<path fill="#253546" d="M1036.3,1145.7h-20.5V1132h55.8v13.7h-20.5v53.6h-14.8V1145.7z"/>
				<path fill="#253546" d="M1130.1,1200.5c-5.2,0-10-0.9-14.3-2.7c-4.4-1.8-8.1-4.3-11.3-7.4c-3.2-3.1-5.6-6.8-7.4-11
					s-2.6-8.7-2.6-13.5v-0.2c0-4.8,0.9-9.3,2.7-13.5c1.8-4.2,4.3-7.9,7.4-11.1c3.2-3.2,7-5.7,11.3-7.5c4.4-1.8,9.2-2.7,14.4-2.7
					c5.2,0,10,0.9,14.3,2.7c4.4,1.8,8.1,4.3,11.3,7.4c3.2,3.1,5.6,6.8,7.4,11s2.6,8.7,2.6,13.5v0.2c0,4.8-0.9,9.3-2.7,13.5
					c-1.8,4.2-4.3,7.9-7.5,11.1c-3.2,3.2-7,5.7-11.3,7.5C1140.1,1199.5,1135.3,1200.5,1130.1,1200.5z M1130.3,1186.8
					c2.9,0,5.7-0.5,8.2-1.6c2.5-1.1,4.6-2.6,6.4-4.5c1.8-1.9,3.1-4.1,4.1-6.7s1.5-5.2,1.5-8.1v-0.2c0-2.9-0.5-5.6-1.5-8.2
					c-1-2.6-2.4-4.8-4.2-6.7c-1.8-1.9-4-3.4-6.5-4.6c-2.5-1.1-5.2-1.7-8.2-1.7c-3,0-5.8,0.5-8.2,1.6c-2.5,1.1-4.6,2.6-6.3,4.5
					c-1.8,1.9-3.1,4.1-4.1,6.7c-1,2.5-1.5,5.2-1.5,8.1v0.2c0,2.9,0.5,5.6,1.5,8.2c1,2.6,2.4,4.8,4.2,6.7c1.8,1.9,4,3.4,6.4,4.6
					C1124.6,1186.2,1127.3,1186.8,1130.3,1186.8z"/>
				<path fill="#253546" d="M1217.7,1200.3c-5.1,0-10.2-0.9-15.1-2.6c-4.9-1.8-9.4-4.5-13.5-8.1l8.7-10.5c3.1,2.5,6.2,4.5,9.5,6
					c3.2,1.5,6.8,2.2,10.6,2.2c3.1,0,5.5-0.6,7.2-1.7c1.7-1.1,2.5-2.7,2.5-4.7v-0.2c0-1-0.2-1.8-0.5-2.5c-0.4-0.7-1-1.4-2-2.1
					c-1-0.6-2.4-1.3-4.1-1.9s-4.1-1.3-6.9-2c-3.4-0.8-6.5-1.8-9.3-2.8c-2.8-1-5.1-2.3-7-3.8c-1.9-1.5-3.4-3.4-4.5-5.6
					c-1.1-2.2-1.6-5-1.6-8.4v-0.2c0-3.1,0.6-5.9,1.7-8.3c1.1-2.5,2.8-4.6,4.8-6.4c2.1-1.8,4.5-3.2,7.4-4.1c2.9-1,6-1.4,9.5-1.4
					c4.9,0,9.5,0.7,13.6,2.2c4.1,1.5,7.9,3.6,11.4,6.3l-7.7,11.1c-3-2-6-3.7-8.8-4.9c-2.9-1.2-5.8-1.8-8.7-1.8c-2.9,0-5,0.6-6.5,1.7
					c-1.4,1.1-2.2,2.5-2.2,4.2v0.2c0,1.1,0.2,2,0.6,2.8c0.4,0.8,1.2,1.5,2.3,2.2c1.1,0.6,2.6,1.2,4.5,1.8c1.9,0.6,4.3,1.3,7.2,2
					c3.4,0.9,6.4,1.9,9.1,3c2.7,1.1,4.9,2.5,6.8,4c1.8,1.6,3.2,3.4,4.1,5.5c0.9,2.1,1.4,4.6,1.4,7.6v0.2c0,3.3-0.6,6.3-1.8,8.9
					c-1.2,2.6-2.9,4.8-5.1,6.5c-2.2,1.8-4.7,3.1-7.8,4C1224.7,1199.8,1221.4,1200.3,1217.7,1200.3z"/>
			</g>
		</g>
		<g>
			<polygon opacity="0.7" fill-rule="evenodd" clip-rule="evenodd" fill="#98B833" points="637.6,1226.1 664,1226.1 684.1,1256.4 
				657.7,1256.4 			"/>
			<polygon fill-rule="evenodd" clip-rule="evenodd" fill="#98B833" points="637.6,1286.7 664,1286.7 684.1,1256.4 657.7,1256.4 			
				"/>
			<polygon opacity="0.7" fill-rule="evenodd" clip-rule="evenodd" fill="#40A2B6" points="678.7,1226.1 705.1,1226.1 725.2,1256.4 
				698.8,1256.4 			"/>
			<polygon fill-rule="evenodd" clip-rule="evenodd" fill="#40A2B6" points="678.7,1286.7 705.1,1286.7 725.2,1256.4 698.8,1256.4 
							"/>
		</g>
		<g>
			<path fill="#40A2B6" d="M784,1283.3l-11.6-17.3h-9.3v17.3h-11.9v-54.1h24.7c12.7,0,20.4,6.7,20.4,17.8v0.2
				c0,8.7-4.7,14.2-11.6,16.8l13.2,19.3H784z M784.3,1247.7c0-5.1-3.6-7.7-9.3-7.7h-11.8v15.5h12.1c5.8,0,9.1-3.1,9.1-7.6V1247.7z"
				/>
			<path fill="#40A2B6" d="M805.8,1283.3v-54.1h11.9v54.1H805.8z M806.8,1225l8.7-13.7l10.1,4.4l-9.9,9.3H806.8z"/>
			<path fill="#40A2B6" d="M855.7,1284.2c-16.7,0-28.7-12.4-28.7-27.8v-0.2c0-15.4,12.1-28,28.8-28s28.7,12.4,28.7,27.8v0.2
				C884.6,1271.6,872.4,1284.2,855.7,1284.2z M872.1,1256.2c0-9.3-6.8-17-16.4-17c-9.6,0-16.2,7.6-16.2,16.8v0.2
				c0,9.3,6.8,17,16.4,17s16.2-7.6,16.2-16.8V1256.2z"/>
			<path fill="#40A2B6" d="M940.1,1284.2c-15.9,0-27.7-12.3-27.7-27.8v-0.2c0-15.4,11.6-28,28.2-28c10.2,0,16.3,3.4,21.3,8.3
				l-7.6,8.7c-4.2-3.8-8.4-6.1-13.8-6.1c-9.1,0-15.7,7.6-15.7,16.8v0.2c0,9.3,6.4,17,15.7,17c6.2,0,10-2.5,14.2-6.3l7.6,7.6
				C956.8,1280.5,950.6,1284.2,940.1,1284.2z"/>
			<path fill="#40A2B6" d="M992.6,1284.1c-14.5,0-23.4-8.1-23.4-24v-30.9h11.9v30.6c0,8.8,4.4,13.4,11.7,13.4
				c7.3,0,11.7-4.4,11.7-13v-31h11.9v30.5C1016.3,1276.1,1007.1,1284.1,992.6,1284.1z"/>
			<path fill="#40A2B6" d="M1065,1283.3l-4.9-12.1h-22.9l-4.9,12.1h-12.1l23.2-54.5h11l23.2,54.5H1065z M1048.7,1243.1l-7.2,17.5
				h14.4L1048.7,1243.1z"/>
			<path fill="#40A2B6" d="M1116.9,1283.3l-11.6-17.3h-9.3v17.3h-11.9v-54.1h24.7c12.7,0,20.4,6.7,20.4,17.8v0.2
				c0,8.7-4.7,14.2-11.6,16.8l13.2,19.3H1116.9z M1117.1,1247.7c0-5.1-3.6-7.7-9.3-7.7H1096v15.5h12.1c5.8,0,9.1-3.1,9.1-7.6V1247.7
				z"/>
			<path fill="#40A2B6" d="M1162.7,1240.2v43.1h-11.9v-43.1h-16.5v-11h44.8v11H1162.7z"/>
			<path fill="#40A2B6" d="M1210.4,1284.2c-16.7,0-28.7-12.4-28.7-27.8v-0.2c0-15.4,12.1-28,28.8-28s28.7,12.4,28.7,27.8v0.2
				C1239.2,1271.6,1227.1,1284.2,1210.4,1284.2z M1226.8,1256.2c0-9.3-6.8-17-16.4-17s-16.2,7.6-16.2,16.8v0.2c0,9.3,6.8,17,16.4,17
				s16.2-7.6,16.2-16.8V1256.2z"/>
		</g>
		<polygon fill-rule="evenodd" clip-rule="evenodd" fill="#40A2B6" points="907.8,264 646.5,633.5 646.5,709.9 723.2,709.9 
			723.2,633.5 983.2,264 		"/>
		<polygon fill-rule="evenodd" clip-rule="evenodd" fill="#98B833" points="1061.4,195.2 753.7,633.5 753.7,841.2 829,841.2 
			829,633.5 1135.3,195.2 		"/>
		<polygon fill-rule="evenodd" clip-rule="evenodd" fill="#98B833" points="1245.5,235.3 965.3,633.5 965.3,844.4 1042,844.4 
			1042,633.5 1320.8,235.3 		"/>
		<polygon fill-rule="evenodd" clip-rule="evenodd" fill="#253546" points="1270.1,153.6 1194.8,153.6 858.8,633.5 858.8,882.7 
			935.5,882.7 935.5,633.5 935.5,633.5 		"/>
		<polygon fill-rule="evenodd" clip-rule="evenodd" fill="#40A2B6" points="1280.3,338.5 1071.1,633.5 1071.1,747.7 1149.3,747.7 
			1149.3,633.5 1357.1,338.5 		"/>
	</g>
</g>
</svg>
