<?xml version="1.0" encoding="utf-8"?>
<!-- Generator: Adobe Illustrator 19.0.0, SVG Export Plug-In . SVG Version: 6.00 Build 0)  -->
<svg version="1.1" xmlns="http://www.w3.org/2000/svg" xmlns:xlink="http://www.w3.org/1999/xlink" x="0px" y="0px"
	 viewBox="75 76 650 250" style="enable-background:new 75 76 650 250;" xml:space="preserve">
<style type="text/css">
	.st0{fill:#9FC7E9;}
	.st1{fill:#66983B;}
	.st2{opacity:0.7;fill:#66983B;enable-background:new    ;}
	.st3{fill:#1A3346;}
	.st4{opacity:0.7;fill:#9FC7E9;enable-background:new    ;}
	.st5{fill:none;}
</style>
<g id="Capa_2">
</g>
<g id="Capa_1">
	<g>
		<polygon class="st0" points="232.4,133 150.2,133 150.2,269.3 286.4,269.3 286.4,187.8 259.2,215.7 259.2,242.7 177.5,242.7 
			177.5,160.8 204.9,160.8 		"/>
		<polygon class="st1" points="286.4,133 286.4,170.4 265.2,191.7 265.2,154.7 		"/>
		<polygon class="st2" points="249.7,133.4 286.4,133.4 265.2,154.7 228.2,154.7 		"/>
		<g>
			<g>
				<path class="st3" d="M320.2,159.9h-4.8v8.6H309v-28.7h11.8c6.9,0,11,4,11,10v0.1C331.8,156.5,326.6,159.9,320.2,159.9z
					 M325.3,149.9c0-2.8-2-4.4-5.2-4.4h-4.9v8.8h5C323.5,154.2,325.3,152.3,325.3,149.9L325.3,149.9z"/>
				<path class="st3" d="M348.3,169c-8.8,0-15.2-6.6-15.2-14.8v-0.1c0-8.2,6.4-14.9,15.3-14.9c8.8,0,15.2,6.6,15.2,14.8v0.1
					C363.6,162.3,357.2,169,348.3,169z M357,154.1c0-4.9-3.6-9-8.7-9s-8.6,4-8.6,8.9v0.1c0,4.9,3.6,9,8.7,9S357,159.1,357,154.1
					L357,154.1z"/>
				<path class="st3" d="M384.7,168.5l-6.2-9.2h-5v9.2h-6.4v-28.7h13.1c6.8,0,10.8,3.6,10.8,9.4v0.1c0,4.6-2.5,7.6-6.2,8.9l7,10.2
					H384.7z M384.7,149.6c0-2.7-1.9-4.1-5-4.1h-6.3v8.2h6.4C383,153.7,384.7,152.1,384.7,149.6L384.7,149.6z"/>
				<path class="st3" d="M407.8,145.6v22.9h-6.4v-22.9h-8.8v-5.8h23.8v5.8H407.8z"/>
				<path class="st3" d="M437,168.5l-2.7-6.4h-12.1l-2.7,6.4h-6.4l12.3-28.9h5.8l12.3,28.9H437z M428.4,147.2l-3.8,9.3h7.6
					L428.4,147.2z"/>
				<path class="st3" d="M446,168.5v-28.7h6.4v23h14.3v5.8L446,168.5L446,168.5z"/>
				<path class="st3" d="M490.9,168.5h-11.2v-28.7h11.2c9,0,15.3,6.2,15.3,14.3v0.1C506.1,162.2,499.9,168.5,490.9,168.5z
					 M499.5,154.1c0-5.1-3.5-8.7-8.7-8.7H486v17.3h4.9C496,162.8,499.5,159.3,499.5,154.1L499.5,154.1z"/>
				<path class="st3" d="M509.7,168.5v-28.7h21.6v5.6h-15.4v5.8h13.6v5.6h-13.6v6h15.6v5.6L509.7,168.5L509.7,168.5z"/>
				<path class="st3" d="M322.1,194.8v22.9h-6.4v-22.9H307V189h23.8v5.8H322.1z"/>
				<path class="st3" d="M351,217.8l-6.2-9.2h-4.9v9.2h-6.4V189h13.1c6.8,0,10.8,3.6,10.8,9.4v0.1c0,4.6-2.5,7.6-6.2,8.9l7,10.2
					L351,217.8L351,217.8z M351.2,198.8c0-2.7-1.9-4.1-5-4.1h-6.3v8.2h6.4C349.4,203,351.2,201.4,351.2,198.8L351.2,198.8z"/>
				<path class="st3" d="M382.6,217.8l-2.7-6.4h-12.1l-2.7,6.4h-6.4l12.3-28.9h5.8l12.3,28.9H382.6z M373.8,196.4l-3.8,9.3h7.6
					L373.8,196.4z"/>
				<path class="st3" d="M411.7,217.8l-13.9-18.3v18.3h-6.3V189h5.8l13.5,17.7V189h6.3v28.8H411.7z"/>
				<path class="st3" d="M432.1,218.2c-4.4,0-8.8-1.5-12.2-4.6l3.7-4.5c2.6,2.1,5.3,3.5,8.6,3.5c2.6,0,4.1-1,4.1-2.7v-0.1
					c0-1.6-0.9-2.4-5.8-3.7c-5.8-1.5-9.5-3.1-9.5-8.8v-0.1c0-5.2,4.2-8.7,10-8.7c4.2,0,7.7,1.3,10.6,3.7l-3.3,4.7
					c-2.6-1.8-5.1-2.8-7.5-2.8s-3.7,1.1-3.7,2.5v0.1c0,1.9,1.2,2.5,6.2,3.8c5.8,1.5,9.1,3.6,9.1,8.6v0.1
					C442.7,214.9,438.3,218.2,432.1,218.2z"/>
				<path class="st3" d="M457.2,209.1h-4.8v8.6H446V189h11.8c6.9,0,11,4,11,10v0.1C468.9,205.7,463.6,209.1,457.2,209.1z M462.4,199
					c0-2.8-2-4.4-5.2-4.4h-4.9v8.8h5C460.6,203.5,462.4,201.6,462.4,199L462.4,199z"/>
				<path class="st3" d="M490,217.8l-2.7-6.4h-12.1l-2.7,6.4h-6.4l12.3-28.9h5.8l12.3,28.9H490z M481.2,196.4l-3.8,9.3h7.6
					L481.2,196.4z"/>
				<path class="st3" d="M516.4,217.8l-6.2-9.2h-5v9.2h-6.4V189H512c6.8,0,10.8,3.6,10.8,9.4v0.1c0,4.6-2.5,7.6-6.2,8.9l7,10.2
					L516.4,217.8L516.4,217.8z M516.5,198.8c0-2.7-1.9-4.1-5-4.1h-6.3v8.2h6.4C514.7,203,516.5,201.4,516.5,198.8L516.5,198.8z"/>
				<path class="st3" d="M526.6,217.8V189h21.6v5.6h-15.4v5.8h13.6v5.6h-13.6v6h15.6v5.6h-21.9V217.8z"/>
				<path class="st3" d="M572.2,217.8l-13.9-18.3v18.3H552V189h5.8l13.5,17.7V189h6.3v28.8H572.2z"/>
				<path class="st3" d="M595.9,218.2c-8.4,0-14.8-6.5-14.8-14.8v-0.1c0-8.2,6.2-14.9,14.9-14.9c5.4,0,8.7,1.8,11.3,4.5l-4,4.6
					c-2.2-2-4.5-3.3-7.4-3.3c-4.8,0-8.3,4-8.3,8.9v0.1c0,4.9,3.4,9,8.3,9c3.3,0,5.3-1.3,7.6-3.3l4,4
					C604.6,216.3,601.4,218.2,595.9,218.2z"/>
				<path class="st3" d="M610.9,217.8V189h6.4v28.8H610.9z"/>
				<path class="st3" d="M643.7,217.8l-2.7-6.4h-12.1l-2.7,6.4h-6.4l12.3-28.9h5.8l12.3,28.9H643.7z M635,196.4l-3.8,9.3h7.6
					L635,196.4z"/>
			</g>
			<g>
				<polygon class="st4" points="306.6,241.6 315.4,241.6 322.1,251.7 313.3,251.7 				"/>
				<polygon class="st0" points="306.6,261.7 315.4,261.7 322.1,251.7 313.3,251.7 				"/>
				<polygon class="st2" points="320.3,241.6 329,241.6 335.6,251.7 327,251.7 				"/>
				<polygon class="st1" points="320.3,261.7 329,261.7 335.6,251.7 327,251.7 				"/>
			</g>
			<g>
				<path class="st3" d="M356.5,262.7l-5.3-7.6h-4.8v7.6h-3.9v-21.8h9.7c5,0,8.1,2.7,8.1,7c0,3.6-2.1,5.8-5.2,6.6l5.9,8.2H356.5
					L356.5,262.7z M352,244.4h-5.6v7.3h5.6c2.7,0,4.5-1.5,4.5-3.7C356.4,245.6,354.8,244.4,352,244.4z"/>
				<path class="st3" d="M369.1,240.9v21.8h-3.9v-21.8H369.1z M365.6,239.1l3.3-5.2l3.4,1.5l-3.8,3.6H365.6z"/>
				<path class="st3" d="M385.3,263c-6.7,0-11.4-5.1-11.4-11.2c0-6.2,4.7-11.3,11.4-11.3s11.4,5.1,11.4,11.2S392,263,385.3,263z
					 M385.3,244c-4.3,0-7.4,3.4-7.4,7.7c0,4.3,3.1,7.8,7.4,7.8c4.3,0,7.4-3.4,7.4-7.7S389.6,244,385.3,244z"/>
				<path class="st3" d="M420.9,263c-6.4,0-11.1-5-11.1-11.2s4.6-11.3,11.2-11.3c4,0,6.4,1.4,8.5,3.4l-2.5,2.8
					c-1.7-1.6-3.6-2.7-6.1-2.7c-4.2,0-7.2,3.4-7.2,7.7s3,7.8,7.2,7.8c2.7,0,4.4-1.1,6.3-2.8l2.5,2.5C427.5,261.5,425,263,420.9,263z
					"/>
				<path class="st3" d="M452.1,253.2c0,6.5-3.7,9.8-9.4,9.8c-5.7,0-9.3-3.3-9.3-9.6v-12.5h3.9v12.4c0,4,2.1,6.3,5.5,6.3
					c3.4,0,5.5-2.1,5.5-6.1v-12.5h3.9L452.1,253.2L452.1,253.2z"/>
				<path class="st3" d="M477.5,262.7h-4l-2.2-5.2h-10.3l-2.2,5.2h-3.9l9.6-22h3.5L477.5,262.7z M466,245.2l-3.8,8.8h7.5L466,245.2z
					"/>
				<path class="st3" d="M495.2,262.7l-5.3-7.6H485v7.6h-3.9v-21.8h9.7c5,0,8.1,2.7,8.1,7c0,3.6-2.1,5.8-5.2,6.6l5.9,8.2H495.2
					L495.2,262.7z M490.6,244.4H485v7.3h5.6c2.7,0,4.5-1.5,4.5-3.7C495.2,245.6,493.4,244.4,490.6,244.4z"/>
				<path class="st3" d="M512.8,262.7H509v-18.3h-7v-3.5h17.7v3.5h-7L512.8,262.7L512.8,262.7z"/>
				<path class="st3" d="M533,263c-6.7,0-11.4-5.1-11.4-11.2c0-6.2,4.8-11.2,11.5-11.2s11.4,5.1,11.4,11.2S539.8,263,533,263z
					 M533,244c-4.3,0-7.4,3.4-7.4,7.7c0,4.3,3.1,7.8,7.4,7.8c4.3,0,7.4-3.4,7.4-7.7S537.4,244,533,244z"/>
			</g>
		</g>
	</g>
	<rect x="75" y="91" class="st5" width="650" height="220"/>
</g>
</svg>
