<?xml version="1.0" encoding="utf-8"?>
<!-- Generator: Adobe Illustrator 19.0.0, SVG Export Plug-In . SVG Version: 6.00 Build 0)  -->
<svg version="1.1" id="Capa_1" xmlns="http://www.w3.org/2000/svg" xmlns:xlink="http://www.w3.org/1999/xlink" x="0px" y="0px"
	 viewBox="27 545.9 652 198.4" style="enable-background:new 27 545.9 652 198.4;" xml:space="preserve">
<style type="text/css">
	.st0{fill:#FFFFFF;}
	.st1{fill:#253546;}
	.st2{opacity:0.7;fill-rule:evenodd;clip-rule:evenodd;fill:#98B833;}
	.st3{fill-rule:evenodd;clip-rule:evenodd;fill:#98B833;}
	.st4{opacity:0.7;fill-rule:evenodd;clip-rule:evenodd;fill:#40A2B6;}
	.st5{fill-rule:evenodd;clip-rule:evenodd;fill:#40A2B6;}
	.st6{fill:#40A2B6;}
	.st7{fill:#98B833;}
</style>
<g id="Capa_2">
</g>
<rect x="27" y="545.9" class="st0" width="652" height="198.4"/>
<g>
	<g>
		<path class="st1" d="M199.6,690.4c-2.8,0-5.4-0.6-7.7-1.7c-2.3-1.1-4.3-2.6-5.9-4.6c-1.6-2-2.9-4.3-3.8-6.9
			c-0.9-2.7-1.3-5.5-1.3-8.6v-0.1c0-3.1,0.5-5.9,1.4-8.6c0.9-2.7,2.2-5,3.8-7c1.7-2,3.6-3.5,6-4.7c2.3-1.1,4.9-1.7,7.7-1.7
			c2.8,0,5.3,0.6,7.7,1.7c2.3,1.1,4.3,2.6,5.9,4.6c1.6,2,2.9,4.3,3.8,6.9c0.9,2.7,1.4,5.5,1.4,8.6v0.1c0,3.1-0.5,5.9-1.4,8.6
			c-0.9,2.7-2.2,5-3.8,7c-1.7,2-3.6,3.5-6,4.7C205,689.8,202.4,690.4,199.6,690.4z M199.7,682c1.4,0,2.7-0.3,3.8-1
			c1.1-0.7,2.1-1.6,2.9-2.8c0.8-1.2,1.4-2.6,1.8-4.2c0.4-1.6,0.6-3.4,0.6-5.4v-0.1c0-1.9-0.2-3.7-0.7-5.4c-0.4-1.6-1.1-3.1-1.9-4.3
			c-0.8-1.2-1.8-2.2-3-2.8c-1.2-0.7-2.4-1-3.8-1c-1.4,0-2.7,0.3-3.8,1c-1.1,0.7-2.1,1.6-2.9,2.8c-0.8,1.2-1.4,2.6-1.8,4.2
			c-0.4,1.6-0.7,3.4-0.7,5.4v0.1c0,1.9,0.2,3.7,0.7,5.4c0.4,1.7,1.1,3.1,1.9,4.3c0.8,1.2,1.8,2.1,2.9,2.8
			C197,681.6,198.3,682,199.7,682z"/>
		<path class="st1" d="M237.8,690.3c-2.3,0-4.5-0.3-6.5-0.9c-2-0.6-3.7-1.4-5.2-2.5c-1.5-1.1-2.6-2.4-3.4-3.8
			c-0.8-1.5-1.2-3.2-1.2-5v-0.1c0-2.6,0.6-4.7,1.7-6.3c1.2-1.6,2.9-2.9,5.1-4c-1.7-1-3-2.2-3.9-3.7c-1-1.4-1.5-3.3-1.5-5.6v-0.1
			c0-1.6,0.4-3.1,1.1-4.5c0.7-1.4,1.7-2.6,3-3.7c1.3-1,2.9-1.9,4.7-2.5c1.8-0.6,3.9-0.9,6.1-0.9c2.2,0,4.3,0.3,6.1,0.9
			c1.8,0.6,3.4,1.4,4.7,2.5c1.3,1,2.3,2.3,3,3.7c0.7,1.4,1.1,3,1.1,4.6v0.1c0,2.3-0.5,4.2-1.5,5.6c-1,1.4-2.3,2.7-3.9,3.7
			c2.1,1.1,3.8,2.5,5,4c1.2,1.5,1.8,3.5,1.8,6v0.1c0,2-0.4,3.7-1.2,5.3c-0.8,1.5-2,2.8-3.4,3.9c-1.5,1.1-3.2,1.9-5.2,2.5
			C242.3,690,240.1,690.3,237.8,690.3z M237.8,682.6c2.3,0,4.1-0.5,5.4-1.5c1.3-1,1.9-2.3,1.9-3.8v-0.1c0-1.7-0.7-2.9-2.1-3.8
			c-1.4-0.9-3.1-1.4-5.3-1.4c-2.1,0-3.9,0.5-5.3,1.4c-1.4,0.9-2.1,2.2-2.1,3.8v0.1c0,1.5,0.6,2.7,1.9,3.7
			C233.7,682.1,235.5,682.6,237.8,682.6z M237.8,664.6c1.9,0,3.3-0.5,4.4-1.5c1.1-1,1.6-2.2,1.6-3.7v-0.1c0-1.3-0.5-2.4-1.6-3.5
			c-1.1-1-2.5-1.5-4.5-1.5c-1.9,0-3.4,0.5-4.5,1.5c-1.1,1-1.6,2.1-1.6,3.4v0.1c0,1.5,0.5,2.7,1.6,3.7S235.9,664.6,237.8,664.6z"/>
		<path class="st1" d="M275.9,690.4c-2.8,0-5.4-0.6-7.7-1.7c-2.3-1.1-4.3-2.6-5.9-4.6c-1.6-2-2.9-4.3-3.8-6.9
			c-0.9-2.7-1.3-5.5-1.3-8.6v-0.1c0-3.1,0.5-5.9,1.4-8.6c0.9-2.7,2.2-5,3.8-7c1.7-2,3.6-3.5,6-4.7c2.3-1.1,4.9-1.7,7.7-1.7
			c2.8,0,5.3,0.6,7.7,1.7c2.3,1.1,4.3,2.6,5.9,4.6c1.6,2,2.9,4.3,3.8,6.9c0.9,2.7,1.4,5.5,1.4,8.6v0.1c0,3.1-0.5,5.9-1.4,8.6
			c-0.9,2.7-2.2,5-3.8,7c-1.7,2-3.6,3.5-6,4.7C281.3,689.8,278.7,690.4,275.9,690.4z M276,682c1.4,0,2.7-0.3,3.8-1
			c1.1-0.7,2.1-1.6,2.9-2.8c0.8-1.2,1.4-2.6,1.8-4.2c0.4-1.6,0.6-3.4,0.6-5.4v-0.1c0-1.9-0.2-3.7-0.7-5.4c-0.4-1.6-1.1-3.1-1.9-4.3
			c-0.8-1.2-1.8-2.2-3-2.8c-1.2-0.7-2.4-1-3.8-1c-1.4,0-2.7,0.3-3.8,1c-1.1,0.7-2.1,1.6-2.9,2.8c-0.8,1.2-1.4,2.6-1.8,4.2
			c-0.4,1.6-0.7,3.4-0.7,5.4v0.1c0,1.9,0.2,3.7,0.7,5.4c0.4,1.7,1.1,3.1,1.9,4.3c0.8,1.2,1.8,2.1,2.9,2.8
			C273.3,681.6,274.6,682,276,682z"/>
		<path class="st1" d="M317.1,690.4c-2.8,0-5.4-0.6-7.7-1.7c-2.3-1.1-4.3-2.6-5.9-4.6c-1.6-2-2.9-4.3-3.8-6.9
			c-0.9-2.7-1.3-5.5-1.3-8.6v-0.1c0-3.1,0.5-5.9,1.4-8.6c0.9-2.7,2.2-5,3.8-7c1.7-2,3.6-3.5,6-4.7c2.3-1.1,4.9-1.7,7.7-1.7
			c2.8,0,5.3,0.6,7.7,1.7c2.3,1.1,4.3,2.6,5.9,4.6c1.6,2,2.9,4.3,3.8,6.9c0.9,2.7,1.4,5.5,1.4,8.6v0.1c0,3.1-0.5,5.9-1.4,8.6
			c-0.9,2.7-2.2,5-3.8,7c-1.7,2-3.6,3.5-6,4.7C322.5,689.8,319.9,690.4,317.1,690.4z M317.2,682c1.4,0,2.7-0.3,3.8-1
			c1.1-0.7,2.1-1.6,2.9-2.8c0.8-1.2,1.4-2.6,1.8-4.2c0.4-1.6,0.6-3.4,0.6-5.4v-0.1c0-1.9-0.2-3.7-0.7-5.4c-0.4-1.6-1.1-3.1-1.9-4.3
			c-0.8-1.2-1.8-2.2-3-2.8c-1.2-0.7-2.4-1-3.8-1c-1.4,0-2.7,0.3-3.8,1c-1.1,0.7-2.1,1.6-2.9,2.8c-0.8,1.2-1.4,2.6-1.8,4.2
			c-0.4,1.6-0.7,3.4-0.7,5.4v0.1c0,1.9,0.2,3.7,0.7,5.4c0.4,1.7,1.1,3.1,1.9,4.3c0.8,1.2,1.8,2.1,2.9,2.8
			C314.5,681.6,315.8,682,317.2,682z"/>
		<path class="st1" d="M339.3,666.5H358v8.8h-18.7V666.5z"/>
		<path class="st1" d="M382.1,680.5h-20.7l-1.5-6.6l23.3-27h7.9v26h5.7v7.6H391v9.2h-8.9V680.5z M382.1,673v-13.2L370.8,673H382.1z"
			/>
		<path class="st1" d="M420.8,680.5h-20.7l-1.5-6.6l23.3-27h7.9v26h5.7v7.6h-5.7v9.2h-8.9V680.5z M420.8,673v-13.2L409.5,673H420.8z
			"/>
		<path class="st1" d="M459.5,680.5h-20.7l-1.5-6.6l23.3-27h7.9v26h5.7v7.6h-5.7v9.2h-8.9V680.5z M459.5,673v-13.2L448.3,673H459.5z
			"/>
		<path class="st1" d="M477.2,666.5h18.7v8.8h-18.7V666.5z"/>
		<path class="st1" d="M514.3,690.4c-3.4,0-6.4-0.6-9-1.7c-2.5-1.1-4.8-2.7-6.9-4.6l5.6-6.7c1.6,1.5,3.2,2.6,4.8,3.4
			c1.6,0.8,3.4,1.2,5.3,1.2c2.2,0,3.9-0.5,5.2-1.5s1.9-2.5,1.9-4.4v-0.1c0-1.8-0.7-3.2-2.1-4.3c-1.4-1-3.2-1.5-5.4-1.5
			c-1.3,0-2.6,0.2-3.8,0.5c-1.2,0.3-2.3,0.7-3.3,1.1l-5.4-3.6l1.2-20.9h26.1v8.2h-18.1l-0.5,7.4c0.8-0.2,1.7-0.4,2.5-0.5
			c0.8-0.1,1.9-0.2,3-0.2c2.1,0,4,0.3,5.8,0.8c1.8,0.5,3.4,1.3,4.8,2.4s2.4,2.5,3.2,4.2c0.8,1.7,1.2,3.8,1.2,6.1v0.1
			c0,2.3-0.4,4.3-1.2,6.1c-0.8,1.8-1.9,3.3-3.3,4.6c-1.4,1.3-3.1,2.2-5.1,2.9C518.9,690.1,516.7,690.4,514.3,690.4z"/>
		<path class="st1" d="M555.1,680.5h-20.7l-1.5-6.6l23.3-27h7.9v26h5.7v7.6H564v9.2h-8.9V680.5z M555.1,673v-13.2L543.8,673H555.1z"
			/>
		<path class="st1" d="M588.2,690.4c-3.4,0-6.4-0.6-9-1.7c-2.5-1.1-4.8-2.7-6.9-4.6l5.6-6.7c1.6,1.5,3.2,2.6,4.8,3.4
			c1.6,0.8,3.4,1.2,5.3,1.2c2.2,0,3.9-0.5,5.2-1.5s1.9-2.5,1.9-4.4v-0.1c0-1.8-0.7-3.2-2.1-4.3c-1.4-1-3.2-1.5-5.4-1.5
			c-1.3,0-2.6,0.2-3.8,0.5c-1.2,0.3-2.3,0.7-3.3,1.1l-5.4-3.6l1.2-20.9h26.1v8.2h-18.1l-0.5,7.4c0.8-0.2,1.7-0.4,2.5-0.5
			c0.8-0.1,1.9-0.2,3-0.2c2.1,0,4,0.3,5.8,0.8c1.8,0.5,3.4,1.3,4.8,2.4s2.4,2.5,3.2,4.2c0.8,1.7,1.2,3.8,1.2,6.1v0.1
			c0,2.3-0.4,4.3-1.2,6.1c-0.8,1.8-1.9,3.3-3.3,4.6c-1.4,1.3-3.1,2.2-5.1,2.9C592.8,690.1,590.6,690.4,588.2,690.4z"/>
		<path class="st1" d="M629,680.5h-20.7l-1.5-6.6l23.3-27h7.9v26h5.7v7.6h-5.7v9.2H629V680.5z M629,673v-13.2L617.7,673H629z"/>
	</g>
</g>
<g>
	<g>
		<path class="st1" d="M189.6,618.3c3.1,0.8,4.7,1.9,4.7,4.3c0,2.8-2.2,4.4-5.3,4.4c-2.2,0-4.4-0.8-6.1-2.4l1.6-1.8
			c1.4,1.2,2.8,1.9,4.6,1.9c1.6,0,2.6-0.7,2.6-1.9c0-1.1-0.6-1.6-3.3-2.3c-3.1-0.8-4.9-1.7-4.9-4.4c0-2.6,2.1-4.3,5-4.3
			c2.1,0,3.8,0.7,5.3,1.8l-1.4,2c-1.3-1-2.6-1.5-4-1.5c-1.5,0-2.4,0.8-2.4,1.8C186.1,617.1,186.8,617.6,189.6,618.3z"/>
		<path class="st1" d="M200.1,612.1v14.7h-2.6v-14.7H200.1z"/>
		<path class="st1" d="M209.7,618.3c3.1,0.8,4.7,1.9,4.7,4.3c0,2.8-2.2,4.4-5.3,4.4c-2.2,0-4.4-0.8-6.1-2.4l1.6-1.8
			c1.4,1.2,2.8,1.9,4.6,1.9c1.6,0,2.6-0.7,2.6-1.9c0-1.1-0.6-1.6-3.3-2.3c-3.1-0.8-4.9-1.7-4.9-4.4c0-2.6,2.1-4.3,5-4.3
			c2.1,0,3.8,0.7,5.3,1.8l-1.4,2c-1.3-1-2.6-1.5-4-1.5c-1.5,0-2.4,0.8-2.4,1.8C206.2,617.1,206.9,617.6,209.7,618.3z"/>
		<path class="st1" d="M223.4,626.8h-2.6v-12.3h-4.7v-2.4h11.9v2.4h-4.7V626.8z"/>
		<path class="st1" d="M241.7,614.4h-8.3v3.8h7.4v2.3h-7.4v4h8.4v2.3h-11v-14.7h10.9V614.4z"/>
		<path class="st1" d="M252.1,623.2L252.1,623.2l-4.7-6.9v10.5h-2.5v-14.7h2.8l4.5,7l4.5-7h2.8v14.7h-2.6v-10.5L252.1,623.2z"/>
		<path class="st1" d="M277.2,626.8h-2.7l-1.5-3.6h-7l-1.5,3.6h-2.6l6.5-14.8h2.4L277.2,626.8z M269.5,615.1L267,621h5.1
			L269.5,615.1z"/>
		<path class="st1" d="M298.4,620.4c0,4.4-2.5,6.6-6.3,6.6c-3.8,0-6.3-2.2-6.3-6.5v-8.5h2.6v8.4c0,2.7,1.4,4.2,3.7,4.2
			c2.3,0,3.7-1.4,3.7-4.1v-8.5h2.6V620.4z M290.9,611l2.2-3.4l2.3,1l-2.6,2.4H290.9z"/>
		<path class="st1" d="M312.2,612.1h2.5v14.7h-2.2l-8.1-10.5v10.5h-2.5v-14.7h2.4l7.9,10.2V612.1z"/>
		<path class="st1" d="M321.2,612.1v14.7h-2.6v-14.7H321.2z"/>
		<path class="st1" d="M332,627.1c-4.3,0-7.5-3.3-7.5-7.6c0-4.2,3.1-7.6,7.6-7.6c2.7,0,4.3,0.9,5.8,2.3l-1.7,1.9
			c-1.2-1.1-2.4-1.8-4.1-1.8c-2.8,0-4.9,2.3-4.9,5.2s2,5.3,4.9,5.3c1.8,0,3-0.7,4.2-1.9l1.7,1.7C336.4,626.1,334.8,627.1,332,627.1z
			"/>
		<path class="st1" d="M347.3,627.1c-4.5,0-7.7-3.4-7.7-7.6s3.2-7.6,7.7-7.6c4.5,0,7.7,3.4,7.7,7.6S351.8,627.1,347.3,627.1z
			 M347.3,614.2c-2.9,0-5,2.3-5,5.2s2.1,5.3,5,5.3c2.9,0,5-2.3,5-5.2S350.2,614.2,347.3,614.2z"/>
		<path class="st1" d="M369.9,626.8h-5.5v-14.7h5.5c4.6,0,7.8,3.2,7.8,7.3S374.5,626.8,369.9,626.8z M369.9,614.5H367v10h2.9
			c3.1,0,5.1-2.1,5.1-5S373,614.5,369.9,614.5z"/>
		<path class="st1" d="M391.8,614.4h-8.3v3.8h7.4v2.3h-7.4v4h8.4v2.3h-11v-14.7h10.9V614.4z"/>
		<path class="st1" d="M415.3,626.8h-2.7l-1.5-3.6h-7l-1.5,3.6H400l6.5-14.8h2.4L415.3,626.8z M407.6,615.1l-2.5,5.9h5.1
			L407.6,615.1z"/>
		<path class="st1" d="M422.2,626.8h-2.6v-12.3h-4.7v-2.4h11.9v2.4h-4.7V626.8z"/>
		<path class="st1" d="M440.5,614.4h-8.3v3.8h7.4v2.3h-7.4v4h8.4v2.3h-11v-14.7h10.9V614.4z"/>
		<path class="st1" d="M453.9,612.1h2.5v14.7h-2.2l-8.1-10.5v10.5h-2.5v-14.7h2.4l7.9,10.2V612.1z"/>
		<path class="st1" d="M467.1,627.1c-4.3,0-7.5-3.3-7.5-7.6c0-4.2,3.1-7.6,7.6-7.6c2.7,0,4.3,0.9,5.8,2.3l-1.7,1.9
			c-1.2-1.1-2.4-1.8-4.1-1.8c-2.8,0-4.9,2.3-4.9,5.2s2,5.3,4.9,5.3c1.8,0,3-0.7,4.2-1.9l1.7,1.7
			C471.5,626.1,469.8,627.1,467.1,627.1z"/>
		<path class="st1" d="M478.5,612.1v14.7h-2.6v-14.7H478.5z"/>
		<path class="st1" d="M489.4,627.1c-4.5,0-7.7-3.4-7.7-7.6s3.2-7.6,7.7-7.6s7.7,3.4,7.7,7.6S493.9,627.1,489.4,627.1z M489.4,614.2
			c-2.9,0-5,2.3-5,5.2s2.1,5.3,5,5.3c2.9,0,5-2.3,5-5.2S492.3,614.2,489.4,614.2z M488.5,610.9l2.2-3.4l2.3,1l-2.6,2.4H488.5z"/>
		<path class="st1" d="M510.5,612.1h2.5v14.7h-2.2l-8.1-10.5v10.5h-2.5v-14.7h2.4l7.9,10.2V612.1z"/>
		<path class="st1" d="M537.2,626.8h-2.7l-1.5-3.6h-7l-1.5,3.6h-2.6l6.5-14.8h2.4L537.2,626.8z M529.5,615.1L527,621h5.1
			L529.5,615.1z"/>
		<path class="st1" d="M539.7,612.1h2.6v12.4h7.7v2.4h-10.3V612.1z"/>
		<path class="st1" d="M569.5,612.1h2.8l-6.1,14.8h-2.3l-6.1-14.8h2.9l4.4,11.3L569.5,612.1z"/>
		<path class="st1" d="M585.7,614.4h-8.3v3.8h7.4v2.3h-7.4v4h8.4v2.3h-11v-14.7h10.9V614.4z"/>
		<path class="st1" d="M595.7,627.1c-4.3,0-7.5-3.3-7.5-7.6c0-4.2,3.1-7.6,7.6-7.6c2.7,0,4.3,0.9,5.8,2.3l-1.7,1.9
			c-1.2-1.1-2.4-1.8-4.1-1.8c-2.8,0-4.9,2.3-4.9,5.2s2,5.3,4.9,5.3c1.8,0,3-0.7,4.2-1.9l1.7,1.7
			C600.1,626.1,598.5,627.1,595.7,627.1z"/>
		<path class="st1" d="M607.1,612.1v14.7h-2.6v-14.7H607.1z"/>
		<path class="st1" d="M621.3,612.1h2.5v14.7h-2.2l-8.1-10.5v10.5h-2.5v-14.7h2.4l7.9,10.2V612.1z"/>
		<path class="st1" d="M634.7,627.1c-4.5,0-7.7-3.4-7.7-7.6s3.2-7.6,7.7-7.6s7.7,3.4,7.7,7.6S639.2,627.1,634.7,627.1z M634.7,614.2
			c-2.9,0-5,2.3-5,5.2s2.1,5.3,5,5.3c2.9,0,5-2.3,5-5.2S637.6,614.2,634.7,614.2z"/>
	</g>
</g>
<g>
	<g>
		<g>
			<path class="st1" d="M58.3,708.3c-1.9,0-3.8-0.3-5.6-1c-1.8-0.7-3.5-1.7-5-3l3.2-3.9c1.1,0.9,2.3,1.7,3.5,2.2
				c1.2,0.5,2.5,0.8,3.9,0.8c1.1,0,2-0.2,2.7-0.6c0.6-0.4,0.9-1,0.9-1.7V701c0-0.4-0.1-0.7-0.2-0.9c-0.1-0.3-0.4-0.5-0.8-0.8
				c-0.4-0.2-0.9-0.5-1.5-0.7c-0.7-0.2-1.5-0.5-2.6-0.7c-1.3-0.3-2.4-0.7-3.4-1c-1-0.4-1.9-0.8-2.6-1.4c-0.7-0.6-1.3-1.3-1.7-2.1
				c-0.4-0.8-0.6-1.9-0.6-3.1v-0.1c0-1.1,0.2-2.2,0.6-3.1c0.4-0.9,1-1.7,1.8-2.4c0.8-0.7,1.7-1.2,2.8-1.5c1.1-0.4,2.2-0.5,3.5-0.5
				c1.8,0,3.5,0.3,5,0.8c1.5,0.5,2.9,1.3,4.2,2.4l-2.9,4.1c-1.1-0.8-2.2-1.4-3.3-1.8c-1.1-0.4-2.1-0.7-3.2-0.7
				c-1.1,0-1.9,0.2-2.4,0.6c-0.5,0.4-0.8,0.9-0.8,1.6v0.1c0,0.4,0.1,0.8,0.2,1.1c0.2,0.3,0.4,0.6,0.8,0.8c0.4,0.2,1,0.5,1.7,0.7
				c0.7,0.2,1.6,0.5,2.7,0.7c1.3,0.3,2.4,0.7,3.4,1.1c1,0.4,1.8,0.9,2.5,1.5s1.2,1.3,1.5,2.1c0.3,0.8,0.5,1.7,0.5,2.8v0.1
				c0,1.2-0.2,2.3-0.7,3.3c-0.4,1-1.1,1.8-1.9,2.4c-0.8,0.7-1.8,1.2-2.9,1.5C60.9,708.1,59.7,708.3,58.3,708.3z"/>
			<path class="st1" d="M82.6,708.3c-3.4,0-6-0.9-7.9-2.8c-1.9-1.9-2.9-4.6-2.9-8.3V683h5.5v14.1c0,2,0.5,3.6,1.4,4.6
				c1,1,2.3,1.6,4,1.6s3-0.5,4-1.5c1-1,1.4-2.5,1.4-4.5V683h5.5V697c0,1.9-0.3,3.6-0.8,5c-0.5,1.4-1.2,2.6-2.2,3.5
				c-1,0.9-2.1,1.6-3.5,2.1C85.8,708.1,84.3,708.3,82.6,708.3z"/>
			<path class="st1" d="M107.7,682.8h5.1l10.7,25.1h-5.7l-2.3-5.6h-10.6l-2.3,5.6H97L107.7,682.8z M113.5,697.5l-3.3-8.1l-3.3,8.1
				H113.5z"/>
			<path class="st1" d="M125.2,683h6.1l6.5,17.6l6.5-17.6h5.9l-10.1,25.1h-4.8L125.2,683z"/>
		</g>
	</g>
	<g>
		<polygon class="st2" points="48.4,713.8 52.7,713.8 56.1,718.8 51.7,718.8 		"/>
		<polygon class="st3" points="48.4,723.8 52.7,723.8 56.1,718.8 51.7,718.8 		"/>
		<polygon class="st4" points="55.2,713.8 59.5,713.8 62.8,718.8 58.5,718.8 		"/>
		<polygon class="st5" points="55.2,723.8 59.5,723.8 62.8,718.8 58.5,718.8 		"/>
	</g>
	<g>
		<path class="st6" d="M72.6,723.2l-1.9-2.9h-1.5v2.9h-2v-8.9h4.1c2.1,0,3.4,1.1,3.4,2.9v0c0,1.4-0.8,2.3-1.9,2.8l2.2,3.2H72.6z
			 M72.6,717.3c0-0.8-0.6-1.3-1.5-1.3h-1.9v2.6h2C72,718.6,72.6,718.1,72.6,717.3L72.6,717.3z"/>
		<path class="st6" d="M76.1,723.2v-8.9h2v8.9H76.1z M76.3,713.6l1.4-2.3l1.7,0.7l-1.6,1.5H76.3z"/>
		<path class="st6" d="M84.4,723.4c-2.8,0-4.7-2.1-4.7-4.6v0c0-2.5,2-4.6,4.8-4.6c2.8,0,4.7,2.1,4.7,4.6v0
			C89.1,721.3,87.1,723.4,84.4,723.4z M87.1,718.8c0-1.5-1.1-2.8-2.7-2.8c-1.6,0-2.7,1.2-2.7,2.8v0c0,1.5,1.1,2.8,2.7,2.8
			C86,721.6,87.1,720.3,87.1,718.8L87.1,718.8z"/>
		<path class="st6" d="M98.3,723.4c-2.6,0-4.6-2-4.6-4.6v0c0-2.5,1.9-4.6,4.7-4.6c1.7,0,2.7,0.6,3.5,1.4l-1.2,1.4
			c-0.7-0.6-1.4-1-2.3-1c-1.5,0-2.6,1.2-2.6,2.8v0c0,1.5,1.1,2.8,2.6,2.8c1,0,1.6-0.4,2.3-1l1.2,1.3C101,722.8,100,723.4,98.3,723.4
			z"/>
		<path class="st6" d="M107,723.4c-2.4,0-3.9-1.3-3.9-4v-5.1h2v5c0,1.5,0.7,2.2,1.9,2.2c1.2,0,1.9-0.7,1.9-2.1v-5.1h2v5
			C110.9,722,109.4,723.4,107,723.4z"/>
		<path class="st6" d="M118.9,723.2l-0.8-2h-3.8l-0.8,2h-2l3.8-9h1.8l3.8,9H118.9z M116.2,716.6l-1.2,2.9h2.4L116.2,716.6z"/>
		<path class="st6" d="M127.5,723.2l-1.9-2.9H124v2.9h-2v-8.9h4.1c2.1,0,3.4,1.1,3.4,2.9v0c0,1.4-0.8,2.3-1.9,2.8l2.2,3.2H127.5z
			 M127.5,717.3c0-0.8-0.6-1.3-1.5-1.3H124v2.6h2C126.9,718.6,127.5,718.1,127.5,717.3L127.5,717.3z"/>
		<path class="st6" d="M135,716.1v7.1h-2v-7.1h-2.7v-1.8h7.4v1.8H135z"/>
		<path class="st6" d="M142.9,723.4c-2.8,0-4.7-2.1-4.7-4.6v0c0-2.5,2-4.6,4.8-4.6c2.8,0,4.7,2.1,4.7,4.6v0
			C147.6,721.3,145.6,723.4,142.9,723.4z M145.6,718.8c0-1.5-1.1-2.8-2.7-2.8c-1.6,0-2.7,1.2-2.7,2.8v0c0,1.5,1.1,2.8,2.7,2.8
			C144.5,721.6,145.6,720.3,145.6,718.8L145.6,718.8z"/>
	</g>
	<g>
		<path class="st1" d="M82.7,623.7h32.9c2.9,0,5.4,2.1,5.9,5l2.8,15c5.3-5.9,8.5-13.8,8.5-22.3c0-18.6-15.1-33.7-33.7-33.7
			c-18.6,0-33.7,15.1-33.7,33.7c0,8.6,3.2,16.4,8.5,22.3l2.8-15.1C77.3,625.8,79.7,623.7,82.7,623.7z M99.1,594.9
			c7.1,0,12.8,5.7,12.8,12.8c0,7.1-5.8,12.8-12.8,12.8c-7.1,0-12.8-5.8-12.8-12.8C86.3,600.7,92,594.9,99.1,594.9z"/>
		<path class="st1" d="M111.8,652.6c0.7-0.3,1.3-0.6,2-0.9l-2-12.4L111.8,652.6z"/>
		<path class="st1" d="M84.5,651.7c0.6,0.3,1.3,0.6,2,0.9l0-13.3L84.5,651.7z"/>
	</g>
	<path class="st6" d="M94.8,587.8c0,0-0.7,0.1-2,0.3c-0.9,0.1-2.7,0.4-4.7,1.1c-2,0.6-4.5,1.5-7.1,3c-2.6,1.5-5.4,3.5-8,6.2
		c-2.6,2.7-5,6-6.8,10c-0.9,2-1.6,4.1-2.2,6.3c-0.1,0.6-0.2,1.1-0.4,1.7c-0.1,0.6-0.2,1.2-0.3,1.7l-0.1,0.9l-0.1,0.4l0,0.1
		c0,0.1,0-0.1,0-0.1l0,0.1l0,0.3c0,0.7-0.1,1.4-0.1,2c0,0.6,0,1.1,0,1.7c0,0.6,0,1.2,0.1,1.8c0.1,1.2,0.2,2.4,0.4,3.7
		c0.4,2.5,1,4.9,1.9,7.3c1.8,4.8,4.7,9.3,8.4,13c3.7,3.7,8.3,6.7,13.2,8.6c2.5,0.9,7.7,7.4,7,7.3c-3-0.3-5.9-0.8-8.9-1.7
		c-5.8-1.8-11.4-4.9-16.2-9c-4.7-4.1-8.6-9.3-11.2-15c-1.3-2.8-2.3-5.8-3-8.8c-0.3-1.5-0.6-3-0.8-4.5c-0.1-0.8-0.2-1.5-0.2-2.3
		c-0.1-0.8,0-1.6,0-2.4c0-0.8,0-2.7,0-2.7l0-0.6l0-1.1c0.1-0.7,0.1-1.5,0.2-2.2c0.1-0.7,0.2-1.5,0.3-2.2c0.5-2.9,1.3-5.7,2.2-8.3
		c2-5.3,4.8-9.9,8-13.7c3.2-3.8,6.7-6.8,10.1-9c3.4-2.2,6.6-3.8,9.4-4.8c2.8-1,4.9-1.6,6.7-2c1.4-0.3,2.1-0.4,2.1-0.4L94.8,587.8z"
		/>
	<g>
		<path class="st7" d="M102.6,655.1c0,0,0.7-0.1,2-0.3c0.9-0.1,2.7-0.4,4.7-1.1c2-0.6,4.5-1.5,7.1-3c2.6-1.5,5.4-3.5,8-6.2
			c2.6-2.7,5-6,6.8-10c0.9-2,1.6-4.1,2.2-6.3c0.1-0.6,0.2-1.1,0.4-1.7c0.1-0.6,0.2-1.2,0.3-1.7l0.1-0.9l0.1-0.4l0-0.1
			c0-0.1,0,0.1,0,0.1l0-0.1l0-0.3c0-0.7,0.1-1.4,0.1-2c0-0.6,0-1.1,0-1.7c0-0.6,0-1.2-0.1-1.8c-0.1-1.2-0.2-2.4-0.4-3.7
			c-0.4-2.5-1-4.9-1.9-7.3c-1.8-4.8-4.7-9.3-8.4-13c-3.7-3.7-8.3-6.7-13.2-8.6c-2.5-0.9-5-1.6-7.6-2c-0.6-0.1-1.3-0.2-1.9-0.3
			l-0.2,0c0,0,0.1,0,0,0l-0.1,0l-0.1,0l-0.5,0l-1-0.1c-0.7,0-1.3,0-1.9-0.1c-0.6,0-1.3,0-1.9,0c-5.1,0.2-6.1-4.2-0.4-4.8
			c0.7-0.1,1.4-0.1,2.2-0.2c0.7,0,1.5-0.1,2.2-0.1l1,0l0.5,0l0.3,0l0.3,0c0.7,0,1.5,0.1,2.2,0.1c3,0.3,5.9,0.8,8.9,1.7
			c5.8,1.8,11.4,4.9,16.2,9c4.7,4.1,8.6,9.3,11.2,15c1.3,2.8,2.3,5.8,3,8.8c0.3,1.5,0.6,3,0.8,4.5c0.1,0.8,0.2,1.5,0.2,2.3
			c0.1,0.8,0,5.6,0,5.6l0,1.1c-0.1,0.7-0.1,1.5-0.2,2.2c-0.1,0.7-0.2,1.5-0.3,2.2c-0.5,2.9-1.3,5.7-2.2,8.3c-2,5.3-4.8,9.9-8,13.7
			c-3.2,3.8-6.7,6.8-10.1,9c-3.4,2.2-6.6,3.8-9.4,4.8c-2.8,1-4.9,1.6-6.7,2c-1.4,0.3-2.1,0.4-2.1,0.4L102.6,655.1z"/>
		<g>
			<polygon class="st7" points="106.8,676 82.4,659 109.4,646.4 			"/>
		</g>
	</g>
	<g>
		<polygon class="st6" points="90.6,566.9 115,583.9 88.1,596.5 		"/>
	</g>
</g>
</svg>
