<?xml version="1.0" encoding="utf-8"?>
<!-- Generator: Adobe Illustrator 19.0.0, SVG Export Plug-In . SVG Version: 6.00 Build 0)  -->
<svg version="1.1" id="Capa_1" xmlns="http://www.w3.org/2000/svg" xmlns:xlink="http://www.w3.org/1999/xlink" x="0px" y="0px"
	 viewBox="-97 220.9 400 400" style="enable-background:new -97 220.9 400 400;" xml:space="preserve">
<style type="text/css">
	.st0{fill:none;}
	.st1{fill:#9EC6E8;}
	.st2{fill:#86BAE3;}
	.st3{opacity:0.7;fill:#66973B;enable-background:new    ;}
	.st4{fill:#66973B;}
	.st5{fill:#183246;}
	.st6{opacity:0.9;fill:#86BAE3;enable-background:new    ;}
	.st7{opacity:0.9;fill:#183246;enable-background:new    ;}
	.st8{opacity:0.9;fill:#66973B;enable-background:new    ;}
</style>
<g>
	<g id="Capa_1_1_">
		<rect x="-97" y="220.9" class="st0" width="400" height="400"/>
	</g>
	<g id="Capa_2">
		<g>
			<g>
				<polygon class="st1" points="-15.5,555.7 -5.6,555.7 1.9,567.1 -8,567.1 				"/>
				<polygon class="st2" points="-15.5,578.5 -5.6,578.5 1.9,567.1 -8,567.1 				"/>
				<polygon class="st3" points="-0.1,555.7 9.8,555.7 17.4,567.1 7.5,567.1 				"/>
				<polygon class="st4" points="-0.1,578.5 9.8,578.5 17.4,567.1 7.5,567.1 				"/>
			</g>
			<g>
				<path class="st4" d="M39.4,579l-4.4-6.5h-3.5v6.5H27v-20.3h9.3c4.8,0,7.7,2.5,7.7,6.7v0.1c0,3.3-1.8,5.3-4.4,6.3l5,7.3L39.4,579
					L39.4,579z M39.5,565.6c0-1.9-1.3-2.9-3.5-2.9h-4.4v5.8h4.5C38.3,568.5,39.5,567.4,39.5,565.6L39.5,565.6z"/>
				<path class="st4" d="M49.3,579v-20.3h4.5V579H49.3z M49.7,557.1L53,552l3.8,1.7l-3.7,3.5h-3.4C49.7,557.2,49.7,557.1,49.7,557.1
					z"/>
				<path class="st4" d="M69.8,579.3c-6.3,0-10.8-4.7-10.8-10.4v-0.1c0-5.8,4.6-10.5,10.8-10.5c6.2,0,10.8,4.7,10.8,10.4v0.1
					C80.6,574.6,76,579.3,69.8,579.3z M75.9,568.8c0-3.5-2.6-6.4-6.1-6.4c-3.6,0-6.1,2.8-6.1,6.3v0.1c0,3.5,2.6,6.4,6.2,6.4
					C73.4,575.2,75.9,572.4,75.9,568.8L75.9,568.8z"/>
				<path class="st4" d="M104.8,579.3c-6,0-10.4-4.6-10.4-10.4v-0.1c0-5.8,4.4-10.5,10.6-10.5c3.8,0,6.1,1.3,8,3.1l-2.8,3.3
					c-1.6-1.4-3.2-2.3-5.2-2.3c-3.4,0-5.9,2.8-5.9,6.3v0.1c0,3.5,2.4,6.4,5.9,6.4c2.3,0,3.7-0.9,5.3-2.4l2.8,2.9
					C111.1,577.9,108.7,579.3,104.8,579.3z"/>
				<path class="st4" d="M126.2,579.3c-5.5,0-8.8-3-8.8-9v-11.6h4.5v11.5c0,3.3,1.7,5,4.4,5s4.4-1.7,4.4-4.9v-11.6h4.5v11.5
					C135.1,576.3,131.7,579.3,126.2,579.3z"/>
				<path class="st4" d="M155.1,579l-1.9-4.6h-8.6l-1.9,4.6h-4.6l8.7-20.5h4.1l8.7,20.5H155.1z M149,563.9l-2.7,6.6h5.4L149,563.9z"
					/>
				<path class="st4" d="M176.3,579l-4.4-6.5h-3.5v6.5h-4.5v-20.3h9.3c4.8,0,7.7,2.5,7.7,6.7v0.1c0,3.3-1.8,5.3-4.4,6.3l5,7.3
					L176.3,579L176.3,579z M176.4,565.6c0-1.9-1.3-2.9-3.5-2.9h-4.4v5.8h4.5C175.1,568.5,176.4,567.4,176.4,565.6L176.4,565.6z"/>
				<path class="st4" d="M195.1,562.8V579h-4.5v-16.2h-6.2v-4.1h16.8v4.1H195.1z"/>
				<path class="st4" d="M214.8,579.3c-6.3,0-10.8-4.7-10.8-10.4v-0.1c0-5.8,4.6-10.5,10.8-10.5c6.3,0,10.8,4.7,10.8,10.4v0.1
					C225.6,574.6,221,579.3,214.8,579.3z M220.9,568.8c0-3.5-2.6-6.4-6.1-6.4c-3.6,0-6.1,2.8-6.1,6.3v0.1c0,3.5,2.6,6.4,6.2,6.4
					C218.4,575.2,220.9,572.4,220.9,568.8L220.9,568.8z"/>
			</g>
			<g>
				<path class="st5" d="M-17.1,493.9h9.2c5.4,0,8.9,2.8,8.9,7.5v0.1c0,5.1-3.9,7.7-9.2,7.7h-2.9v6.1H-17L-17.1,493.9L-17.1,493.9z
					 M-8.3,504.6c2.1,0,3.4-1.1,3.4-2.8v-0.1c0-1.8-1.3-2.8-3.4-2.8h-2.8v5.7L-8.3,504.6L-8.3,504.6z"/>
				<path class="st5" d="M4.5,493.9h10.1c3.3,0,5.5,0.9,7,2.3c1.3,1.2,1.9,2.9,1.9,5v0.1c0,3.3-1.7,5.5-4.4,6.6l5.1,7.5h-6.9
					l-4.3-6.5h-0.1h-2.5v6.5H4.5C4.5,515.4,4.5,493.9,4.5,493.9z M14.3,504.2c2,0,3.2-1,3.2-2.5v-0.1c0-1.7-1.2-2.5-3.2-2.5h-3.9
					v5.1H14.3z"/>
				<path class="st5" d="M27.4,493.9h17.2v5.1H33.3v3.2h10.3v4.7H33.3v3.4h11.5v5.1H27.4V493.9z"/>
				<path class="st5" d="M47.1,512.1l3.3-4c2.1,1.7,4.5,2.6,6.9,2.6c1.6,0,2.5-0.6,2.5-1.5v-0.1c0-0.9-0.7-1.4-3.6-2.1
					c-4.6-1-8.1-2.3-8.1-6.7v-0.1c0-4,3.2-6.9,8.3-6.9c3.6,0,6.5,1,8.8,2.8l-3,4.2c-2-1.4-4.1-2.1-6-2.1c-1.4,0-2.1,0.6-2.1,1.4v0.1
					c0,1,0.7,1.4,3.7,2.1c4.9,1.1,8,2.7,8,6.7v0.1c0,4.4-3.5,7-8.7,7C53.4,515.7,49.7,514.5,47.1,512.1z"/>
				<path class="st5" d="M69.3,505.9v-12h6v11.9c0,3.1,1.6,4.6,4,4.6c2.4,0,3.9-1.4,3.9-4.4v-12.1h6v11.9c0,6.9-4,10-10,10
					C73.2,515.7,69.3,512.6,69.3,505.9z"/>
				<path class="st5" d="M93.7,493.9h9.2c5.4,0,8.9,2.8,8.9,7.5v0.1c0,5.1-3.9,7.7-9.2,7.7h-2.9v6.1h-5.9L93.7,493.9L93.7,493.9z
					 M102.5,504.6c2.1,0,3.4-1.1,3.4-2.8v-0.1c0-1.8-1.3-2.8-3.4-2.8h-2.8v5.7L102.5,504.6L102.5,504.6z"/>
				<path class="st5" d="M115,505.9v-12h6v11.9c0,3.1,1.6,4.6,4,4.6s3.9-1.4,3.9-4.4v-12.1h6v11.9c0,6.9-4,10-10,10
					C118.8,515.7,115,512.6,115,505.9z"/>
				<path class="st5" d="M139.4,493.9h17.2v5.1h-11.4v3.2h10.3v4.7h-10.3v3.4h11.5v5.1h-17.4L139.4,493.9L139.4,493.9z"/>
				<path class="st5" d="M159.1,512.1l3.3-4c2.1,1.7,4.5,2.6,6.9,2.6c1.6,0,2.5-0.6,2.5-1.5v-0.1c0-0.9-0.7-1.4-3.6-2.1
					c-4.6-1-8.1-2.3-8.1-6.7v-0.1c0-4,3.2-6.9,8.3-6.9c3.6,0,6.5,1,8.8,2.8l-3,4.2c-2-1.4-4.1-2.1-6-2.1c-1.4,0-2.1,0.6-2.1,1.4v0.1
					c0,1,0.7,1.4,3.7,2.1c4.9,1.1,8,2.7,8,6.7v0.1c0,4.4-3.5,7-8.7,7C165.4,515.7,161.7,514.5,159.1,512.1z"/>
				<path class="st5" d="M186.2,499.1h-6.4v-5.2h18.8v5.2h-6.4v16.2h-5.9L186.2,499.1L186.2,499.1z"/>
				<path class="st5" d="M200.5,504.7L200.5,504.7c0-6.2,5-11.2,11.6-11.2c6.6,0,11.5,4.9,11.5,11.1v0.1c0,6.2-5,11.1-11.6,11.1
					S200.5,510.8,200.5,504.7z M217.5,504.7L217.5,504.7c0-3.2-2.2-5.8-5.5-5.8c-3.2,0-5.4,2.6-5.4,5.7v0.1c0,3.1,2.2,5.8,5.5,5.8
					C215.3,510.4,217.5,507.8,217.5,504.7z"/>
				<path class="st5" d="M-17.1,522.5h9.2c5.4,0,8.9,2.8,8.9,7.5v0.1c0,5.1-3.9,7.7-9.2,7.7h-2.9v6.1H-17L-17.1,522.5L-17.1,522.5z
					 M-8.3,533.1c2.1,0,3.4-1.1,3.4-2.8v-0.1c0-1.8-1.3-2.8-3.4-2.8h-2.8v5.7L-8.3,533.1L-8.3,533.1z"/>
				<path class="st5" d="M8.8,522.3h5.7l9.1,21.6h-6.4l-1.6-3.8H7.5L6,543.9h-6.2L8.8,522.3z M14,535.5l-2.4-6.1l-2.4,6.1H14z"/>
				<path class="st5" d="M25.7,522.5h10.1c3.3,0,5.5,0.9,7,2.3c1.3,1.2,1.9,2.9,1.9,5v0.1c0,3.3-1.7,5.5-4.4,6.6l5.1,7.5h-6.9
					l-4.3-6.5h-0.1h-2.5v6.5h-5.9C25.7,544,25.7,522.5,25.7,522.5z M35.6,532.8c2,0,3.2-1,3.2-2.5v-0.1c0-1.7-1.2-2.5-3.2-2.5h-3.9
					v5.1H35.6z"/>
				<path class="st5" d="M53,527.7h-6.4v-5.2h18.8v5.2H59v16.2h-6V527.7z"/>
				<path class="st5" d="M68.1,522.5h6v21.4h-6V522.5z"/>
				<path class="st5" d="M77.2,533.3L77.2,533.3c0-6.3,4.8-11.2,11.3-11.2c4.4,0,7.2,1.8,9.1,4.5l-4.5,3.5c-1.2-1.5-2.6-2.5-4.7-2.5
					c-3,0-5.1,2.5-5.1,5.7v0.1c0,3.2,2.1,5.7,5.1,5.7c2.2,0,3.6-1,4.8-2.6l4.5,3.2c-2,2.8-4.7,4.8-9.5,4.8
					C82.2,544.3,77.2,539.7,77.2,533.3z"/>
				<path class="st5" d="M100.4,522.5h6v21.4h-6C100.4,543.9,100.4,522.5,100.4,522.5z"/>
				<path class="st5" d="M110.3,522.5h9.2c5.4,0,8.9,2.8,8.9,7.5v0.1c0,5.1-3.9,7.7-9.2,7.7h-2.9v6.1h-5.9L110.3,522.5L110.3,522.5z
					 M119.1,533.1c2.1,0,3.4-1.1,3.4-2.8v-0.1c0-1.8-1.3-2.8-3.4-2.8h-2.8v5.7L119.1,533.1L119.1,533.1z"/>
				<path class="st5" d="M136.2,522.3h5.7l9.1,21.6h-6.4l-1.6-3.8h-8.3l-1.5,3.8H127L136.2,522.3z M141.4,535.5l-2.4-6.1l-2.4,6.1
					H141.4z"/>
				<path class="st5" d="M155.6,527.7h-6.4v-5.2H168v5.2h-6.4v16.2h-5.9L155.6,527.7L155.6,527.7z"/>
				<path class="st5" d="M170.7,522.5h6v21.4h-6V522.5z"/>
				<path class="st5" d="M178.9,522.5h6.6l4.9,13.6l4.9-13.6h6.5l-8.7,21.6h-5.5L178.9,522.5z"/>
				<path class="st5" d="M201.8,533.3L201.8,533.3c0-6.2,5-11.2,11.6-11.2c6.6,0,11.5,4.9,11.5,11.1v0.1c0,6.2-5,11.1-11.6,11.1
					C206.7,544.3,201.8,539.4,201.8,533.3z M218.8,533.3L218.8,533.3c0-3.2-2.2-5.8-5.5-5.8c-3.2,0-5.4,2.6-5.4,5.7v0.1
					c0,3.1,2.2,5.8,5.5,5.8C216.6,539,218.8,536.3,218.8,533.3z"/>
			</g>
			<path class="st6" d="M65.1,318.6c7.1,4.8,9,14.4,4.3,21.3c-1.8,2.7-4.4,4.6-7.3,5.7l0,0l-0.6,3.8l-3.6-2.9
				c-3.4,0.3-6.9-0.6-10-2.7c-7.1-4.8-9-14.4-4.3-21.4C48.4,315.6,58,313.8,65.1,318.6z"/>
			<path class="st7" d="M138,334.6c-5.2,3.4-6.7,10.2-3.4,15.3c1.3,2,3.1,3.4,5.2,4.2l0,0l0.4,2.7l2.6-2.1c2.4,0.2,5-0.3,7.2-1.8
				c5.2-3.4,6.7-10.2,3.4-15.3C150.1,332.6,143.2,331.2,138,334.6z"/>
			<path class="st8" d="M4.7,307.8c10.8,7.4,13.8,22,6.5,32.7c-2.8,4.2-6.8,7.1-11.2,8.7l0,0l-0.9,5.8l-5.4-4.5
				c-5.2,0.4-10.6-0.9-15.2-4.1c-10.8-7.4-13.8-22-6.5-32.7C-20.8,303.1-6.2,300.5,4.7,307.8z"/>
			<g>
				<g>
					<path class="st4" d="M192,372.7c4.7,0,8.6-3.8,8.6-8.6c0-4.7-3.9-8.6-8.6-8.6s-8.6,3.8-8.6,8.6S187.3,372.7,192,372.7z"/>
					<path class="st4" d="M210.9,399.6c0-0.2,0.1-0.3,0-0.5l-3.9-20.9c-0.3-2-2-3.4-3.9-3.4h-22c-2,0-3.6,1.4-3.9,3.3l-3.9,20.9
						c0,0.2,0,0.3,0,0.5s0,0.4,0,0.6c0,2.2,1.8,4,4,4c1.9,0,3.6-1.4,3.9-3.3l2.5-15.5v49.5c0,2.2,1.8,4,4,4s4-1.8,4-4v-24.5h1v24.5
						c0,2.2,1.8,4,4,4s4-1.8,4-4v-49.5l2.5,15.5c0.4,1.9,2,3.3,3.9,3.3c2.2,0,4-1.8,4-4C210.9,399.9,210.9,399.8,210.9,399.6z"/>
				</g>
			</g>
			<path class="st5" d="M134,373.1c4.9,0,8.9-4,8.9-8.9s-4-8.9-8.9-8.9s-8.9,4-8.9,8.9C125.2,369.1,129.1,373.1,134,373.1z"/>
			<path class="st5" d="M153.6,400.9c0.1-0.2,0.1-0.3,0-0.5l-4.1-21.6c-0.3-2-2-3.5-4.1-3.5h-22.8c-2,0-3.8,1.5-4.1,3.5l-4.1,21.6
				c0,0.2,0,0.3,0,0.5s0,0.4,0,0.6c0,2.3,1.9,4.1,4.1,4.1c2,0,3.7-1.4,4.1-3.4l2.6-16.1v51.3c0,2.3,1.9,4.1,4.2,4.1
				c2.3,0,4.1-1.9,4.1-4.1V412h1v25.4c0,2.3,1.9,4.1,4.2,4.1s4.1-1.9,4.1-4.1v-51.3l2.6,16.1c0.4,2,2.1,3.4,4.1,3.4
				c2.3,0,4.1-1.9,4.1-4.1C153.6,401.3,153.6,401.1,153.6,400.9z"/>
			<g>
				<path class="st2" d="M65.4,373.1c4.9,0,8.9-4,8.9-8.9s-4-8.9-8.9-8.9s-8.9,4-8.9,8.9S60.5,373.1,65.4,373.1z"/>
				<path class="st2" d="M84.9,400.9c0-0.2,0.1-0.3,0-0.5l-4.1-21.6c-0.3-2-2-3.5-4.1-3.5H54c-2,0-3.8,1.5-4.1,3.5l-4.1,21.6
					c0,0.2,0,0.3,0,0.5s0,0.4,0,0.6c0,2.3,1.9,4.1,4.2,4.1c2,0,3.7-1.4,4.1-3.4l2.6-16.1v51.3c0,2.3,1.9,4.1,4.2,4.1
					s4.2-1.9,4.2-4.1V412h1v25.4c0,2.3,1.9,4.1,4.2,4.1s4.1-1.9,4.1-4.1v-51.3l2.6,16.1c0.4,2,2.1,3.4,4.1,3.4
					c2.3,0,4.2-1.9,4.2-4.1C85,401.3,84.9,401.1,84.9,400.9z"/>
			</g>
			<g>
				<g>
					<g>
						<path class="st4" d="M8.1,374c4.7,0,8.6-3.8,8.6-8.6c0-4.7-3.9-8.6-8.6-8.6s-8.6,3.8-8.6,8.6C-0.5,370.2,3.3,374,8.1,374z"/>
						<path class="st4" d="M26.9,400.8c0-0.2,0.1-0.3,0-0.5L23,379.5c-0.3-2-2-3.4-3.9-3.4h-22c-2,0-3.6,1.4-3.9,3.3l-3.9,20.9
							c0,0.2,0,0.3,0,0.5s0,0.4,0,0.6c0,2.2,1.8,4,4,4c1.9,0,3.6-1.4,3.9-3.3l2.5-15.5v49.5c0,2.2,1.8,4,4,4s4-1.8,4-4v-24.5h1v24.5
							c0,2.2,1.8,4,4,4s4-1.8,4-4v-49.5l2.5,15.5c0.4,1.9,2,3.3,3.9,3.3c2.2,0,4-1.8,4-4C27,401.2,27,401,26.9,400.8z"/>
					</g>
				</g>
			</g>
			<g>
				<path class="st2" d="M163.4,374.2c6.4,0,11.6-5.2,11.6-11.6c0-6.4-5.2-11.6-11.6-11.6c-6.4,0-11.6,5.2-11.6,11.6
					C151.8,369,157,374.2,163.4,374.2z"/>
				<path class="st2" d="M188.9,410.5c0.1-0.2,0.1-0.4,0-0.7l-5.3-28.2c-0.4-2.6-2.7-4.6-5.3-4.6h-29.8c-2.7,0-4.9,1.9-5.3,4.5
					l-5.3,28.3c0,0.2,0,0.5,0,0.7c0,0.3-0.1,0.5-0.1,0.8c0,3,2.4,5.4,5.4,5.4c2.6,0,4.9-1.9,5.3-4.5l3.4-21v67c0,3,2.4,5.4,5.4,5.4
					s5.4-2.4,5.4-5.4V425h1.3v33.2c0,3,2.4,5.4,5.4,5.4s5.4-2.4,5.4-5.4v-67l3.4,21c0.5,2.6,2.7,4.4,5.3,4.4c3,0,5.4-2.4,5.4-5.4
					C189,411,188.9,410.7,188.9,410.5z"/>
			</g>
			<g>
				<g>
					<path class="st5" d="M42.9,372.1c6.4,0,11.6-5.2,11.6-11.6c0-6.4-5.2-11.6-11.6-11.6s-11.6,5.2-11.6,11.6
						S36.5,372.1,42.9,372.1z"/>
					<path class="st5" d="M68.4,408.4c0.1-0.2,0.1-0.4,0-0.7l-5.3-28.2c-0.4-2.6-2.7-4.6-5.3-4.6H28c-2.7,0-4.9,1.9-5.3,4.5
						l-5.3,28.3c0,0.2,0,0.5,0,0.7c0,0.3-0.1,0.5-0.1,0.8c0,3,2.4,5.4,5.4,5.4c2.6,0,4.9-1.9,5.3-4.5l3.4-21v67c0,3,2.4,5.4,5.4,5.4
						s5.4-2.4,5.4-5.4V423h1.3v33.2c0,3,2.4,5.4,5.4,5.4s5.4-2.4,5.4-5.4v-67l3.4,21c0.5,2.6,2.7,4.4,5.3,4.4c3,0,5.4-2.4,5.4-5.4
						C68.5,408.9,68.5,408.7,68.4,408.4z"/>
				</g>
			</g>
			<g>
				<g>
					<path class="st4" d="M102.9,367.2c7.2,0,13.1-5.9,13.1-13.1s-5.9-13.1-13.1-13.1c-7.2,0-13.1,5.9-13.1,13.1
						S95.7,367.2,102.9,367.2z"/>
					<path class="st4" d="M131.7,408.1c0.1-0.2,0.1-0.5,0-0.7l-6-31.9c-0.5-3-3-5.1-6-5.1H86.1c-3,0-5.5,2.2-6,5.1l-6,31.9
						c0,0.3,0,0.5,0,0.7c0,0.3-0.1,0.6-0.1,0.9c0,3.4,2.7,6.1,6.1,6.1c3,0,5.5-2.1,6-5l3.8-23.7V462c0,3.4,2.7,6.1,6.1,6.1
						c3.4,0,6.1-2.7,6.1-6.1v-37.4h1.5V462c0,3.4,2.7,6.1,6.1,6.1s6.1-2.7,6.1-6.1v-75.6l3.8,23.7c0.5,2.9,3.1,5,6,5
						c3.4,0,6.1-2.7,6.1-6.1C131.7,408.7,131.7,408.4,131.7,408.1z"/>
				</g>
			</g>
			<path class="st8" d="M206.2,307.1c-11.7,4.9-17.3,18.3-12.5,30c1.9,4.5,5.1,8.1,9,10.5l0,0l-0.3,5.7l6-3.2
				c4.9,1.4,10.3,1.2,15.3-0.9c11.7-4.9,17.3-18.3,12.5-30C231.5,307.7,218,302.2,206.2,307.1z"/>
			<path class="st8" d="M96.7,271.5c-15.3,13.3-17,36.3-3.8,51.4c5.1,5.9,11.8,9.7,18.8,11.4l0,0l2.4,8.8l7.5-7.8
				c8-0.3,16.1-3.3,22.6-9c15.3-13.3,17-36.3,3.8-51.4C135,259.7,112,258.2,96.7,271.5z"/>
			<path class="st7" d="M45.5,279.4c15.3,10.4,19.5,31.1,9.2,46.2c-4,5.9-9.6,10-15.8,12.3l0,0l-1.2,8.2l-7.7-6.3
				c-7.3,0.5-15-1.3-21.6-5.8c-15.3-10.4-19.5-31.1-9.2-46.2C9.5,272.8,30.2,269,45.5,279.4z"/>
			<path class="st6" d="M176,288.4c-15.9,6.6-23.4,24.8-16.9,40.5c2.6,6.1,6.9,11,12.2,14.3l0,0L171,351l8.2-4.3
				c6.6,1.9,13.9,1.6,20.7-1.2c15.9-6.6,23.4-24.8,16.9-40.5C210.1,289.1,191.9,281.8,176,288.4z"/>
		</g>
	</g>
</g>
</svg>
