<?xml version="1.0" encoding="utf-8"?>
<!-- Generator: Adobe Illustrator 18.0.0, SVG Export Plug-In . SVG Version: 6.00 Build 0)  -->
<!DOCTYPE svg PUBLIC "-//W3C//DTD SVG 1.1//EN" "http://www.w3.org/Graphics/SVG/1.1/DTD/svg11.dtd">
<svg version="1.1" id="Capa_1" xmlns="http://www.w3.org/2000/svg" xmlns:xlink="http://www.w3.org/1999/xlink" x="0px" y="0px"
	 viewBox="0 123.3 595.3 595.3" enable-background="new 0 123.3 595.3 595.3" xml:space="preserve">
<g>
	<g id="Capa_1_1_">
		<g id="back">
			<rect id="XMLID_37_" y="123.3" fill="none" width="595.3" height="595.3"/>
		</g>
	</g>
	<g>
		<path fill="#404B78" d="M332.2,212.7c-40.6,15.4-70.7,43.6-95.3,78.3c-18.1,25.5-31.9,53.1-43.4,82c-0.9,2.3-1.4,4.8-3.9,6.9
			c-4.6-5.8-6.6-12.6-8.5-19.1c-3-11-3.9-22.5-2.7-33.8c0.9-8.9,5.8-16.6,9.9-24.4c22.3-42.5,52.2-78.5,92.4-105.2
			c23.2-15.4,48.5-26,75.6-32.2c2.5-0.5,5-0.5,7.4,0.4c11,4.3,22,8.5,31.7,15.1c7.1,4.8,12.6,10.8,15.8,18.8
			c0.7,1.8,2.3,3.7,0.9,5.3c-1.2,1.6-3.2,0.4-5,0c-21.6-3.4-43-1.9-63.9,4.6C340.2,212.1,336.3,212.7,332.2,212.7z"/>
		<path fill="#40AC6E" d="M372.8,461.5c-10.8-2.5-21.3-5.3-31.9-6.6c-1.9-0.2-2.5-1.4-2.3-3.2c4.6-50.8,9.6-101.7,22.5-151.4
			c1.6-6,3.4-11.9,5.1-17.7c1.8-5.7,7.4-9.7,13.3-9.9c5.8-0.4,9.2,3.4,8.5,9.4c-3.2,23.2-6,46.6-8.5,69.8
			c-3.7,34.7-7.3,69.2-6.9,104.1C372.8,457.8,372.8,459.4,372.8,461.5z"/>
		<path fill="#40AC6E" d="M371.7,464.9c-1.8,3.2-3.9,5.7-4.6,8.9c-0.5,2.3-2.1,2.3-4.1,1.9c-53.8-7.6-106.6-1.6-159,10.6
			c-4.3,1.1-8.3-2.7-9.4-9c-0.7-3.9,0.4-7.6,1.1-11.5c0.5-2.8,3-2.3,4.4-2.5c19.3-3.7,38.8-6.2,58.3-7.3
			C296.5,454.2,334,456.4,371.7,464.9z"/>
		<path fill="#40AC6E" d="M266.5,406.4c-8.3,4.6-17.4,6.7-26.6,8.1c5.7-34.2,12.2-68,24.3-100.6c1.4-3.9,3.7-6.6,7.4-8
			c3.2-1.2,6.4-1.8,9.4,0.5c2.8,2.3,1.4,5.1,0.9,8C276.1,345,271,375.6,266.5,406.4z"/>
		<path fill="#40AC6E" d="M266.2,293.3c28.7-12,58.1-22,88.4-29.2c11-2.7,22.1-4.4,33.3-6.6c1.8-0.4,3.4-0.4,5.1-0.5
			c3.7-0.4,5.5,2.5,5.8,5.3c0.4,2.7-2.8,1.6-4.4,1.9c-26.6,6.4-52.2,15.1-78.3,23.6c-11.3,3.7-22.5,7.6-33.8,11.5
			C274.2,302.1,271.7,301.2,266.2,293.3z"/>
		<path fill="#404B78" d="M425.4,279.4c4.8,8,3.4,14.2-2.1,20.9c-11.5,14.2-23.2,28.2-35.6,41.8c-1.6-6.2,1.1-17.4,5.1-21.8
			C404.7,307.8,414.6,293.6,425.4,279.4z"/>
		<path fill="#7E7E81" d="M235.4,443.8c9.4-1.6,18.8-3.5,27.8-6.9c-0.7,11.9-0.7,11.9-12.4,12c-3.5,0-6.9-0.2-10.4,0.2
			C236.1,449.6,234.3,448.2,235.4,443.8z"/>
		<path fill="#404B78" d="M335.7,368.7c-0.4,0.1-0.7,0.1-1.2,0.3c-0.4,0.4-0.7,0.5-1.1,0.9c-10.1,8.5-21.1,15.4-32.8,21.1
			c-2.1,1.1-4.4,2.1-6.6,3.2c-9,4.4-17.7,9.6-27.6,12c-9,2.3-18.1,4.3-26.6,8.1c-22,6.4-40.2-0.5-52.2-19.7
			c-5.8-9.4-9-19.7-12.4-30.1c0,0,0,0,0-0.1c-1.2-8.2-2.6-16.5-4-25.6c-3.5,13.8-6.2,26.9-6.4,40.4c-0.2,11.4,2.2,22.4,7.6,32.5
			c0.1,0.2,0.1,0.3,0.2,0.5c6.2,14.3,16.1,24.4,31.3,28.9c10.3,3.2,20.9,3.2,31.3,2.7c6.2,2.3,11.9-1.1,17.5-2.7
			c3.7-0.5,7.6-1.1,10.1-4.6c13.5-5,26.2-11.5,38.3-19.5c0.2-0.3,0.5-0.6,0.8-0.9c-0.2,0.4-0.4,0.8-0.6,1.3
			c12.4-7.4,23.6-16.3,34.9-25.3c0.9-0.7,1.9-1.8,2.1-2.7c0.9-8,1.8-16.1,2.7-25.1C338.9,366.2,337.3,367.5,335.7,368.7z"/>
		<path fill="#120DD8" d="M333.5,370.1c-0.2,1.9-1.6,3.2-3,4.1c-8.9,5.7-17.9,11.3-26.9,17c-0.7,0.4-1.9,0.2-2.8,0.2
			C311.7,384.3,322.7,377.2,333.5,370.1z"/>
		<path fill="#40AC6E" d="M381.3,235c-10.8-11.3-24.3-18.8-37.9-25.9c-3.9,0.7-7.6,1.8-11.2,3.4c-1.2,2.8-3.9,4.1-6.2,5.8
			c-19.7,16.3-37.2,34.7-51.7,55.8c-2.8,4.3-5.8,8.3-8.1,14c41.3-18.8,83.4-30.8,127.9-36C390.2,245.4,386.1,239.9,381.3,235z
			 M300.9,256.4c11.2-12,22-24.1,33.8-35.6c4.3-4.1,8.1-4.8,13.3-1.9c10.1,5.5,19.5,11.5,27.6,19.7c2.1,2.1,4.4,4.3,5.8,8.1
			c-30.8,3.7-60.6,10.3-90.9,21.1C294.9,263.1,297.9,259.8,300.9,256.4z"/>
		<g>
			<g>
				<path fill="#404B78" d="M131.2,567.6c-4.2,0-8.1-0.8-11.7-2.3s-6.7-3.6-9.3-6.2c-2.6-2.6-4.7-5.8-6.1-9.4
					c-1.5-3.6-2.2-7.4-2.2-11.5V538c0-4.1,0.7-7.9,2.2-11.5c1.5-3.6,3.5-6.7,6.1-9.4c2.6-2.7,5.7-4.8,9.4-6.4
					c3.6-1.6,7.7-2.3,12.1-2.3c2.7,0,5.1,0.2,7.3,0.7c2.2,0.4,4.2,1,6,1.8c1.8,0.8,3.5,1.7,5,2.8c1.5,1.1,2.9,2.3,4.2,3.6l-8,9.2
					c-2.2-2-4.5-3.6-6.8-4.7c-2.3-1.1-4.9-1.7-7.8-1.7c-2.4,0-4.6,0.5-6.7,1.4c-2,0.9-3.8,2.2-5.3,3.8c-1.5,1.6-2.6,3.5-3.4,5.7
					c-0.8,2.2-1.2,4.5-1.2,6.9v0.2c0,2.5,0.4,4.8,1.2,6.9c0.8,2.2,1.9,4.1,3.4,5.7c1.4,1.6,3.2,2.9,5.2,3.9c2,1,4.3,1.4,6.7,1.4
					c3.3,0,6-0.6,8.3-1.8c2.3-1.2,4.5-2.8,6.7-4.9l8,8.1c-1.5,1.6-3,3-4.6,4.2c-1.6,1.3-3.3,2.3-5.2,3.2c-1.9,0.9-3.9,1.6-6.2,2
					C136.4,567.4,133.9,567.6,131.2,567.6z"/>
				<path fill="#404B78" d="M188.3,567.6c-4.4,0-8.5-0.8-12.2-2.3c-3.7-1.6-6.9-3.6-9.6-6.3c-2.7-2.6-4.8-5.7-6.3-9.3
					c-1.5-3.6-2.2-7.4-2.2-11.5V538c0-4.1,0.8-7.9,2.3-11.5c1.5-3.6,3.6-6.7,6.3-9.4c2.7-2.7,5.9-4.8,9.6-6.4
					c3.7-1.6,7.8-2.3,12.2-2.3s8.5,0.8,12.2,2.3c3.7,1.6,6.9,3.6,9.6,6.3s4.8,5.7,6.3,9.3c1.5,3.6,2.2,7.4,2.2,11.5v0.2
					c0,4.1-0.8,7.9-2.3,11.5c-1.5,3.6-3.6,6.7-6.3,9.4c-2.7,2.7-5.9,4.8-9.6,6.4C196.8,566.8,192.8,567.6,188.3,567.6z M188.5,556
					c2.5,0,4.8-0.5,6.9-1.4c2.1-0.9,3.9-2.2,5.4-3.8c1.5-1.6,2.7-3.5,3.5-5.7c0.8-2.1,1.3-4.5,1.3-6.9V538c0-2.5-0.4-4.8-1.3-6.9
					c-0.8-2.2-2-4.1-3.6-5.7c-1.6-1.6-3.4-2.9-5.5-3.9c-2.1-1-4.4-1.4-6.9-1.4c-2.6,0-4.9,0.5-7,1.4c-2.1,0.9-3.9,2.2-5.4,3.8
					c-1.5,1.6-2.7,3.5-3.5,5.7c-0.8,2.2-1.3,4.5-1.3,6.9v0.2c0,2.5,0.4,4.8,1.3,6.9c0.8,2.2,2,4.1,3.6,5.7c1.6,1.6,3.4,2.9,5.5,3.9
					C183.6,555.5,185.9,556,188.5,556z"/>
				<path fill="#404B78" d="M225.9,509.4h11.6l26.8,35.2v-35.2h12.4v57.2H266l-27.7-36.3v36.3h-12.4V509.4z"/>
				<path fill="#404B78" d="M313.2,567.6c-4.2,0-8.1-0.8-11.7-2.3s-6.7-3.6-9.3-6.2c-2.6-2.6-4.7-5.8-6.1-9.4
					c-1.5-3.6-2.2-7.4-2.2-11.5V538c0-4.1,0.7-7.9,2.2-11.5c1.5-3.6,3.5-6.7,6.1-9.4c2.6-2.7,5.7-4.8,9.4-6.4
					c3.6-1.6,7.7-2.3,12.1-2.3c2.7,0,5.1,0.2,7.3,0.7c2.2,0.4,4.2,1,6,1.8c1.8,0.8,3.5,1.7,5,2.8c1.5,1.1,2.9,2.3,4.2,3.6l-8,9.2
					c-2.2-2-4.5-3.6-6.8-4.7c-2.3-1.1-4.9-1.7-7.8-1.7c-2.4,0-4.6,0.5-6.7,1.4c-2,0.9-3.8,2.2-5.3,3.8s-2.6,3.5-3.4,5.7
					s-1.2,4.5-1.2,6.9v0.2c0,2.5,0.4,4.8,1.2,6.9c0.8,2.2,1.9,4.1,3.4,5.7c1.4,1.6,3.2,2.9,5.2,3.9c2,1,4.3,1.4,6.7,1.4
					c3.3,0,6-0.6,8.3-1.8c2.3-1.2,4.5-2.8,6.7-4.9l8,8.1c-1.5,1.6-3,3-4.6,4.2c-1.6,1.3-3.3,2.3-5.2,3.2c-1.9,0.9-3.9,1.6-6.2,2
					C318.4,567.4,315.9,567.6,313.2,567.6z"/>
				<path fill="#404B78" d="M342.6,509.4h43v11.2H355v11.6h27v11.2h-27v12h31v11.2h-43.5V509.4z"/>
				<path fill="#404B78" d="M406.2,567.4c-4.5,0-8.2-0.8-11.2-2.5c-3-1.7-5.5-3.7-7.5-6l7.9-8.8c1.6,1.8,3.3,3.2,4.9,4.2
					c1.7,1,3.5,1.5,5.5,1.5c2.4,0,4.3-0.7,5.6-2.2c1.4-1.5,2-3.9,2-7.2v-36.8h12.9v37.4c0,3.4-0.5,6.4-1.4,8.9s-2.3,4.6-4,6.4
					c-1.7,1.7-3.9,3.1-6.4,4C412.1,567,409.3,567.4,406.2,567.4z"/>
				<path fill="#404B78" d="M463,567.6c-4.4,0-8.5-0.8-12.2-2.3c-3.7-1.6-6.9-3.6-9.6-6.3c-2.7-2.6-4.8-5.7-6.3-9.3
					c-1.5-3.6-2.2-7.4-2.2-11.5V538c0-4.1,0.8-7.9,2.3-11.5c1.5-3.6,3.6-6.7,6.3-9.4c2.7-2.7,5.9-4.8,9.6-6.4
					c3.7-1.6,7.8-2.3,12.2-2.3s8.5,0.8,12.2,2.3c3.7,1.6,6.9,3.6,9.6,6.3s4.8,5.7,6.3,9.3c1.5,3.6,2.2,7.4,2.2,11.5v0.2
					c0,4.1-0.8,7.9-2.3,11.5c-1.5,3.6-3.6,6.7-6.3,9.4c-2.7,2.7-5.9,4.8-9.6,6.4C471.5,566.8,467.4,567.6,463,567.6z M463.1,556
					c2.5,0,4.8-0.5,6.9-1.4c2.1-0.9,3.9-2.2,5.4-3.8c1.5-1.6,2.7-3.5,3.5-5.7c0.8-2.1,1.3-4.5,1.3-6.9V538c0-2.5-0.4-4.8-1.3-6.9
					c-0.8-2.2-2-4.1-3.6-5.7c-1.6-1.6-3.4-2.9-5.5-3.9c-2.1-1-4.4-1.4-6.9-1.4c-2.6,0-4.9,0.5-7,1.4c-2.1,0.9-3.9,2.2-5.4,3.8
					c-1.5,1.6-2.7,3.5-3.5,5.7c-0.8,2.2-1.3,4.5-1.3,6.9v0.2c0,2.5,0.4,4.8,1.3,6.9c0.8,2.2,2,4.1,3.6,5.7s3.4,2.9,5.5,3.9
					C458.2,555.5,460.6,556,463.1,556z"/>
			</g>
		</g>
		<g>
			<g>
				<path fill="#404B78" d="M104.7,583.7h15.6c3.1,0,6,0.5,8.6,1.5c2.6,1,4.9,2.4,6.7,4.2c1.9,1.8,3.3,3.9,4.4,6.3
					c1,2.4,1.5,5,1.5,7.9v0.1c0,2.8-0.5,5.4-1.5,7.9c-1,2.4-2.5,4.6-4.4,6.3c-1.9,1.8-4.1,3.2-6.7,4.2c-2.6,1-5.5,1.5-8.6,1.5h-15.6
					V583.7z M120.3,615.8c1.8,0,3.4-0.3,4.9-0.9c1.5-0.6,2.8-1.4,3.8-2.5c1-1.1,1.9-2.3,2.5-3.8c0.6-1.4,0.9-3.1,0.9-4.9v-0.1
					c0-1.8-0.3-3.4-0.9-4.9c-0.6-1.5-1.4-2.8-2.5-3.8c-1-1.1-2.3-1.9-3.8-2.5c-1.5-0.6-3.1-0.9-4.9-0.9h-6.8v24.1H120.3z"/>
				<path fill="#404B78" d="M146.6,583.7h30.1v7.8h-21.4v8.1h18.9v7.8h-18.9v8.4H177v7.8h-30.4V583.7z"/>
				<path fill="#404B78" d="M182,583.7h8.8v32.1h19.9v7.9H182V583.7z"/>
				<path fill="#404B78" d="M214.9,583.7h8.8v40h-8.8V583.7z"/>
				<path fill="#404B78" d="M230.8,583.7h18.5c4.6,0,8.1,1.2,10.4,3.5c1.8,1.8,2.7,4.1,2.7,6.8v0.1c0,1.1-0.1,2.2-0.4,3
					c-0.3,0.9-0.7,1.7-1.1,2.4c-0.5,0.7-1,1.3-1.6,1.9c-0.6,0.5-1.3,1-2,1.4c2.3,0.9,4.1,2.1,5.5,3.6c1.3,1.5,2,3.6,2,6.3v0.1
					c0,1.8-0.4,3.4-1.1,4.8c-0.7,1.4-1.7,2.5-3,3.4c-1.3,0.9-2.9,1.6-4.7,2.1c-1.8,0.5-3.9,0.7-6.1,0.7h-19V583.7z M247.5,599.9
					c1.9,0,3.5-0.3,4.6-1c1.1-0.7,1.7-1.7,1.7-3.2v-0.1c0-1.3-0.5-2.4-1.5-3.1s-2.4-1.1-4.3-1.1h-8.7v8.5H247.5z M249.9,616
					c1.9,0,3.5-0.4,4.6-1.1c1.1-0.7,1.7-1.8,1.7-3.3v-0.1c0-1.3-0.5-2.4-1.5-3.2c-1-0.8-2.7-1.2-5-1.2h-10.2v8.8H249.9z"/>
				<path fill="#404B78" d="M269.2,583.7h30.1v7.8h-21.4v8.1h18.9v7.8h-18.9v8.4h21.7v7.8h-30.4V583.7z"/>
				<path fill="#404B78" d="M304.7,583.7H323c5.1,0,9,1.4,11.7,4.1c2.3,2.3,3.4,5.3,3.4,9.1v0.1c0,3.2-0.8,5.9-2.4,7.9
					c-1.6,2-3.6,3.5-6.2,4.5l9.8,14.3H329l-8.6-12.8h-0.1h-6.8v12.8h-8.8V583.7z M322.4,603.2c2.2,0,3.8-0.5,5-1.5
					c1.2-1,1.7-2.4,1.7-4.1v-0.1c0-1.9-0.6-3.3-1.8-4.3c-1.2-1-2.9-1.4-5.1-1.4h-8.7v11.5H322.4z"/>
				<path fill="#404B78" d="M356.8,583.5h8.1l17.1,40.3h-9.2l-3.7-9h-16.9l-3.7,9h-9L356.8,583.5z M366.1,607l-5.3-13l-5.3,13H366.1
					z"/>
				<path fill="#404B78" d="M385.4,583.7h8.1l18.7,24.6v-24.6h8.7v40h-7.5l-19.4-25.4v25.4h-8.7V583.7z"/>
				<path fill="#404B78" d="M437,591.9h-12.2v-8.1H458v8.1h-12.2v31.9H437V591.9z"/>
				<path fill="#404B78" d="M461.9,583.7H492v7.8h-21.4v8.1h18.9v7.8h-18.9v8.4h21.7v7.8h-30.4V583.7z"/>
			</g>
		</g>
		<g>
			<g>
				<path fill="#404B78" d="M103.8,643.3h13.8c2.1,0,4,0.3,5.6,0.8c1.6,0.6,2.9,1.3,3.9,2.4c0.8,0.8,1.4,1.7,1.8,2.8
					c0.4,1,0.6,2.2,0.6,3.4v0.1c0,1.4-0.3,2.7-0.8,3.8c-0.5,1.1-1.2,2.1-2.2,2.9c-0.9,0.8-2,1.4-3.3,1.9s-2.7,0.8-4.2,0.9l11.1,14.4
					h-2l-10.9-14.2H117h-11.7v14.2h-1.6V643.3z M117.1,660.9c1.7,0,3.2-0.2,4.6-0.6c1.3-0.4,2.5-1,3.4-1.7c0.9-0.7,1.6-1.6,2.1-2.5
					c0.5-1,0.7-2.1,0.7-3.2v-0.1c0-2.5-0.9-4.5-2.7-5.9c-1.8-1.4-4.4-2.1-7.7-2.1h-12v16.1H117.1z"/>
				<path fill="#404B78" d="M148.1,643.3h1.6v33.3h-1.6V643.3z M152.6,634.1l1.9,1l-5.1,5.1h-1.2L152.6,634.1z"/>
				<path fill="#404B78" d="M184.6,677.2c-2.5,0-4.8-0.5-6.9-1.4c-2-0.9-3.8-2.2-5.2-3.8c-1.5-1.6-2.6-3.4-3.4-5.5
					c-0.8-2.1-1.2-4.2-1.2-6.5v-0.1c0-2.3,0.4-4.5,1.2-6.5c0.8-2.1,1.9-3.9,3.4-5.5c1.4-1.6,3.2-2.8,5.2-3.8c2-0.9,4.3-1.4,6.9-1.4
					c2.5,0,4.8,0.5,6.8,1.4c2,0.9,3.8,2.2,5.3,3.8c1.5,1.6,2.6,3.4,3.4,5.5c0.8,2.1,1.2,4.2,1.2,6.5c0.1,0,0.1,0,0,0.1
					c0,2.3-0.4,4.5-1.2,6.5c-0.8,2.1-1.9,3.9-3.4,5.5c-1.4,1.6-3.2,2.9-5.3,3.8C189.4,676.8,187.1,677.2,184.6,677.2z M184.7,675.7
					c2.2,0,4.3-0.4,6.1-1.3c1.8-0.8,3.4-2,4.7-3.4c1.3-1.4,2.3-3.1,3.1-5c0.7-1.9,1.1-3.9,1.1-6V660c0-2.1-0.4-4.1-1.1-6
					c-0.7-1.9-1.8-3.6-3.1-5c-1.3-1.4-2.9-2.6-4.8-3.5c-1.8-0.9-3.9-1.3-6.1-1.3s-4.3,0.4-6.1,1.3c-1.8,0.8-3.4,2-4.7,3.4
					c-1.3,1.4-2.3,3.1-3.1,5c-0.7,1.9-1.1,3.9-1.1,6v0.1c0,2.1,0.4,4.1,1.1,6c0.7,1.9,1.8,3.6,3.1,5c1.3,1.4,2.9,2.6,4.8,3.5
					C180.4,675.3,182.5,675.7,184.7,675.7z"/>
				<path fill="#404B78" d="M257.3,677.2c-2.3,0-4.5-0.5-6.5-1.4s-3.7-2.1-5.2-3.7c-1.5-1.5-2.6-3.3-3.4-5.4
					c-0.8-2.1-1.2-4.3-1.2-6.7V660c0-2.3,0.4-4.6,1.2-6.6c0.8-2.1,1.9-3.9,3.4-5.5c1.5-1.6,3.2-2.8,5.2-3.7c2-0.9,4.2-1.4,6.6-1.4
					c1.6,0,2.9,0.1,4.2,0.4c1.2,0.3,2.3,0.6,3.4,1.1c1,0.5,1.9,1,2.8,1.7c0.8,0.6,1.7,1.3,2.5,2.1l-1.1,1.2
					c-0.7-0.7-1.4-1.3-2.2-1.9c-0.8-0.6-1.6-1.1-2.6-1.6c-1-0.5-2-0.8-3.1-1.1c-1.1-0.3-2.4-0.4-3.8-0.4c-2.1,0-4.1,0.4-5.9,1.2
					c-1.8,0.8-3.3,2-4.7,3.4c-1.3,1.4-2.3,3.1-3.1,5c-0.7,1.9-1.1,3.9-1.1,6.1v0.1c0,2.2,0.4,4.2,1.1,6.1c0.7,1.9,1.8,3.6,3.1,5
					c1.3,1.4,2.9,2.6,4.7,3.4c1.8,0.8,3.8,1.2,5.9,1.2c2.6,0,4.9-0.5,6.8-1.5c1.9-1,3.6-2.3,5.1-3.8l1.1,1.1
					c-0.8,0.8-1.6,1.5-2.5,2.2c-0.9,0.7-1.9,1.3-3,1.8c-1.1,0.5-2.2,0.9-3.5,1.2C260.1,677.1,258.8,677.2,257.3,677.2z"/>
				<path fill="#404B78" d="M299.8,677.2c-2,0-3.8-0.3-5.5-1c-1.7-0.6-3.1-1.6-4.3-2.8c-1.2-1.2-2.1-2.8-2.8-4.6c-0.7-1.9-1-4-1-6.5
					v-19h1.6v18.9c0,2.2,0.3,4.2,0.9,5.9c0.6,1.7,1.4,3.1,2.4,4.2c1,1.1,2.3,2,3.8,2.6c1.5,0.6,3.1,0.9,4.9,0.9
					c1.8,0,3.4-0.3,4.9-0.8c1.5-0.6,2.7-1.4,3.7-2.5c1-1.1,1.8-2.5,2.4-4.2c0.6-1.7,0.8-3.6,0.8-5.9v-19h1.6v18.8
					c0,2.5-0.3,4.7-1,6.5c-0.7,1.9-1.6,3.5-2.8,4.7c-1.2,1.3-2.6,2.2-4.3,2.8C303.7,676.9,301.8,677.2,299.8,677.2z"/>
				<path fill="#404B78" d="M345,643.1h1.5l15.8,33.6h-1.8l-4.5-9.7h-20.6l-4.6,9.7h-1.7L345,643.1z M355.4,665.5l-9.6-20.5
					l-9.6,20.5H355.4z"/>
				<path fill="#404B78" d="M378.7,643.3h13.8c2.1,0,4,0.3,5.6,0.8c1.6,0.6,2.9,1.3,3.9,2.4c0.8,0.8,1.4,1.7,1.8,2.8
					c0.4,1,0.6,2.2,0.6,3.4v0.1c0,1.4-0.3,2.7-0.8,3.8c-0.5,1.1-1.2,2.1-2.2,2.9c-0.9,0.8-2,1.4-3.3,1.9c-1.3,0.5-2.7,0.8-4.2,0.9
					l11.1,14.4h-2l-10.9-14.2H392h-11.7v14.2h-1.6V643.3z M392.1,660.9c1.7,0,3.2-0.2,4.6-0.6c1.3-0.4,2.5-1,3.4-1.7
					c0.9-0.7,1.6-1.6,2.1-2.5c0.5-1,0.7-2.1,0.7-3.2v-0.1c0-2.5-0.9-4.5-2.7-5.9c-1.8-1.4-4.4-2.1-7.7-2.1h-12v16.1H392.1z"/>
				<path fill="#404B78" d="M431.4,644.8h-11.9v-1.5H445v1.5h-11.9v31.9h-1.6V644.8z"/>
				<path fill="#404B78" d="M476.3,677.2c-2.5,0-4.8-0.5-6.9-1.4c-2-0.9-3.8-2.2-5.2-3.8c-1.5-1.6-2.6-3.4-3.4-5.5
					c-0.8-2.1-1.2-4.2-1.2-6.5v-0.1c0-2.3,0.4-4.5,1.2-6.5c0.8-2.1,1.9-3.9,3.4-5.5c1.4-1.6,3.2-2.8,5.2-3.8c2-0.9,4.3-1.4,6.9-1.4
					c2.5,0,4.8,0.5,6.8,1.4c2,0.9,3.8,2.2,5.3,3.8c1.5,1.6,2.6,3.4,3.4,5.5c0.8,2.1,1.2,4.2,1.2,6.5c0.1,0,0.1,0,0,0.1
					c0,2.3-0.4,4.5-1.2,6.5c-0.8,2.1-1.9,3.9-3.4,5.5s-3.2,2.9-5.3,3.8C481.1,676.8,478.8,677.2,476.3,677.2z M476.4,675.7
					c2.2,0,4.3-0.4,6.1-1.3c1.8-0.8,3.4-2,4.7-3.4c1.3-1.4,2.3-3.1,3.1-5c0.7-1.9,1.1-3.9,1.1-6V660c0-2.1-0.4-4.1-1.1-6
					c-0.7-1.9-1.8-3.6-3.1-5c-1.3-1.4-2.9-2.6-4.8-3.5c-1.8-0.9-3.9-1.3-6.1-1.3c-2.2,0-4.3,0.4-6.1,1.3c-1.8,0.8-3.4,2-4.7,3.4
					c-1.3,1.4-2.3,3.1-3.1,5c-0.7,1.9-1.1,3.9-1.1,6v0.1c0,2.1,0.4,4.1,1.1,6c0.7,1.9,1.8,3.6,3.1,5c1.3,1.4,2.9,2.6,4.8,3.5
					C472.2,675.3,474.2,675.7,476.4,675.7z"/>
			</g>
		</g>
	</g>
</g>
</svg>
