<?xml version="1.0" encoding="utf-8"?>
<!-- Generator: Adobe Illustrator 19.0.0, SVG Export Plug-In . SVG Version: 6.00 Build 0)  -->
<svg version="1.1" id="Capa_1" xmlns="http://www.w3.org/2000/svg" xmlns:xlink="http://www.w3.org/1999/xlink" x="0px" y="0px"
	 viewBox="-159 41 400 400" style="enable-background:new -159 41 400 400;" xml:space="preserve">
<style type="text/css">
	.st0{fill:none;}
	.st1{fill:#6798CE;}
	.st2{fill:#253546;}
</style>
<g id="Capa_1_1_">
	<rect x="-159" y="41" class="st0" width="400" height="400"/>
</g>
<g>
	<g>
		<g>
			<path class="st1" d="M11.6,279c0,1.4-0.3,2.5-1,3.3c-0.7,0.8-1.8,1.2-3.4,1.2c-0.8,0-1.7-0.1-2.6-0.3c-0.9-0.2-1.8-0.4-2.6-0.8
				c-1.7-0.5-3.1-0.9-4.1-1.3c-1-0.4-1.8-1-2.3-1.6c-0.5-0.7-0.8-1.5-1-2.5c-0.1-1-0.2-2.5-0.3-4.3c-0.6-14.2-1.2-28.2-1.8-42.2
				c-0.7-13.9-1.7-28-3.2-42.1c-1,4.8-1.9,9.5-2.8,14.3c-0.9,4.8-1.8,9.6-2.8,14.5c-1,5.1-1.9,10.3-2.8,15.7
				c-0.9,5.3-2.2,10.5-4.1,15.5c-0.8,2-1.7,3.6-2.8,4.7c-1.1,1.1-2.8,1.7-5.1,1.7c-1.7,0-3-0.3-4-0.9c-1-0.6-2-1.5-3-2.6
				c-0.9-1-1.9-2.8-2.9-5.6c-1-2.8-2.1-6-3.3-9.7c-1.1-3.7-2.3-7.7-3.4-11.9c-1.1-4.2-2.2-8.3-3.1-12.2c-1-3.9-1.8-7.5-2.6-10.7
				c-0.8-3.2-1.4-5.7-1.8-7.4v14.1c0,9.2,0.2,18.4,0.5,27.5c0.3,9.1,0.9,18.2,1.8,27.3c0.2,2,0.5,4,0.9,6c0.4,2,0.6,4,0.6,6
				c0,1.8-0.6,3-1.8,3.5c-1.2,0.6-2.5,0.8-4,0.8c-3.9,0-7-0.8-9.1-2.5c-2.1-1.7-3.2-4.6-3.2-8.7c0-8.4-0.2-16.7-0.6-24.9
				c-0.4-8.2-0.6-16.5-0.6-24.9c0-1.2,0-3.2,0-6.1c0-2.9,0.1-6.3,0.2-10.3c0.1-4,0.1-8.3,0.3-13c0.1-4.7,0.2-9.4,0.4-14.2
				c0.1-4.8,0.3-9.4,0.4-14c0.1-4.5,0.3-8.6,0.4-12.2c0.1-3.6,0.3-6.6,0.5-9c0.2-2.4,0.4-3.8,0.6-4.3c0.3-1,0.7-1.6,1.2-1.9
				c0.5-0.3,1.2-0.4,2.1-0.4c2.6,0,4.8,0.6,6.6,1.7c1.8,1.1,3,3.1,3.6,5.8c1,1.5,2.1,4.1,3.3,7.9c1.2,3.8,2.6,8.3,3.9,13.4
				c1.4,5.1,2.8,10.6,4.2,16.6c1.4,5.9,2.8,11.6,4.1,17.1c1.3,5.5,2.5,10.5,3.5,15c1.1,4.6,1.9,8.1,2.5,10.5c2-11.9,4-23.7,6.1-35.5
				c2.1-11.8,4.1-23.6,5.9-35.5c0.3-2,0.7-4,1.1-5.9c0.4-1.9,0.6-3.9,0.6-5.9c0-1.3-0.2-2.4-0.5-3.5c-0.4-1.1-0.5-2.2-0.5-3.4
				c0-1.4,0.5-2.3,1.4-2.6c0.9-0.3,2-0.5,3.2-0.5c1.1,0,2.4,0.2,3.9,0.5c1.5,0.3,3,0.9,4.4,1.5c1.4,0.7,2.6,1.6,3.6,2.6
				c1,1,1.5,2.3,1.5,3.6c0,2.4-0.2,5-0.6,7.7c2.5,11.7,4.6,23.4,6.2,35.1c1.7,11.7,2.9,23.5,3.7,35.4c0.8,10.3,1.5,20.4,2,30.5
				c0.5,10.1,1.2,20.2,1.9,30.3c0.1,0.6,0.2,1.2,0.3,1.8C11.6,277.8,11.6,278.4,11.6,279z"/>
			<path class="st2" d="M84.7,278.7c0.3,1.5,0.3,2.6,0,3.4c-0.3,0.8-1.3,1.3-3,1.6c-1,0.2-2.1,0.3-3.1,0.3c-1.1,0-2.2-0.2-3.2-0.4
				c-1.1-0.3-2-0.7-2.9-1.2c-0.9-0.5-1.6-1.3-2.2-2.2c-0.4-0.5-0.9-1.7-1.6-3.7c-0.7-2-1.4-4.4-2.2-7.2c-0.8-2.8-1.7-5.8-2.5-9
				c-0.9-3.2-1.7-6.3-2.5-9.2c-0.8-2.9-1.4-5.5-2-7.8c-0.6-2.3-1-3.8-1.1-4.7c-1.5,0.3-3,0.6-4.5,1c-1.5,0.4-3,0.7-4.5,1
				c-1.7,0.3-3.7,0.7-6.3,1c-2.5,0.4-5,0.5-7.5,0.4c-2.5-0.1-4.7-0.7-6.6-1.6c-1.9-1-3.1-2.6-3.6-5c-0.5-2.5-0.6-5.1-0.3-7.7
				c0.3-2.7,0.5-5.2,0.7-7.7c1.1-12.5,2.4-24.8,3.9-37c1.6-12.2,3-24.5,4.4-36.9c-0.6-2-1.3-4.1-1.9-6.1c-0.7-2-1.2-4.1-1.6-6.2
				c-0.3-1.7,0-2.9,1-3.7c1-0.7,2.3-1.2,3.8-1.5c1.2-0.2,2.6-0.3,4.2-0.3c1.6,0.1,3.1,0.3,4.5,0.8c1.4,0.5,2.7,1.2,3.8,2.1
				c1.1,0.9,1.8,2.2,2.1,3.7c0.1,0.4,0.1,0.9,0,1.2c-0.1,0.4-0.1,0.8,0,1.2c0.8,4.1,1.7,8.2,2.8,12.3c1.1,4.1,2.1,8.2,3.1,12.2
				l14.6,58.7c2.2-0.7,4.5-1.4,6.7-2.3c2.2-0.8,4.4-1.5,6.5-1.9c1.4-0.3,2.6-0.2,3.6,0.2c1,0.4,1.6,1.4,1.9,2.9
				c0.6,2.9,0.5,5.1-0.2,6.8c-0.7,1.7-1.8,3-3.3,4c-1.5,1-3.3,1.8-5.4,2.3c-2.1,0.6-4.2,1.1-6.4,1.7l6,24c0.8,3.3,1.6,6.7,2.5,10
				C83.3,271.8,84.1,275.2,84.7,278.7z M54.9,225.2c-1.7-6.4-3.3-12.8-4.9-19c-1.6-6.2-3.2-12.5-4.9-18.8
				c-0.7,6.5-1.4,13.3-2.1,20.2c-0.8,7-1.1,13.7-1.1,20.4l2.8-0.6c1.7-0.3,3.4-0.7,5.2-1C51.5,226.1,53.2,225.6,54.9,225.2z"/>
			<path class="st2" d="M147,206.7c0.6,3.3,1.3,7.2,2,11.8c0.7,4.6,1.2,9.5,1.5,14.5c0.3,5.1,0.3,10.2,0,15.3
				c-0.3,5.1-1.2,9.8-2.6,14.1c-1.5,4.3-3.6,7.9-6.3,11c-2.8,3-6.4,5-11,5.9c-3.7,0.7-7.2,0.7-10.4,0c-3.2-0.7-6.1-2-8.7-3.8
				c-2.6-1.8-4.9-4.1-7-6.8c-2-2.7-3.7-5.7-5.1-8.9c-0.4-1.2-0.9-2.4-1.4-3.5c-0.5-1.2-0.8-2.4-1.1-3.6c-0.3-1.6-0.3-3.1,0.2-4.3
				c0.4-1.2,1.6-2,3.4-2.4c0.9-0.2,2-0.2,3.2-0.2c1.3,0.1,2.5,0.2,3.7,0.5c1.2,0.3,2.4,0.7,3.5,1.3c1.1,0.6,1.9,1.2,2.5,2
				c1,1.3,1.8,3,2.5,5.1c0.7,2.1,1.5,4.1,2.5,6c1,1.9,2.2,3.5,3.7,4.7c1.5,1.2,3.4,1.5,5.9,1.1c2-0.4,3.4-1.9,4.4-4.7
				c1-2.7,1.6-6.1,1.9-10.1c0.3-4,0.4-8.4,0.2-13.1c-0.2-4.8-0.5-9.3-1-13.7c-0.5-4.3-0.9-8.3-1.4-11.8c-0.5-3.5-0.9-6-1.2-7.5
				c-0.3-1.5-0.7-3.5-1.3-5.9c-0.6-2.5-1.3-5.1-2.2-7.8c-2.6-8.1-5.2-14.9-14.8-13.2c-6.1,1.1-12.3,5.8-18.6,4.9
				c-1.1-0.1-2.1-0.4-3.2-0.9c-1.1-0.4-2.1-1-3-1.6c-0.9-0.6-1.5-1.3-1.9-1.9c-4.8-9-8-27-5.8-37.1c1.5-7,10.5-7.6,20-10.9
				c1.4-0.5,2.7-1,4-1.5c1.3-0.5,4.8-1.3,6.3-1.6c1.3-0.3,2.7,1.2,3.3,1.9c0.6,0.7,1.1,1.7,1.3,2.9c0.3,1.4,0.3,2.6,0.3,3.8
				c-0.1,1.1-0.6,2.2-1.6,3.3c-0.5,0.4-1.6,1.1-3.5,1.8c-3.9,1.6-11.8,2.6-15.1,5.5c-4.6,4.1-1.6,18.6,5.8,19.8
				c2.8,0.4,4.4-0.4,6.6-1.6c2.4-1.4,10.3-4.1,13.1-4.2c7.6,0,11.4,6.5,14.8,12.4c2,3.4,3.8,7.1,5.2,10.9c1.5,3.8,2.7,7.7,3.7,11.5
				C145.6,200,146.4,203.5,147,206.7z"/>
		</g>
		<g>
			<path class="st1" d="M49.1,120.9c-0.2-0.7-0.1-1.5,0.2-2.4c0.3-1,0.8-1.9,1.3-2.9c0.6-0.9,1.1-1.8,1.8-2.7
				c0.6-0.9,1.1-1.6,1.5-2.2l7.2-11.8c0.6-0.8,1.3-1.7,2-2.8c0.7-1,1.5-1.7,2.5-2c0.7-0.2,1.5-0.2,2.5,0.1c1,0.3,1.9,0.6,2.8,1.1
				c0.9,0.5,1.7,1.1,2.4,1.8c0.7,0.7,1.2,1.4,1.4,2.1c0,0.1,0.1,0.3,0.1,0.4c0,0.1,0,0.3-0.1,0.5c0,0.9-0.2,1.7-0.6,2.4
				c-0.4,0.8-0.9,1.5-1.5,2.3c-1.6,2.2-2.8,3.9-3.7,5.1c-0.9,1.1-1.7,2.2-2.4,3.2c-0.7,1-1.6,2-2.5,3.1c-0.9,1.1-2.2,2.8-3.8,4.9
				c-0.6,0.7-1.2,1.4-1.8,1.9c-0.6,0.5-1.3,0.9-2.1,1.1c-0.6,0.2-1.3,0.2-2,0.1c-0.7-0.1-1.5-0.3-2.2-0.6c-0.7-0.3-1.4-0.7-1.9-1.2
				C49.6,122.2,49.3,121.6,49.1,120.9z"/>
		</g>
	</g>
	<g>
		<path class="st1" d="M-71,304c0-0.8,0.5-1.5,1.5-2.1c1-0.6,2.1-0.9,3.2-0.9c1.4,0,2.2,0.5,2.4,1.4l6.6,24.3l6.6-24.3
			c0.3-0.9,1.1-1.4,2.4-1.4c1.1,0,2.2,0.3,3.2,0.9c1,0.6,1.5,1.3,1.5,2.1c0,0.1,0,0.3-0.1,0.5l-8.8,28.8c-0.3,0.8-0.8,1.4-1.7,1.8
			c-0.9,0.4-1.9,0.6-3.1,0.6c-1.2,0-2.2-0.2-3.1-0.6c-0.9-0.4-1.5-1-1.7-1.8l-8.8-28.8C-71,304.3-71,304.1-71,304z"/>
		<path class="st1" d="M-36.6,324.7v-12.5c0-3.8,1.1-6.7,3.2-8.5c2.1-1.8,4.9-2.7,8.4-2.7c3.5,0,6.4,0.9,8.5,2.7
			c2.1,1.8,3.2,4.6,3.2,8.5v12.5c0,3.8-1.1,6.7-3.2,8.5c-2.1,1.8-4.9,2.7-8.5,2.7c-3.5,0-6.3-0.9-8.4-2.7
			C-35.6,331.3-36.6,328.5-36.6,324.7z M-29.3,324.7c0,3.2,1.4,4.7,4.2,4.7c2.8,0,4.3-1.6,4.3-4.7v-12.5c0-3.2-1.4-4.7-4.3-4.7
			c-2.8,0-4.2,1.6-4.2,4.7V324.7z"/>
		<path class="st1" d="M-4.1,333.3v-30.1c0-0.7,0.4-1.3,1.1-1.7c0.7-0.4,1.6-0.6,2.6-0.6c1,0,1.9,0.2,2.6,0.6
			c0.7,0.4,1.1,0.9,1.1,1.7v25.9H14c0.7,0,1.2,0.3,1.6,0.9c0.4,0.6,0.6,1.4,0.6,2.3c0,0.9-0.2,1.6-0.6,2.3c-0.4,0.6-0.9,0.9-1.6,0.9
			H-0.9c-0.9,0-1.6-0.2-2.3-0.6C-3.8,334.5-4.1,334-4.1,333.3z"/>
		<path class="st1" d="M17.7,304c0-0.8,0.5-1.5,1.5-2.1c1-0.6,2.1-0.9,3.2-0.9c1.4,0,2.2,0.5,2.4,1.4l6.6,24.3l6.6-24.3
			c0.3-0.9,1.1-1.4,2.4-1.4c1.1,0,2.2,0.3,3.2,0.9c1,0.6,1.5,1.3,1.5,2.1c0,0.1,0,0.3-0.1,0.5l-8.8,28.8c-0.3,0.8-0.8,1.4-1.7,1.8
			c-0.9,0.4-1.9,0.6-3.1,0.6c-1.2,0-2.2-0.2-3.1-0.6c-0.9-0.4-1.5-1-1.7-1.8l-8.8-28.8C17.8,304.3,17.7,304.1,17.7,304z"/>
		<path class="st1" d="M52.5,333.3v-30c0-0.7,0.3-1.3,0.9-1.7c0.6-0.4,1.4-0.6,2.3-0.6h16.8c0.7,0,1.3,0.3,1.7,0.9
			c0.4,0.6,0.6,1.4,0.6,2.2c0,0.9-0.2,1.7-0.6,2.3c-0.4,0.6-0.9,0.9-1.6,0.9H59.9v8H67c0.7,0,1.2,0.3,1.6,0.9c0.4,0.6,0.6,1.2,0.6,2
			c0,0.7-0.2,1.4-0.6,1.9c-0.4,0.6-0.9,0.9-1.7,0.9h-7.1v8h12.7c0.7,0,1.2,0.3,1.6,0.9c0.4,0.6,0.6,1.4,0.6,2.3
			c0,0.9-0.2,1.6-0.6,2.2c-0.4,0.6-0.9,0.9-1.7,0.9H55.7c-0.9,0-1.6-0.2-2.3-0.6C52.8,334.5,52.5,334,52.5,333.3z"/>
		<path class="st1" d="M82.6,333.3v-30.1c0-0.6,0.2-1.1,0.6-1.6c0.4-0.4,1-0.7,1.6-0.7h9.8c7.8,0,11.6,3.4,11.6,10.1
			c0,4.9-1.9,8.1-5.7,9.6l5.8,10.4c0.2,0.2,0.2,0.5,0.2,0.9c0,0.9-0.5,1.8-1.5,2.6c-1,0.8-2,1.2-3.1,1.2c-1.1,0-1.9-0.5-2.4-1.4
			l-6.5-12.6H90v11.4c0,0.7-0.4,1.3-1.1,1.7c-0.7,0.4-1.6,0.6-2.6,0.6c-1,0-1.9-0.2-2.6-0.6C83,334.5,82.6,334,82.6,333.3z
			 M90,316.2h4.7c1.4,0,2.4-0.3,3.2-1c0.7-0.7,1.1-1.8,1.1-3.4c0-1.6-0.4-2.7-1.1-3.4c-0.7-0.7-1.8-1-3.2-1H90V316.2z"/>
		<path class="st1" d="M126.5,332.5c0-0.1,0-0.3,0.1-0.5l8.8-28.8c0.3-0.8,0.8-1.4,1.7-1.8c0.9-0.4,1.9-0.6,3.1-0.6
			c1.2,0,2.2,0.2,3.1,0.6c0.9,0.4,1.5,1,1.7,1.8l8.8,28.8c0.1,0.3,0.1,0.4,0.1,0.5c0,0.8-0.5,1.5-1.5,2.1c-1,0.6-2.1,0.9-3.2,0.9
			c-1.4,0-2.2-0.5-2.4-1.4l-1.6-5.9h-10l-1.6,5.9c-0.3,0.9-1.1,1.4-2.4,1.4c-1.1,0-2.2-0.3-3.2-0.9C127,334,126.5,333.3,126.5,332.5
			z M136.7,322.6h6.9l-3.5-12.7L136.7,322.6z"/>
	</g>
	<g>
		<path class="st2" d="M-71.9,356.3c0-0.9,0.2-1.6,0.6-2.2c0.4-0.6,0.9-0.9,1.7-0.9h20.4c0.7,0,1.3,0.3,1.7,0.9
			c0.4,0.6,0.6,1.4,0.6,2.2c0,0.9-0.2,1.7-0.6,2.3c-0.4,0.6-0.9,0.9-1.6,0.9h-6.5v25.8c0,0.7-0.4,1.3-1.1,1.7
			c-0.7,0.4-1.6,0.6-2.6,0.6c-1,0-1.9-0.2-2.6-0.6c-0.7-0.4-1.1-1-1.1-1.7v-25.8h-6.5c-0.7,0-1.2-0.3-1.6-0.9
			C-71.7,358-71.9,357.2-71.9,356.3z"/>
		<path class="st2" d="M-42.7,385.4v-30.1c0-0.6,0.2-1.1,0.6-1.6c0.4-0.4,1-0.7,1.6-0.7h9.8c7.8,0,11.6,3.4,11.6,10.1
			c0,4.9-1.9,8.1-5.7,9.6l5.8,10.4c0.2,0.2,0.2,0.5,0.2,0.9c0,0.9-0.5,1.8-1.5,2.6c-1,0.8-2,1.2-3.1,1.2c-1.1,0-1.9-0.5-2.4-1.4
			l-6.5-12.6h-3.1v11.4c0,0.7-0.4,1.3-1.1,1.7c-0.7,0.4-1.6,0.6-2.6,0.6c-1,0-1.9-0.2-2.6-0.6C-42.4,386.7-42.7,386.1-42.7,385.4z
			 M-35.3,368.3h4.7c1.4,0,2.4-0.3,3.2-1c0.7-0.7,1.1-1.8,1.1-3.4c0-1.6-0.4-2.7-1.1-3.4c-0.7-0.7-1.8-1-3.2-1h-4.7V368.3z"/>
		<path class="st2" d="M-16.1,384.6c0-0.1,0-0.3,0.1-0.5l8.8-28.8c0.3-0.8,0.8-1.4,1.7-1.8c0.9-0.4,1.9-0.6,3.1-0.6
			c1.2,0,2.2,0.2,3.1,0.6c0.9,0.4,1.5,1,1.7,1.8l8.8,28.8c0.1,0.3,0.1,0.4,0.1,0.5c0,0.8-0.5,1.5-1.5,2.1c-1,0.6-2.1,0.9-3.2,0.9
			c-1.4,0-2.2-0.5-2.4-1.4l-1.6-5.9h-10l-1.6,5.9c-0.3,0.9-1.1,1.4-2.4,1.4c-1.1,0-2.2-0.3-3.2-0.9
			C-15.5,386.2-16.1,385.4-16.1,384.6z M-5.8,374.7h6.9L-2.3,362L-5.8,374.7z"/>
		<path class="st2" d="M15.6,385.4v-30.1c0-0.7,0.3-1.3,0.9-1.7c0.6-0.4,1.4-0.6,2.3-0.6h9.7c6.3,0,9.5,2.8,9.5,8.4
			c0,3.8-1.3,6.3-4,7.4c1.6,0.6,2.8,1.5,3.6,2.6c0.8,1.1,1.2,2.8,1.2,5v1c0,3.5-0.9,6.1-2.6,7.7c-1.7,1.6-4,2.4-6.9,2.4H18.8
			c-1,0-1.8-0.2-2.3-0.7C15.9,386.5,15.6,386,15.6,385.4z M22.9,366.1h5c0.9,0,1.5-0.3,2-1c0.5-0.6,0.7-1.4,0.7-2.3
			c0-0.9-0.2-1.7-0.7-2.3c-0.5-0.7-1.1-1-2-1h-5V366.1z M22.9,381.2h4.7c2.5,0,3.8-1.4,3.8-4.3v-0.8c0-2.9-1.3-4.3-3.8-4.3h-4.7
			V381.2z"/>
		<path class="st2" d="M41.7,384.6c0-0.1,0-0.3,0.1-0.5l8.8-28.8c0.3-0.8,0.8-1.4,1.7-1.8c0.9-0.4,1.9-0.6,3.1-0.6
			c1.2,0,2.2,0.2,3.1,0.6c0.9,0.4,1.5,1,1.7,1.8l8.8,28.8c0.1,0.3,0.1,0.4,0.1,0.5c0,0.8-0.5,1.5-1.5,2.1c-1,0.6-2.1,0.9-3.2,0.9
			c-1.4,0-2.2-0.5-2.4-1.4l-1.6-5.9h-10l-1.6,5.9c-0.3,0.9-1.1,1.4-2.4,1.4c-1.1,0-2.2-0.3-3.2-0.9
			C42.2,386.2,41.7,385.4,41.7,384.6z M51.9,374.7h6.9L55.4,362L51.9,374.7z"/>
		<path class="st2" d="M71,378.1c0-1.4,0.3-2.3,0.9-2.8c0.6-0.5,1.5-0.7,2.9-0.7c2.3,0,3.5,0.7,3.6,2.2c0.1,0.7,0.1,1.2,0.2,1.6
			c0.1,0.4,0.2,0.9,0.5,1.4c0.3,0.6,0.7,1,1.3,1.3c0.6,0.3,1.3,0.4,2.2,0.4c2.9,0,4.3-1.6,4.3-4.7v-17.3h-4.1
			c-0.7,0-1.2-0.3-1.6-0.9c-0.4-0.6-0.6-1.4-0.6-2.3c0-0.9,0.2-1.6,0.6-2.2c0.4-0.6,0.9-0.9,1.7-0.9H91c0.9,0,1.6,0.2,2.3,0.6
			c0.6,0.4,0.9,1,0.9,1.7v21.4c0,3.8-1,6.7-3.1,8.5c-2.1,1.8-4.8,2.7-8.2,2.7c-3.5,0-6.3-0.9-8.5-2.6C72.1,383.5,71,381.1,71,378.1z
			"/>
		<path class="st2" d="M98.3,384.6c0-0.1,0-0.3,0.1-0.5l8.8-28.8c0.3-0.8,0.8-1.4,1.7-1.8c0.9-0.4,1.9-0.6,3.1-0.6
			c1.2,0,2.2,0.2,3.1,0.6c0.9,0.4,1.5,1,1.7,1.8l8.8,28.8c0.1,0.3,0.1,0.4,0.1,0.5c0,0.8-0.5,1.5-1.5,2.1c-1,0.6-2.1,0.9-3.2,0.9
			c-1.4,0-2.2-0.5-2.4-1.4l-1.6-5.9h-10l-1.6,5.9c-0.3,0.9-1.1,1.4-2.4,1.4c-1.1,0-2.2-0.3-3.2-0.9
			C98.8,386.2,98.3,385.4,98.3,384.6z M108.5,374.7h6.9L112,362L108.5,374.7z"/>
		<path class="st2" d="M129.9,385.4v-30.1c0-0.6,0.2-1.1,0.6-1.6c0.4-0.4,1-0.7,1.6-0.7h9.8c7.8,0,11.6,3.4,11.6,10.1
			c0,4.9-1.9,8.1-5.7,9.6l5.8,10.4c0.2,0.2,0.2,0.5,0.2,0.9c0,0.9-0.5,1.8-1.5,2.6c-1,0.8-2,1.2-3.1,1.2s-1.9-0.5-2.4-1.4l-6.5-12.6
			h-3.1v11.4c0,0.7-0.4,1.3-1.1,1.7c-0.7,0.4-1.6,0.6-2.6,0.6c-1,0-1.9-0.2-2.6-0.6C130.2,386.7,129.9,386.1,129.9,385.4z
			 M137.3,368.3h4.7c1.4,0,2.4-0.3,3.2-1c0.7-0.7,1.1-1.8,1.1-3.4c0-1.6-0.4-2.7-1.1-3.4c-0.7-0.7-1.8-1-3.2-1h-4.7V368.3z"/>
	</g>
</g>
</svg>
