<?xml version="1.0" encoding="utf-8"?>
<!-- Generator: Adobe Illustrator 19.0.0, SVG Export Plug-In . SVG Version: 6.00 Build 0)  -->
<svg version="1.1" xmlns="http://www.w3.org/2000/svg" xmlns:xlink="http://www.w3.org/1999/xlink" x="0px" y="0px"
	 viewBox="-97 220.9 400 400" style="enable-background:new -97 220.9 400 400;" xml:space="preserve">
<style type="text/css">
	.st0{fill:none;}
	.st1{fill:#9EC6E8;}
	.st2{opacity:0.7;fill-rule:evenodd;clip-rule:evenodd;fill:#9EC6E8;}
	.st3{fill-rule:evenodd;clip-rule:evenodd;fill:#86BAE3;}
	.st4{opacity:0.7;fill-rule:evenodd;clip-rule:evenodd;fill:#66973B;}
	.st5{fill-rule:evenodd;clip-rule:evenodd;fill:#66973B;}
	.st6{fill:#183246;}
	.st7{fill:#66973B;}
</style>
<g id="Capa_1">
	<g id="back">
		<rect id="XMLID_37_" x="-97" y="220.9" class="st0" width="400" height="400"/>
	</g>
</g>
<g id="Capa_2">
	<g>
		<path class="st1" d="M197.9,324.1c7,14,11,29.9,11,46.6c0,6.2-0.5,12.2-1.6,18.1l-6.1,0c1.1-5.9,1.7-11.9,1.7-18.1
			c0-16.8-4.3-32.7-11.8-46.6L197.9,324.1z M6.5,365.4c-0.1,1.8-0.1,3.6-0.1,5.4c0,27.9,11.7,53.2,30.5,71.1l-4.2,4.3
			c-19.9-19-32.3-45.8-32.3-75.4c0-1.8,0-3.6,0.1-5.4c0.1-3,0.4-5.9,0.8-8.8c6.9-50.8,50.6-90.2,103.3-90.2
			c34.1,0,64.4,16.4,83.4,41.8l-7.6,0c-18-21.9-45.3-35.8-75.8-35.8c-49.4,0-90.4,36.6-97.3,84.2 M204.3,401.5
			C191.1,444,151.4,475,104.6,475c-18.7,0-36.3-4.9-51.5-13.6v-7c15,9.2,32.6,14.6,51.5,14.6c43.4,0,80.4-28.3,93.3-67.4H204.3z
			 M7.4,356.6c-0.4,2.9-0.7,5.8-0.9,8.8"/>
		<g>
			<polygon class="st2" points="-3.7,554.6 5.1,554.6 11.8,564.7 3,564.7 			"/>
			<polygon class="st3" points="-3.7,574.8 5.1,574.8 11.8,564.7 3,564.7 			"/>
			<polygon class="st4" points="10.1,554.6 18.8,554.6 25.5,564.7 16.8,564.7 			"/>
			<polygon class="st5" points="10.1,574.8 18.8,574.8 25.5,564.7 16.8,564.7 			"/>
		</g>
		<g>
			<path class="st6" d="M45.2,575.3l-3.9-5.8h-3.1v5.8h-4v-18h8.2c4.3,0,6.8,2.2,6.8,6v0.1c0,2.9-1.6,4.7-3.9,5.6l4.4,6.4H45.2z
				 M45.2,563.4c0-1.7-1.2-2.6-3.1-2.6h-3.9v5.2h4C44.1,566,45.2,565,45.2,563.4L45.2,563.4z"/>
			<path class="st6" d="M53.9,575.3v-18h4v18H53.9z M54.3,555.8l2.9-4.6l3.4,1.5l-3.3,3.1H54.3z"/>
			<path class="st6" d="M72.1,575.6c-5.6,0-9.6-4.2-9.6-9.3v-0.1c0-5.1,4-9.3,9.6-9.3c5.6,0,9.6,4.2,9.6,9.3v0.1
				C81.7,571.4,77.7,575.6,72.1,575.6z M77.6,566.3c0-3.1-2.3-5.7-5.5-5.7c-3.2,0-5.4,2.5-5.4,5.6v0.1c0,3.1,2.3,5.7,5.5,5.7
				C75.4,571.9,77.6,569.4,77.6,566.3L77.6,566.3z"/>
			<path class="st6" d="M103.3,575.6c-5.3,0-9.3-4.1-9.3-9.3v-0.1c0-5.1,3.9-9.3,9.4-9.3c3.4,0,5.4,1.1,7.1,2.8l-2.5,2.9
				c-1.4-1.3-2.8-2-4.6-2c-3,0-5.2,2.5-5.2,5.6v0.1c0,3.1,2.1,5.7,5.2,5.7c2.1,0,3.3-0.8,4.7-2.1l2.5,2.6
				C108.8,574.3,106.8,575.6,103.3,575.6z"/>
			<path class="st6" d="M122.3,575.6c-4.8,0-7.8-2.7-7.8-8v-10.3h4v10.2c0,2.9,1.5,4.5,3.9,4.5c2.4,0,3.9-1.5,3.9-4.3v-10.3h4v10.2
				C130.2,572.9,127.1,575.6,122.3,575.6z"/>
			<path class="st6" d="M148,575.3l-1.6-4h-7.6l-1.6,4h-4l7.7-18.2h3.7l7.7,18.2H148z M142.5,561.9l-2.4,5.9h4.8L142.5,561.9z"/>
			<path class="st6" d="M166.8,575.3l-3.9-5.8h-3.1v5.8h-4v-18h8.2c4.3,0,6.8,2.2,6.8,6v0.1c0,2.9-1.6,4.7-3.9,5.6l4.4,6.4H166.8z
				 M166.8,563.4c0-1.7-1.2-2.6-3.1-2.6h-3.9v5.2h4C165.7,566,166.8,565,166.8,563.4L166.8,563.4z"/>
			<path class="st6" d="M183.5,560.9v14.4h-4v-14.4h-5.5v-3.7h15v3.7H183.5z"/>
			<path class="st6" d="M201,575.6c-5.6,0-9.6-4.2-9.6-9.3v-0.1c0-5.1,4-9.3,9.6-9.3c5.6,0,9.6,4.2,9.6,9.3v0.1
				C210.6,571.4,206.5,575.6,201,575.6z M206.4,566.3c0-3.1-2.3-5.7-5.5-5.7c-3.2,0-5.4,2.5-5.4,5.6v0.1c0,3.1,2.3,5.7,5.5,5.7
				C204.2,571.9,206.4,569.4,206.4,566.3L206.4,566.3z"/>
		</g>
		<g>
			<g>
				<path class="st7" d="M-1,518.6h9.5c1.9,0,3.7,0.3,5.3,0.9c1.6,0.6,3,1.5,4.1,2.6c1.2,1.1,2,2.4,2.7,3.9c0.6,1.5,0.9,3.1,0.9,4.8
					v0.1c0,1.7-0.3,3.3-0.9,4.8c-0.6,1.5-1.5,2.8-2.7,3.9c-1.2,1.1-2.5,2-4.1,2.6c-1.6,0.6-3.3,0.9-5.3,0.9H-1V518.6z M8.6,538.2
					c1.1,0,2.1-0.2,3-0.5c0.9-0.3,1.7-0.8,2.3-1.5c0.6-0.7,1.1-1.4,1.5-2.3c0.4-0.9,0.5-1.9,0.5-3v-0.1c0-1.1-0.2-2.1-0.5-3
					c-0.4-0.9-0.9-1.7-1.5-2.3c-0.6-0.7-1.4-1.2-2.3-1.5c-0.9-0.4-1.9-0.5-3-0.5H4.4v14.7H8.6z"/>
				<path class="st7" d="M29.1,518.6h18.4v4.8H34.4v5H46v4.8H34.4v5.1h13.3v4.8H29.1V518.6z"/>
				<path class="st7" d="M55.3,518.6h10c1.5,0,2.8,0.2,3.9,0.6c1.2,0.4,2.1,1,2.9,1.7c0.8,0.7,1.4,1.6,1.9,2.7
					c0.4,1,0.6,2.2,0.6,3.4v0.1c0,1.4-0.3,2.7-0.8,3.7c-0.5,1.1-1.2,2-2.1,2.7c-0.9,0.7-1.9,1.3-3.1,1.6c-1.2,0.4-2.5,0.5-3.9,0.5
					h-4.1v7.3h-5.4V518.6z M64.9,531c1.4,0,2.4-0.4,3.1-1.1c0.7-0.7,1.1-1.6,1.1-2.6v-0.1c0-1.2-0.4-2.1-1.2-2.8s-1.8-0.9-3.2-0.9
					h-4.2v7.5H64.9z"/>
				<path class="st7" d="M93.3,543.5c-1.9,0-3.6-0.3-5.2-1c-1.6-0.7-3-1.6-4.1-2.7c-1.2-1.1-2-2.5-2.7-4c-0.6-1.5-1-3.2-1-4.9v-0.1
					c0-1.7,0.3-3.4,1-4.9c0.7-1.5,1.6-2.9,2.7-4c1.2-1.2,2.5-2.1,4.1-2.7c1.6-0.7,3.3-1,5.2-1c1.9,0,3.6,0.3,5.2,1
					c1.6,0.7,3,1.6,4.1,2.7c1.2,1.1,2,2.5,2.7,4c0.6,1.5,1,3.2,1,4.9v0.1c0,1.7-0.3,3.4-1,4.9c-0.7,1.5-1.6,2.9-2.7,4
					c-1.2,1.2-2.5,2.1-4.1,2.7C96.9,543.2,95.2,543.5,93.3,543.5z M93.3,538.5c1.1,0,2.1-0.2,3-0.6c0.9-0.4,1.7-0.9,2.3-1.6
					c0.6-0.7,1.1-1.5,1.5-2.4c0.4-0.9,0.5-1.9,0.5-3v-0.1c0-1-0.2-2-0.5-3c-0.4-0.9-0.9-1.7-1.5-2.4c-0.7-0.7-1.4-1.3-2.4-1.7
					c-0.9-0.4-1.9-0.6-3-0.6c-1.1,0-2.1,0.2-3,0.6c-0.9,0.4-1.7,0.9-2.3,1.6c-0.6,0.7-1.1,1.5-1.5,2.4c-0.4,0.9-0.5,1.9-0.5,3v0.1
					c0,1,0.2,2,0.5,3c0.4,0.9,0.9,1.7,1.5,2.4c0.7,0.7,1.4,1.3,2.3,1.7C91.2,538.3,92.2,538.5,93.3,538.5z"/>
				<path class="st7" d="M113.8,518.6H125c3.1,0,5.5,0.8,7.1,2.5c1.4,1.4,2.1,3.3,2.1,5.6v0.1c0,2-0.5,3.6-1.4,4.8
					c-1,1.2-2.2,2.2-3.8,2.7l6,8.7h-6.3l-5.2-7.8h-0.1h-4.2v7.8h-5.4V518.6z M124.7,530.5c1.3,0,2.3-0.3,3.1-0.9
					c0.7-0.6,1.1-1.5,1.1-2.5V527c0-1.2-0.4-2-1.1-2.6c-0.7-0.6-1.8-0.9-3.1-0.9h-5.3v7H124.7z"/>
				<path class="st7" d="M147.6,523.6h-7.4v-5h20.3v5h-7.4v19.5h-5.4V523.6z"/>
				<path class="st7" d="M167.3,518.6h18.4v4.8h-13.1v5h11.5v4.8h-11.5v5.1h13.3v4.8h-18.6V518.6z"/>
				<path class="st7" d="M202.2,543.4c-1.9,0-3.7-0.3-5.5-1c-1.8-0.6-3.4-1.6-4.9-3l3.2-3.8c1.1,0.9,2.3,1.6,3.4,2.2
					c1.2,0.5,2.5,0.8,3.9,0.8c1.1,0,2-0.2,2.6-0.6c0.6-0.4,0.9-1,0.9-1.7v-0.1c0-0.3-0.1-0.7-0.2-0.9c-0.1-0.3-0.4-0.5-0.7-0.8
					c-0.4-0.2-0.9-0.5-1.5-0.7c-0.6-0.2-1.5-0.5-2.5-0.7c-1.2-0.3-2.4-0.6-3.4-1c-1-0.4-1.9-0.8-2.6-1.4c-0.7-0.5-1.2-1.2-1.6-2
					c-0.4-0.8-0.6-1.8-0.6-3v-0.1c0-1.1,0.2-2.1,0.6-3c0.4-0.9,1-1.7,1.8-2.3c0.8-0.7,1.6-1.2,2.7-1.5c1-0.3,2.2-0.5,3.5-0.5
					c1.8,0,3.4,0.3,4.9,0.8c1.5,0.5,2.9,1.3,4.1,2.3l-2.8,4.1c-1.1-0.7-2.2-1.3-3.2-1.8c-1-0.4-2.1-0.6-3.1-0.6s-1.8,0.2-2.4,0.6
					c-0.5,0.4-0.8,0.9-0.8,1.5v0.1c0,0.4,0.1,0.7,0.2,1c0.2,0.3,0.4,0.6,0.8,0.8c0.4,0.2,0.9,0.5,1.6,0.7c0.7,0.2,1.6,0.5,2.6,0.7
					c1.2,0.3,2.3,0.7,3.3,1.1c1,0.4,1.8,0.9,2.5,1.5c0.7,0.6,1.2,1.2,1.5,2c0.3,0.8,0.5,1.7,0.5,2.8v0.1c0,1.2-0.2,2.3-0.7,3.2
					c-0.4,0.9-1.1,1.7-1.8,2.4c-0.8,0.6-1.7,1.1-2.8,1.5C204.7,543.3,203.5,543.4,202.2,543.4z"/>
			</g>
		</g>
		<g>
			<path class="st6" d="M179.2,381.6c5.9,1.9,12.2,4.4,18.7,7.2c1.1-5.7,1.7-11.6,1.7-17.7c0-17.1-4.6-33.1-12.5-47
				c-56.6,16.1-96,44.2-118,83.9c24-21.9,46.6-33,73-33c1.2,0,2.5,0,3.8,0.1c-4.4-6.6-5.2-15.3-1.6-22.9
				c3.9-8.3,12.3-13.7,21.4-13.7c3.5,0,6.8,0.7,10,2.2c5.7,2.7,10.1,7.4,12.2,13.3c2.2,5.9,1.9,12.4-0.8,18.1
				C185.4,376,182.6,379.2,179.2,381.6z"/>
			<path class="st6" d="M10.1,365.4c-0.1,1.9-0.2,3.8-0.2,5.7c0,25.8,10.3,49.1,26.9,66.2c2.2-36.9,15.3-69.2,37.9-92.2
				C56.1,349.5,35.1,356.1,10.1,365.4z"/>
			<path class="st6" d="M53.5,449.5c-0.1,0.4-0.2,0.8-0.3,1.2c14.8,9.6,32.5,15.3,51.6,15.3c41.7,0,77.1-27,89.8-64.4
				C166.8,402.2,110.9,409.3,53.5,449.5z"/>
			<path class="st6" d="M102.4,317.4c-5.3-4.6-8.3-11.6-7.4-19c1.3-10.8,10.5-18.9,21.4-18.9c0.9,0,1.8,0.1,2.7,0.2
				c11.8,1.5,20.2,12.3,18.8,24.1c-0.3,2.5-1,4.9-2.2,7.1c4.8-0.6,9.5-1.1,14.1-1.4c8.3-1,17-1.4,25.8-1.1
				c-17.4-19.6-42.7-31.9-70.9-31.9c-47.4,0-86.7,34.8-93.7,80.3C39.1,339.3,71,325.6,102.4,317.4z"/>
		</g>
		<path class="st5" d="M210.5,398.4c0,0-105.4-10.9-198.1,81.4c56.2-74.2,92.1-107.5,143.6-100.3c-8.8-5.2-12.4-16.4-8-25.8
			c4.7-10.1,16.7-14.5,26.8-9.8c10.1,4.7,14.5,16.7,9.8,26.8c-3,6.4-8.9,10.5-15.4,11.5C181.7,385.4,195.4,390.8,210.5,398.4z"/>
		<path class="st1" d="M150.6,312.9c-7.3,0.5-15,1.4-23,2.7c3.9-2.8,6.6-7.2,7.2-12.3c1.2-9.9-5.8-19-15.7-20.2
			c-9.9-1.2-19,5.8-20.2,15.7c-1.1,9.2,4.8,17.6,13.6,19.8c-33.1,7.6-69.9,22.1-103.4,43.6c29.4-10.9,54.8-18.7,78-23.1
			C47.8,371,31.2,427.8,45.3,493.9c0.9-91.1,52.7-154.5,162.8-178.5C187.3,311.3,168.1,310.6,150.6,312.9z"/>
	</g>
</g>
</svg>
