<?xml version="1.0" encoding="utf-8"?>
<!-- Generator: Adobe Illustrator 19.0.0, SVG Export Plug-In . SVG Version: 6.00 Build 0)  -->
<svg version="1.1" id="Capa_1" xmlns="http://www.w3.org/2000/svg" xmlns:xlink="http://www.w3.org/1999/xlink" x="0px" y="0px"
	 viewBox="0 0 400 400" style="enable-background:new 0 0 400 400;" xml:space="preserve">
<style type="text/css">
	.st0{fill:none;}
	.st1{fill:#253546;}
	.st2{opacity:0.7;fill:#A9C5E6;enable-background:new    ;}
	.st3{fill:#96B9E0;}
	.st4{opacity:0.7;fill:#00696D;enable-background:new    ;}
	.st5{fill:#00696D;}
	.st6{fill:#5B157D;}
	.st7{fill:#004F99;}
	.st8{fill:#DC9900;}
	.st9{fill:#E9BD00;}
	.st10{fill:#98B833;}
	.st11{fill:#B9007C;}
	.st12{fill:#C64D09;}
	.st13{fill:#FFFFFF;}
</style>
<g id="back">
	<rect id="XMLID_37_" class="st0" width="400" height="400"/>
</g>
<g id="logo">
	<g id="XMLID_38_">
		<g>
			<path id="XMLID_36_" class="st1" d="M205.4,224.1c0,0,32.8,7.5,61.8,0.4c16.1-16.8,26.1-39.6,26.1-64.8
				c0-51.7-41.9-93.5-93.5-93.5c-51.7,0-93.5,41.9-93.5,93.5c0,25.3,10.1,48.3,26.4,65.1C148.6,218.2,172.3,214.5,205.4,224.1z"/>
			<path id="XMLID_35_" class="st1" d="M188.8,234.6c0,0-20.5-7-48.1-2.5c16.1,13.2,36.7,21.1,59.1,21.1c19.3,0,37.3-5.9,52.2-15.9
				C236,241.9,214.8,243,188.8,234.6z"/>
		</g>
		<g>
			<polygon id="XMLID_34_" class="st2" points="95.6,335.6 103.8,335.6 110.1,345 101.8,345 			"/>
			<polygon id="XMLID_33_" class="st3" points="95.6,354.5 103.8,354.5 110.1,345 101.8,345 			"/>
			<polygon id="XMLID_32_" class="st4" points="108.4,335.6 116.7,335.6 122.9,345 114.7,345 			"/>
			<polygon id="XMLID_31_" class="st5" points="108.4,354.5 116.7,354.5 122.9,345 114.7,345 			"/>
		</g>
		<g id="XMLID_58_">
			<path id="XMLID_59_" class="st1" d="M141.4,354.9l-3.7-5.4h-2.9v5.4h-3.7v-17h7.7c4,0,6.4,2.1,6.4,5.6v0.1c0,2.8-1.4,4.5-3.7,5.2
				l4.1,6.1L141.4,354.9L141.4,354.9z M141.4,343.8c0-1.6-1.1-2.4-2.9-2.4h-3.7v4.8h3.8C140.4,346.3,141.4,345.3,141.4,343.8
				L141.4,343.8z"/>
			<path id="XMLID_62_" class="st1" d="M150.3,354.9v-17h3.7v16.9L150.3,354.9L150.3,354.9z M150.5,336.7l2.8-4.3l3.2,1.4l-3.1,2.9
				H150.5z"/>
			<path id="XMLID_65_" class="st1" d="M167.9,355.2c-5.2,0-9-3.9-9-8.7v-0.1c0-4.8,3.8-8.8,9-8.8s9,3.9,9,8.7v0.1
				C177,351.3,173.2,355.2,167.9,355.2z M173.1,346.5c0-2.9-2.1-5.3-5.1-5.3s-5.1,2.3-5.1,5.2v0.1c0,2.9,2.1,5.3,5.1,5.3
				C171,351.8,173.1,349.4,173.1,346.5L173.1,346.5z"/>
			<path id="XMLID_68_" class="st1" d="M198.5,355.2c-5,0-8.7-3.9-8.7-8.7v-0.1c0-4.8,3.7-8.8,8.8-8.8c3.2,0,5.1,1,6.7,2.6L203,343
				c-1.3-1.2-2.6-1.9-4.3-1.9c-2.8,0-4.9,2.3-4.9,5.2v0.1c0,2.9,2,5.3,4.9,5.3c1.9,0,3.1-0.8,4.5-2l2.3,2.4
				C203.7,354,201.7,355.2,198.5,355.2z"/>
			<path id="XMLID_70_" class="st1" d="M217,355.2c-4.6,0-7.3-2.6-7.3-7.5V338h3.7v9.6c0,2.8,1.4,4.2,3.7,4.2s3.7-1.4,3.7-4.1V338
				h3.7v9.5C224.4,352.7,221.5,355.2,217,355.2z"/>
			<path id="XMLID_72_" class="st1" d="M241.7,354.9l-1.5-3.8H233l-1.5,3.8h-3.9l7.2-17h3.4l7.2,17H241.7z M236.6,342.3l-2.3,5.5
				h4.5L236.6,342.3z"/>
			<path id="XMLID_75_" class="st1" d="M259.9,354.9l-3.7-5.4h-2.9v5.4h-3.7v-17h7.7c4,0,6.4,2.1,6.4,5.6v0.1c0,2.8-1.4,4.5-3.7,5.2
				l4.1,6.1L259.9,354.9L259.9,354.9z M260,343.8c0-1.6-1.1-2.4-2.9-2.4h-3.7v4.8h3.8C259,346.3,260,345.3,260,343.8L260,343.8z"/>
			<path id="XMLID_78_" class="st1" d="M276.3,341.4v13.5h-3.7v-13.5h-5.2V338h14v3.4H276.3z"/>
			<path id="XMLID_80_" class="st1" d="M293.3,355.2c-5.2,0-9-3.9-9-8.7v-0.1c0-4.8,3.8-8.8,9-8.8s9,3.9,9,8.7v0.1
				C302.4,351.3,298.6,355.2,293.3,355.2z M298.4,346.5c0-2.9-2.1-5.3-5.1-5.3s-5.1,2.3-5.1,5.2v0.1c0,2.9,2.1,5.3,5.1,5.3
				C296.4,351.8,298.4,349.4,298.4,346.5L298.4,346.5z"/>
		</g>
		<g id="XMLID_39_">
			<path id="XMLID_40_" class="st5" d="M97,314.3L97,314.3c0-8.3,6.4-14.9,15-14.9c5.8,0,9.6,2.4,12.1,5.9l-5.9,4.6
				c-1.7-2.1-3.5-3.3-6.2-3.3c-4,0-6.8,3.4-6.8,7.5v0.1c0,4.3,2.8,7.6,6.8,7.6c3,0,4.7-1.4,6.4-3.4l5.9,4.2
				c-2.7,3.7-6.3,6.4-12.6,6.4C103.6,329.1,97,322.9,97,314.3z"/>
			<path id="XMLID_42_" class="st5" d="M127.3,316v-16h8v15.9c0,4.1,2.1,6.1,5.2,6.1c3.2,0,5.2-1.9,5.2-5.9V300h8v15.8
				c0,9.2-5.2,13.2-13.4,13.2C132.4,329,127.3,324.9,127.3,316z"/>
			<path id="XMLID_44_" class="st5" d="M158.5,300h7.9v21.6h13.8v6.9h-21.7V300z"/>
			<path id="XMLID_46_" class="st5" d="M186.5,306.9h-8.6V300h25v6.9h-8.6v21.6h-7.9L186.5,306.9L186.5,306.9z"/>
			<path id="XMLID_50_" class="st5" d="M206,316v-16h8v15.9c0,4.1,2.1,6.1,5.2,6.1s5.2-1.9,5.2-5.9V300h8v15.8
				c0,9.2-5.2,13.2-13.4,13.2C211.1,329,206,324.9,206,316z"/>
			<path id="XMLID_52_" class="st5" d="M237.3,300h13.5c4.3,0,7.4,1.2,9.3,3.1c1.7,1.7,2.6,3.8,2.6,6.6v0.1c0,4.3-2.3,7.2-5.9,8.8
				l6.8,9.9h-9.1l-5.7-8.6h-0.1h-3.4v8.6h-8V300z M250.4,313.7c2.7,0,4.2-1.3,4.2-3.4v-0.1c0-2.2-1.7-3.4-4.3-3.4h-5.2v6.8h5.3
				V313.7z"/>
			<path id="XMLID_55_" class="st5" d="M275.8,299.8h7.6l12.1,28.7H287l-2.1-5.1h-11l-2.1,5.1h-8.3L275.8,299.8z M282.8,317.3
				l-3.2-8.1l-3.2,8.1H282.8z"/>
		</g>
		<path id="XMLID_28_" class="st6" d="M299.8,153.4H315c-1.4-27.2-12.4-51.9-29.5-70.8l-10.7,10.7
			C289.1,109.5,298.4,130.4,299.8,153.4z"/>
		<path id="XMLID_27_" class="st7" d="M265.7,84.4l10.7-10.7c-19-16.9-43.7-27.6-70.8-28.9V60C228.6,61.2,249.5,70.2,265.7,84.4z"/>
		<path id="XMLID_26_" class="st5" d="M193,60V44.9c-26.9,1.7-51.3,12.5-70.2,29.5L133.5,85C149.6,70.8,170.2,61.6,193,60z"/>
		<path id="XMLID_25_" class="st8" d="M133.5,234.6l-10.7,10.7c18.8,17,43.2,27.9,70.2,29.5v-15.2
			C170.2,258,149.6,248.8,133.5,234.6z"/>
		<path id="XMLID_24_" class="st9" d="M100.2,166.1H85c1.4,26.8,12.1,51.3,28.8,70.1l10.8-10.7C110.5,209.5,101.6,188.8,100.2,166.1
			z"/>
		<path id="XMLID_23_" class="st10" d="M124.6,94.1l-10.7-10.8c-16.8,18.8-27.4,43.3-28.8,70.1h15.2
			C101.6,130.8,110.5,110.2,124.6,94.1z"/>
		<path id="XMLID_22_" class="st11" d="M299.8,166.1c-1.4,23-10.7,43.9-25.1,60.2l10.7,10.7c17.1-19,28.1-43.7,29.5-70.8
			L299.8,166.1L299.8,166.1z"/>
		<path id="XMLID_21_" class="st12" d="M205.7,259.7v15.2c27.1-1.3,51.8-12,70.8-28.9l-10.7-10.8
			C249.5,249.4,228.6,258.4,205.7,259.7z"/>
		<g>
			<path class="st13" d="M135.9,204.8v7.9h-3.3v5.2c15.9-5.1,39.6-7.8,72.5,0.1c0,0,30.9,5.9,59.3,1.2v-6.6h-2.8v-7.9h-4.4v-35.6
				h7.2v-16.8h-7.2v-33.5h4.4v-9.3h-29.9v-10h1.9v-4h-8.5L206.6,86v-5.9h-4.3v-3.3h-8.4v3.3h-4.3V86L171,95.6h-8.3v4h1.7v10H136v9.3
				h3.5v33.5h-6.9v16.8h6.9v35.6L135.9,204.8L135.9,204.8z M222.5,139.9c0,0,0-13,13.7-13s13.7,13,13.7,13v12.6h-27.5L222.5,139.9
				L222.5,139.9z M222.5,180.9c0,0,0-13,13.7-13s13.7,13,13.7,13v23.9h-27.5L222.5,180.9L222.5,180.9z M185,139.9c0,0,0-13,13.7-13
				s13.7,13,13.7,13v12.6h-27.5L185,139.9L185,139.9z M185,180.9c0,0,0-13,13.7-13s13.7,13,13.7,13v23.9h-27.5L185,180.9L185,180.9z
				 M147.7,139.9c0,0,0-13,13.7-13s13.7,13,13.7,13v12.6h-27.5L147.7,139.9L147.7,139.9z M147.7,180.9c0,0,0-13,13.7-13
				s13.7,13,13.7,13v23.9h-27.5L147.7,180.9L147.7,180.9z"/>
		</g>
	</g>
</g>
<g id="guias">
</g>
</svg>
