<?xml version="1.0" encoding="utf-8"?>
<!-- Generator: Adobe Illustrator 18.0.0, SVG Export Plug-In . SVG Version: 6.00 Build 0)  -->
<!DOCTYPE svg PUBLIC "-//W3C//DTD SVG 1.1//EN" "http://www.w3.org/Graphics/SVG/1.1/DTD/svg11.dtd">
<svg version="1.1" xmlns="http://www.w3.org/2000/svg" xmlns:xlink="http://www.w3.org/1999/xlink" x="0px" y="0px"
	 viewBox="240 0 1440 1440" enable-background="new 240 0 1440 1440" xml:space="preserve">
<g id="Capa_1">
	<g id="Capa_1_1_">
		<rect x="240" fill="none" width="1440" height="1440"/>
	</g>
</g>
<g id="Capa_4">
	<g>
		<circle fill="#96B9E0" cx="957.9" cy="535.6" r="64.7"/>
		<path fill="#96B9E0" d="M957.9,155.1c-210.1,0-380.5,170.3-380.5,380.5s170.3,380.5,380.5,380.5c210.1,0,380.5-170.3,380.5-380.5
			S1168,155.1,957.9,155.1z M957.9,866.1c-182.6,0-330.5-148-330.5-330.5c0-182.6,148-330.5,330.5-330.5
			c182.6,0,330.5,148,330.5,330.5C1288.4,718.2,1140.5,866.1,957.9,866.1z"/>
		<path fill="#283647" d="M957.9,426c60.5,0,109.6,49.1,109.6,109.6c0,60.5-49,109.6-109.6,109.6c-60.5,0-109.6-49.1-109.6-109.6
			c0-20.8,5.8-40.2,15.9-56.8l-153.3-87.6c-24.8,42.4-39.1,91.7-39.1,144.4c0,158,128.1,286,286,286c158,0,286-128.1,286-286
			c0-158-128.1-286-286-286V426z"/>
		<g>
			<g>
				<path fill="#253546" d="M604.6,998.6h6.5l28.1,62.2h-7.5l-7.2-16.3H591l-7.3,16.3h-7.1L604.6,998.6z M621.8,1038.2l-14-31.5
					l-14.1,31.5H621.8z"/>
				<path fill="#253546" d="M647,999h21.4c4.8,0,9.3,0.8,13.3,2.3c4,1.6,7.5,3.7,10.4,6.5c2.9,2.8,5.2,6,6.8,9.8
					c1.6,3.7,2.4,7.8,2.4,12.1v0.2c0,4.4-0.8,8.4-2.4,12.2c-1.6,3.8-3.8,7-6.8,9.8c-2.9,2.8-6.4,4.9-10.4,6.5
					c-4,1.6-8.5,2.4-13.3,2.4H647V999z M668.4,1054.3c3.9,0,7.4-0.6,10.6-1.8c3.2-1.2,5.9-2.9,8.1-5.1c2.2-2.2,3.9-4.8,5.1-7.7
					c1.2-3,1.8-6.2,1.8-9.6v-0.2c0-3.4-0.6-6.6-1.8-9.6c-1.2-3-2.9-5.6-5.1-7.8c-2.2-2.2-4.9-3.9-8.1-5.2c-3.2-1.3-6.7-1.9-10.6-1.9
					H654v48.9H668.4z"/>
				<path fill="#253546" d="M711.5,999h7.1l22.5,33.7l22.5-33.7h7.1v61.8h-7v-50l-22.5,33.1h-0.3l-22.5-33v49.9h-6.8V999z"/>
				<path fill="#253546" d="M784.2,999h7v61.8h-7V999z"/>
				<path fill="#253546" d="M804.8,999h6.5l38.9,49.5V999h6.8v61.8h-5.6l-39.9-50.6v50.6h-6.8V999z"/>
				<path fill="#253546" d="M870.6,999h7v61.8h-7V999z"/>
				<path fill="#253546" d="M912.4,1061.7c-4.9,0-9.5-0.8-13.5-2.4c-4.1-1.6-8-4.1-11.7-7.5l4.3-5.1c3.2,2.9,6.5,5.1,9.8,6.6
					c3.3,1.4,7.1,2.2,11.4,2.2c4.2,0,7.5-1,10-3c2.5-2,3.8-4.5,3.8-7.5v-0.2c0-1.4-0.2-2.7-0.7-3.8c-0.5-1.1-1.3-2.2-2.5-3.1
					c-1.2-0.9-2.8-1.8-4.9-2.6c-2.1-0.8-4.8-1.5-8-2.2c-3.5-0.8-6.6-1.7-9.2-2.6c-2.6-1-4.8-2.2-6.5-3.6c-1.7-1.4-3-3.1-3.8-4.9
					c-0.8-1.9-1.2-4.1-1.2-6.6v-0.2c0-2.4,0.5-4.6,1.5-6.7c1-2.1,2.4-3.8,4.2-5.3c1.8-1.5,4-2.7,6.4-3.5c2.5-0.9,5.2-1.3,8.1-1.3
					c4.5,0,8.5,0.6,11.9,1.9c3.4,1.3,6.7,3.2,9.8,5.7l-4.1,5.4c-2.9-2.4-5.8-4.1-8.7-5.1c-2.9-1.1-6-1.6-9.1-1.6
					c-4.1,0-7.3,1-9.6,2.9c-2.4,1.9-3.5,4.3-3.5,7.1v0.2c0,1.5,0.2,2.8,0.7,3.9c0.5,1.1,1.3,2.2,2.6,3.2c1.2,1,2.9,1.9,5.1,2.6
					c2.2,0.8,5,1.5,8.4,2.3c6.9,1.5,12,3.7,15.2,6.4c3.3,2.7,4.9,6.4,4.9,11.1v0.2c0,2.6-0.5,5-1.6,7.2c-1,2.2-2.5,4-4.3,5.5
					c-1.8,1.5-4,2.7-6.6,3.5C918.3,1061.2,915.4,1061.7,912.4,1061.7z"/>
				<path fill="#253546" d="M959.4,1005.5h-20.7V999h48.4v6.4h-20.7v55.3h-7V1005.5z"/>
				<path fill="#253546" d="M995.8,999h26.6c3.8,0,7.2,0.5,10.2,1.6c3,1.1,5.4,2.6,7.4,4.5c1.5,1.5,2.7,3.3,3.5,5.4
					c0.8,2.1,1.2,4.3,1.2,6.8v0.2c0,2.6-0.4,4.9-1.2,6.9c-0.8,2-2,3.8-3.5,5.3c-1.5,1.5-3.3,2.7-5.3,3.7c-2.1,1-4.3,1.7-6.7,2.1
					l19,25.2h-8.6l-17.9-24h-0.2h-17.5v24h-7V999z M1021.8,1030.5c2.3,0,4.4-0.3,6.4-0.9c2-0.6,3.6-1.4,5-2.5c1.4-1.1,2.5-2.4,3.3-4
					c0.8-1.6,1.2-3.3,1.2-5.3v-0.2c0-3.8-1.4-6.8-4.2-9c-2.8-2.1-6.7-3.2-11.7-3.2h-19.1v25.1H1021.8z"/>
				<path fill="#253546" d="M1077.9,998.6h6.5l28.1,62.2h-7.5l-7.2-16.3h-33.6l-7.3,16.3h-7.1L1077.9,998.6z M1095.1,1038.2
					l-14-31.5l-14.1,31.5H1095.1z"/>
				<path fill="#253546" d="M1148.5,1061.8c-4.5,0-8.6-0.8-12.4-2.5c-3.8-1.6-7-3.9-9.8-6.7c-2.8-2.9-4.9-6.2-6.5-10.1
					c-1.6-3.9-2.3-8-2.3-12.4v-0.2c0-4.3,0.8-8.5,2.3-12.4c1.6-3.9,3.7-7.3,6.5-10.2c2.8-2.9,6.1-5.2,9.9-6.9
					c3.8-1.7,8-2.5,12.5-2.5c2.8,0,5.4,0.2,7.6,0.7c2.3,0.5,4.4,1.1,6.3,2c1.9,0.9,3.7,1.9,5.4,3.1c1.6,1.2,3.2,2.5,4.8,4l-4.8,5.1
					c-2.6-2.5-5.5-4.5-8.5-6.1c-3-1.6-6.7-2.4-10.9-2.4c-3.4,0-6.6,0.6-9.5,1.9c-2.9,1.3-5.4,3.1-7.6,5.4c-2.1,2.3-3.8,5-5,8.1
					c-1.2,3.1-1.8,6.4-1.8,9.9v0.2c0,3.6,0.6,6.9,1.8,10c1.2,3.1,2.9,5.8,5,8.1c2.1,2.3,4.7,4.1,7.6,5.4c2.9,1.3,6.1,2,9.5,2
					c4.2,0,7.9-0.8,10.9-2.3c3.1-1.6,6.1-3.7,9-6.6l4.6,4.5c-1.6,1.7-3.3,3.1-5,4.5c-1.7,1.3-3.6,2.5-5.6,3.4
					c-2,0.9-4.1,1.7-6.4,2.2C1153.9,1061.6,1151.3,1061.8,1148.5,1061.8z"/>
				<path fill="#253546" d="M1181.5,999h7v61.8h-7V999z"/>
				<path fill="#253546" d="M1230.7,1061.8c-4.7,0-9-0.9-12.8-2.6c-3.9-1.7-7.2-4-9.9-6.9c-2.8-2.9-4.9-6.3-6.4-10.2
					c-1.5-3.9-2.3-7.9-2.3-12.1v-0.2c0-4.2,0.8-8.3,2.3-12.2c1.5-3.9,3.7-7.3,6.4-10.2s6.1-5.2,10-7c3.9-1.7,8.2-2.6,12.9-2.6
					c4.7,0,9,0.9,12.8,2.6c3.9,1.7,7.2,4,9.9,6.9c2.8,2.9,4.9,6.3,6.4,10.2c1.5,3.9,2.3,7.9,2.3,12.1c0.1,0.1,0.1,0.1,0,0.2
					c0,4.2-0.8,8.3-2.3,12.2c-1.5,3.9-3.7,7.3-6.4,10.2c-2.8,2.9-6.1,5.2-10,7C1239.7,1061,1235.4,1061.8,1230.7,1061.8z
					 M1230.9,1055.4c3.5,0,6.8-0.7,9.8-2c3-1.3,5.5-3.1,7.6-5.4c2.1-2.3,3.8-5,5-8c1.2-3.1,1.8-6.4,1.8-9.9v-0.2
					c0-3.5-0.6-6.8-1.8-9.9c-1.2-3.1-2.9-5.8-5.1-8.1c-2.2-2.3-4.8-4.1-7.7-5.5c-3-1.4-6.2-2-9.7-2c-3.5,0-6.8,0.7-9.8,2
					c-3,1.3-5.5,3.1-7.6,5.4c-2.1,2.3-3.8,5-5,8c-1.2,3.1-1.8,6.3-1.8,9.9v0.2c0,3.5,0.6,6.8,1.8,9.9c1.2,3.1,2.9,5.8,5.1,8.1
					c2.2,2.3,4.7,4.1,7.7,5.5C1224.1,1054.7,1227.4,1055.4,1230.9,1055.4z M1236.9,980.7l7.1,3.3l-10,9.5h-5.5L1236.9,980.7z"/>
				<path fill="#253546" d="M1272.6,999h6.5l38.9,49.5V999h6.8v61.8h-5.6l-39.9-50.6v50.6h-6.8V999z"/>
			</g>
			<g>
				<path fill="#253546" d="M601.1,1107.7h-25.3v-20.4h73.9v20.4h-25.3v63.8h-23.3V1107.7z"/>
				<path fill="#253546" d="M659.9,1087.2h39.8c12.9,0,21.8,3.4,27.4,9.1c4.9,4.8,7.5,11.3,7.5,19.6v0.2c0,12.9-6.9,21.4-17.3,25.9
					l20.1,29.4h-26.9l-17-25.5h-0.2h-10v25.5h-23.3V1087.2z M698.7,1127.6c7.9,0,12.5-3.8,12.5-10v-0.2c0-6.6-4.8-10-12.6-10h-15.3
					v20.2H698.7z"/>
				<path fill="#253546" d="M746.9,1087.2h23.5v84.2h-23.5V1087.2z"/>
				<path fill="#253546" d="M785.8,1087.2H829c10.6,0,18,2.6,23,7.6c3.4,3.4,5.4,7.8,5.4,13.6v0.2c0,9.7-5.5,15.5-13,18.8
					c10.2,3.4,16.7,9.1,16.7,20.6v0.2c0,14.4-11.8,23.2-31.9,23.2h-43.4V1087.2z M823.2,1120.8c7.1,0,11.1-2.4,11.1-7.3v-0.2
					c0-4.6-3.6-7.2-10.6-7.2h-15.2v14.8H823.2z M826.6,1152.7c7.1,0,11.2-2.8,11.2-7.7v-0.2c0-4.6-3.6-7.6-11.4-7.6h-17.8v15.5
					H826.6z"/>
				<path fill="#253546" d="M870.7,1134.5v-47.3h23.7v46.8c0,12.2,6.1,17.9,15.5,17.9c9.4,0,15.5-5.5,15.5-17.3v-47.4h23.7v46.7
					c0,27.2-15.5,39.1-39.5,39.1S870.7,1160.8,870.7,1134.5z"/>
				<path fill="#253546" d="M983.6,1107.7h-25.3v-20.4h73.9v20.4h-25.3v63.8h-23.3V1107.7z"/>
				<path fill="#253546" d="M1060.7,1086.6h22.5l35.9,84.8h-25l-6.1-15h-32.5l-6,15h-24.5L1060.7,1086.6z M1081.1,1138.2l-9.4-23.9
					l-9.5,23.9H1081.1z"/>
				<path fill="#253546" d="M1127.2,1087.2h39.8c12.9,0,21.8,3.4,27.4,9.1c4.9,4.8,7.5,11.3,7.5,19.6v0.2c0,12.9-6.9,21.4-17.3,25.9
					l20.1,29.4h-26.9l-17-25.5h-0.2h-10v25.5h-23.3V1087.2z M1166,1127.6c7.9,0,12.5-3.8,12.5-10v-0.2c0-6.6-4.8-10-12.6-10h-15.3
					v20.2H1166z"/>
				<path fill="#253546" d="M1214.2,1087.2h23.4v84.2h-23.4V1087.2z"/>
				<path fill="#253546" d="M1282.2,1086.6h22.5l35.9,84.8h-25l-6.1-15h-32.5l-6,15h-24.5L1282.2,1086.6z M1302.6,1138.2l-9.4-23.9
					l-9.5,23.9H1302.6z"/>
			</g>
			<g>
				<path fill="#253546" d="M769.5,1280.9l-16.6-23.5h-14.8v23.5h-11.8v-67.4h30c15.5,0,25,8.2,25,21.4c0,11.2-6.6,17.9-16.1,20.5
					l18.2,25.5H769.5z M755.3,1224.3h-17.2v22.6h17.3c8.5,0,13.9-4.4,13.9-11.4C769.3,1228.2,764.1,1224.3,755.3,1224.3z"/>
				<path fill="#253546" d="M806.5,1213.6v67.4h-11.8v-67.4H806.5z M795.8,1208l10.2-15.8l10.6,4.7l-11.7,11.1H795.8z"/>
				<path fill="#253546" d="M854.8,1282.1c-20.7,0-35.1-15.7-35.1-34.7c0-19,14.6-34.9,35.3-34.9c20.7,0,35.1,15.7,35.1,34.7
					C890.2,1266.2,875.5,1282.1,854.8,1282.1z M854.8,1223.3c-13.4,0-22.7,10.7-22.7,23.9c0,13.2,9.5,24.1,22.9,24.1
					c13.4,0,22.7-10.7,22.7-23.9C877.8,1234.2,868.2,1223.3,854.8,1223.3z"/>
				<path fill="#253546" d="M961,1282.1c-19.6,0-34.3-15.3-34.3-34.7c0-19.2,14.3-34.9,34.7-34.9c12.4,0,19.9,4.3,26.4,10.5
					l-7.6,8.8c-5.4-5-11.2-8.4-18.9-8.4c-12.9,0-22.2,10.6-22.2,23.9c0,13.3,9.3,24.1,22.2,24.1c8.3,0,13.6-3.4,19.3-8.8l7.6,7.7
					C981.3,1277.5,973.6,1282.1,961,1282.1z"/>
				<path fill="#253546" d="M1055.5,1251.8c0,20.1-11.4,30.2-29,30.2c-17.5,0-28.7-10.1-28.7-29.6v-38.8h11.8v38.3
					c0,12.5,6.5,19.2,17,19.2c10.5,0,16.9-6.3,16.9-18.8v-38.8h11.8V1251.8z"/>
				<path fill="#253546" d="M1132,1280.9h-12.5l-6.8-16.3h-31.9l-6.9,16.3h-12.1l29.6-67.8h11L1132,1280.9z M1096.7,1227.2
					l-11.5,26.9h23.2L1096.7,1227.2z"/>
				<path fill="#253546" d="M1185,1280.9l-16.6-23.5h-14.8v23.5h-11.8v-67.4h30c15.5,0,25,8.2,25,21.4c0,11.2-6.6,17.9-16.1,20.5
					l18.2,25.5H1185z M1170.8,1224.3h-17.2v22.6h17.3c8.5,0,13.9-4.4,13.9-11.4C1184.8,1228.2,1179.6,1224.3,1170.8,1224.3z"/>
				<path fill="#253546" d="M1237.7,1280.9h-11.9v-56.4h-21.4v-11h54.7v11h-21.4V1280.9z"/>
				<path fill="#253546" d="M1298.3,1282.1c-20.7,0-35.1-15.7-35.1-34.7c0-19,14.6-34.9,35.3-34.9c20.7,0,35.1,15.7,35.1,34.7
					C1333.6,1266.2,1319,1282.1,1298.3,1282.1z M1298.3,1223.3c-13.4,0-22.7,10.7-22.7,23.9c0,13.2,9.5,24.1,22.9,24.1
					s22.7-10.7,22.7-23.9C1321.2,1234.2,1311.7,1223.3,1298.3,1223.3z"/>
			</g>
			<g>
				<polygon opacity="0.7" fill-rule="evenodd" clip-rule="evenodd" fill="#A9C5E6" points="581.6,1206.3 615.5,1206.3 
					641.3,1245.2 607.4,1245.2 				"/>
				<polygon fill-rule="evenodd" clip-rule="evenodd" fill="#A9C5E6" points="581.6,1284 615.5,1284 641.3,1245.2 607.4,1245.2 				
					"/>
				<polygon opacity="0.7" fill-rule="evenodd" clip-rule="evenodd" fill="#A9C5E6" points="634.4,1206.3 668.3,1206.3 
					694.1,1245.2 660.2,1245.2 				"/>
				<polygon fill-rule="evenodd" clip-rule="evenodd" fill="#A9C5E6" points="634.4,1284 668.3,1284 694.1,1245.2 660.2,1245.2 				
					"/>
			</g>
		</g>
	</g>
</g>
</svg>
