<?xml version="1.0" encoding="utf-8"?>
<!-- Generator: Adobe Illustrator 18.0.0, SVG Export Plug-In . SVG Version: 6.00 Build 0)  -->
<!DOCTYPE svg PUBLIC "-//W3C//DTD SVG 1.1//EN" "http://www.w3.org/Graphics/SVG/1.1/DTD/svg11.dtd">
<svg version="1.1" id="Capa_1" xmlns="http://www.w3.org/2000/svg" xmlns:xlink="http://www.w3.org/1999/xlink" x="0px" y="0px"
	 viewBox="1323 220.9 500 500" enable-background="new 1323 220.9 500 500" xml:space="preserve">
<g id="Capa_1_1_">
	<rect x="1323" y="220.9" fill="none" width="500" height="500"/>
</g>
<g>
	<path fill="#4DA6DE" d="M1413.4,482.8c0,3.1-2.5,5.5-5.5,5.5c-3.1,0-5.5-2.5-5.5-5.5c0-3.1,2.5-5.5,5.5-5.5
		C1411,477.4,1413.4,479.8,1413.4,482.8 M1424.8,492.3h-33.7v-18.9h33.7V492.3z M1415.1,482.8c0-4-3.2-7.2-7.2-7.2
		c-4,0-7.2,3.2-7.2,7.2s3.2,7.2,7.2,7.2C1412,490,1415.1,486.8,1415.1,482.8 M1389.8,494.8v5.6h36.4v-5.6l-1-1.4H1391L1389.8,494.8z
		 M1396.9,435.8h22.2h0.5l0,0v-2l0,0h-0.6c-0.9-4.4-4.8-7.8-9.4-8.4v-0.9h-0.3l0,0c0-0.7-0.6-1.3-1.1-1.3c-0.5,0-0.9,0.3-1.1,0.8
		c0,0.1-0.1,0.2-0.1,0.5h-0.2l0,0v0.9c-4.8,0.6-8.5,4-9.4,8.4h-0.6l0,0v2l0,0H1396.9z M1426.2,470.3l-6-1.8H1396l-6.1,1.8v1.8h36.4
		v-1.8H1426.2z M1396.4,465.1l-0.6,0.9l0,0v1.4h24.2V466l-0.7-0.9H1396.4z M1436.6,499.7l-0.7-1.3v-1.4l0,0l0.7-0.8l-2-12.1
		l-1.9-1.5l-1.9,1.5l-2,12.1l0.7,0.8v1.4l-0.7,1.3v1.9H1408l0,0h-20.7v-1.9l-0.7-1.3v-1.4l0.7-0.8l-2-12.1l-1.9-1.5l-1.9,1.5
		l-2,12.1l0.7,0.8l0,0v1.4l-0.7,1.3v1.9h-2.4l1.5,3.6v0.9c2-0.6,4.7-0.9,8.3-0.9c6.1,0,9.3,1.1,12.2,2c2.4,0.8,4.5,1.6,9,1.6
		c4.4,0,6.5-0.7,9-1.6c2.8-1,6-2,12.2-2c3.6,0,6.1,0.3,8.3,0.9v-0.9l1.5-3.6h-2.4v-1.9H1436.6z M1420.6,461.6h-1v2.4h-11.5h-11.5
		v-2.4h-1v-1.4h0.9l0,0h0.1v-0.5l0.5-0.7v-11.9l-0.5-0.9v-0.5h0.5v-5.7h11h11v5.7h0.5v0.5l-0.5,0.9v11.9l0.5,0.7v0.5h0.1h0.5h0.5
		V461.6L1420.6,461.6z M1402.7,444.4c0-0.9-0.8-1.7-1.8-1.7h-0.1c-1,0-1.8,0.8-1.8,1.7v1.5h0.5v0.5l-0.5,0.9v11.9l0.5,0.7v0.5h0.2
		l0,0h2.3h0.1h0.2v-0.5l0.5-0.7v-11.9l-0.5-0.9v-0.5h0.5L1402.7,444.4L1402.7,444.4z M1411.5,445c0-1.8-1.6-3.4-3.5-3.4
		s-3.5,1.5-3.5,3.4v0.8h0.5v0.5l-0.5,0.9v11.9l0.5,0.7v0.5h0.3h0.3h2.4h2.4h0.3h0.3v-0.5l0.5-0.7v-11.9l-0.5-0.9v-0.5h0.5V445z
		 M1417.1,444.4c0-0.9-0.8-1.7-1.8-1.7h-0.1c-1,0-1.8,0.8-1.8,1.7v1.5h0.5v0.5l-0.5,0.9v11.9l0.5,0.7v0.5h0.2h0.5h1.5h0.6h0.2v-0.5
		l0.5-0.7v-11.9l-0.5-0.9v-0.5h0.5v-1.5H1417.1z M1420.6,438.9l0.7-2h-26.4l0.8,2H1420.6z M1435.3,518.9c-1.6-0.3-3.4-0.6-6.1-0.6
		c-4.7,0-6.8,0.8-9.4,1.6c-2.7,0.9-5.8,2-11.7,2c-5.9,0-9-1-11.7-2c-2.5-0.9-4.8-1.6-9.4-1.6c-2.6,0-4.5,0.2-6,0.6
		c8.1,4.5,17.3,7.2,27.3,7.2C1417.9,526.1,1427.2,523.4,1435.3,518.9 M1443.6,513.1c-2-0.3-3.5-0.9-5-1.5c-2.5-0.9-4.8-1.6-9.4-1.6
		s-6.8,0.8-9.4,1.6c-2.7,0.9-5.8,2-11.7,2c-5.9,0-9-1-11.7-2c-2.5-0.9-4.8-1.6-9.4-1.6s-6.8,0.8-9.4,1.6c-1.5,0.5-3,1-5,1.5
		c1.3,1.1,2.6,2.2,4,3.1c2.5-0.8,5.5-1.6,10.3-1.6c5.9,0,9,1,11.7,2c2.5,0.9,4.8,1.6,9.4,1.6s6.8-0.8,9.4-1.6c2.7-0.9,5.8-2,11.7-2
		c5,0,8,0.8,10.5,1.6C1441,515.3,1442.3,514.2,1443.6,513.1 M1463.1,470.9c0-30.5-24.7-55.2-55.2-55.2s-55.2,24.7-55.2,55.2
		c0,15.2,6.1,29,16.1,39c2.6-0.2,4.3-0.8,6.1-1.5c2.7-0.9,5.8-2,11.7-2s9,1,11.7,2c2.5,0.9,4.8,1.6,9.4,1.6s6.8-0.8,9.4-1.6
		c2.7-0.9,5.8-2,11.7-2s9,1,11.8,2c1.8,0.7,3.5,1.3,6.1,1.5C1457,499.9,1463.1,486.1,1463.1,470.9 M1466.9,470.9
		c0,32.5-26.4,58.8-58.8,58.8c-32.5,0-58.8-26.4-58.8-58.8c0-32.5,26.4-58.8,58.8-58.8C1440.5,412.1,1466.9,438.4,1466.9,470.9"/>
	<g>
		<path fill="#B6B6BB" d="M1503.5,430.5c0.3,0,0.5,0.1,0.5,0.5v1.7c0,0.3-0.1,0.5-0.5,0.5h-11.4v7.6h10.3c0.3,0,0.5,0.1,0.5,0.5v1.7
			c0,0.3-0.1,0.5-0.5,0.5h-10.3v6.9h11.4c0.3,0,0.5,0.1,0.5,0.5v1.7c0,0.3-0.1,0.5-0.5,0.5h-13.9c-0.3,0-0.5-0.1-0.5-0.5v-21.6
			c0-0.3,0.1-0.5,0.5-0.5h13.9V430.5z"/>
		<path fill="#B6B6BB" d="M1516.8,436.9c0.8,0.1,1.5,0.5,2,0.9c1.1,0.9,1.5,2.6,1.5,5.8v9c0,0.3-0.2,0.5-0.5,0.5h-1.9
			c-0.3,0-0.5-0.1-0.5-0.5v-8.8c0-1.8-0.2-3-0.5-3.6c-0.1-0.3-0.3-0.6-0.8-0.8c-0.7-0.3-1.1-0.3-2.5-0.3h-4.1v13.5
			c0,0.3-0.1,0.5-0.5,0.5h-1.9c-0.3,0-0.5-0.1-0.5-0.5v-15c0-0.3,0.1-0.5,0.5-0.5c1.6-0.3,3.8-0.5,6.1-0.5
			C1514.9,436.7,1516,436.7,1516.8,436.9z"/>
		<path fill="#B6B6BB" d="M1526.9,432.3c0.3-0.1,0.5,0,0.5,0.3v4.1h3.1c0.3,0,0.5,0.1,0.5,0.5v1.4c0,0.3-0.1,0.5-0.5,0.5h-3v10
			c0,1.4,0.3,1.6,1.9,1.6h1.5c0.3,0,0.5,0.1,0.5,0.5v1.5c0,0.2-0.1,0.5-0.5,0.5c-0.5,0.1-1,0.2-1.7,0.2c-1.1,0-1.6,0-2.5-0.2
			c-1.4-0.3-1.9-1.1-2-3.2v-10.7h-1.7c-0.3,0-0.5-0.1-0.5-0.5v-1.4c0-0.3,0.1-0.5,0.5-0.5h1.7v-3.5c0-0.2,0.1-0.5,0.3-0.5
			L1526.9,432.3z"/>
		<path fill="#B6B6BB" d="M1545.1,438.3c0.9,1,1.4,3.1,1.4,6.3v0.9c0,0.7-0.2,0.8-1,0.8h-9.4c0,1.8,0.3,3.1,0.8,3.6
			c0.5,0.6,1.6,0.9,3.2,0.9h4.9c0.3,0,0.5,0.1,0.5,0.5v1.4c0,0.2-0.1,0.5-0.5,0.5c-1.4,0.2-3,0.2-5,0.2c-2.7,0-4.7-0.6-5.5-1.6
			c-0.9-1.1-1.4-3.3-1.4-6.7c0-3.4,0.5-5.6,1.4-6.7c0.9-1.1,2.7-1.6,5.5-1.6C1542.5,436.7,1544.2,437.2,1545.1,438.3z M1536.7,440.1
			c-0.5,0.6-0.8,1.8-0.8,3.8h7.7c0-1.9-0.3-3.2-0.8-3.8c-0.5-0.6-1.5-0.9-3-0.9C1538.3,439.2,1537.3,439.5,1536.7,440.1z"/>
		<path fill="#B6B6BB" d="M1567.6,430.6c0.3,0,0.5,0.1,0.5,0.5v21.3c0,0.2-0.1,0.5-0.5,0.5c-2.2,0.3-4.2,0.5-6.1,0.5
			c-2.4,0-3.9-0.3-4.9-1c-1.6-1.1-1.9-3.3-2-7.3c0-3.4,0.5-5.6,1.4-6.7c0.9-1.1,2.7-1.7,5.5-1.7c1.6,0,3,0.1,4,0.2V431
			c0-0.3,0.1-0.5,0.5-0.5h1.8V430.6z M1565.1,439.2h-3.8c-1.8,0-3,0.3-3.4,1.1c-0.5,0.7-0.7,2.3-0.7,4.7s0.2,4,0.7,4.7
			c0.5,0.8,1.6,1.1,3.4,1.1c1.3,0,2.5-0.1,3.8-0.2V439.2z"/>
		<path fill="#B6B6BB" d="M1583.1,438.3c0.9,1,1.4,3.1,1.4,6.3v0.9c0,0.7-0.2,0.8-1,0.8h-9.4c0,1.8,0.3,3.1,0.8,3.6
			c0.5,0.6,1.6,0.9,3.2,0.9h4.9c0.3,0,0.5,0.1,0.5,0.5v1.4c0,0.2-0.1,0.5-0.5,0.5c-1.4,0.2-3,0.2-5,0.2c-2.7,0-4.7-0.6-5.5-1.6
			c-0.9-1.1-1.4-3.3-1.4-6.7c0-3.4,0.5-5.6,1.4-6.7c0.9-1.1,2.7-1.6,5.5-1.6C1580.5,436.7,1582.2,437.2,1583.1,438.3z M1574.7,440.1
			c-0.5,0.6-0.8,1.8-0.8,3.8h7.7c0-1.9-0.3-3.2-0.8-3.8s-1.5-0.9-3-0.9C1576.3,439.2,1575.1,439.5,1574.7,440.1z"/>
	</g>
	<g>
		<path fill="#B6B6BB" d="M1504.5,460.1c1.3,1.1,1.9,3.2,1.9,6.1c0,2.8-0.6,4.9-1.8,5.9c-1.3,1-3.5,1.5-6.8,1.5h-3.6v7.8
			c0,0.3-0.1,0.5-0.5,0.5h-4.7c-0.3,0-0.5-0.1-0.5-0.5v-22.2c0-0.2,0.1-0.3,0.5-0.5c3-0.2,5.8-0.3,8.8-0.3
			C1501,458.4,1503.3,459,1504.5,460.1z M1494.2,463.2v6.3h3.1c1.5,0,2.4-0.2,2.8-0.6c0.5-0.5,0.8-1.3,0.8-2.5
			c0-2.5-0.8-3.2-3.6-3.2H1494.2z"/>
		<path fill="#B6B6BB" d="M1518.2,465.2c0.3,0.1,0.5,0.2,0.5,0.7v3.1c0,0.3-0.2,0.5-0.5,0.5h-3c-1.4,0-1.8,0.2-1.8,1.5v10.6
			c0,0.3-0.1,0.5-0.5,0.5h-4.3c-0.3,0-0.5-0.1-0.5-0.5v-11.9c0-1.8,0.5-3,1.5-3.6c1-0.7,2.4-0.9,4.2-0.9
			C1515.7,464.9,1517,465,1518.2,465.2z"/>
		<path fill="#B6B6BB" d="M1533.8,466.6c1,1.1,1.6,3.4,1.6,6.8v0.9c0,0.6-0.2,0.8-0.9,0.8h-9.3c0,1,0.2,1.7,0.6,2
			c0.5,0.3,1.3,0.5,2.5,0.5h5.5c0.3,0,0.5,0.1,0.5,0.5v3.1c0,0.2-0.1,0.5-0.5,0.5c-1.5,0.3-3.5,0.5-6,0.5c-3.1,0-5.2-0.6-6.3-1.7
			c-1-1.1-1.6-3.4-1.6-6.8s0.6-5.8,1.6-6.8c1-1.1,3.1-1.7,6.3-1.7C1530.7,464.9,1532.7,465.4,1533.8,466.6z M1525,471.9h5
			c0-2-0.7-2.6-2.4-2.6C1525.8,469.3,1525,469.9,1525,471.9z"/>
		<path fill="#B6B6BB" d="M1552.7,465c0.3,0,0.5,0.1,0.3,0.5l-3.4,13c-0.3,1.1-0.6,1.9-0.9,2.4s-0.8,0.8-1.4,0.9
			c-0.6,0.1-1.6,0.2-3,0.2c-1.9,0-3.2-0.2-3.8-0.6c-0.6-0.3-1-1.4-1.5-3.1l-3.4-13c-0.1-0.3,0.1-0.5,0.3-0.5h4.5
			c0.2,0,0.2,0.1,0.5,0.5l2.8,11.9c0.1,0.3,0.1,0.5,0.5,0.5s0.3-0.1,0.5-0.5l2.8-11.9c0.1-0.3,0.1-0.5,0.5-0.5h4.5V465z"/>
		<path fill="#B6B6BB" d="M1567.8,466.6c1,1.1,1.6,3.4,1.6,6.8v0.9c0,0.6-0.2,0.8-0.9,0.8h-9.3c0,1,0.2,1.7,0.6,2
			c0.5,0.3,1.3,0.5,2.5,0.5h5.5c0.3,0,0.5,0.1,0.5,0.5v3.1c0,0.2-0.1,0.5-0.5,0.5c-1.5,0.3-3.5,0.5-6,0.5c-3.1,0-5.2-0.6-6.3-1.7
			c-1-1.1-1.6-3.4-1.6-6.8s0.6-5.8,1.6-6.8c1-1.1,3.1-1.7,6.3-1.7C1564.8,464.9,1566.7,465.4,1567.8,466.6z M1559.1,471.9h5
			c0-2-0.7-2.6-2.4-2.6C1559.9,469.3,1559.1,469.9,1559.1,471.9z"/>
		<path fill="#B6B6BB" d="M1585.2,466.2c1.1,1.1,1.5,2.7,1.5,5.8v9.3c0,0.3-0.1,0.5-0.5,0.5h-4.3c-0.2,0-0.5-0.1-0.5-0.5v-7.7
			c0-2.3,0-3.1-0.5-3.8c-0.5-0.7-1-0.7-2.4-0.7h-2v12.1c0,0.3-0.1,0.5-0.5,0.5h-4.3c-0.2,0-0.5-0.1-0.5-0.5v-15.6
			c0-0.3,0.1-0.3,0.5-0.5c1.5-0.3,4-0.6,7.6-0.6C1582.4,464.9,1584,465.1,1585.2,466.2z"/>
		<path fill="#B6B6BB" d="M1601.6,465.3c0.3,0.1,0.5,0.3,0.5,0.7v2.8c0,0.3-0.2,0.5-0.6,0.5h-5c-1.1,0-1.8,0.2-2.2,0.8
			c-0.3,0.6-0.5,1.6-0.5,3.3c0,1.7,0.2,2.7,0.5,3.3c0.3,0.6,1.1,0.8,2.2,0.8h5c0.3,0,0.6,0.1,0.6,0.5v2.8c0,0.3-0.2,0.6-0.5,0.6
			c-1.3,0.3-3,0.5-5,0.5c-3.4,0-5.2-0.3-6.4-1.7c-1.1-1.4-1.5-3.3-1.5-6.8c0-2.8,0.2-4.5,0.9-5.9c1-2.2,3-2.5,7.1-2.6
			C1598.7,464.9,1600.4,465,1601.6,465.3z"/>
		<path fill="#B6B6BB" d="M1609.7,460.4c0,1.7-1.1,2.7-3,2.7c-1.9,0-3.1-1-3.1-2.7c0-1.7,1.1-2.7,3.1-2.7
			C1608.7,457.7,1609.7,458.7,1609.7,460.4z M1608.9,465c0.3,0,0.5,0.1,0.5,0.5v15.9c0,0.3-0.1,0.5-0.5,0.5h-4.3
			c-0.3,0-0.5-0.1-0.5-0.5v-15.9c0-0.3,0.1-0.5,0.5-0.5H1608.9z"/>
		<path fill="#B6B6BB" d="M1619.4,464.9c3.2,0,5.3,0.6,6.4,1.7c1,1.1,1.6,3.4,1.6,6.8c0,3.4-0.6,5.7-1.6,6.8c-1,1.1-3.2,1.7-6.4,1.7
			c-3.2,0-5.3-0.6-6.4-1.7c-1-1.1-1.6-3.4-1.6-6.8c0-3.4,0.5-5.8,1.6-6.8C1614,465.4,1616.2,464.9,1619.4,464.9z M1619.4,469.3
			c-1.1,0-1.8,0.2-2.2,0.8s-0.5,1.6-0.5,3.3c0,1.7,0.2,2.7,0.5,3.3c0.3,0.6,1.1,0.8,2.2,0.8c1.1,0,1.8-0.2,2.2-0.8
			c0.3-0.6,0.6-1.6,0.6-3.3c0-1.7-0.2-2.7-0.6-3.3C1621.2,469.5,1620.5,469.3,1619.4,469.3z M1624.8,457.8c0.2,0,0.3,0.1,0.3,0.3
			v0.2c0,0.2-0.1,0.3-0.1,0.3l-5.7,4.7c-0.1,0.1-0.2,0.1-0.5,0l-1.6-0.9c-0.1-0.1-0.2-0.2-0.1-0.5l2.2-4c0.1-0.1,0.2-0.2,0.3-0.2
			H1624.8z"/>
		<path fill="#B6B6BB" d="M1643.3,466.2c1.1,1.1,1.5,2.7,1.5,5.8v9.3c0,0.3-0.1,0.5-0.5,0.5h-4.3c-0.2,0-0.5-0.1-0.5-0.5v-7.7
			c0-2.3,0-3.1-0.5-3.8c-0.5-0.7-1-0.7-2.4-0.7h-2v12.1c0,0.3-0.1,0.5-0.5,0.5h-4.3c-0.2,0-0.5-0.1-0.5-0.5v-15.6
			c0-0.3,0.1-0.3,0.5-0.5c1.5-0.3,4-0.6,7.6-0.6C1640.5,464.9,1642.1,465.1,1643.3,466.2z"/>
		<path fill="#B6B6BB" d="M1667.6,459c0.6,0.1,0.8,0.3,0.8,0.9v2.8c0,0.3-0.1,0.5-0.5,0.5h-6.4c-1.7,0-2.8,0.5-3.4,1.5
			c-0.6,0.9-0.8,2.8-0.8,5.6c0,2.7,0.2,4.7,0.8,5.6c0.6,1,1.7,1.5,3.4,1.5h6.4c0.3,0,0.5,0.1,0.5,0.5v2.8c0,0.5-0.2,0.8-0.8,0.9
			c-1.5,0.3-3.5,0.6-6,0.6c-4,0-6.3-0.7-7.8-2.5c-1.5-1.9-2-4.7-2-9.3s0.7-7.7,2-9.3c1.4-1.6,4-2.4,7.8-2.4
			C1664,458.4,1666,458.6,1667.6,459z"/>
		<path fill="#B6B6BB" d="M1676.1,460.4c0,1.7-1.1,2.7-3,2.7c-1.9,0-3.1-1-3.1-2.7c0-1.7,1.1-2.7,3.1-2.7
			C1675,457.7,1676.1,458.7,1676.1,460.4z M1675.2,465c0.3,0,0.5,0.1,0.5,0.5v15.9c0,0.3-0.1,0.5-0.5,0.5h-4.3
			c-0.3,0-0.5-0.1-0.5-0.5v-15.9c0-0.3,0.1-0.5,0.5-0.5H1675.2z"/>
		<path fill="#B6B6BB" d="M1693.1,465c0.2,0,0.5,0.1,0.5,0.5v15.5c0,0.3-0.1,0.5-0.5,0.5c-1.8,0.3-4.4,0.6-7.6,0.6
			c-3.1,0-4.7-0.3-5.9-1.4c-1.1-1.1-1.5-2.7-1.5-5.9v-9.3c0-0.3,0.1-0.5,0.5-0.5h4.3c0.3,0,0.5,0.1,0.5,0.5v7.7
			c-0.1,2.2,0.1,3.1,0.5,3.8c0.5,0.6,1.1,0.7,2.5,0.6h2v-12.1c0-0.3,0.1-0.5,0.5-0.5h4.3V465z"/>
		<path fill="#B6B6BB" d="M1710.8,458.6c0.3,0,0.5,0.1,0.5,0.5v21.5c0,0.5-0.2,0.8-0.7,0.9c-2.5,0.5-4.8,0.7-6.7,0.7
			c-3.4,0-5.2-0.5-6.5-1.7c-1.3-1.4-1.6-3.3-1.6-6.8c0-3.3,0.5-5.6,1.5-6.8c0.9-1.3,2.7-1.8,5.5-1.8c1.1,0,2.3,0.1,3.5,0.2v-6
			c0-0.3,0.1-0.5,0.5-0.5h4.1V458.6z M1706,469.3h-2.2c-1.4,0-2.2,0.2-2.5,0.8c-0.3,0.5-0.6,1.6-0.6,3.3c0,1.6,0.1,2.7,0.5,3.3
			s1.1,0.8,2.4,0.8c0.9,0,1.7-0.1,2.4-0.2V469.3L1706,469.3z"/>
		<path fill="#B6B6BB" d="M1728,470.2v10.2c0,0.5-0.2,0.8-0.7,0.9c-2,0.5-4.3,0.7-6.8,0.7c-1.1,0-1.9,0-2.6-0.1
			c-0.6,0-1.4-0.1-2-0.3c-1.9-0.6-2.6-1.8-2.8-4.9c0-2,0.6-3.3,1.6-4c1-0.7,2.6-1,4.9-1h3.3V471c0-1.1-0.8-1.7-2.3-1.7h-5.8
			c-0.2,0-0.3-0.1-0.3-0.5v-3.1c0-0.2,0.1-0.5,0.3-0.5c1.6-0.3,3.5-0.5,5.8-0.5C1727.1,464.9,1728,467,1728,470.2z M1722.8,474.8
			h-2.7c-1.5,0-1.8,0.5-1.8,1.6s0.5,1.5,2.2,1.5c1,0,1.8-0.1,2.5-0.2v-2.8H1722.8z"/>
		<path fill="#B6B6BB" d="M1745.2,458.6c0.3,0,0.5,0.1,0.5,0.5v21.5c0,0.5-0.2,0.8-0.7,0.9c-2.5,0.5-4.8,0.7-6.7,0.7
			c-3.4,0-5.2-0.5-6.5-1.7c-1.3-1.4-1.6-3.3-1.6-6.8c0-3.3,0.5-5.6,1.5-6.8c0.9-1.3,2.7-1.8,5.5-1.8c1.1,0,2.3,0.1,3.5,0.2v-6
			c0-0.3,0.1-0.5,0.5-0.5h4.1V458.6z M1740.5,469.3h-2.2c-1.4,0-2.2,0.2-2.5,0.8c-0.3,0.5-0.6,1.6-0.6,3.3c0,1.6,0.1,2.7,0.5,3.3
			s1.1,0.8,2.4,0.8c0.9,0,1.7-0.1,2.4-0.2L1740.5,469.3L1740.5,469.3z"/>
		<path fill="#B6B6BB" d="M1762.4,470.2v10.2c0,0.5-0.2,0.8-0.7,0.9c-2,0.5-4.3,0.7-6.8,0.7c-1.1,0-1.9,0-2.6-0.1
			c-0.6,0-1.4-0.1-2-0.3c-1.9-0.6-2.6-1.8-2.8-4.9c0-2,0.6-3.3,1.6-4c1-0.7,2.6-1,4.9-1h3.3V471c0-1.1-0.8-1.7-2.3-1.7h-5.8
			c-0.2,0-0.3-0.1-0.3-0.5v-3.1c0-0.2,0.1-0.5,0.3-0.5c1.6-0.3,3.5-0.5,5.8-0.5C1761.4,464.9,1762.4,467,1762.4,470.2z
			 M1757.2,474.8h-2.7c-1.5,0-1.8,0.5-1.8,1.6s0.5,1.5,2.2,1.5c1,0,1.8-0.1,2.5-0.2v-2.8H1757.2z"/>
		<path fill="#B6B6BB" d="M1778.8,466.2c1.1,1.1,1.5,2.7,1.5,5.8v9.3c0,0.3-0.1,0.5-0.5,0.5h-4.3c-0.2,0-0.5-0.1-0.5-0.5v-7.7
			c0-2.3,0-3.1-0.5-3.8c-0.5-0.7-1-0.7-2.4-0.7h-2v12.1c0,0.3-0.1,0.5-0.5,0.5h-4.3c-0.2,0-0.5-0.1-0.5-0.5v-15.6
			c0-0.3,0.1-0.3,0.5-0.5c1.5-0.3,4-0.6,7.6-0.6C1776.1,464.9,1777.7,465.1,1778.8,466.2z"/>
		<path fill="#B6B6BB" d="M1796.9,470.2v10.2c0,0.5-0.2,0.8-0.7,0.9c-2,0.5-4.3,0.7-6.8,0.7c-1.1,0-1.9,0-2.6-0.1
			c-0.6,0-1.4-0.1-2-0.3c-1.9-0.6-2.6-1.8-2.8-4.9c0-2,0.6-3.3,1.6-4c1-0.7,2.6-1,4.9-1h3.3V471c0-1.1-0.8-1.7-2.3-1.7h-5.8
			c-0.2,0-0.3-0.1-0.3-0.5v-3.1c0-0.2,0.1-0.5,0.3-0.5c1.6-0.3,3.5-0.5,5.8-0.5C1796,464.9,1796.9,467,1796.9,470.2z M1791.8,474.8
			h-2.7c-1.5,0-1.8,0.5-1.8,1.6s0.5,1.5,2.2,1.5c1,0,1.8-0.1,2.5-0.2v-2.8H1791.8z"/>
		<path fill="#B6B6BB" d="M1503.5,494.8c0.3,0,0.5,0.1,0.5,0.5v16.6c0,1.7-0.1,2.6-0.7,3.8c-0.8,1.5-2.7,2.3-6.8,2.3
			c-2.5,0-4.5-0.1-6.1-0.5c-0.2-0.1-0.3-0.2-0.3-0.5v-2.7c0-0.3,0.1-0.5,0.5-0.5h5.6c2.3,0,2.8-0.5,2.8-2v-0.2
			c-1.1,0.2-2.3,0.3-3.5,0.3c-2.6,0-4.4-0.6-5.6-1.7c-1-1.1-1.6-3.1-1.6-5.7v-9.1c0-0.3,0.1-0.5,0.5-0.5h4.3c0.3,0,0.5,0.1,0.5,0.5
			v8c0,1.7,0.2,2.8,0.6,3.3c0.5,0.5,1.4,0.8,2.6,0.8c0.9,0,1.6-0.1,2.2-0.2v-11.9c0-0.3,0.1-0.5,0.5-0.5L1503.5,494.8L1503.5,494.8z
			"/>
		<path fill="#B6B6BB" d="M1527.6,488.6c0.6,0.1,0.8,0.3,0.8,0.9v2.8c0,0.3-0.1,0.5-0.5,0.5h-7.1c-1.7,0-2.8,0.5-3.4,1.5
			c-0.6,0.9-0.8,2.8-0.8,5.6s0.2,4.7,0.8,5.6c0.6,0.9,1.7,1.5,3.4,1.5h3.3v-6.4c0-0.3,0.1-0.5,0.5-0.5h4.2c0.3,0,0.5,0.2,0.5,0.5
			v8.2c0,0.3-0.1,0.7-0.2,0.8c-0.3,0.6-1.4,1.1-2.8,1.5c-1.6,0.3-3.3,0.6-5.3,0.6c-3.9,0-6.5-0.8-7.8-2.4c-1.4-1.6-2-4.8-2-9.3
			c0-4.8,0.5-7.4,2-9.3c1.6-1.9,3.9-2.5,7.8-2.5C1523.9,488.2,1526.1,488.3,1527.6,488.6z"/>
		<path fill="#B6B6BB" d="M1545.1,496.3c1,1.1,1.6,3.4,1.6,6.8v0.9c0,0.7-0.2,0.8-0.9,0.8h-9.3c0,1,0.2,1.7,0.6,2
			c0.5,0.3,1.3,0.5,2.5,0.5h5.5c0.3,0,0.5,0.1,0.5,0.5v3.1c0,0.2-0.1,0.5-0.5,0.5c-1.5,0.3-3.5,0.5-6,0.5c-3.1,0-5.2-0.6-6.3-1.7
			s-1.6-3.4-1.6-6.8c0-3.4,0.6-5.7,1.6-6.8c1-1.1,3.1-1.7,6.3-1.7C1542.1,494.6,1544.1,495.1,1545.1,496.3z M1536.5,501.7h5
			c0-2-0.7-2.6-2.4-2.6C1537.2,499.1,1536.5,499.7,1536.5,501.7z"/>
		<path fill="#B6B6BB" d="M1560.1,495.1c0.3,0.1,0.5,0.2,0.5,0.5v2.7c0,0.3-0.2,0.5-0.5,0.5h-5.3c-1,0-1.5,0.2-1.5,0.8v0.2
			c0,0.3,0.5,0.8,1.3,1l3.8,1.3c2.3,0.8,3.2,2.3,3.2,4.7v0.6c0,3-2.2,4.5-6.5,4.5c-2.5,0-4.8-0.1-6.6-0.3c-0.3,0-0.5-0.1-0.5-0.5v-3
			c0-0.3,0.2-0.5,0.5-0.5h6.5c1.1,0,1.5-0.1,1.5-0.7v-0.2c0-0.5-0.3-0.8-1.6-1.1l-3.4-1.1c-2-0.7-3.1-2.3-3.1-4.7v-0.6
			c0-3.1,2.3-4.5,7.2-4.5C1557.1,494.6,1558.5,494.8,1560.1,495.1z"/>
		<path fill="#B6B6BB" d="M1569.2,490.1c0.2-0.1,0.5,0.1,0.5,0.5v4.3h2.6c0.3,0,0.5,0.1,0.5,0.5v2.8c0,0.3-0.2,0.5-0.5,0.5h-2.6v7.2
			c0,1.3,0.5,1.5,1.7,1.5h1.1c0.3,0,0.5,0.1,0.5,0.5v3.1c0,0.3-0.2,0.6-0.5,0.6c-1.1,0.2-2.2,0.3-3,0.3c-0.9,0-1.6,0-2-0.1
			c-0.5-0.1-0.9-0.2-1.5-0.5c-1-0.5-1.5-1.6-1.5-3.5v-9h-1.8c-0.3,0-0.5-0.1-0.5-0.5v-2.8c0-0.3,0.2-0.5,0.5-0.5h1.8v-3.2
			c0-0.2,0.1-0.3,0.5-0.5L1569.2,490.1z"/>
		<path fill="#B6B6BB" d="M1580.3,490.1c0,1.7-1.1,2.7-3,2.7c-1.9,0-3.1-1-3.1-2.7c0-1.7,1.1-2.7,3.1-2.7
			C1579.2,487.5,1580.3,488.4,1580.3,490.1z M1579.5,494.8c0.3,0,0.5,0.1,0.5,0.5v15.9c0,0.3-0.1,0.5-0.5,0.5h-4.3
			c-0.3,0-0.5-0.1-0.5-0.5v-15.9c0-0.3,0.1-0.5,0.5-0.5H1579.5z"/>
		<path fill="#B6B6BB" d="M1589.9,494.6c3.2,0,5.3,0.6,6.4,1.7c1,1.1,1.6,3.4,1.6,6.8s-0.6,5.7-1.6,6.8c-1,1.1-3.2,1.7-6.4,1.7
			c-3.2,0-5.3-0.6-6.4-1.7c-1-1.1-1.6-3.4-1.6-6.8s0.5-5.7,1.6-6.8C1584.6,495.1,1586.7,494.6,1589.9,494.6z M1589.9,499.1
			c-1.1,0-1.8,0.2-2.2,0.8c-0.3,0.6-0.5,1.6-0.5,3.3c0,1.7,0.2,2.7,0.5,3.3c0.3,0.6,1.1,0.8,2.2,0.8c1.1,0,1.8-0.2,2.2-0.8
			s0.6-1.6,0.6-3.3c0-1.7-0.2-2.7-0.6-3.3C1591.8,499.3,1591,499.1,1589.9,499.1z M1595.4,487.5c0.2,0,0.3,0.1,0.3,0.3v0.2
			c0,0.2-0.1,0.3-0.1,0.3l-5.7,4.7c-0.1,0.1-0.2,0.1-0.5,0l-1.6-0.9c-0.1-0.1-0.2-0.2-0.1-0.5l2.2-4c0.1-0.1,0.2-0.2,0.3-0.2H1595.4
			z"/>
		<path fill="#B6B6BB" d="M1613.8,496c1.1,1.1,1.5,2.7,1.5,5.8v9.3c0,0.3-0.1,0.5-0.5,0.5h-4.3c-0.2,0-0.5-0.1-0.5-0.5v-7.7
			c0-2.3,0-3.1-0.5-3.8c-0.5-0.7-1-0.7-2.4-0.7h-2V511c0,0.3-0.1,0.5-0.5,0.5h-4.3c-0.2,0-0.5-0.1-0.5-0.5v-15.6
			c0-0.3,0.1-0.3,0.5-0.5c1.5-0.3,4-0.6,7.6-0.6C1611.1,494.6,1612.7,494.9,1613.8,496z"/>
		<path fill="#B6B6BB" d="M1635.6,488.8c0.6,0.3,1.1,1.4,1.6,3l5.3,19.4c0.1,0.3-0.1,0.5-0.3,0.5h-4.5c-0.2,0-0.3-0.1-0.5-0.5
			l-1.6-6h-7.5l-1.7,6c-0.1,0.3-0.2,0.5-0.3,0.5h-4.5c-0.3,0-0.5-0.1-0.3-0.5l5.3-19.4c0.5-1.6,1-2.6,1.6-3c0.6-0.3,1.8-0.6,3.8-0.6
			C1633.8,488.2,1635.1,488.3,1635.6,488.8z M1631.3,493.2l-2,7.4h5l-2-7.4c-0.1-0.3-0.2-0.5-0.6-0.5
			C1631.6,492.7,1631.4,492.8,1631.3,493.2z"/>
		<path fill="#B6B6BB" d="M1667.6,500.7v10.5c0,0.3-0.1,0.5-0.5,0.5h-4.3c-0.2,0-0.5-0.1-0.5-0.5v-7.7c0-1.5-0.1-2.4-0.2-3
			c-0.2-1.1-0.7-1.4-2.3-1.4c-0.6,0-1.3,0.1-1.8,0.1c0.2,0.7,0.3,1.5,0.3,2.6v9.3c0,0.3-0.1,0.5-0.5,0.5h-4.3
			c-0.2,0-0.5-0.1-0.5-0.5v-9.2c0-1.4-0.2-2.2-0.5-2.4c-0.2-0.3-0.9-0.5-1.9-0.5h-1.6v12.1c0,0.3-0.1,0.5-0.5,0.5h-4.3
			c-0.2,0-0.5-0.1-0.5-0.5v-15.6c0-0.2,0.1-0.3,0.5-0.5c1.5-0.3,3.4-0.6,6-0.6c2.4,0,4.2,0.3,5.6,1c1.6-0.7,3.4-1,5.3-1
			C1665.9,494.6,1667.6,496.3,1667.6,500.7z"/>
		<path fill="#B6B6BB" d="M1674.9,488.3c0.3,0,0.5,0.1,0.5,0.5v6c1.1-0.1,2.4-0.2,3.5-0.2c2.6,0,4.4,0.6,5.5,1.8
			c0.9,1.3,1.5,3.5,1.5,6.8c0,3.5-0.3,5.5-1.6,6.8c-1.3,1.4-3.1,1.7-6.5,1.7c-1.9,0-4.2-0.2-6.7-0.7c-0.5-0.1-0.7-0.3-0.7-0.9v-21.5
			c0-0.3,0.1-0.5,0.5-0.5h4.1V488.3z M1675.3,499.1v8c0.7,0.1,1.5,0.2,2.4,0.2c1.3,0,2-0.2,2.3-0.8c0.3-0.6,0.5-1.6,0.5-3.3
			c0-1.7-0.2-2.8-0.6-3.3c-0.3-0.5-1.1-0.8-2.5-0.8H1675.3z"/>
		<path fill="#B6B6BB" d="M1693.4,490.1c0,1.7-1.1,2.7-3,2.7c-1.9,0-3.1-1-3.1-2.7c0-1.7,1.1-2.7,3.1-2.7
			C1692.3,487.5,1693.4,488.4,1693.4,490.1z M1692.5,494.8c0.3,0,0.5,0.1,0.5,0.5v15.9c0,0.3-0.1,0.5-0.5,0.5h-4.3
			c-0.3,0-0.5-0.1-0.5-0.5v-15.9c0-0.3,0.1-0.5,0.5-0.5H1692.5z"/>
		<path fill="#B6B6BB" d="M1709,496.3c1,1.1,1.6,3.4,1.6,6.8v0.9c0,0.7-0.2,0.8-0.9,0.8h-9.3c0,1,0.2,1.7,0.6,2
			c0.5,0.3,1.3,0.5,2.5,0.5h5.5c0.3,0,0.5,0.1,0.5,0.5v3.1c0,0.2-0.1,0.5-0.5,0.5c-1.5,0.3-3.5,0.5-6,0.5c-3.1,0-5.2-0.6-6.3-1.7
			c-1-1.1-1.6-3.4-1.6-6.8c0-3.4,0.6-5.7,1.6-6.8c1-1.1,3.1-1.7,6.3-1.7C1705.9,494.6,1708,495.1,1709,496.3z M1700.4,501.7h5
			c0-2-0.7-2.6-2.4-2.6C1701.1,499.1,1700.4,499.7,1700.4,501.7z"/>
		<path fill="#B6B6BB" d="M1726.4,496c1.1,1.1,1.5,2.7,1.5,5.8v9.3c0,0.3-0.1,0.5-0.5,0.5h-4.3c-0.2,0-0.5-0.1-0.5-0.5v-7.7
			c0-2.3,0-3.1-0.5-3.8c-0.5-0.7-1-0.7-2.4-0.7h-2V511c0,0.3-0.1,0.5-0.5,0.5h-4.3c-0.2,0-0.5-0.1-0.5-0.5v-15.6
			c0-0.3,0.1-0.3,0.5-0.5c1.5-0.3,4-0.6,7.6-0.6C1723.7,494.6,1725.3,494.9,1726.4,496z"/>
		<path fill="#B6B6BB" d="M1736.4,490.1c0.2-0.1,0.5,0.1,0.5,0.5v4.3h2.6c0.3,0,0.5,0.1,0.5,0.5v2.8c0,0.3-0.2,0.5-0.5,0.5h-2.6v7.2
			c0,1.3,0.5,1.5,1.7,1.5h1.1c0.3,0,0.5,0.1,0.5,0.5v3.1c0,0.3-0.2,0.6-0.5,0.6c-1.1,0.2-2.2,0.3-3,0.3c-0.9,0-1.6,0-2-0.1
			c-0.5-0.1-0.9-0.2-1.5-0.5c-1-0.5-1.5-1.6-1.5-3.5v-9h-1.8c-0.3,0-0.5-0.1-0.5-0.5v-2.8c0-0.3,0.2-0.5,0.5-0.5h1.8v-3.2
			c0-0.2,0.1-0.3,0.5-0.5L1736.4,490.1z"/>
		<path fill="#B6B6BB" d="M1756.2,499.9v10.2c0,0.5-0.2,0.8-0.7,0.9c-2,0.5-4.3,0.7-6.8,0.7c-1.1,0-1.9,0-2.6-0.1
			c-0.6,0-1.4-0.1-2-0.3c-1.9-0.6-2.6-1.8-2.8-4.9c0-2,0.6-3.3,1.6-4c1-0.7,2.6-1,4.9-1h3.3v-0.6c0-1.1-0.8-1.7-2.3-1.7h-5.8
			c-0.2,0-0.3-0.1-0.3-0.5v-3.1c0-0.2,0.1-0.5,0.3-0.5c1.6-0.3,3.5-0.5,5.8-0.5C1755.3,494.7,1756.2,496.7,1756.2,499.9z
			 M1751.1,504.6h-2.7c-1.5,0-1.8,0.5-1.8,1.6s0.5,1.5,2.2,1.5c1,0,1.8-0.1,2.5-0.2v-2.8H1751.1z"/>
		<path fill="#B6B6BB" d="M1763.6,488.3c0.3,0,0.5,0.1,0.5,0.5v22.4c0,0.3-0.1,0.5-0.5,0.5h-4.3c-0.3,0-0.5-0.1-0.5-0.5v-22.4
			c0-0.3,0.1-0.5,0.5-0.5H1763.6z"/>
	</g>
</g>
</svg>
