<?xml version="1.0" encoding="utf-8"?>
<!-- Generator: Adobe Illustrator 19.0.0, SVG Export Plug-In . SVG Version: 6.00 Build 0)  -->
<svg version="1.1" id="Capa_1" xmlns="http://www.w3.org/2000/svg" xmlns:xlink="http://www.w3.org/1999/xlink" x="0px" y="0px"
	 viewBox="-388.8 395.9 187.5 50" style="enable-background:new -388.8 395.9 187.5 50;" xml:space="preserve">
<style type="text/css">
	.st0{display:none;}
	.st1{display:inline;}
	.st2{fill:#646363;}
	.st3{fill:#E52329;}
	.st4{fill:#E49B00;}
	.st5{fill:#FAEBCC;}
	.st6{display:inline;fill:#E52329;}
	.st7{opacity:0.7;fill:#FFFFFF;enable-background:new    ;}
	.st8{fill:#FFFFFF;}
</style>
<g id="Capa_1_1_" class="st0">
	<g class="st1">
		<g id="XMLID_6923_">
			<g id="XMLID_167_">
				<path id="XMLID_184_" class="st2" d="M-864.7,1592.8v-2.4c-1,1.4-2.8,2.7-5.6,2.7c-2.7,0-5.7-1.5-5.7-4.5v-0.1
					c0-3,2.6-4.6,6.4-4.6c2,0,3.4,0.3,4.8,0.6v-0.6c0-2.9-1.8-4.4-4.8-4.4c-1.8,0-3.2,0.5-4.6,1.1l-0.5-1.2c1.6-0.7,3.2-1.2,5.2-1.2
					c3.8,0,6.1,1.9,6.1,5.6v8.9L-864.7,1592.8L-864.7,1592.8L-864.7,1592.8z M-864.6,1585.8c-1.3-0.3-2.9-0.6-5-0.6
					c-3.1,0-4.8,1.3-4.8,3.3v0.1c0,2.1,2,3.3,4.2,3.3c3,0,5.5-1.8,5.5-4.4L-864.6,1585.8L-864.6,1585.8z"/>
				<path id="XMLID_182_" class="st2" d="M-853.2,1592.9h-1.2l-6.6-14.4h1.6l5.5,12.7l5.6-12.7h1.6L-853.2,1592.9z"/>
				<path id="XMLID_179_" class="st2" d="M-838.2,1591.8c2.3,0,3.8-1,5-2.2l1,0.8c-1.5,1.6-3.2,2.7-6.1,2.7c-3.8,0-7.2-3-7.2-7.4
					v-0.1c0-4.1,3-7.4,6.9-7.4c4.1,0,6.7,3.2,6.7,7.5v0.1c0,0.2,0,0.3,0,0.5h-12C-843.7,1589.8-841.1,1591.8-838.2,1591.8z
					 M-833.3,1585c-0.2-2.9-1.9-5.5-5.2-5.5c-2.9,0-5.1,2.4-5.4,5.5H-833.3z"/>
				<path id="XMLID_177_" class="st2" d="M-817.2,1592.8v-8.5c0-2.9-1.7-4.9-4.6-4.9c-2.9,0-5.1,2.1-5.1,5.1v8.3h-1.4v-14.3h1.4v2.7
					c1-1.7,2.6-3,5.3-3c3.7,0,5.9,2.5,5.9,5.9v8.7C-815.7,1592.8-817.2,1592.8-817.2,1592.8z"/>
				<path id="XMLID_175_" class="st2" d="M-806.6,1593c-2.3,0-4.1-1.2-4.1-3.9v-9.4h-2.2v-1.3h2.1v-4.6h1.4v4.6h5.1v1.3h-5.1v9.2
					c0,2,1.2,2.8,2.9,2.8c0.7,0,1.3-0.1,2.2-0.5v1.3C-805,1592.9-805.7,1593-806.6,1593z"/>
				<path id="XMLID_173_" class="st2" d="M-789.9,1592.8v-2.7c-1,1.7-2.6,3-5.3,3c-3.7,0-5.9-2.5-5.9-5.9v-8.7h1.4v8.5
					c0,2.9,1.7,4.9,4.6,4.9s5.1-2.1,5.1-5.1v-8.3h1.4v14.3C-788.6,1592.8-789.9,1592.8-789.9,1592.8z"/>
				<path id="XMLID_171_" class="st2" d="M-776.1,1579.8c-3.4,0-6.3,2.5-6.3,7.1v5.9h-1.5v-14.3h1.4v4.1c1.1-2.5,3.6-4.4,6.5-4.3
					L-776.1,1579.8C-776,1579.8-776.1,1579.8-776.1,1579.8z"/>
				<path id="XMLID_168_" class="st2" d="M-763.8,1592.8v-2.4c-1,1.4-2.8,2.7-5.6,2.7c-2.7,0-5.7-1.5-5.7-4.5v-0.1
					c0-3,2.6-4.6,6.4-4.6c2,0,3.4,0.3,4.8,0.6v-0.6c0-2.9-1.8-4.4-4.8-4.4c-1.8,0-3.2,0.5-4.6,1.1l-0.5-1.2c1.6-0.7,3.2-1.2,5.2-1.2
					c3.8,0,6.1,1.9,6.1,5.6v8.9L-763.8,1592.8L-763.8,1592.8z M-763.8,1585.8c-1.2-0.3-2.9-0.6-5-0.6c-3.1,0-4.8,1.3-4.8,3.3v0.1
					c0,2.1,2,3.3,4.2,3.3c3,0,5.5-1.8,5.5-4.4L-763.8,1585.8L-763.8,1585.8L-763.8,1585.8z"/>
			</g>
		</g>
		<g id="XMLID_6905_">
			<g id="XMLID_135_">
				<path id="XMLID_151_" class="st2" d="M-665.6,1593.1c-2.1,0-4.4-0.8-6-2.1l0.8-1.1c1.6,1.2,3.4,1.9,5.2,1.9c2,0,3.5-1.1,3.5-2.7
					v-0.1c0-1.7-1.8-2.3-3.9-2.9c-2.4-0.7-5-1.4-5-3.9l0,0c0-2.3,2-3.9,4.8-3.9c1.7,0,3.7,0.6,5.2,1.6l-0.7,1.1
					c-1.3-0.9-3-1.4-4.5-1.4c-2,0-3.3,1.1-3.3,2.5v0.1c0,1.6,2,2.2,4.1,2.8c2.4,0.6,4.8,1.5,4.8,4v0.1
					C-660.5,1591.5-662.7,1593.1-665.6,1593.1z"/>
				<path id="XMLID_148_" class="st2" d="M-650.5,1591.9c2.3,0,3.8-1,5-2.2l1,0.8c-1.5,1.6-3.2,2.7-6.1,2.7c-3.8,0-7.2-3-7.2-7.4
					v-0.1c0-4.1,3-7.4,6.9-7.4c4.1,0,6.7,3.2,6.7,7.5v0.1c0,0.2,0,0.3,0,0.5h-12.1C-656,1589.8-653.4,1591.9-650.5,1591.9z
					 M-645.6,1585c-0.2-2.9-1.9-5.5-5.2-5.5c-2.9,0-5.1,2.4-5.4,5.5H-645.6z"/>
				<path id="XMLID_146_" class="st2" d="M-633,1579.9c-3.4,0-6.3,2.5-6.3,7.1v5.9h-1.4v-14.3h1.4v4.1c1.1-2.5,3.6-4.4,6.5-4.3v1.5
					L-633,1579.9L-633,1579.9z"/>
				<path id="XMLID_144_" class="st2" d="M-622.2,1579.9c-3.4,0-6.3,2.5-6.3,7.1v5.9h-1.4v-14.3h1.4v4.1c1.1-2.5,3.6-4.4,6.5-4.3
					v1.5L-622.2,1579.9L-622.2,1579.9z"/>
				<path id="XMLID_141_" class="st2" d="M-609.9,1592.9v-2.4c-1,1.4-2.8,2.7-5.6,2.7c-2.7,0-5.7-1.5-5.7-4.5v-0.1
					c0-3,2.6-4.6,6.4-4.6c2,0,3.4,0.3,4.8,0.6v-0.6c0-2.9-1.8-4.4-4.8-4.4c-1.8,0-3.2,0.5-4.6,1.1l-0.5-1.2c1.6-0.7,3.2-1.2,5.2-1.2
					c3.8,0,6.1,1.9,6.1,5.6v8.9L-609.9,1592.9L-609.9,1592.9z M-609.9,1585.9c-1.2-0.3-2.9-0.6-5-0.6c-3.1,0-4.8,1.3-4.8,3.3v0.1
					c0,2.1,2,3.3,4.2,3.3c3,0,5.5-1.8,5.5-4.4L-609.9,1585.9L-609.9,1585.9z"/>
				<path id="XMLID_139_" class="st2" d="M-593.1,1592.9v-8.5c0-2.9-1.7-4.9-4.6-4.9c-2.9,0-5.1,2.1-5.1,5.1v8.3h-1.4v-14.3h1.4v2.6
					c1-1.7,2.6-3,5.3-3c3.7,0,5.9,2.5,5.9,5.9v8.7L-593.1,1592.9L-593.1,1592.9L-593.1,1592.9z"/>
				<path id="XMLID_136_" class="st2" d="M-577.3,1592.9v-2.4c-1,1.4-2.8,2.7-5.6,2.7c-2.7,0-5.7-1.5-5.7-4.5v-0.1
					c0-3,2.6-4.6,6.4-4.6c2,0,3.4,0.3,4.8,0.6v-0.6c0-2.9-1.8-4.4-4.8-4.4c-1.8,0-3.2,0.5-4.6,1.1l-0.5-1.2c1.6-0.7,3.2-1.2,5.2-1.2
					c3.8,0,6.1,1.9,6.1,5.6v8.9L-577.3,1592.9L-577.3,1592.9L-577.3,1592.9z M-577.2,1585.9c-1.2-0.3-2.9-0.6-5-0.6
					c-3.1,0-4.8,1.3-4.8,3.3v0.1c0,2.1,2,3.3,4.2,3.3c3,0,5.5-1.8,5.5-4.4L-577.2,1585.9L-577.2,1585.9z"/>
			</g>
		</g>
		<path id="XMLID_3713_" class="st3" d="M-688,1572.2c-1-0.8-2.1-1.7-3.1-2.5c-2.5-2-5.2-3.5-8.6-3.6c-0.3,0-0.7-0.2-0.9-0.4
			c-1.1-1-2.1-2-3.2-3c-1.4-1.2-2.9-1.7-4.8-1.4c-2.4,0.3-4,1.6-5,3.7c-1.9-1.1-3.7-1.1-5.6,0c-0.1-0.2-0.2-0.4-0.3-0.6
			c-2-3.5-6.7-4.3-9.7-1.5c-1,0.9-1.9,1.8-2.9,2.6c-0.4,0.3-1,0.6-1.5,0.6c-2.2,0.1-4.3,0.8-6.1,2.1c-1.8,1.4-3.7,2.7-5.4,4.1
			c-4.6,2.8-7.6,7.8-7.6,13.4c0,8.8,7.3,15.9,16.3,15.9c8.1,0,14.7-5.7,16-13.2c1.2,0.6,2.5,0.9,4.1,0.9c1.5,0,2.8-0.4,4-1
			c1.3,7.5,8,13.3,16,13.3c9,0,16.3-7.1,16.3-15.9C-680.1,1580-683.3,1575-688,1572.2z"/>
		<ellipse id="XMLID_122_" class="st4" cx="-736.5" cy="1585.8" rx="16.3" ry="15.9"/>
		<ellipse id="XMLID_121_" class="st4" cx="-696.4" cy="1585.8" rx="16.3" ry="15.9"/>
		<ellipse id="XMLID_3697_" class="st5" cx="-736.5" cy="1585.8" rx="10.8" ry="10.5"/>
		<ellipse id="XMLID_3696_" class="st5" cx="-696.4" cy="1585.8" rx="10.8" ry="10.5"/>
		<path id="XMLID_3695_" class="st3" d="M-716.6,1572.9c4.6-0.1,8.6,3.4,8.5,8c0,4.6-3.3,8.3-8.4,8.4c-4.9,0.1-8.3-3.6-8.4-7.8
			C-725.1,1576.4-721.1,1572.7-716.6,1572.9z"/>
		<path id="XMLID_3694_" class="st5" d="M-716.5,1576.9c2.4-0.1,4.4,1.8,4.4,4.1c0,2.4-1.7,4.3-4.3,4.4c-2.5,0-4.3-1.9-4.4-4
			C-720.9,1578.7-718.8,1576.8-716.5,1576.9z"/>
		<path id="XMLID_34_" class="st3" d="M-733.4,1590.6c-5.2,0-9.4-4.1-9.4-9.2c0-0.1,0-0.3,0-0.4c-1,1.3-1.6,2.9-1.6,4.7
			c0,4.3,3.6,7.8,8,7.8c2.8,0,5.3-1.5,6.8-3.6C-730.9,1590.4-732.1,1590.6-733.4,1590.6z"/>
		<path id="XMLID_33_" class="st3" d="M-693.3,1590.6c-5.2,0-9.4-4.1-9.4-9.2c0-0.1,0-0.3,0-0.4c-1,1.3-1.6,2.9-1.6,4.7
			c0,4.3,3.6,7.8,8,7.8c2.8,0,5.3-1.5,6.8-3.6C-690.8,1590.4-692,1590.6-693.3,1590.6z"/>
	</g>
</g>
<g id="Capa_3" class="st0">
	<rect x="-877" y="1560.1" class="st6" width="302" height="44"/>
</g>
<g>
	<g>
		<polygon class="st7" points="-327.8,406.1 -324.1,406.1 -321.2,410.4 -325,410.4 		"/>
		<polygon class="st8" points="-327.8,414.7 -324.1,414.7 -321.2,410.4 -325,410.4 		"/>
		<polygon class="st7" points="-322,406.1 -318.2,406.1 -315.4,410.4 -319.1,410.4 		"/>
		<polygon class="st8" points="-322,414.7 -318.2,414.7 -315.4,410.4 -319.1,410.4 		"/>
	</g>
	<g>
		<path class="st8" d="M-319.6,436.6l-2.9-4.4h-2.4v4.4h-3V423h6.2c3.2,0,5.1,1.7,5.1,4.5v0.1c0,2.2-1.2,3.6-2.9,4.2l3.3,4.9
			L-319.6,436.6L-319.6,436.6z M-319.5,427.6c0-1.3-0.9-1.9-2.4-1.9h-2.9v3.9h3C-320.4,429.6-319.5,428.8-319.5,427.6L-319.5,427.6z
			"/>
		<path class="st8" d="M-313.6,436.6V423h3v13.6H-313.6z M-313.4,421.9l2.2-3.4l2.6,1.1l-2.5,2.3H-313.4z"/>
		<path class="st8" d="M-300.7,436.8c-4.2,0-7.2-3.1-7.2-7v-0.1c0-3.9,3.1-7,7.3-7s7.2,3.1,7.2,7v0.1
			C-293.4,433.6-296.5,436.8-300.7,436.8z M-296.6,429.8c0-2.3-1.7-4.3-4.1-4.3s-4.1,1.9-4.1,4.3v0.1c0,2.3,1.7,4.3,4.1,4.3
			C-298.3,434-296.6,432.1-296.6,429.8L-296.6,429.8z"/>
		<path class="st8" d="M-278.6,436.8c-4,0-6.9-3.1-6.9-7v-0.1c0-3.9,2.9-7,7.1-7c2.6,0,4.1,0.9,5.4,2.1l-1.9,2.2
			c-1.1-0.9-2.1-1.6-3.5-1.6c-2.3,0-3.9,1.9-3.9,4.3v0.1c0,2.3,1.6,4.2,3.9,4.2c1.6,0,2.5-0.6,3.6-1.6l1.9,1.9
			C-274.4,435.8-275.9,436.8-278.6,436.8z"/>
		<path class="st8" d="M-264.9,436.8c-3.6,0-5.9-2.1-5.9-6.1V423h3v7.7c0,2.2,1.1,3.4,2.9,3.4s2.9-1.1,2.9-3.3V423h3v7.7
			C-259,434.8-261.3,436.8-264.9,436.8z"/>
		<path class="st8" d="M-246.3,436.6l-1.3-3.1h-5.8l-1.3,3.1h-3.1l5.8-13.7h2.8l5.8,13.7H-246.3z M-250.4,426.5l-1.8,4.4h3.6
			L-250.4,426.5z"/>
		<path class="st8" d="M-232.9,436.6l-2.9-4.4h-2.3v4.4h-3V423h6.2c3.2,0,5.1,1.7,5.1,4.5v0.1c0,2.2-1.2,3.6-2.9,4.2l3.3,4.9
			L-232.9,436.6L-232.9,436.6z M-232.8,427.6c0-1.3-0.9-1.9-2.4-1.9h-2.9v3.9h3C-233.6,429.6-232.8,428.8-232.8,427.6L-232.8,427.6z
			"/>
		<path class="st8" d="M-220.9,425.7v10.8h-3v-10.8h-4.1V423h11.3v2.8H-220.9z"/>
		<path class="st8" d="M-208.5,436.8c-4.2,0-7.2-3.1-7.2-7v-0.1c0-3.9,3.1-7,7.3-7c4.2,0,7.2,3.1,7.2,7v0.1
			C-201.3,433.6-204.3,436.8-208.5,436.8z M-204.4,429.8c0-2.3-1.7-4.3-4.1-4.3s-4.1,1.9-4.1,4.3v0.1c0,2.3,1.7,4.3,4.1,4.3
			C-206.1,434-204.4,432.1-204.4,429.8L-204.4,429.8z"/>
	</g>
	<g>
		<path class="st8" d="M-307.9,415.3c-2.9,0-4.9-2.1-4.9-4.9c0-2.6,2-4.9,4.9-4.9c1.6,0,2.6,0.4,3.6,1.3l-1.1,1.3
			c-0.8-0.6-1.4-1-2.6-1c-1.8,0-3.1,1.5-3.1,3.3c0,1.9,1.3,3.4,3.2,3.4c0.9,0,1.7-0.3,2.3-0.7v-1.8h-2.4v-1.4h4v3.9
			C-304.9,414.6-306.3,415.3-307.9,415.3z"/>
		<path class="st8" d="M-296.1,415.3c-2.9,0-4.9-2.2-4.9-4.9s2.1-4.9,4.9-4.9s4.9,2.2,4.9,4.9C-291.2,413-293.3,415.3-296.1,415.3z
			 M-296.1,407.1c-1.9,0-3.2,1.5-3.2,3.3c0,1.8,1.3,3.4,3.2,3.4s3.2-1.5,3.2-3.3S-294.3,407.1-296.1,407.1z"/>
		<path class="st8" d="M-280.7,408.1c0,1.1-0.6,1.8-1.3,2.1c1.1,0.4,1.9,1,1.9,2.3c0,1.7-1.4,2.6-3.5,2.6h-4.4v-9.4h4.2
			C-281.9,405.7-280.7,406.6-280.7,408.1z M-282.3,408.4c0-0.8-0.6-1.2-1.6-1.2h-2.4v2.5h2.3C-283,409.6-282.3,409.3-282.3,408.4z
			 M-281.8,412.3c0-0.8-0.6-1.3-1.9-1.3h-2.6v2.6h2.8C-282.4,413.6-281.8,413.2-281.8,412.3z"/>
		<path class="st8" d="M-275.3,405.7v9.4h-1.6v-9.4H-275.3z"/>
		<path class="st8" d="M-264.5,407.2h-5.3v2.4h4.7v1.5h-4.7v2.5h5.4v1.5h-7.1v-9.4h6.9L-264.5,407.2L-264.5,407.2L-264.5,407.2z"/>
		<path class="st8" d="M-255.2,415.1l-2.3-3.3h-2.1v3.3h-1.7v-9.4h4.2c2.2,0,3.5,1.1,3.5,3c0,1.6-0.9,2.5-2.3,2.9l2.6,3.6
			L-255.2,415.1L-255.2,415.1z M-257.2,407.2h-2.4v3.1h2.4c1.2,0,1.9-0.6,1.9-1.6C-255.3,407.8-255.9,407.2-257.2,407.2z"/>
		<path class="st8" d="M-243.8,405.7h1.6v9.4h-1.4l-5.2-6.7v6.7h-1.6v-9.4h1.5l5.1,6.5V405.7z"/>
		<path class="st8" d="M-233.9,415.3c-2.9,0-4.9-2.2-4.9-4.9s2.1-4.9,4.9-4.9s4.9,2.2,4.9,4.9C-229,413-231.1,415.3-233.9,415.3z
			 M-233.9,407.1c-1.9,0-3.2,1.5-3.2,3.3c0,1.8,1.3,3.4,3.2,3.4s3.2-1.5,3.2-3.3S-232.1,407.1-233.9,407.1z"/>
		<path class="st8" d="M-216.9,415.1h-3.5v-9.4h3.5c2.9,0,5,2,5,4.7C-212,413-214,415.1-216.9,415.1z M-216.9,407.2h-1.9v6.4h1.9
			c2,0,3.3-1.3,3.3-3.2C-213.7,408.6-215,407.2-216.9,407.2z"/>
		<path class="st8" d="M-201.8,407.2h-5.3v2.4h4.7v1.5h-4.7v2.5h5.4v1.5h-7v-9.4h6.9C-201.8,405.8-201.8,407.2-201.8,407.2z"/>
	</g>
	<g>
		<path id="XMLID_114_" class="st8" d="M-363.8,445.9c-13.8,0-25-11.2-25-25s11.2-25,25-25s25,11.2,25,25
			C-338.8,434.6-349.9,445.9-363.8,445.9z M-363.8,398.2c-12.5,0-22.6,10.2-22.6,22.6c0,12.5,10.2,22.6,22.6,22.6
			c12.5,0,22.6-10.2,22.6-22.6C-341.1,408.4-351.3,398.2-363.8,398.2z"/>
		<path id="XMLID_113_" class="st8" d="M-380,439.5c0,0,6.9-7.8,24.3-3.6c0,0,13.4,2.6,21-1.8c0,0-8.4,8.4-25.1,3.9
			C-359.9,438-369.4,435.3-380,439.5z"/>
		<path id="XMLID_106_" class="st8" d="M-377,420.4v11.7h-0.8h-0.1v1.6h-1.1v2.4h1.6c3.4-2,10.3-4.5,21.7-1.7c0,0,3.2,0.6,7.3,0.8
			v-1.4h-1.1v-1.6h-0.1h-0.8v-11.7h2.6l0.5-1.4l-11.8-6.6v-3.9l-0.7-0.4v-2.3h0.7v-1.1h-0.7v-0.6c0-1.6-1.6-3.4-3.7-3.6v-1.9h-0.1
			h-0.1h-0.1l0,0l0,0h-0.1h-0.1h-0.1v1.9c-2.1,0.1-3.7,1.9-3.7,3.6v0.6h-0.7v1.1h0.7v2.3l-0.7,0.4v3.9l-11.8,6.6l0.5,1.4L-377,420.4
			L-377,420.4L-377,420.4z M-356.9,420.4h3.4v11.7h-3.4V420.4z M-361.9,404.1c1.4,0,1.4,1.4,1.4,1.4v2.8h-2.6v-2.8
			C-363.2,405.5-363.3,404.1-361.9,404.1z M-365.6,404.1c1.4,0,1.3,1.4,1.3,1.4v2.8h-2.6v-2.8C-366.9,405.5-367,404.1-365.6,404.1z
			 M-367.6,420.4h3.9h3.9v11.7h-3.9l0,0l0,0h-3.9V420.4z M-374,420.4h3.4v11.7h-3.4V420.4z"/>
	</g>
</g>
</svg>
