<?xml version="1.0" encoding="utf-8"?>
<!-- Generator: Adobe Illustrator 19.0.0, SVG Export Plug-In . SVG Version: 6.00 Build 0)  -->
<svg version="1.1" id="Capa_1" xmlns="http://www.w3.org/2000/svg" xmlns:xlink="http://www.w3.org/1999/xlink" x="0px" y="0px"
	 viewBox="0 0 75.1 100.5" style="enable-background:new 0 0 75.1 100.5;" xml:space="preserve">
<style type="text/css">
	.st0{fill:#FFFFFF;}
</style>
<path class="st0" d="M9.9,87.6L9.9,87.6c0.6,0,1.3,0.3,1.8,0.7c0.4,0.5,0.7,1.1,0.7,1.8c0,1.4-1.1,2.5-2.5,2.5l0,0v0.9l0,0
	c0.9,0,1.8-0.3,2.4-1c0.7-0.6,1-1.5,1-2.4c0-0.9-0.3-1.8-1-2.4c-0.6-0.7-1.5-1-2.4-1l0,0V87.6L9.9,87.6z M7.4,90.1
	c0,0.7,0.3,1.3,0.7,1.8c0.5,0.4,1.1,0.7,1.8,0.7v0.9c-0.9,0-1.8-0.3-2.5-1c-0.6-0.6-0.9-1.5-0.9-2.4c0-1.9,1.5-3.4,3.4-3.4v0.9
	c-0.7,0-1.3,0.3-1.8,0.7C7.6,88.8,7.4,89.5,7.4,90.1z"/>
<path class="st0" d="M65.2,87.4c0.6,0,1.3,0.3,1.8,0.8c0.4,0.4,0.7,1.1,0.7,1.8c0,1.4-1.1,2.5-2.5,2.5v0.9c0.9,0,1.8-0.3,2.4-1
	c0.6-0.6,1-1.5,1-2.4c0-0.9-0.4-1.8-1-2.4c-0.6-0.7-1.5-1.1-2.4-1.1V87.4L65.2,87.4z M62.7,89.9c0,0.7,0.3,1.3,0.7,1.8
	c0.5,0.4,1.1,0.7,1.8,0.7l0,0v0.9l0,0c-0.9,0-1.8-0.3-2.5-1c-0.6-0.6-0.9-1.5-0.9-2.4c0-1.9,1.5-3.5,3.4-3.5l0,0v0.9l0,0
	c-0.7,0-1.3,0.3-1.8,0.8C63,88.6,62.7,89.2,62.7,89.9z"/>
<polygon id="XMLID_208_" class="st0" points="26.4,43.1 27.5,43.1 27.5,41.2 28.6,41.2 28.6,44.8 29,44.8 29,40.9 27.2,40.9 
	27.2,42.7 26,42.7 26,43.9 26.4,43.9 "/>
<polygon id="XMLID_207_" class="st0" points="29.8,38.5 31,38.1 32.7,38.7 32.7,43.5 33,43.5 33,38.4 31,37.7 29.4,38.2 29.4,44.2 
	29.8,44.2 "/>
<polygon id="XMLID_206_" class="st0" points="36.6,41.3 37.4,41.3 37.4,43.2 38.8,43.2 38.8,39.6 40.6,39.6 41.2,40.8 41.2,42.8 
	42.4,42.8 42.4,40.1 43.3,40.1 45.6,41.3 45.6,44 46,44 46,41 43.4,39.8 42,39.8 42,42.4 41.6,42.4 41.6,40.6 40.8,39.2 38.4,39.2 
	38.4,42.8 37.8,42.8 37.8,40.9 36.3,40.9 36.3,43 36,43 36,43.4 36.6,43.4 "/>
<polygon id="XMLID_205_" class="st0" points="52.1,44.7 53.5,46.1 53.5,44.9 55.5,46.1 55.5,45.2 56.9,45.9 57.1,45.6 55.2,44.5 
	55.2,45.4 54.8,45.3 54.8,45.3 54.8,43.1 54.5,43.1 54.5,45.1 53.1,44.2 53.1,45.2 52.9,45 52.9,45 52.9,42.8 52.6,42.8 52.6,44.7 
	52.1,44.2 50.8,45.4 51.1,45.7 "/>
<path class="st0" d="M74.1,7.7h-6.2l0,0V9l0,0H73l-2.1,4.3h-3l0,0v1.3l0,0h2.5v75c0,2-1,3.7-2.5,4.7l0,0v1.5l0,0
	c0.6-0.3,1.1-0.8,1.6-1.2c1.3-1.4,2.1-3.2,2.1-5.1V14.5h0.1l0.2-0.4l2.8-5.5l0.5-0.9H74.1L74.1,7.7z M67.9,85v-4.4l0,0l1.3-1.1v-9.7
	l-0.9,1.2v8.7l-0.3,0.6v0.1v-0.6l0,0l0.1-0.1v-8.7h-0.1l0,0v-4.4l0,0l1.3-1.1V55.2l-0.9,1.2v8.7l-0.3,0.6v0.1v-0.6l0,0l0.1-0.1v-8.7
	h-0.1l0,0V52l0,0l1.3-1.1V40.7l-0.9,1.2v8.7l-0.3,0.5l0,0v-0.4l0,0l0.1-0.1v-8.7l-0.1-0.1l0,0v-4.4l0,0l1.3-1.1V26l-0.9,1.2v8.7
	l-0.3,0.6l0,0V36l0,0l0.1-0.1v-8.7l-0.1-0.1l0,0v-4.3l0,0h1.4h0.2V23v65.8c-0.1-0.3-0.2-0.6-0.3-0.9v-4.2l-0.9,1.3v1.7
	c-0.1-0.1-0.1-0.2-0.3-0.3L67.9,85L67.9,85L67.9,85z M67.9,7.7h-2l0,0V9l0,0h2V7.7L67.9,7.7z M65.8,96.6L65.8,96.6
	c0.7-0.2,1.4-0.4,2-0.8v-1.5c-0.6,0.4-1.3,0.8-2,0.9l0,0V96.6L65.8,96.6z M67.9,13.3v1.3h-0.7v8.3h0.7v4.3l-1.2-1.5V38l1.2-2.1v0.5
	l-1.2,2.1l1.2-1.1v4.4l-1.2-1.5v12.3l1.2-2v0.4l-1.1,2.1l1.1-1.1v4.4l-1.2-1.5v12.3l1.2-2.1v0.6l-0.9,1.7l0.9-0.9v4.4l-1.2-1.5v12.3
	l1.2-2.1v0.6l-0.5,0.9l0.5-0.6V85l-1.2-1.5v2.3c-0.1-0.1-0.2-0.1-0.3-0.1v-2.2l-0.5,0.8v0.1v-3l0,0h0.1l-0.1-0.1l0,0v-0.6v0.1
	l0.5,1.1V69.4l-0.5,0.8l0,0v-3l0,0l0.3,0.3l-0.3-0.7l0,0v-0.6v0.1l0.5,1.1V54.9l-0.5,0.8v0.1v-3l0,0l0.5,0.4l-0.5-1l0,0v-0.6v0.1
	l0.5,1.1V40.3l-0.5,0.8l0,0v-3l0,0l0.5,0.4l-0.5-1l0,0v-0.6V37l0.5,1.1V25.7l-0.5,0.8l0,0v-3.8l0,0h0.7v-8.1h-0.7l0,0v-1.3l0,0H67.9
	z M65.8,7.7h-0.7V9h0.7V7.7L65.8,7.7z M65.1,96.7c0.3,0,0.5-0.1,0.7-0.1v-1.3c-0.2,0.1-0.4,0.1-0.7,0.1V96.7L65.1,96.7z M65.8,13.3
	v1.3h-0.7v-1.3H65.8L65.8,13.3z M65.8,22.7v3.8l-0.5,0.8v8.7l0.5,1v0.6L65.1,36V22.7H65.8L65.8,22.7z M65.8,38.1l-0.7-0.6v13.3
	l0.7,1.4v-0.6l-0.5-0.9v-8.7l0.5-0.8V38.1L65.8,38.1z M65.8,52.7v3l-0.5,0.8v8.6l0.5,1v0.6l-0.7-1.5V52L65.8,52.7L65.8,52.7z
	 M65.8,67.1l-0.7-0.6v13.3l0.7,1.5v-0.6l-0.5-1V71l0.5-0.8V67.1L65.8,67.1z M65.8,81.3v3l-0.5,0.8v0.5c-0.1,0-0.1,0-0.1,0h-0.1v-5
	L65.8,81.3z M65.1,7.7L65.1,7.7h-1.8V9h1.8l0,0V7.7L65.1,7.7z M63.4,96.7h1.1c0.2,0,0.4,0,0.7-0.1l0,0v-1.3l0,0
	c-0.3,0-0.5,0.1-0.7,0.1h-1.1V96.7L63.4,96.7z M65.1,13.3v1.3l0,0h-1.8v-1.3H65.1L65.1,13.3L65.1,13.3z M65.1,22.7V36l0,0l-0.1-0.1
	v-8.7L63.9,26v10.4l1.2,1.1l0,0v13.3l0,0l-0.1-0.2v-8.7l-1.1-1.3v10.2l1.2,1.1l0,0v13.3l0,0l-0.1-0.2v-8.7l-1.1-1.3v10.2l1.2,1.1
	l0,0v13.3l0,0l-0.1-0.2v-8.7l-1.1-1.3v9.8l1.2,1.1l0,0v5l0,0h-0.1v-0.5l-1.1-1.3v2c-0.1,0-0.3,0.1-0.3,0.1V23.3h-0.3v-0.6H65.1
	L65.1,22.7L65.1,22.7z M63.4,94.4v-0.3h0.6c0.3,0.1,0.5,0.1,0.8,0.1l-0.1,0.2h-0.1h-0.1H63.4z M63.4,7.7L63.4,7.7h-1.3V7.5H49.7
	c0.9-0.3,1.7-1,1.8-1.1l0.7-0.6h-0.9c-0.1,0-1.6,0.1-2.5-0.3c-0.6-0.3-1.3-1.2-1.6-1.6l0.2-0.4l0.1-0.3l-0.3-0.1
	c0-0.1-0.1-0.1-0.3-0.2v3.6c0.3,0.4,0.6,0.7,1.1,0.9h-1.1V9h16.2l0,0V7.7L63.4,7.7z M47.1,96.7h16.2l0,0v-1.3l0,0H47.1V96.7
	L47.1,96.7z M63.4,13.3v1.3l0,0h-3.2v1h0.1h0.3v0.3v5.3v0.3h-0.3h-0.1v1.1h3.2l0,0v0.6l0,0h-0.7c0,3.5,0.1,53.5,0.1,53.6v5.4
	c0,2.9-2.3,5.2-5.2,5.2H47.1v-0.9H48l-0.9-0.5v-0.8l2.2,1.3h7.8c2.5,0,4.5-2.1,4.5-4.5V53.4H47.1v-0.6h14.6v-8.9L57.2,45L56,41.5
	l5.7-2.8V28.4l-9.2,8l-2.8-2.3l7.9-10.4H47.3l-0.2,0.5v-3.3H60v-4.7H47.1v-3H63.4L63.4,13.3L63.4,13.3z M63.4,94.1v0.3l0,0H47.1
	v-0.6l0.2,0.3h9.6l-1.1-1h-8.3l-0.4-0.3v-0.3l0.4,0.3h8.2l1.5-1.4H47.1v-0.3h10.1l-1.5-1.1h-8.2l-0.4,0.3V90l0.4-0.3h8.3l1.4-1.5
	l-9.7,0.1l-0.4,0.4V88h14.2c-0.1,0.2-0.2,0.4-0.3,0.6L59,91.1l1.9-1c0,0.1,0,0.2,0,0.3l-1.4,0.8H61c0.1,0.1,0.1,0.3,0.1,0.3h-1.6
	l2.1,1.4h0.4c0.1,0.1,0.2,0.2,0.3,0.3h-0.8l-2.6-1.6l2.2,2.7H63.4L63.4,94.1L63.4,94.1z M47.1,84.2c1,0.2,2.1,0.1,3.2,0.4
	c0.8-0.1,2.1,1.2,2.1-0.3c0.1-0.4,0.3-0.9,0.2-1.3c-0.1,0-0.1,0-0.2,0.1c-1.6-0.3-3.1-0.6-4.6-0.9c-0.6,0.1-0.6-0.4-0.7-0.7V84.2
	L47.1,84.2z M47.1,76.7c0.5,0.2,1.1-0.1,1.6-0.2c0.4-0.3,0.7-0.8,0.8-1.1c0.2-0.6-0.3-0.8-0.5-1.2c0.1-0.1,0.1-0.2,0.2-0.1
	c0.2-0.1,0.3-0.3,0.3-0.5c-0.1-0.5-0.8-0.3-0.9,0c-0.1-0.1-0.3-0.1-0.4,0c0,0.4-0.6,0.4-0.9,0.7c-0.1,0.1-0.1,0.1-0.2,0.1V76.7
	L47.1,76.7z M47.1,52h10.6v-2.3h-0.6v-2l-4-1.3V47h-2.4l-0.3,0.6V42l-0.9-1.5H48v0.8h-0.8V42h-0.1V52z M47.1,3L47.1,3
	c-0.4-0.2-1-0.6-1.7-0.8l0,0V9l0,0h1.7l0,0V7.5l0,0h-1.1c0.4-0.4,0.6-1.1,0.6-1.6c0.1,0.2,0.3,0.4,0.4,0.6l0,0V3L47.1,3z M45.4,96.7
	L45.4,96.7h1.7l0,0v-1.3l0,0h-1.7l0,0V96.7L45.4,96.7z M47.1,13.3v3l0,0h-1.7l0,0v-3l0,0H47.1L47.1,13.3L47.1,13.3z M47.1,20.9v3.3
	l0,0l-1.7,4.3l0,0v-7.6l0,0H47.1L47.1,20.9L47.1,20.9z M47.1,42v10l0,0h-1.7l0,0v-6.5l0,0h0.9V42H47.1L47.1,42L47.1,42z M47.1,52.8
	v0.6l0,0h-1.7l0,0v-0.6l0,0H47.1L47.1,52.8L47.1,52.8z M47.1,74.4v2.3l0,0c-0.1,0-0.2-0.1-0.3-0.1c-0.2-0.3-0.5-0.5-0.8-0.2
	c-0.1,0.1,0.1,0.3-0.1,0.4c-0.1-0.1-0.3,0-0.5,0.1l0,0v-1.3l0,0c0.2-0.1,0.3-0.2,0.4-0.3c-0.1-0.1-0.1-0.3-0.1-0.4
	C46.4,75.3,46.7,74.7,47.1,74.4L47.1,74.4L47.1,74.4z M47.1,81.5v2.7l0,0c-0.4-0.1-0.8-0.3-1.2-0.4c-0.3-0.1-0.1-0.6-0.3-0.8
	c-0.1,0.1-0.1,0.1-0.3,0.2l0,0v-2.1l0,0c0.1,0.1,0.3,0.3,0.4,0.4c0.4,0.1,0.5-0.6,0.9-0.3C46.9,81.2,47.1,81.3,47.1,81.5L47.1,81.5
	L47.1,81.5z M47.1,85.4v0.8l0,0l-0.8-0.4c-0.2,0.2-0.4,0.5-0.7,0.9h1.5l0,0v0.9l0,0h-1.7l0,0v-2.1l0,0l0.1-0.1h-0.1l0,0v-1.1l0,0
	l1.5,0.9l-0.1,0.1L47.1,85.4L47.1,85.4L47.1,85.4z M47.1,88v0.8l0,0l-1.7,2l0,0V88l0,0H47.1L47.1,88L47.1,88z M47.1,90L47.1,90
	l-1.7,0.9l0,0v0.9l0,0l1.7,1.1l0,0v-0.3l0,0l-1.6-1.1h1.6l0,0v-0.3l0,0h-1.6l1.6-0.8l0,0V90L47.1,90z M47.1,93.8v0.6l0,0h-1.6
	c-0.1,0.1-0.1,0.2-0.1,0.3l0,0v-2.9l0,0L47.1,93.8L47.1,93.8z M45.4,2.2C45.4,2.1,45.3,2,45.2,2l0,0v7l0,0h0.2V2.2L45.4,2.2z
	 M45.2,96.7L45.2,96.7h0.2v-1.3h-0.2l0,0V96.7L45.2,96.7z M45.4,13.3v3h-0.2l0,0v-3l0,0H45.4L45.4,13.3z M45.4,20.9v7.6l-0.2,0.6
	l0,0v-8.2l0,0H45.4L45.4,20.9z M45.4,45.4V52h-0.2l0,0v-7.6l0,0h0.1v1.1H45.4L45.4,45.4z M45.4,52.8v0.6h-0.2l0,0v-0.6l0,0H45.4
	L45.4,52.8z M45.4,75.6v1.3C45.4,77,45.3,77,45.2,77l0,0v-1.3v-0.1c0,0,0.1-0.1,0.1-0.1C45.4,75.6,45.4,75.6,45.4,75.6L45.4,75.6z
	 M45.4,81.1v2.1c-0.1,0.1-0.1,0.1-0.2,0.2l0,0v-2.6l0,0C45.3,80.9,45.4,81,45.4,81.1L45.4,81.1z M45.4,84.2v1.1l-0.2-0.1l0,0v-1.1
	l0,0L45.4,84.2L45.4,84.2z M45.4,85.4v2.1h-0.2l0,0v-1.8l0,0C45.3,85.6,45.4,85.5,45.4,85.4L45.4,85.4z M45.4,88v2.8l-0.1,0.1
	l0.1-0.1v0.9l0,0v0.1l0,0v2.9c-0.1,0.2-0.1,0.4-0.2,0.5v0.1V88l0,0H45.4z M45.2,2c-0.2-0.1-0.4-0.1-0.5-0.2c-0.6-0.2-1.3-0.3-2-0.4
	v2.2c0.4,0.3,0.8,0.7,0.8,1c-0.1,0.3-0.4,0.6-0.8,0.8V9h2.5V2L45.2,2z M42.8,97.3c0.4-0.2,0.8-0.4,1-0.5h1.5v-1.3h-0.1
	c0-0.1,0.1-0.1,0.1-0.2V88h-0.3c0.1-0.1,0.1-0.3,0.2-0.4h0.1v-1.8c-0.8,1.1-2.1,3-1.4,4.5c1,2.3,1.3,3.9,0,5.3
	c-0.2,0.2-0.6,0.4-1.1,0.6V97.3L42.8,97.3z M45.2,13.3v3h-2.5v-3H45.2L45.2,13.3z M45.2,20.9v8.2l-0.8,2l-1.7-0.4v-9.8H45.2
	L45.2,20.9z M45.2,44.3V52h-2.5v-6.9h0.4l0.3-0.3h1.1v-0.4H45.2L45.2,44.3z M45.2,52.8v0.6h-2.5v-0.6H45.2L45.2,52.8z M45.2,75.8V77
	c-0.3,0.2-0.6,0.4-0.9,0.6c0,0.1-0.1,0.3-0.2,0.3h-0.4c-0.2,0.1-0.4,0.2-0.6,0.3c0.3,0.2,0.7,0.4,0.9,0.8c0.5,0.5,0.8,1.2,1.1,1.8
	v2.6c-0.1,0-0.2,0-0.3,0c-0.8-0.6-1.2-1.6-1.8-2.5c-0.1-0.1-0.3-0.3-0.4-0.4v-2.3l0.1-0.1c0.3-0.1,0.4-0.3,0.7-0.4l-0.1-0.2
	c-0.3,0.1-0.4,0.2-0.7,0.3v-0.4c0.2-0.1,0.4-0.3,0.6-0.4c0-0.3,0.4-0.3,0.5-0.3C44.3,76.4,44.9,76.2,45.2,75.8L45.2,75.8z
	 M45.2,84.1l-1.3-0.8l-0.2,0.3l-0.9-0.5v0.8l0.5,0.3c-0.1,0.2-0.3,0.3-0.5,0.4v1.1c0.6-0.2,1-0.6,1.4-1l0.3,0.1l0.8,0.5V84.1
	L45.2,84.1z M42.8,74.9v-0.8c0.4,0.2,1.1,0,1.6,0.1c-0.3,0.4-0.9,0.3-1.4,0.6C42.9,74.9,42.8,74.9,42.8,74.9L42.8,74.9z M42.8,73.6
	v-0.6c0.7,0.2,1.3,0.3,2.1,0.3c0.1,0.1,0.1,0.1,0.1,0.2C44.2,73.6,43.5,73.6,42.8,73.6z M42.8,1.5L42.8,1.5
	c-0.6-0.1-1.1-0.1-1.5-0.1l-0.1-0.7V0.1l-0.4,0.3c0,0-0.2,0.1-0.4,0.3l0,0v4.9c0.3,0.5,0.4,1.1,0.4,1.6c0,0.6-0.1,1.2-0.4,1.7v2.3
	l0,0c0.2-0.1,0.3-0.3,0.5-0.5c0.5-0.4,0.9-1,1.1-1.6h0.8l0,0V5.4l0,0c-0.1,0.1-0.3,0.1-0.4,0.2l-0.2,0.1c0,0,0,0.1,0,0.1
	c-0.1-0.2-0.1-0.3-0.1-0.4c0.2-0.3,0.5-0.7,0.6-1.1c0-0.3,0-0.6-0.1-0.8c0.1,0.1,0.2,0.1,0.3,0.2l0,0V1.5L42.8,1.5z M40.4,98.1
	L40.4,98.1c0.8-0.3,1.6-0.6,2.4-0.9l0,0v-1.1l0,0c-0.7,0.4-1.6,0.8-2.4,1l0,0V98.1L40.4,98.1z M42.8,13.3v3l0,0h-2.4l0,0v-3l0,0
	H42.8L42.8,13.3L42.8,13.3z M42.8,20.9v9.8l0,0l-2.1-0.5l1.1-6.4h-1.4l0,0v-2.8l0,0H42.8L42.8,20.9L42.8,20.9z M42.8,45.1V52l0,0
	h-2.4l0,0v-7.3l0,0l1.4,0.9v0.2H42v-0.7H42.8L42.8,45.1L42.8,45.1z M42.8,52.8v0.6l0,0h-2.4l0,0v-0.6l0,0H42.8L42.8,52.8L42.8,52.8z
	 M42.8,73.1v0.6l0,0c-0.6-0.1-1.1-0.1-1.6-0.3c0.3,0.4,0.8,0.6,1.3,0.7c0.1,0.1,0.2,0.1,0.3,0.1l0,0v0.8V75c-0.1,0-0.2,0.1-0.3,0.1
	c0.1-0.5-0.4-0.2-0.7-0.4c-0.6-0.3-1-0.7-1.5-1l0,0v-1.5l0,0c0.1,0.1,0.1,0.1,0.2,0.2C41.3,72.6,42,72.9,42.8,73.1L42.8,73.1
	L42.8,73.1z M42.8,77.4L42.8,77.4c-0.2,0.1-0.3,0.2-0.5,0.3C42,77.4,41.9,77,42,76.5c0.1-0.3,0.3-0.6,0.3-1
	c-0.1-0.1-0.1-0.4-0.4-0.3c-0.3-0.2-0.9-0.4-1.6-0.5l0,0v1.6l0,0c0.2,0.1,0.4,0.1,0.5,0.2c-0.2,0.4-0.4,0.8-0.5,1.1v0.1v0.9l0,0v0.1
	V79l0,0l0.3-0.1c0.3-0.2,0.6-0.3,0.9-0.4c0.1-0.1,0.3-0.2,0.5-0.3c0.2-0.1,0.4-0.2,0.6-0.3c-0.1,0-0.1,0-0.1,0l0.2-0.1l0,0V77.4
	L42.8,77.4z M42.8,78.1v2.3l0,0c-0.4-0.5-0.9-1-1.6-1.3c-0.3,0.1-0.6,0.3-0.8,0.4l0,0v-0.3l0,0c0.2-0.1,0.4-0.2,0.6-0.3
	c0.3-0.1,0.6-0.3,0.8-0.4c0.2-0.1,0.4-0.2,0.5-0.3C42.5,78.2,42.6,78.2,42.8,78.1L42.8,78.1L42.8,78.1z M42.8,83.1v0.8l0,0L41.1,83
	c-0.2,0.4-0.4,1.3,0.4,1.8c0.4,0.3,0.8,0.1,1.2-0.2l0,0v1.1l0,0c-0.6,0.3-1.1,0.3-1.7,0c-0.3-0.3-0.6-0.4-0.7-0.7l0,0v-3.1l0,0
	l0.3,0.1c0.6,0,0.9,0,0.9,0l-0.2,0.4L42.8,83.1L42.8,83.1L42.8,83.1z M40.4,62.9v-1.6l0,0c0.3-0.4,0.7-0.7,0.9-1.1l-0.4-0.8
	c0,0.1-0.3-1-0.5-2.1l0,0v-1.1l0,0c0.1,0.7,0.2,1.5,0.4,2.1c0.2,0.6,0.3,1.3,0.7,1.8c0.3-0.3,0.6-0.6,0.9-0.4
	c0.1,0.1,0.2,0.1,0.3,0.3c-0.1,0.8-0.7,1.3-1.1,1.8C41.1,62.1,40.8,62.6,40.4,62.9L40.4,62.9z M40.4,0.6c-0.3,0.2-0.7,0.4-1,0.4
	c-0.3,0.1-0.8,0.3-1.1,0.3c0-0.3-0.1-0.8-0.3-1c-0.1-0.1-0.1-0.1-0.2-0.1c-0.1-0.1-0.3-0.2-0.4-0.3v3.8c0.9,0,1.7,0.4,2.3,1
	C40,5,40.2,5.3,40.4,5.5V0.6L40.4,0.6z M37.5,100.4L37.5,100.4L37.5,100.4c0.1-0.1,0.3-0.4,0.3-0.4c0.1-0.1,0.1-0.1,0.1-0.1
	c0.5-0.6,1.3-1.3,2-1.5c0.2-0.1,0.3-0.1,0.6-0.2v-0.9c-0.3,0.1-0.6,0.2-0.8,0.2c-0.7,0.2-1.3,0.6-1.8,1.1c-0.1,0.2-0.3,0.3-0.4,0.4
	l0,0V100.4L37.5,100.4z M40.4,8.9v2.3c-0.6,0.4-1.1,0.6-1.8,0.8c-0.1,0-0.1,0-0.1,0c-0.1,0-0.1,0.1-0.3,0.1c-0.1,0-0.1,0.1-0.2,0.1
	c-0.1,0-0.1,0-0.2,0l0,0c-0.1,0-0.3,0-0.4,0v-1.5c0.9,0,1.7-0.4,2.3-1C40,9.4,40.2,9.1,40.4,8.9L40.4,8.9z M40.4,13.3v3h-2.5h-0.4
	v-3h0.4H40.4L40.4,13.3z M40.4,20.9v2.8h-2.5h-0.4v-2.8h0.4H40.4L40.4,20.9z M40.4,44.6V52h-2.5h-0.4v-4.5h0.2v-0.6h0.2v-0.9h-0.4
	l0.4-0.3l1.8-1.3L40.4,44.6L40.4,44.6z M40.4,52.8v0.6h-1.3c0.2,0.7-0.3,1.6,0.1,2.3c0.3-0.1,0.6-0.1,0.9-0.3
	c0.1,0.2,0.2,0.4,0.3,0.7v1.1c-0.2-0.5-0.3-1.1-0.4-1.5c-0.3,0.1-1.5,0.4-2.1,0.6c-0.1,0.1-0.2,0.1-0.3,0.1
	c-0.1,0.1-0.1,0.1-0.1,0.1V52c0.1,0.2,0.3,0.3,0.4,0.4c0.2,0.1,0.4,0.3,0.6,0.3H40.4L40.4,52.8z M40.4,61.3v1.6
	c-0.2,0.1-0.3,0.2-0.5,0.3l-0.1,0.1c0,2.3,0.3,4.4,0.1,6.7c0.1,0.8,0,1.8,0.6,2.3v1.5c-0.2-0.1-0.3-0.2-0.5-0.3
	c-0.1,0.1-0.1,0.4-0.4,0.5c-0.5,0.1-0.6-0.5-1-0.8c-0.3,0.3-0.1,0.8-0.5,0.9c-0.1,0-0.1,0-0.1,0c-0.1,0-0.3,0-0.4-0.1V59.8
	c0,0.1,0,0.3,0.1,0.3c0.1,0.3,0.2,0.7,0.3,1c0.3,0.7,0.7,1.4,1.4,1.8c0.3-0.2,0.5,0,0.6-0.3c0-0.3-0.3-0.3-0.4-0.3
	C39.7,61.9,40,61.6,40.4,61.3L40.4,61.3z M40.4,74.7v1.6c-0.6-0.2-1.6-0.3-2.5-0.3c-0.1,0-0.3,0.1-0.4,0.1v-1.6c0.1,0,0.3,0,0.4,0
	C38.8,74.4,39.6,74.6,40.4,74.7L40.4,74.7z M40.4,77.6v0.9c-0.2-0.1-0.3-0.3-0.2-0.6C40.2,77.8,40.3,77.7,40.4,77.6L40.4,77.6z
	 M40.4,78.6c-0.3,0.1-0.6,0.3-0.8,0.4c0-0.1-0.1-0.1-0.1-0.1v-0.1l-0.1-0.1c-0.4-0.1-0.6-0.3-0.9-0.5c-0.3-0.2-0.4-0.3-0.7-0.5
	c-0.1-0.1-0.3-0.1-0.4-0.1V81h0.1l0.3,0.2l1.4,0.8h-1.4h-0.4v0.9l0,0h0.4h2.3c-0.1,0.6-0.2,1.4,0.3,2v-3.1l-2.1-1.1
	c0.5-0.3,1-0.6,1.5-0.8c0.2-0.1,0.4-0.3,0.6-0.3v-0.3l-0.4,0.2c-0.1-0.1-0.1-0.1-0.1-0.2l0.6-0.3V78.6z M37.5,0c-0.1,0-0.1,0-0.2,0
	c-0.5-0.1-0.8,0.1-0.9,0.3c-0.3,0.3-0.3,0.8-0.3,1c-0.3,0.1-0.7,0.1-1,0c-0.6-0.2-1.5-0.8-1.5-0.8l-0.3-0.3L33,0.6l-0.4,0.6
	c-0.2,0-0.5-0.1-0.9,0v2.1l0.1-0.1c-0.1,0.1-0.1,0.1-0.1,0.1v1.3c0.2,0.4,0.7,0.7,1.1,0.9c-0.1,0.1-0.1,0.3-0.1,0.4L32.5,6
	c-0.1,0-0.4-0.1-0.8-0.3V9h1.1c0.3,0.6,0.6,1.2,1.1,1.6c0.7,0.7,1.5,1.1,2.3,1.3h0.1c0.1,0,0.2,0.1,0.3,0.1c0.1,0,0.2,0.1,0.3,0.1
	c0.1,0,0.1,0,0.2,0c0.1,0,0.3,0,0.4,0l0,0v-1.5l0,0c-0.9,0-1.8-0.4-2.4-1c-0.6-0.6-0.9-1.5-0.9-2.4c0-1.8,1.5-3.3,3.3-3.3l0,0V0
	L37.5,0z M31.7,97.1c1,0.4,2.2,0.9,3.3,1.1c0.5,0.2,1.5,1.1,2,1.7c0,0,0.3,0.3,0.4,0.4l0,0v-1.5c-0.3-0.3-1.4-1.3-2.2-1.5
	c-1.1-0.2-2.6-0.8-3.5-1.3V97.1L31.7,97.1z M37.5,13.3v3h-5.7v-3H37.5L37.5,13.3z M37.5,20.9v2.8h-3.7l0.9,6.4l-2.9,0.6v-9.9H37.5
	L37.5,20.9z M37.5,47.5V52h-0.1l0.1,0.1v4.5c-0.9,0.8-0.3,2.2,0,3.3V74c-0.1-0.1-0.1-0.1-0.1-0.2c0.1-0.2-0.1-0.4-0.2-0.6
	c-0.3,0-0.2,0.6-0.4,0.3c-0.1-0.1,0.1-0.3-0.1-0.4c-0.8,0.6-1.3,1.5-2.1,1.7h-0.4c0.1-0.4,0.3-0.8,0.2-1.2h-0.1
	c-0.7,0.8-1.5,1.1-2.4,1.3v-0.6c1-0.4,1.8-1.1,2.7-1.8c0.9-1.1,0.6-2.7,0.8-4.2c0-4,0.1-8.1,0.3-12.1c-0.2-1-0.1-1.9,0.3-2.8h-4
	v-0.6H36c0.1-0.3,0.3-0.6,0.4-0.8h-4.6v-7.4h0.2v1.8h0.4l0.1-0.4h-0.3v-0.3h1.1v-0.9h0.6v-0.8l0,0h-0.2v-0.4h0.3v-1l0,0
	c0,0,0,0,0-0.1h-0.1v-0.2h0.1c0.1-0.4,0.4-0.8,0.8-0.8v-0.7h0.1v0.7c0.4,0,0.7,0.4,0.8,0.8h0.1v0.2h-0.1c0,0.1,0,0.1,0,0.1l-0.1-0.1
	v1.1h0.3v0.4h-0.1l0,0v0.8h0.6v0.9h1.1v0.1c0,0,0,0,0,0.1l0,0v0.1h-0.3v1.6H37.5L37.5,47.5z M37.5,74.4c-1.5,0.1-3.1,0.6-4.2,1.8
	c-0.3,0.6,0.6,0.5,0.7,0.9c-0.4,0.1-0.8,0.4-1.1,0.6l-1.1-0.6v0.7l0.6,0.3c-0.2,0.2-0.4,0.4-0.6,0.6v2.7c0.6-0.9,1.2-1.9,2.2-2.5
	l0.2,0.1c0.1,0.3,0.1,0.6,0.1,0.8c-0.1,0.3-0.1,0.5-0.1,0.8c-0.1,0.1-0.1,0.1-0.2,0.2c-0.3,0.3-0.6,0.4-1,0.5l-0.1,0.1v0.1
	c-0.1,0-0.4,0.1-0.6,0.1c-0.1,0.1-0.3,0.1-0.4,0.1v0.9c0.1-0.1,0.1-0.1,0.1-0.1c0.1,0,0.3-0.1,0.6-0.1c0.3-0.1,0.6-0.2,0.7-0.2
	l0.1-0.1l0,0c0.1,0,0.1,0.1,0.2,0.1l0.2,0.4c0.1,0.1,0.8,1.5-0.3,2.1c-0.5,0.3-1.1-0.1-1.6-0.5v1.2c0.6,0.4,1.3,0.6,2.1,0.2
	c1.1-0.7,1.2-1.8,0.9-2.7h2.7l0,0V82h-2.3c0.1,0,0.1,0,0.1-0.1l0,0l0,0c0.8-0.3,1.5-0.6,2.1-0.9v-3.4c-0.1-0.1-0.3-0.1-0.3-0.1l0,0
	h-0.1l-2.2,0.8c0.4-0.4,0.8-0.9,0.6-1.5c0.4-0.4,1.2-0.7,2-0.8V74.4z M31.7,1.3L31.7,1.3c-0.6,0-1.5,0.1-2.1,0.2l0,0V9l0,0h2.1l0,0
	V5.6l0,0c-0.5-0.3-1-0.6-1.1-1c0-0.4,0.5-0.9,1.1-1.3l0,0V1.3L31.7,1.3z M29.6,96.7L29.6,96.7H31c0.3,0.1,0.4,0.3,0.7,0.4l0,0v-1.1
	l0,0c-0.3-0.2-0.6-0.4-0.7-0.5c-1.3-1.4-1-3,0-5.3c0.7-1.6-0.6-3.6-1.5-4.6v-0.1v2l0,0h0.2c0.1,0.1,0.1,0.3,0.2,0.4h-0.4l0,0v0.3
	l0,0h0.5v0.1h-0.5l0,0v2.1l0,0l0.1,0.2l-0.1-0.1l0,0v0.3l0,0l0.1,0.1c0,0.1-0.1,0.1-0.1,0.1h-0.1l0,0V95l0,0
	c0.1,0.1,0.1,0.3,0.2,0.4h-0.2l0,0V96.7L29.6,96.7z M31.7,3.4v1.3l0,0c0-0.1,0-0.1,0-0.1C31.5,4.3,31.6,3.8,31.7,3.4L31.7,3.4
	L31.7,3.4z M31.7,13.3v3l0,0h-2.1l0,0v-3l0,0H31.7L31.7,13.3L31.7,13.3z M31.7,20.9v9.9l0,0L30.9,31l-1.3-3.6l0,0v-6.4l0,0H31.7
	L31.7,20.9L31.7,20.9z M31.7,44.6V52l0,0h-2.1l0,0v-7l0,0l0.6-0.4H31.7L31.7,44.6L31.7,44.6z M31.7,52.8v0.6l0,0h-2.1l0,0v-0.6l0,0
	H31.7L31.7,52.8L31.7,52.8z M31.7,74.3v0.6l0,0c-0.1,0.1-0.2,0.1-0.3,0.1c-0.2-0.1-0.6,0-0.6-0.3l0.4-0.2
	C31.5,74.4,31.6,74.4,31.7,74.3L31.7,74.3L31.7,74.3z M31.7,77.2v0.7l0,0L30.1,77c-0.3,0.3-0.3,0.6-0.2,0.9c0.1,0.1,0.2,0.4,0.1,0.6
	c-0.3,0.4-0.2,0.9-0.3,1.3c0,0.1-0.1,0.1-0.1,0.3l0,0v-4l0,0l0.1,0.1c0.1,0,0.1,0,0.2-0.1c0.2,0.2,0.4,0.3,0.6,0.4L31.7,77.2
	L31.7,77.2L31.7,77.2z M31.7,78.9L31.7,78.9c-0.5,0.6-0.9,1.3-1.3,2c-0.3,0.2-0.6,0.5-0.8,0.2l0,0v2.5l0,0c0.1-0.1,0.2-0.1,0.3-0.2
	c0.1-0.1-0.1-0.3,0.1-0.4c0.1,0.1,0.2,0.2,0.3,0.3c0.2,0.1,0.4-0.1,0.5-0.3l0,0c0.2,0,0.3,0,0.4,0c0.2,0,0.4-0.1,0.6-0.2l0,0v-0.9
	l0,0h-0.1l0.1-0.2l0,0V78.9L31.7,78.9z M31.7,84.2v1.2l0,0c-0.4-0.2-0.8-0.6-1-0.9l-1.1,0.8l0,0v-1.1l0,0l1.4-0.8l0.3,0.3
	C31.2,83.7,31.4,84,31.7,84.2L31.7,84.2z M29.6,1.5c-0.1,0.1-0.1,0.1-0.1,0.1l0,0V9l0,0h0.1V1.5L29.6,1.5z M29.4,96.7L29.4,96.7h0.1
	v-1.3h-0.1l0,0V96.7L29.4,96.7z M29.6,13.3v3h-0.1l0,0v-3l0,0H29.6L29.6,13.3z M29.6,20.9v6.4l-0.1-0.3l0,0v-6.2l0,0H29.6L29.6,20.9
	z M29.6,45v7h-0.1l0,0v-6.9l0,0L29.6,45L29.6,45z M29.6,52.8v0.6h-0.1l0,0v-0.6l0,0H29.6L29.6,52.8z M29.6,76v4l-0.1,0.3l0,0V76l0,0
	L29.6,76L29.6,76z M29.6,81.1v2.5l-0.1,0.1l0,0V81l0,0C29.5,81,29.5,81,29.6,81.1C29.5,81,29.5,81.1,29.6,81.1L29.6,81.1z
	 M29.6,84.2v1.1l-0.1,0.1l0,0v-1.1l0,0L29.6,84.2L29.6,84.2z M29.6,85.6v2h-0.1l0,0v-2.1l0,0C29.5,85.5,29.5,85.6,29.6,85.6
	L29.6,85.6z M29.6,88v0.3h-0.1l0,0V88l0,0H29.6L29.6,88z M29.6,88.3v2.1l-0.1-0.1l0,0v-2l0,0H29.6L29.6,88.3z M29.6,90.6v0.3
	l-0.1-0.1l0,0v-0.3l0,0L29.6,90.6L29.6,90.6z M29.6,91.1V95c-0.1-0.1-0.1-0.1-0.1-0.3l0,0v-3.1l0,0c0.1-0.1,0.1-0.2,0.1-0.3h-0.1
	l0,0v-0.3l0,0H29.6z M29.4,1.5c-0.1,0-0.2,0.1-0.3,0.1c-0.6,0.2-1.1,0.5-1.6,0.8l0,0v3.9l0,0c0.1-0.1,0.1-0.1,0.1-0.2
	c0.3,0.4,0.6,0.9,1.1,1.4h-1.2l0,0V9l0,0h1.8V1.5L29.4,1.5z M27.6,96.7L27.6,96.7h1.8v-1.3h-1.8l0,0V96.7L27.6,96.7z M29.4,13.3v3
	h-1.8l0,0v-3l0,0H29.4L29.4,13.3z M29.4,20.9v6.2l-1.2-3.3h-0.6l0,0v-2.8l0,0H29.4L29.4,20.9z M29.4,45.1V52h-1.8l0,0v-4.1l0,0h1.1
	v-2.3L29.4,45.1L29.4,45.1z M29.4,52.8v0.6h-1.8l0,0v-0.6l0,0H29.4L29.4,52.8z M29.4,76v4.4c-0.1,0.3-0.2,0.4-0.3,0.7
	c0.1,0,0.2-0.1,0.3,0v2.6c-0.6,0.3-1.2,0.5-1.8,0.6l0,0v-2l0,0c0.1,0,0.2,0,0.3,0c0.2-0.1,0.4-0.1,0.5-0.3c-0.1-0.3,0-0.5,0.2-0.7
	c0.1-0.1,0.2-0.1,0.3-0.2V81c-0.1,0.1-0.1,0-0.1,0c-0.1-0.4,0.1-0.9-0.2-1.3v-0.1c-0.6,0.4-0.1,1.3-0.4,1.9c-0.1,0.1-0.1,0-0.1-0.1
	c0.3-0.8-0.2-1.3,0-2.1c0.6-0.8,0.6-1.8,1-2.7v-0.2L28.1,76c-0.1,0-0.3,0-0.4,0l0,0v-1.6l0,0c0.3,0.3,0.6,0.6,0.8,1.1L29.4,76
	L29.4,76z M29.4,84.2l-1.5,0.9l0.4,0.4c0.3,0.2,0.6,0.6,0.9,1.1h-1.6l0,0v0.9l0,0h1.8v-2.1c0-0.1-0.1-0.1-0.1-0.1h0.1V84.2
	L29.4,84.2z M29.4,88v0.3h-1.8l0,0V88l0,0H29.4L29.4,88z M29.4,88.3v2l-1.7-2H29.4L29.4,88.3z M29.4,90.6L28,89.7h-0.4l0,0v0.3l0,0
	h0.3l1.5,0.8V90.6L29.4,90.6z M29.4,91.1v0.3h-1.8l0,0v-0.3l0,0H29.4L29.4,91.1z M29.4,91.7v3.1c0-0.1-0.1-0.3-0.1-0.4h-1.7l0,0
	v-0.3l0,0h0.3l1.3-1.6c0.1-0.1,0.1-0.1,0.1-0.3L28,93.1h-0.4l0,0v-0.3l0,0h0.3l1.5-1C29.4,91.8,29.4,91.8,29.4,91.7z M27.6,2.4
	c-0.6,0.4-1.1,0.7-1.1,0.8l-0.3,0.2l0.2,0.3l0.4,0.4c-0.3,0.4-0.7,1.2-1.1,1.5c-0.6,0.3-1.8,0.3-2.2,0.3L23,5.7l0.2,0.4
	C23.3,6.3,23.6,7,24,7.5H12.8v0.2h-1.8V9h16.7V7.5h-1.3c0.5-0.4,0.9-0.8,1.3-1.2V2.4L27.6,2.4z M10.9,96.7h16.7v-1.3H10.9V96.7
	L10.9,96.7z M27.6,13.3v3H14.8v4.7h12.8v2.8h-9.2l7.1,10l-2.8,2.3l-9.2-8.3V38l5.6,3.1l-1.3,3.4l-4.2-1.2v9.4h14.2v0.6H13.5v28.7
	c0,2.5,2,4.5,4.5,4.5h9.6v0.9h-9.9c-2.9,0-5.2-2.3-5.2-5.2v-59h-0.8v62.9c-0.1-0.1-0.2-0.1-0.3-0.2v-2.4l-0.4,0.5v-4.4l0.4-0.4v-9.8
	L10.9,70v-4.4l0.4-0.4V55l-0.4,0.5v-4.4l0.4-0.4V40.5L10.9,41v-4.4l0.4-0.4V25.9l-0.4,0.4v-3.6h3.2v-8.1h-3.2v-1.3H27.6L27.6,13.3z
	 M27.6,47.8h-0.2v-0.6h-1.6v-0.1h0.1v-0.3h-0.3v-1.5h0.1v-0.2h-0.1c-0.3-0.1-0.4-0.4-0.4-0.5l0,0v-0.1h-0.1v-1.1h0.1v-0.1h-0.1
	c0-0.3-0.1-0.4-0.3-0.5c0.1,0,0.1,0,0.1-0.1c0-0.1-0.1-0.1-0.1-0.1v-0.4h-0.1v0.4c-0.1,0.1-0.1,0.1-0.1,0.1c0,0.1,0,0.1,0,0.1
	c-0.1,0.1-0.3,0.3-0.3,0.5h-0.1v0.1h0.1v1.1h-0.1v0.1h0.1c-0.1,0.3-0.3,0.5-0.3,0.5h-0.1l-0.1,0.3l-0.1-0.1l-0.1,0.1l0,0v0.1l0,0
	v0.1V46c-0.1,0-0.3,0.1-0.3,0.2v-1h0.1V45h-0.1c-0.3-0.1-0.4-0.5-0.4-0.6h0.1v-0.1h-0.1V43V43h-0.1c-0.1-0.3-0.2-0.5-0.3-0.5
	c0-0.1,0-0.1,0-0.1c0-0.1-0.1-0.1-0.1-0.1v-0.5h-0.1v0.5c-0.1,0-0.1,0.1-0.1,0.1c0,0.1,0.1,0.1,0.1,0.1c-0.1,0.1-0.3,0.3-0.3,0.5
	h-0.1V43l0,0v1.3h-0.1v0.1h0.1c-0.1,0.3-0.4,0.5-0.4,0.6h-0.1v0.2h0.1v1.6H21v0.3h0.1v0.6h-0.7v-0.6h-1.2v0.6h-1.3v2.7l-0.7,0.3V52
	h10.4V47.8L27.6,47.8z M27.6,74.3c-1.2-0.9-3.2-0.9-3.2-0.9s1.2,2.5,3.2,2.6V74.3L27.6,74.3z M27.6,82.3c-1.4,0.1-2.7,0.3-3.8,1.1
	c0.1,0.5,0.7,0.9,0.9,1.4c0.3,0,0.4-0.4,0.8-0.3c0.8,0,1.5-0.1,2.1-0.2V82.3L27.6,82.3z M27.6,88v0.3h-9.3l1.4,1.5h7.9v0.3h-7.9
	l-1.5,1.1h9.4v0.3h-9.4l1.5,1.4h7.9v0.3h-7.9l-1.1,1h9v0.3H10.9v-0.1c0.3-0.1,0.4-0.1,0.7-0.3h2.8l2.2-2.7L14,93.1h-1
	c0.1-0.1,0.2-0.1,0.3-0.3H14l2-1.4h-2c0-0.1,0.1-0.2,0.1-0.3H16l-1.8-0.9v-0.1c0-0.1,0-0.1,0-0.3c0.8,0.4,2.4,1.3,2.4,1.3l-2.4-2.9
	h-0.4c-0.1-0.1-0.1-0.2-0.2-0.3H27.6z M10.9,7.7L10.9,7.7H9.4H9.3V9h0.1h1.6l0,0V7.7L10.9,7.7z M9.3,96.6L9.3,96.6
	c0.5,0.1,0.9,0.2,1.5,0.2h0.2l0,0v-1.3l0,0h-0.2c-0.5,0-0.9-0.1-1.4-0.2H9.3V96.6L9.3,96.6z M10.9,13.3v1.3l0,0H9.4H9.3v-1.3h0.1
	H10.9L10.9,13.3L10.9,13.3z M10.9,22.7v3.6v0.1l-0.8,0.9v8.7l-0.8,1.6l-0.1,0.1V37h0.1l0.5-1.1v-8.7l-0.5-0.8H9.3v-3.8h0.1H10.9
	L10.9,22.7L10.9,22.7z M10.9,36.6L10.9,36.6l-1.6,1.5H9.3v3h0.1l0.5,0.8v8.7l-0.5,1H9.3v0.6l0.1-0.1l0.8-1.6v-8.7l0.8-0.9l0,0V36.6
	L10.9,36.6z M10.9,51.2v4.4l0,0l-0.8,0.9v8.7l-0.8,1.6l-0.1,0.1v-0.6h0.1l0.5-1.1v-8.6l-0.5-0.8H9.3v-3h0.1L10.9,51.2L10.9,51.2
	L10.9,51.2z M10.9,65.7L10.9,65.7l-1.6,1.5l-0.1,0.1v3h0.1L9.9,71v8.6l-0.5,1.1H9.3v0.6l0.1-0.1l0.8-1.6v-8.7l0.8-0.9l0,0V65.7
	L10.9,65.7z M10.9,79.8v4.4l0,0l-0.8,0.9v0.7c-0.1,0-0.2,0-0.3,0v-0.7l-0.5-0.8H9.3v-3h0.1L10.9,79.8L10.9,79.8L10.9,79.8z
	 M10.9,94.3L10.9,94.3L10.9,94.3l-0.3,0.1h-0.1l0,0C10.7,94.4,10.8,94.3,10.9,94.3L10.9,94.3z M9.3,7.7H7.9l0,0V9l0,0h1.4V7.7
	L9.3,7.7z M7.9,96.1L7.9,96.1c0.4,0.2,0.9,0.4,1.4,0.4v-1.3c-0.5-0.1-0.9-0.3-1.4-0.6l0,0V96.1L7.9,96.1z M9.3,13.3v1.3H7.9l0,0
	v-1.3l0,0H9.3L9.3,13.3z M9.3,22.7v3.8l-0.5-0.8V38L9.3,37v0.6l-0.4,0.9l0.4-0.4v3l-0.5-0.8v12.3l0.5-1.1v0.6l-0.4,0.9l0.4-0.4v3
	l-0.5-0.8v12.3l0.5-1.1v0.6L9,67.4l0.3-0.3v3l-0.5-0.8v12.3l0.5-1.1v0.6l0,0l0,0v3l-0.5-0.8v2.4c-0.1,0.1-0.2,0.1-0.3,0.1v-2.5
	l-0.6,0.8v0.1v-3.7l0,0l0.6,1.1V69.4l-0.6,0.8l0,0v-3.1l0,0l0.4,0.4l-0.4-0.8l0,0v-0.5l0,0l0.6,1.1V54.9l-0.6,0.8v0.1v-3.2l0,0
	l0.6,0.6l-0.6-1.1l0,0v-0.6v0.1l0.6,1.1V40.3l-0.6,0.8l0,0V38V38l0.6,0.6l-0.6-1.1l0,0v-0.6V37L8.5,38V25.7l-0.6,0.8l0,0v-3.8l0,0
	H9.3z M7.9,7.7H7.5V9h0.4V7.7L7.9,7.7z M7.5,96c0.1,0.1,0.3,0.1,0.4,0.1v-1.4c-0.1-0.1-0.3-0.1-0.4-0.2V96L7.5,96z M7.9,13.3v1.3
	H7.8v8.1h0.1v3.8l-0.4,0.4V13.3H7.9L7.9,13.3z M7.9,36.9v0.6l-0.4-0.6v-0.5L7.9,36.9L7.9,36.9z M7.9,38v3.2l-0.4,0.4v-3.8L7.9,38
	L7.9,38z M7.9,51.5v0.6l-0.4-0.6V51L7.9,51.5L7.9,51.5z M7.9,52.6v3.2l-0.4,0.4v-3.9L7.9,52.6L7.9,52.6z M7.9,66.2v0.5l-0.4-0.6
	v-0.5L7.9,66.2L7.9,66.2z M7.9,67.1v3.1l-0.4,0.4v-3.8L7.9,67.1L7.9,67.1z M7.9,80.6v3.7l-0.4,0.4v-3.9l0.3,0.3l-0.3-0.6v-0.5
	L7.9,80.6z M7.5,7.7L7.5,7.7H6.9V9h0.6l0,0V7.7L7.5,7.7z M6.9,95.6c0.3,0.1,0.4,0.3,0.6,0.4l0,0v-1.5l0,0c-0.2-0.1-0.4-0.3-0.6-0.5
	V95.6L6.9,95.6z M7.5,13.3v13.6l0,0l-0.3,0.4v8.7l0.3,0.4v0.1v0.5l0,0l-0.6-1v-8.7l-0.1-0.1v-4.3h0.3v-8.2H6.9v-1.3H7.5L7.5,13.3
	L7.5,13.3z M7.5,37.7v3.8l0,0l-0.3,0.4v8.7L7.5,51l0,0v0.5l0,0L7,50.6v-8.7l-0.1-0.1v-4.7L7.5,37.7L7.5,37.7L7.5,37.7z M7.5,52.3
	v3.9l0,0l-0.3,0.3v8.7l0.3,0.5l0,0v0.5l0,0l-0.6-1v-8.7l-0.1-0.1v-4.7L7.5,52.3L7.5,52.3L7.5,52.3z M7.5,66.7L7.5,66.7l-0.6-0.6v4.7
	L7,70.9v8.7l0.6,1l0,0v-0.5l0,0l-0.3-0.5v-8.7l0.3-0.3v-0.1V66.7L7.5,66.7z M7.5,80.8v3.9l0,0l-0.3,0.4v1.5
	c-0.1,0.1-0.2,0.2-0.3,0.3v-1.8l-0.1-0.1v-4.7L7.5,80.8L7.5,80.8z M6.9,7.7L6.9,7.7H1H0l0.4,0.9l2.8,5.5l0.1,0.4h0.2v75.1
	c0,1.9,0.8,3.7,2.1,5.1c0.4,0.4,0.8,0.6,1.2,0.9l0,0V94l0,0c-0.1-0.1-0.2-0.2-0.3-0.3c-1.1-1.1-1.7-2.5-1.7-4.1v-75h2l0,0v-1.3l0,0
	H4.2L2,9h4.9l0,0V7.7L6.9,7.7z M6.9,22.8v4.3l0,0l-0.9-1.3v10.4l0.9,0.9l0,0v4.7l0,0l-0.9-1.3v10.3l0.9,0.8l0,0v4.7l0,0l-0.9-1.3
	v10.1l0.9,0.9l0,0v4.7l0,0l-0.9-1.3v9.8l0.9,0.9l0,0v4.7l0,0l-0.9-1.3v4.5c-0.1,0.3-0.3,0.5-0.3,0.8v-66v-0.1h0.2H6.9L6.9,22.8z"/>
<path id="XMLID_41_" class="st0" d="M37.5,9.9c1.5,0,2.7-1.3,2.7-2.8c0-0.7-0.3-1.4-0.8-1.9c-0.5-0.5-1.2-0.8-1.9-0.8
	c-0.8,0-1.5,0.3-2,0.8c-0.5,0.5-0.8,1.2-0.8,1.9c0,0.8,0.3,1.5,0.8,2C36,9.6,36.7,9.9,37.5,9.9z"/>
<path class="st0" d="M23.6,20.2H23l-0.5-1.4h-0.1v-0.4l0,0c0.3,0,0.4-0.1,0.5-0.1c0.1-0.1,0.2-0.3,0.2-0.4c0-0.2-0.1-0.3-0.2-0.4
	c-0.1-0.1-0.3-0.1-0.4-0.1h-0.1v-0.5h0.1c0.4,0,0.7,0.1,0.9,0.3c0.2,0.2,0.3,0.4,0.3,0.7c0,0.4-0.2,0.7-0.6,0.9L23.6,20.2z
	 M22.4,18.8h-0.7v1.4H21v-3.3h1.3v0.5h-0.7v1h0.7V18.8z"/>
<rect id="XMLID_38_" x="25" y="16.9" class="st0" width="0.6" height="3.3"/>
<path class="st0" d="M28.3,16.9L28.3,16.9c0.4,0,0.8,0.1,1,0.4c0.3,0.3,0.4,0.8,0.4,1.3s-0.1,0.9-0.4,1.2c-0.3,0.3-0.6,0.5-1,0.5
	v-0.5c0.2,0,0.4-0.1,0.5-0.3c0.2-0.2,0.3-0.5,0.3-0.9c0-0.4-0.1-0.7-0.2-0.9c-0.1-0.2-0.3-0.3-0.6-0.3l0,0V16.9z M28.3,20.3
	c-0.4,0-0.8-0.2-1.1-0.5c-0.2-0.3-0.3-0.8-0.3-1.2c0-0.5,0.1-0.9,0.4-1.3c0.3-0.3,0.6-0.4,1-0.4v0.4c-0.5,0-0.8,0.4-0.8,1.3
	c0,0.4,0.1,0.7,0.2,0.9c0.1,0.2,0.3,0.3,0.6,0.3l0,0V20.3L28.3,20.3z"/>
<path id="XMLID_35_" class="st0" d="M34.9,19.1l0.5,0.1c0,0.3-0.1,0.6-0.4,0.8c-0.2,0.2-0.5,0.3-0.9,0.3c-0.3,0-0.5-0.1-0.7-0.3
	c-0.2-0.1-0.4-0.4-0.4-0.6c-0.1-0.3-0.2-0.5-0.2-0.8c0-0.5,0.1-0.9,0.4-1.3c0.3-0.3,0.6-0.4,1-0.4c0.3,0,0.6,0.1,0.8,0.3
	c0.2,0.2,0.3,0.4,0.4,0.8l-0.5,0.1c-0.1-0.5-0.4-0.8-0.7-0.8c-0.3,0-0.4,0.1-0.5,0.3c-0.1,0.3-0.2,0.5-0.2,0.9
	c0,0.4,0.1,0.7,0.2,0.9c0.1,0.2,0.3,0.3,0.5,0.3c0.2,0,0.3-0.1,0.4-0.2C34.8,19.4,34.8,19.3,34.9,19.1z"/>
<path id="XMLID_34_" class="st0" d="M38.9,16.9V19c0,0.3-0.1,0.5-0.1,0.7c-0.1,0.1-0.2,0.3-0.4,0.4s-0.4,0.2-0.6,0.2
	c-0.3,0-0.5-0.1-0.7-0.2c-0.2-0.1-0.3-0.2-0.4-0.4c-0.1-0.2-0.1-0.4-0.1-0.6v-2.2h0.6V19c0,0.3,0.1,0.5,0.2,0.6
	c0.1,0.1,0.3,0.1,0.4,0.1c0.1,0,0.3,0,0.4-0.1c0.1-0.1,0.1-0.3,0.1-0.6v-2.1H38.9z"/>
<path class="st0" d="M42.8,20.2h-0.6L42,19.4h-0.6V19h0.4l-0.4-1.5v-0.6h0.4L42.8,20.2z M41.3,19.4h-0.6l-0.3,0.8h-0.6l1.1-3.3h0.3
	v0.6L40.8,19h0.5V19.4z"/>
<path class="st0" d="M46.6,20.2h-0.6l-0.5-1.4h-0.1v-0.4l0,0c0.3,0,0.4-0.1,0.5-0.1c0.1-0.1,0.1-0.3,0.1-0.4c0-0.2,0-0.3-0.1-0.4
	s-0.3-0.1-0.4-0.1h-0.1v-0.5h0.1c0.4,0,0.7,0.1,0.9,0.3c0.2,0.2,0.3,0.4,0.3,0.7c0,0.4-0.2,0.7-0.6,0.9L46.6,20.2z M45.3,18.8h-0.7
	v1.4H44v-3.3h1.3v0.5h-0.7v1h0.7V18.8z"/>
<polygon id="XMLID_29_" class="st0" points="49.1,20.2 48.5,20.2 48.5,17.4 47.6,17.4 47.6,16.9 50,16.9 50,17.4 49.1,17.4 "/>
<path class="st0" d="M52.3,16.9L52.3,16.9c0.4,0,0.8,0.1,1,0.4c0.3,0.3,0.4,0.8,0.4,1.3s-0.1,0.9-0.4,1.2c-0.3,0.3-0.6,0.5-1,0.5
	v-0.5c0.2,0,0.4-0.1,0.5-0.3c0.2-0.2,0.3-0.5,0.3-0.9c0-0.4-0.1-0.7-0.2-0.9c-0.1-0.2-0.3-0.3-0.6-0.3l0,0V16.9z M52.3,20.3
	c-0.4,0-0.8-0.2-1.1-0.5c-0.3-0.3-0.4-0.8-0.4-1.2c0-0.5,0.1-0.9,0.4-1.3c0.3-0.3,0.6-0.4,1-0.4v0.4c-0.5,0-0.8,0.4-0.8,1.3
	c0,0.4,0.1,0.7,0.2,0.9c0.1,0.2,0.3,0.3,0.6,0.3l0,0V20.3L52.3,20.3z"/>
</svg>
