<?xml version="1.0" encoding="utf-8"?>
<!-- Generator: Adobe Illustrator 18.0.0, SVG Export Plug-In . SVG Version: 6.00 Build 0)  -->
<!DOCTYPE svg PUBLIC "-//W3C//DTD SVG 1.1//EN" "http://www.w3.org/Graphics/SVG/1.1/DTD/svg11.dtd">
<svg version="1.1" id="Capa_1" xmlns="http://www.w3.org/2000/svg" xmlns:xlink="http://www.w3.org/1999/xlink" x="0px" y="0px"
	 viewBox="0 0 560 560" enable-background="new 0 0 560 560" xml:space="preserve">
<g id="Capa_1_2_">
	<g id="Capa_1_1_">
		<rect x="0" fill="none" width="560" height="560"/>
	</g>
</g>
<g>
	<g>
		<path fill="#769543" d="M120.3,221.9c-21.4,0-36.1-15-36.1-35.3v-0.2c0-19.5,15.2-35.5,36-35.5c12.3,0,19.8,3.3,27,9.4l-9.5,11.5
			c-5.3-4.4-10-7-17.9-7c-11,0-19.7,9.7-19.7,21.4v0.2c0,12.5,8.6,21.8,20.8,21.8c5.5,0,10.4-1.4,14.2-4.1v-9.8h-15.2v-13h29.8V211
			C142.5,217,132.8,221.9,120.3,221.9z"/>
		<path fill="#769543" d="M187.8,221.8c-18.4,0-29.7-10.3-29.7-30.5v-39.2h15.1v38.8c0,11.2,5.6,17,14.8,17
			c9.2,0,14.8-5.6,14.8-16.5v-39.3h15.1v38.7C217.9,211.6,206.2,221.8,187.8,221.8z"/>
		<path fill="#769543" d="M229,220.7v-68.6h15.1v68.6H229z M230.3,146.7l11.1-17.3l12.8,5.6l-12.5,11.8H230.3z"/>
		<path fill="#769543" d="M307.4,220.7l-6.3-15.4h-29l-6.3,15.4h-15.4l29.4-69.1h13.9l29.4,69.1H307.4z M286.7,169.7l-9.1,22.2h18.2
			L286.7,169.7z"/>
		<path fill="#769543" d="M380.2,220.7h-26.8v-68.6h26.8c21.6,0,36.5,14.8,36.5,34.1v0.2C416.6,205.7,401.7,220.7,380.2,220.7z
			 M400.8,186.4c0-12.2-8.3-20.7-20.7-20.7h-11.7v41.4h11.7c12.3,0,20.7-8.3,20.7-20.5V186.4z"/>
		<path fill="#769543" d="M425.1,220.7v-68.6h51.7v13.4h-36.8v13.9h32.3v13.4h-32.3v14.4h37.2v13.4H425.1z"/>
		<path fill="#769543" d="M76.4,283.6v54.7H61.3v-54.7H40.4v-13.9h56.8v13.9H76.4z"/>
		<path fill="#769543" d="M145.6,338.3l-14.7-22H119v22h-15.1v-68.6h31.4c16.2,0,25.9,8.5,25.9,22.6v0.2c0,11.1-6,18-14.7,21.3
			l16.8,24.5H145.6z M145.9,293.1c0-6.5-4.5-9.8-11.9-9.8h-15V303h15.3c7.4,0,11.6-3.9,11.6-9.7V293.1z"/>
		<path fill="#769543" d="M221,338.3l-6.3-15.4h-29l-6.3,15.4H164l29.4-69.1h13.9l29.4,69.1H221z M200.2,287.3l-9.1,22.2h18.2
			L200.2,287.3z M194.1,264.3l11.1-17.3l12.8,5.6l-12.5,11.8H194.1z"/>
		<path fill="#769543" d="M296,338.3v-44.8l-19.3,29.3h-0.4l-19.1-29v44.5h-14.8v-68.6h16.3l18,29l18-29H311v68.6H296z"/>
		<path fill="#769543" d="M323.3,338.3v-68.6h15.1v68.6H323.3z"/>
		<path fill="#769543" d="M381.7,283.6v54.7h-15.1v-54.7h-20.9v-13.9h56.8v13.9H381.7z"/>
		<path fill="#769543" d="M409.2,338.3v-68.6H461v13.4h-36.8V297h32.3v13.4h-32.3v14.4h37.2v13.4H409.2z"/>
		<path fill="#769543" d="M494.4,339.3c-10.4,0-20.9-3.6-29.1-11l8.9-10.7c6.2,5.1,12.6,8.3,20.5,8.3c6.2,0,9.9-2.5,9.9-6.5v-0.2
			c0-3.8-2.4-5.8-13.8-8.7c-13.8-3.5-22.7-7.4-22.7-21v-0.2c0-12.4,10-20.7,24-20.7c10,0,18.5,3.1,25.5,8.7l-7.8,11.4
			c-6.1-4.2-12.1-6.8-17.8-6.8c-5.8,0-8.8,2.6-8.8,6v0.2c0,4.5,2.9,6,14.8,9c13.9,3.6,21.8,8.6,21.8,20.6v0.2
			C519.6,331.6,509.2,339.3,494.4,339.3z"/>
	</g>
	<g>
		<path fill="#253546" d="M90.8,429.8l-11-16.4H71v16.4H59.8v-51.1h23.4c12,0,19.3,6.4,19.3,16.9v0.1c0,8.2-4.5,13.4-10.9,15.8
			l12.5,18.2H90.8z M91,396.1c0-4.8-3.4-7.3-8.8-7.3H71v14.7h11.4c5.5,0,8.6-2.9,8.6-7.2V396.1z"/>
		<path fill="#253546" d="M109.4,429.8v-51.1h11.2v51.1H109.4z M110.4,374.7l8.2-12.9l9.6,4.2l-9.3,8.8H110.4z"/>
		<path fill="#253546" d="M154.6,430.7c-15.8,0-27.1-11.8-27.1-26.3v-0.1c0-14.5,11.5-26.4,27.2-26.4s27.1,11.8,27.1,26.3v0.1
			C181.8,418.8,170.4,430.7,154.6,430.7z M170.1,404.2c0-8.8-6.4-16.1-15.5-16.1s-15.3,7.2-15.3,15.9v0.1c0,8.8,6.4,16.1,15.5,16.1
			s15.3-7.2,15.3-15.9V404.2z"/>
		<path fill="#253546" d="M230.4,430.7c-15,0-26.2-11.6-26.2-26.3v-0.1c0-14.5,11-26.4,26.6-26.4c9.6,0,15.4,3.2,20.1,7.9l-7.2,8.2
			c-3.9-3.6-8-5.8-13.1-5.8c-8.6,0-14.8,7.2-14.8,15.9v0.1c0,8.8,6.1,16.1,14.8,16.1c5.8,0,9.4-2.3,13.4-6l7.2,7.2
			C246.1,427.2,240.2,430.7,230.4,430.7z"/>
		<path fill="#253546" d="M278,430.6c-13.7,0-22.1-7.7-22.1-22.7v-29.2h11.2v28.9c0,8.3,4.2,12.6,11,12.6s11-4.2,11-12.3v-29.3h11.2
			v28.8C300.4,423,291.7,430.6,278,430.6z"/>
		<path fill="#253546" d="M344.4,429.8l-4.7-11.5h-21.6l-4.7,11.5H302l21.9-51.5h10.4l21.9,51.5H344.4z M328.9,391.8l-6.8,16.6h13.6
			L328.9,391.8z"/>
		<path fill="#253546" d="M391.4,429.8l-11-16.4h-8.8v16.4h-11.2v-51.1h23.4c12,0,19.3,6.4,19.3,16.9v0.1c0,8.2-4.5,13.4-10.9,15.8
			l12.5,18.2H391.4z M391.6,396.1c0-4.8-3.4-7.3-8.8-7.3h-11.2v14.7H383c5.5,0,8.6-2.9,8.6-7.2V396.1z"/>
		<path fill="#253546" d="M432.6,389.1v40.7h-11.2v-40.7h-15.5v-10.4h42.3v10.4H432.6z"/>
		<path fill="#253546" d="M475.8,430.7c-15.8,0-27.1-11.8-27.1-26.3v-0.1c0-14.5,11.5-26.4,27.2-26.4s27.1,11.8,27.1,26.3v0.1
			C503,418.8,491.6,430.7,475.8,430.7z M491.3,404.2c0-8.8-6.4-16.1-15.5-16.1s-15.3,7.2-15.3,15.9v0.1c0,8.8,6.4,16.1,15.5,16.1
			c9.1,0,15.3-7.2,15.3-15.9V404.2z"/>
	</g>
</g>
</svg>
