<?xml version="1.0" encoding="utf-8"?>
<!-- Generator: Adobe Illustrator 19.0.0, SVG Export Plug-In . SVG Version: 6.00 Build 0)  -->
<svg version="1.1" id="Capa_1" xmlns="http://www.w3.org/2000/svg" xmlns:xlink="http://www.w3.org/1999/xlink" x="0px" y="0px"
	 viewBox="5.3 116 650 350" style="enable-background:new 5.3 116 650 350;" xml:space="preserve">
<style type="text/css">
	.st0{fill:#FFFFFF;}
	.st1{fill:#1A3346;}
	.st2{fill:#9FC7E9;}
	.st3{fill:#66983B;}
	.st4{opacity:0.7;fill:#66983B;enable-background:new    ;}
	.st5{opacity:0.7;fill:#9FC7E9;enable-background:new    ;}
</style>
<rect x="5.3" y="116" class="st0" width="650" height="350"/>
<rect x="15.6" y="333" class="st1" width="629.4" height="123"/>
<g id="Capa_2">
</g>
<g>
	<polygon class="st2" points="172.9,146.1 95.7,146.1 95.7,274.2 223.6,274.2 223.6,197.6 198.1,223.8 198.1,249.2 121.3,249.2 
		121.3,172.3 147.1,172.3 	"/>
	<polygon class="st3" points="223.6,146.1 223.6,181.3 203.7,201.3 203.7,166.5 	"/>
	<polygon class="st4" points="189.2,146.5 223.6,146.5 203.7,166.5 169,166.5 	"/>
	<g>
		<g>
			<path class="st1" d="M255.4,171.4h-4.5v8.1h-6v-27h11.1c6.5,0,10.3,3.8,10.3,9.4v0.1C266.3,168.2,261.4,171.4,255.4,171.4z
				 M260.2,162c0-2.6-1.9-4.1-4.9-4.1h-4.6v8.3h4.7C258.5,166.1,260.2,164.3,260.2,162L260.2,162z"/>
			<path class="st1" d="M281.8,180c-8.3,0-14.3-6.2-14.3-13.9V166c0-7.7,6-14,14.4-14c8.3,0,14.3,6.2,14.3,13.9v0.1
				C296.1,173.7,290.1,180,281.8,180z M289.9,166c0-4.6-3.4-8.5-8.2-8.5c-4.8,0-8.1,3.8-8.1,8.4v0.1c0,4.6,3.4,8.5,8.2,8.5
				C286.6,174.4,289.9,170.7,289.9,166L289.9,166z"/>
			<path class="st1" d="M315.9,179.5l-5.8-8.6h-4.7v8.6h-6v-27h12.3c6.4,0,10.1,3.4,10.1,8.8v0.1c0,4.3-2.3,7.1-5.8,8.4l6.6,9.6
				L315.9,179.5L315.9,179.5z M315.9,161.7c0-2.5-1.8-3.9-4.7-3.9h-5.9v7.7h6C314.3,165.6,315.9,164.1,315.9,161.7L315.9,161.7z"/>
			<path class="st1" d="M337.6,158v21.5h-6V158h-8.3v-5.4h22.4v5.4H337.6z"/>
			<path class="st1" d="M365.1,179.5l-2.5-6h-11.4l-2.5,6h-6l11.6-27.1h5.4l11.6,27.1H365.1z M357,159.5l-3.6,8.7h7.1L357,159.5z"/>
			<path class="st1" d="M373.5,179.5v-27h6v21.6H393v5.4L373.5,179.5L373.5,179.5z"/>
			<path class="st1" d="M415.7,179.5h-10.5v-27h10.5c8.5,0,14.4,5.8,14.4,13.4v0.1C430,173.6,424.1,179.5,415.7,179.5z M423.8,166
				c0-4.8-3.3-8.2-8.2-8.2h-4.5V174h4.6C420.5,174.1,423.8,170.8,423.8,166L423.8,166z"/>
			<path class="st1" d="M433.3,179.5v-27h20.3v5.3h-14.5v5.4h12.8v5.3h-12.8v5.6h14.7v5.3L433.3,179.5L433.3,179.5z"/>
			<path class="st1" d="M257.1,204.2v21.5h-6v-21.5H243v-5.4h22.4v5.4H257.1z"/>
			<path class="st1" d="M284.3,225.8l-5.8-8.6h-4.6v8.6h-6v-27h12.3c6.4,0,10.1,3.4,10.1,8.8v0.1c0,4.3-2.3,7.1-5.8,8.4l6.6,9.6
				L284.3,225.8L284.3,225.8z M284.5,207.9c0-2.5-1.8-3.9-4.7-3.9h-5.9v7.7h6C282.8,211.9,284.5,210.4,284.5,207.9L284.5,207.9z"/>
			<path class="st1" d="M314,225.8l-2.5-6h-11.4l-2.5,6h-6l11.6-27.1h5.4l11.6,27.1H314z M305.7,205.7l-3.6,8.7h7.1L305.7,205.7z"/>
			<path class="st1" d="M341.3,225.8l-13.1-17.2v17.2h-5.9v-27h5.4l12.7,16.6v-16.6h5.9v27H341.3z"/>
			<path class="st1" d="M360.5,226.2c-4.1,0-8.3-1.4-11.5-4.3l3.5-4.2c2.4,2,5,3.3,8.1,3.3c2.4,0,3.9-0.9,3.9-2.5v-0.1
				c0-1.5-0.8-2.3-5.4-3.5c-5.4-1.4-8.9-2.9-8.9-8.3v-0.1c0-4.9,3.9-8.2,9.4-8.2c3.9,0,7.2,1.2,10,3.5l-3.1,4.4
				c-2.4-1.7-4.8-2.6-7-2.6c-2.3,0-3.5,1-3.5,2.3v0.1c0,1.8,1.1,2.3,5.8,3.6c5.4,1.4,8.5,3.4,8.5,8.1v0.1
				C370.4,223.1,366.3,226.2,360.5,226.2z"/>
			<path class="st1" d="M384,217.6h-4.5v8.1h-6v-27h11.1c6.5,0,10.3,3.8,10.3,9.4v0.1C395,214.4,390,217.6,384,217.6z M388.9,208.1
				c0-2.6-1.9-4.1-4.9-4.1h-4.6v8.3h4.7C387.2,212.4,388.9,210.6,388.9,208.1L388.9,208.1z"/>
			<path class="st1" d="M414.8,225.8l-2.5-6h-11.4l-2.5,6h-6l11.6-27.1h5.4l11.6,27.1H414.8z M406.6,205.7l-3.6,8.7h7.1L406.6,205.7
				z"/>
			<path class="st1" d="M439.6,225.8l-5.8-8.6h-4.7v8.6h-6v-27h12.4c6.4,0,10.1,3.4,10.1,8.8v0.1c0,4.3-2.3,7.1-5.8,8.4l6.6,9.6
				L439.6,225.8L439.6,225.8z M439.7,207.9c0-2.5-1.8-3.9-4.7-3.9h-5.9v7.7h6C438,211.9,439.7,210.4,439.7,207.9L439.7,207.9z"/>
			<path class="st1" d="M449.2,225.8v-27h20.3v5.3H455v5.4h12.8v5.3H455v5.6h14.7v5.3h-20.6L449.2,225.8L449.2,225.8z"/>
			<path class="st1" d="M492,225.8L479,208.6v17.2h-5.9v-27h5.4l12.7,16.6v-16.6h5.9v27H492z"/>
			<path class="st1" d="M514.3,226.2c-7.9,0-13.9-6.1-13.9-13.9v-0.1c0-7.7,5.8-14,14-14c5.1,0,8.2,1.7,10.6,4.2l-3.8,4.3
				c-2.1-1.9-4.2-3.1-7-3.1c-4.5,0-7.8,3.8-7.8,8.4v0.1c0,4.6,3.2,8.5,7.8,8.5c3.1,0,5-1.2,7.1-3.1l3.8,3.8
				C522.5,224.4,519.5,226.2,514.3,226.2z"/>
			<path class="st1" d="M528.4,225.8v-27h6v27H528.4z"/>
			<path class="st1" d="M559.2,225.8l-2.5-6h-11.4l-2.5,6h-6l11.6-27.1h5.4l11.6,27.1H559.2z M551,205.7l-3.6,8.7h7.1L551,205.7z"/>
		</g>
		<g>
			<polygon class="st5" points="242.6,248.1 250.9,248.1 257.1,257.6 248.9,257.6 			"/>
			<polygon class="st2" points="242.6,267 250.9,267 257.1,257.6 248.9,257.6 			"/>
			<polygon class="st4" points="255.5,248.1 263.6,248.1 269.8,257.6 261.8,257.6 			"/>
			<polygon class="st3" points="255.5,267 263.6,267 269.8,257.6 261.8,257.6 			"/>
		</g>
		<g>
			<path class="st1" d="M289.5,268l-5-7.1H280v7.1h-3.7v-20.5h9.1c4.7,0,7.6,2.5,7.6,6.6c0,3.4-2,5.4-4.9,6.2l5.5,7.7H289.5
				L289.5,268z M285.2,250.8H280v6.9h5.3c2.5,0,4.2-1.4,4.2-3.5C289.4,251.9,287.9,250.8,285.2,250.8z"/>
			<path class="st1" d="M301.3,247.5V268h-3.7v-20.5L301.3,247.5L301.3,247.5z M298,245.8l3.1-4.9l3.2,1.4l-3.6,3.4L298,245.8
				L298,245.8z"/>
			<path class="st1" d="M316.5,268.2c-6.3,0-10.7-4.8-10.7-10.5c0-5.8,4.4-10.6,10.7-10.6s10.7,4.8,10.7,10.5
				C327.2,263.4,322.8,268.2,316.5,268.2z M316.5,250.4c-4,0-7,3.2-7,7.2c0,4,2.9,7.3,7,7.3s7-3.2,7-7.2
				C323.5,253.7,320.5,250.4,316.5,250.4z"/>
			<path class="st1" d="M349.9,268.2c-6,0-10.4-4.7-10.4-10.5s4.3-10.6,10.5-10.6c3.8,0,6,1.3,8,3.2l-2.3,2.6
				c-1.6-1.5-3.4-2.5-5.7-2.5c-3.9,0-6.8,3.2-6.8,7.2c0,4,2.8,7.3,6.8,7.3c2.5,0,4.1-1,5.9-2.6l2.3,2.3
				C356.1,266.8,353.8,268.2,349.9,268.2z"/>
			<path class="st1" d="M379.2,259c0,6.1-3.5,9.2-8.8,9.2c-5.4,0-8.7-3.1-8.7-9v-11.7h3.7v11.6c0,3.8,2,5.9,5.2,5.9
				c3.2,0,5.2-2,5.2-5.7v-11.7h3.7L379.2,259L379.2,259z"/>
			<path class="st1" d="M403.1,268h-3.8l-2.1-4.9h-9.7l-2.1,4.9h-3.7l9-20.7h3.3L403.1,268z M392.3,251.5l-3.6,8.3h7L392.3,251.5z"
				/>
			<path class="st1" d="M419.7,268l-5-7.1h-4.6v7.1h-3.7v-20.5h9.1c4.7,0,7.6,2.5,7.6,6.6c0,3.4-2,5.4-4.9,6.2l5.5,7.7H419.7
				L419.7,268z M415.4,250.8h-5.3v6.9h5.3c2.5,0,4.2-1.4,4.2-3.5C419.7,251.9,418,250.8,415.4,250.8z"/>
			<path class="st1" d="M436.3,268h-3.6v-17.2h-6.6v-3.3h16.6v3.3h-6.6L436.3,268L436.3,268z"/>
			<path class="st1" d="M455.2,268.2c-6.3,0-10.7-4.8-10.7-10.5c0-5.8,4.5-10.5,10.8-10.5S466,252,466,257.7
				C466,263.4,461.6,268.2,455.2,268.2z M455.2,250.4c-4,0-7,3.2-7,7.2c0,4,2.9,7.3,7,7.3c4,0,7-3.2,7-7.2
				C462.2,253.7,459.4,250.4,455.2,250.4z"/>
		</g>
	</g>
</g>
<g>
	<path class="st0" d="M66.8,374.2c0,6.1-3.4,9.1-8.7,9.1c-5.3,0-8.6-3-8.6-8.9v-11.7H53v11.5c0,3.8,1.9,5.8,5.1,5.8
		c3.2,0,5.1-1.9,5.1-5.7v-11.7h3.6V374.2z"/>
	<path class="st0" d="M85.2,362.7h3.5V383h-3l-11.2-14.4V383H71v-20.3h3.3l10.9,14V362.7z"/>
	<path class="st0" d="M120.6,383h-3.8l-2.1-4.9h-9.6l-2.1,4.9h-3.7l8.9-20.4h3.3L120.6,383z M109.9,366.8l-3.5,8.1h7L109.9,366.8z"
		/>
	<path class="st0" d="M137.5,362.7h3.5V383h-3l-11.2-14.4V383h-3.5v-20.3h3.3l10.9,14V362.7z M134.4,361c-1.6,0-3.1-1.2-4.2-1.2
		c-0.8,0-1.2,0.5-1.6,1.5l-1.9-0.6c0.6-2.3,1.5-3.6,3.2-3.6c1.6,0,3.1,1.2,4.2,1.2c0.8,0,1.2-0.5,1.6-1.5l1.9,0.6
		C137,359.7,136.2,361,134.4,361z"/>
	<path class="st0" d="M155.2,383.3c-6.2,0-10.6-4.7-10.6-10.5c0-5.7,4.4-10.5,10.6-10.5c6.2,0,10.6,4.7,10.6,10.5
		C165.8,378.6,161.4,383.3,155.2,383.3z M155.2,365.6c-4,0-6.8,3.2-6.8,7.2c0,4,2.9,7.3,6.9,7.3c4,0,6.8-3.2,6.8-7.2
		C162.1,368.9,159.2,365.6,155.2,365.6z"/>
	<path class="st0" d="M185,383h-7.6v-20.3h7.6c6.4,0,10.8,4.4,10.8,10.1C195.8,378.6,191.4,383,185,383z M185,365.9h-4v13.8h4
		c4.3,0,7-2.9,7-6.9C192,368.9,189.2,365.9,185,365.9z"/>
	<path class="st0" d="M214.4,365.9h-11.5v5.3h10.2v3.2h-10.2v5.5h11.6v3.2h-15.2v-20.3h15.1V365.9z"/>
	<path class="st3" d="M66.8,419.2c0,6.1-3.4,9.1-8.7,9.1c-5.3,0-8.6-3-8.6-8.9v-11.7H53v11.5c0,3.8,1.9,5.8,5.1,5.8
		c3.2,0,5.1-1.9,5.1-5.7v-11.7h3.6V419.2z"/>
	<path class="st3" d="M85.2,407.7h3.5V428h-3l-11.2-14.4V428H71v-20.3h3.3l10.9,14V407.7z"/>
	<path class="st3" d="M120.6,428h-3.8l-2.1-4.9h-9.6l-2.1,4.9h-3.7l8.9-20.4h3.3L120.6,428z M109.9,411.8l-3.5,8.1h7L109.9,411.8z"
		/>
	<path class="st3" d="M137.5,407.7h3.5V428h-3l-11.2-14.4V428h-3.5v-20.3h3.3l10.9,14V407.7z M134.4,406c-1.6,0-3.1-1.2-4.2-1.2
		c-0.8,0-1.2,0.5-1.6,1.5l-1.9-0.6c0.6-2.3,1.5-3.6,3.2-3.6c1.6,0,3.1,1.2,4.2,1.2c0.8,0,1.2-0.5,1.6-1.5l1.9,0.6
		C137,404.7,136.2,406,134.4,406z"/>
	<path class="st3" d="M155.2,428.3c-6.2,0-10.6-4.7-10.6-10.5c0-5.7,4.4-10.5,10.6-10.5c6.2,0,10.6,4.7,10.6,10.5
		C165.8,423.6,161.4,428.3,155.2,428.3z M155.2,410.6c-4,0-6.8,3.2-6.8,7.2c0,4,2.9,7.3,6.9,7.3c4,0,6.8-3.2,6.8-7.2
		C162.1,413.9,159.2,410.6,155.2,410.6z"/>
	<path class="st3" d="M185,428h-7.6v-20.3h7.6c6.4,0,10.8,4.4,10.8,10.1C195.8,423.6,191.4,428,185,428z M185,410.9h-4v13.8h4
		c4.3,0,7-2.9,7-6.9C192,413.9,189.2,410.9,185,410.9z"/>
	<path class="st3" d="M214.4,410.9h-11.5v5.3h10.2v3.2h-10.2v5.5h11.6v3.2h-15.2v-20.3h15.1V410.9z"/>
</g>
<g>
	<path class="st3" d="M229.1,370.6L229.1,370.6c0-9.7,7.5-17.2,17.7-17.2c5.8,0,9.9,1.8,13.3,4.8l-5.4,6.4c-2.3-2-4.7-3.1-7.9-3.1
		c-4.7,0-8.4,4-8.4,9v0.1c0,5.3,3.7,9.1,8.9,9.1c2.2,0,3.9-0.5,5.3-1.4v-4h-6.5v-6.7h15.1v14.8c-3.5,2.9-8.3,5.1-14.3,5.1
		C236.8,387.7,229.1,380.6,229.1,370.6z"/>
	<path class="st3" d="M265.2,354.1h26.5v7.8h-17.4v5H290v7.2h-15.8v5.2h17.7v7.8h-26.7V354.1z"/>
	<path class="st3" d="M292.9,382.1l5.1-6.1c3.2,2.6,6.9,3.9,10.7,3.9c2.4,0,3.8-0.8,3.8-2.3v-0.1c0-1.4-1.1-2.1-5.5-3.1
		c-7-1.6-12.4-3.6-12.4-10.3v-0.1c0-6.1,4.8-10.5,12.7-10.5c5.6,0,10,1.5,13.5,4.4l-4.6,6.4c-3-2.1-6.3-3.2-9.2-3.2
		c-2.2,0-3.3,0.9-3.3,2.1v0.1c0,1.5,1.1,2.2,5.7,3.2c7.6,1.6,12.3,4.1,12.3,10.2v0.1c0,6.7-5.3,10.7-13.3,10.7
		C302.5,387.6,296.9,385.7,292.9,382.1z"/>
	<path class="st3" d="M332,362.1h-9.9v-8h28.9v8h-9.9V387H332V362.1z"/>
	<path class="st3" d="M354,354.1h9.2V387H354V354.1z"/>
	<path class="st3" d="M366.8,370.6L366.8,370.6c0-9.5,7.6-17.2,17.8-17.2s17.7,7.6,17.7,17v0.1c0,9.4-7.6,17.1-17.8,17.1
		S366.8,380.1,366.8,370.6z M393,370.6L393,370.6c0-4.8-3.4-9-8.5-9c-5,0-8.3,4-8.3,8.8v0.1c0,4.7,3.4,8.9,8.4,8.9
		C389.6,379.4,393,375.4,393,370.6z M386.2,343.2l8.3,2.7l-6.9,6h-6.3L386.2,343.2z"/>
	<path class="st3" d="M405.8,354.1h8.5l13.5,17.4v-17.4h9V387h-8l-14.1-18v18h-9V354.1z"/>
	<path class="st0" d="M230.3,402.1h15.6c5,0,8.5,1.3,10.7,3.6c1.9,1.9,2.9,4.4,2.9,7.7v0.1c0,5-2.7,8.4-6.8,10.1l7.8,11.5H250
		l-6.6-10h-0.1h-3.9v10h-9.1V402.1z M245.4,417.9c3.1,0,4.9-1.5,4.9-3.9v-0.1c0-2.6-1.9-3.9-4.9-3.9h-6v7.9H245.4z"/>
	<path class="st0" d="M262.9,402.1h26.5v7.8h-17.4v5h15.8v7.2h-15.8v5.2h17.7v7.8h-26.7V402.1z"/>
	<path class="st0" d="M304.4,401.9h8.8l14,33.1h-9.8l-2.4-5.9h-12.7L300,435h-9.6L304.4,401.9z M312.4,422l-3.7-9.4L305,422H312.4z"
		/>
	<path class="st0" d="M329.2,402.1h9.1V427h15.9v8h-25V402.1z"/>
	<path class="st0" d="M357.2,402.1h9.2V435h-9.2V402.1z"/>
	<path class="st0" d="M370.2,428.4l16.5-18.6h-15.9v-7.7h28.5v6.6l-16.5,18.6h16.5v7.7h-29.1V428.4z"/>
	<path class="st0" d="M414.2,401.9h8.8l14,33.1h-9.8l-2.4-5.9h-12.7l-2.3,5.9h-9.6L414.2,401.9z M422.2,422l-3.7-9.4l-3.7,9.4H422.2
		z"/>
	<path class="st0" d="M435.8,418.6L435.8,418.6c0-9.7,7.4-17.2,17.3-17.2c6.7,0,11,2.8,14,6.9l-6.9,5.3c-1.9-2.3-4-3.9-7.2-3.9
		c-4.6,0-7.8,3.9-7.8,8.7v0.1c0,4.9,3.2,8.8,7.8,8.8c3.4,0,5.5-1.6,7.4-4l6.9,4.9c-3.1,4.3-7.3,7.4-14.6,7.4
		C443.3,435.7,435.8,428.5,435.8,418.6z"/>
	<path class="st0" d="M470.2,402.1h9.2V435h-9.2V402.1z"/>
	<path class="st0" d="M483.1,418.6L483.1,418.6c0-9.5,7.6-17.2,17.8-17.2s17.7,7.6,17.7,17v0.1c0,9.4-7.6,17.1-17.8,17.1
		S483.1,428.1,483.1,418.6z M509.2,418.6L509.2,418.6c0-4.8-3.4-9-8.5-9c-5,0-8.3,4-8.3,8.8v0.1c0,4.7,3.4,8.9,8.4,8.9
		C505.9,427.4,509.2,423.4,509.2,418.6z"/>
	<path class="st0" d="M522.1,402.1h8.5l13.5,17.4v-17.4h9V435h-8l-14.1-18v18h-9V402.1z"/>
	<path class="st0" d="M557.8,402.1h26.5v7.8h-17.4v5h15.8v7.2h-15.8v5.2h17.7v7.8h-26.7V402.1z"/>
	<path class="st0" d="M585.5,430.1l5.1-6.1c3.2,2.6,6.9,3.9,10.7,3.9c2.4,0,3.8-0.8,3.8-2.3v-0.1c0-1.4-1.1-2.1-5.5-3.1
		c-7-1.6-12.4-3.6-12.4-10.3v-0.1c0-6.1,4.8-10.5,12.7-10.5c5.6,0,10,1.5,13.5,4.4l-4.6,6.4c-3-2.1-6.3-3.2-9.2-3.2
		c-2.2,0-3.3,0.9-3.3,2.1v0.1c0,1.5,1.1,2.2,5.7,3.2c7.6,1.6,12.3,4.1,12.3,10.2v0.1c0,6.7-5.3,10.7-13.3,10.7
		C595.1,435.6,589.6,433.7,585.5,430.1z"/>
</g>
<rect x="15.6" y="301" class="st4" width="629.4" height="32"/>
<rect x="216.2" y="301" class="st3" width="228.2" height="32"/>
<g>
	<path class="st0" d="M233.9,312.4V325h-2.2v-12.6H233.9z"/>
	<path class="st0" d="M245.6,312.4h2.2V325h-1.9l-6.9-9v9h-2.2v-12.6h2.1l6.8,8.7V312.4z"/>
	<path class="st0" d="M259.9,314.4h-7.2v3.4h6.4v2h-6.4v5.1h-2.2v-12.6h9.4V314.4z"/>
	<path class="st0" d="M267.8,325.2c-3.9,0-6.6-2.9-6.6-6.5c0-3.6,2.7-6.5,6.6-6.5s6.6,2.9,6.6,6.5
		C274.4,322.2,271.7,325.2,267.8,325.2z M267.8,314.2c-2.5,0-4.2,2-4.2,4.5s1.8,4.5,4.3,4.5c2.5,0,4.2-2,4.2-4.5
		C272.1,316.3,270.3,314.2,267.8,314.2z"/>
	<path class="st0" d="M284.7,325l-3.1-4.4h-2.8v4.4h-2.2v-12.6h5.6c2.9,0,4.7,1.5,4.7,4c0,2.1-1.2,3.3-3,3.8l3.4,4.8H284.7z
		 M282.1,314.4h-3.2v4.2h3.2c1.6,0,2.6-0.8,2.6-2.1C284.7,315.1,283.7,314.4,282.1,314.4z"/>
	<path class="st0" d="M295.4,321.9L295.4,321.9l-4-5.9v9h-2.2v-12.6h2.4l3.8,6l3.8-6h2.4V325h-2.2v-9L295.4,321.9z"/>
	<path class="st0" d="M313.7,314.4h-7.1v3.3h6.3v2h-6.3v3.4h7.2v2h-9.4v-12.6h9.3V314.4z"/>
	<path class="st0" d="M325.7,325H321v-12.6h4.7c4,0,6.7,2.7,6.7,6.3C332.4,322.2,329.6,325,325.7,325z M325.7,314.4h-2.5v8.6h2.5
		c2.6,0,4.4-1.8,4.4-4.3C330,316.2,328.3,314.4,325.7,314.4z"/>
	<path class="st0" d="M343.9,314.4h-7.1v3.3h6.3v2h-6.3v3.4h7.2v2h-9.4v-12.6h9.3V314.4z"/>
	<path class="st0" d="M357.1,325.2c-3.9,0-6.5-2.8-6.5-6.5c0-3.5,2.7-6.5,6.5-6.5c2.2,0,3.5,0.6,4.8,1.7l-1.4,1.7
		c-1-0.8-1.9-1.4-3.5-1.4c-2.3,0-4.1,2-4.1,4.5c0,2.6,1.7,4.5,4.3,4.5c1.2,0,2.3-0.4,3-1v-2.4H357V318h5.4v5.3
		C361.1,324.3,359.4,325.2,357.1,325.2z"/>
	<path class="st0" d="M374.2,314.4H367v3.3h6.3v2H367v3.4h7.2v2h-9.4v-12.6h9.3V314.4z"/>
	<path class="st0" d="M381.3,317.7c2.7,0.6,4.1,1.6,4.1,3.7c0,2.4-1.9,3.8-4.5,3.8c-1.9,0-3.7-0.7-5.3-2l1.3-1.6
		c1.2,1,2.4,1.6,4,1.6c1.4,0,2.2-0.6,2.2-1.6c0-0.9-0.5-1.4-2.8-1.9c-2.7-0.6-4.2-1.4-4.2-3.8c0-2.2,1.8-3.7,4.3-3.7
		c1.8,0,3.3,0.6,4.6,1.6l-1.2,1.7c-1.1-0.8-2.3-1.3-3.4-1.3c-1.3,0-2.1,0.7-2.1,1.5C378.3,316.7,378.9,317.1,381.3,317.7z"/>
	<path class="st0" d="M392.5,325h-2.2v-10.6h-4v-2.1h10.2v2.1h-4V325z"/>
	<path class="st0" d="M400.8,312.4V325h-2.2v-12.6H400.8z"/>
	<path class="st0" d="M409.7,325.2c-3.9,0-6.6-2.9-6.6-6.5c0-3.6,2.7-6.5,6.6-6.5s6.6,2.9,6.6,6.5
		C416.3,322.2,413.6,325.2,409.7,325.2z M409.7,314.2c-2.5,0-4.3,2-4.3,4.5s1.8,4.5,4.3,4.5c2.5,0,4.3-2,4.3-4.5
		C414,316.3,412.2,314.2,409.7,314.2z M408.9,311.4l1.9-3l2,0.9l-2.2,2.1H408.9z"/>
	<path class="st0" d="M427.3,312.4h2.2V325h-1.9l-7-9v9h-2.2v-12.6h2.1l6.8,8.7V312.4z"/>
</g>
</svg>
