<?xml version="1.0" encoding="utf-8"?>
<!-- Generator: Adobe Illustrator 19.0.0, SVG Export Plug-In . SVG Version: 6.00 Build 0)  -->
<svg version="1.1" id="Capa_1" xmlns="http://www.w3.org/2000/svg" xmlns:xlink="http://www.w3.org/1999/xlink" x="0px" y="0px"
	 viewBox="-120 295.5 600 600" style="enable-background:new -120 295.5 600 600;" xml:space="preserve">
<style type="text/css">
	.st0{display:none;}
	.st1{display:inline;fill:#FBFCFA;}
	.st2{fill:none;}
	.st3{enable-background:new    ;}
	.st4{fill:#033347;}
	.st5{fill:#FDFDFD;}
	.st6{fill:#FBFCFA;}
	.st7{fill:#68973C;}
</style>
<g id="Capa_2" class="st0">
	<rect id="XMLID_2_" x="-240" y="591" class="st1" width="600" height="600"/>
</g>
<rect id="XMLID_611_" x="-120" y="295.5" class="st2" width="600" height="600"/>
<g class="st3">
	<path class="st4" d="M39.4,438H31v15.1H19.9v-50.4h20.6c12,0,19.3,7.1,19.3,17.4v0.1C59.8,431.9,50.7,438,39.4,438z M48.6,420.3
		c0-5-3.5-7.6-9-7.6H31v15.4h8.8c5.5,0,8.8-3.3,8.8-7.6V420.3z"/>
	<path class="st4" d="M98.7,453.1l-4.6-11.3H72.8l-4.6,11.3H56.8l21.6-50.8h10.2l21.6,50.8H98.7z M83.4,415.7L76.7,432h13.4
		L83.4,415.7z"/>
	<path class="st4" d="M132.6,412.9v40.2h-11.1v-40.2h-15.3v-10.2h41.8v10.2H132.6z"/>
	<path class="st4" d="M154.6,453.1v-50.4h38v9.9h-27v10.2h23.8v9.9h-23.8v10.6H193v9.9H154.6z"/>
	<path class="st4" d="M236.4,453.1l-24.4-32v32h-10.9v-50.4h10.2l23.6,31v-31h10.9v50.4H236.4z"/>
	<path class="st4" d="M279,412.9v40.2h-11.1v-40.2h-15.3v-10.2h41.8v10.2H279z"/>
	<path class="st4" d="M301,453.1v-50.4h38v9.9h-27v10.2h23.8v9.9H312v10.6h27.4v9.9H301z"/>
</g>
<g id="XMLID_517_">
	<path id="XMLID_707_" class="st4" d="M252.4,678.1c-10.5,0-20.2,0-29.9,0c-10,0-17.3,4.3-21.2,13.7c-0.7,1.6-1.7,2.4-3,3.4
		c-5.3,4.1-8.3,9.6-8.3,16.3c0,3.4-1.1,3.8-4.1,3.8c-32.8-0.1-65.7,0-98.5-0.2c-3.7,0-4.9,0.9-4.6,4.6c0.3,4.5,0.3,9-0.1,13.5
		c-1.2,13.7-11.9,23-25.7,22.6c-12.8-0.4-23.1-10.9-23.5-24.2c-0.2-7.9-0.1-15.8,0-23.7c0-2.1-0.4-3.7-2-5.2
		c-8.5-8.5-12.6-18.8-12.5-30.8c0.1-6.5-0.4-12.9,0.6-19.4c1.5-9.7,5.9-17.9,13.1-24.4c2.1-1.9,3.2-3.9,3.6-6.7
		c3.1-22.2,6.9-44.2,9.3-66.5c1.4-12.5,5.1-23.3,14.7-31.6c7.8-6.8,17-10.4,27.4-10.4c47.8,0,95.6-0.1,143.4,0
		c23.8,0.1,41.1,17.4,42.8,41.3c0.9,12.9,3.4,25.7,5.2,38.5c1.3,9.1,2.7,18.1,3.9,27.2c0.4,3.5,1.4,6.2,4.2,8.7
		c7.6,6.9,12.1,15.6,12.8,25.8c0.8,10.8,1.5,21.7-1.8,32.3c-0.9,2.9-2.2,4.3-5.6,4.2c-5.9-0.3-11.8-0.2-17.8,0
		c-2.1,0-3.4-0.4-4.4-2.4c-1.6-3.2-4.4-5.4-7.6-7.7c5.6-0.9,10.4-2.5,14.1-6.4c3.8-4,5.6-8.7,5.5-14.2c-0.2-9.2-6.7-17.1-15.7-19.1
		c-8.7-1.9-18,2.5-22,10.5C240.3,660.6,242.7,669.6,252.4,678.1z M159.6,608.1c14.1,0,28.2,0,42.3,0c14.8,0,29.6,0,44.4,0
		c7.2,0,9.7-2.9,8.8-10c-2.4-17.7-4.8-35.4-7.3-53.1c-1.1-7.4-3.1-9-10.5-9c-51.7,0-103.5,0-155.2,0c-7.3,0-9.5,2-10.5,9.2
		c-2.3,17.3-4.7,34.6-7.1,51.9c-1.2,8.3,1.2,11.1,9.7,11.1C102.6,608.1,131.1,608.1,159.6,608.1z M38.3,660.4c0,11,8.8,19.9,19.7,20
		c11,0.1,20.2-9.1,20.1-20.1c-0.1-10.9-9-19.7-20-19.7C47.1,640.7,38.4,649.4,38.3,660.4z"/>
	<path id="XMLID_669_" class="st5" d="M159.6,608.1c-28.5,0-57,0-85.4,0c-8.5,0-10.8-2.8-9.7-11.1c2.4-17.3,4.7-34.6,7.1-51.9
		c1-7.2,3.1-9.2,10.5-9.2c51.7,0,103.5,0,155.2,0c7.5,0,9.5,1.6,10.5,9c2.5,17.7,4.9,35.4,7.3,53.1c1,7.1-1.6,10-8.8,10
		c-14.8,0.1-29.6,0-44.4,0C187.8,608.1,173.7,608.1,159.6,608.1z"/>
	<path id="XMLID_668_" class="st6" d="M38.3,660.4c0-11,8.8-19.7,19.8-19.8c11,0,19.9,8.8,20,19.7c0.1,11-9.1,20.2-20.1,20.1
		C47.1,680.4,38.3,671.4,38.3,660.4z"/>
	<g id="XMLID_361_">
		<path id="XMLID_703_" class="st7" d="M272.2,818.6c-19.6,0-39.2,0-58.8,0c-7.3,0-9.3-2.1-9.3-9.2c0-31.9,0-63.7,0-95.6
			c0-6.1,1.5-8,7.7-8.8c2-0.3,2.1-1.1,2.2-2.7c0.3-8.5,1.9-10,10.4-10c8.7,0,17.5,0,26.2,0c6.4,0,8.8,2.2,8.7,8.5
			c-0.1,3.4,1,4.2,4.3,4.2c22.7-0.1,45.4-0.1,68.1-0.1c7,0,9.3,2.3,9.3,9.4c0,31.7,0,63.4,0,95.1c0,6.8-2.3,9.1-9.2,9.1
			C312,818.7,292.1,818.6,272.2,818.6z M272.6,804.9c16.9,0,33.8-0.1,50.7,0.1c2.9,0,3.8-0.6,3.8-3.7c-0.1-21.3-0.1-42.6,0-63.8
			c0-2.9-1-3.5-3.6-3.5c-34,0.1-67.9,0.1-101.9,0c-2.9,0-3.8,0.7-3.8,3.7c0.1,21.1,0.2,42.3,0,63.4c0,3.3,1,3.9,4.1,3.9
			C238.7,804.9,255.7,804.9,272.6,804.9z M239.7,707.8c2.1,1.2,2.5-0.7,3.1-1.8c1-1.7-0.6-2.1-1.7-2.6c-3-1.6-5.8-3.1-9.3-0.5
			c-2,1.5-3.9,2.6-3.9,5.4c-0.1,2.8,1.4,4.4,3.8,5.4c1.5,0.6,3.8,0.9,2.8,3.2c-0.9,2-2.5,0.1-3.4-0.4c-1.9-0.9-2.5,0.3-3.2,1.5
			c-1,1.7,0.2,2.1,1.3,2.8c2.1,1.1,5.3,0.7,6.1,4.1c0.2,0.7,1.8,0.4,2.2-0.8c0.3-1,0.6-1.8,1.8-2.1c3-0.8,5-2.4,4.9-5.9
			c0-3.3-2.3-4.6-4.9-5.6c-0.9-0.3-2-0.5-1.7-1.9C237.9,707.2,238.8,707.5,239.7,707.8z"/>
		<path id="XMLID_663_" class="st6" d="M272.6,804.9c-16.9,0-33.8-0.1-50.7,0.1c-3,0-4.1-0.6-4.1-3.9c0.2-21.1,0.1-42.3,0-63.4
			c0-3,0.9-3.8,3.8-3.7c34,0.1,67.9,0.1,101.9,0c2.7,0,3.7,0.6,3.6,3.5c-0.1,21.3-0.1,42.6,0,63.8c0,3.1-1,3.7-3.8,3.7
			C306.4,804.9,289.5,804.9,272.6,804.9z M271.4,752.4c-10.4,0-20.8,0-31.2,0c-2,0-4.4-0.2-4.5,2.5c-0.2,3,2.3,3.1,4.5,3.1
			c21,0,41.9,0,62.9,0c2,0,4.8,0.3,4.8-2.7c0-2.9-2.5-2.8-4.7-2.8C292.5,752.4,282,752.4,271.4,752.4z M271.8,788.1L271.8,788.1
			c10.6,0,21.1,0,31.7,0c2,0,4.3,0.1,4.3-2.7c0-2.9-2.4-2.6-4.3-2.6c-21.1,0-42.2,0-63.3,0c-2,0-4.3-0.1-4.3,2.7s2.4,2.6,4.4,2.6
			C250.6,788.1,261.2,788.1,271.8,788.1z M271.5,766.6L271.5,766.6c-5.3,0-10.7,0-16,0c-5.5,0-11,0-16.5,0c-1.9,0-3.5,0.6-3.4,2.8
			c0.1,1.9,1.5,2.5,3.3,2.5c1,0,2,0,3,0c17.7,0,35.5,0,53.2,0c3.2,0,6.5,0,9.7,0c1.8,0,3-0.9,2.9-2.8c-0.1-1.7-1.2-2.4-2.8-2.5
			c-0.8,0-1.7,0-2.5,0C292.1,766.6,281.8,766.6,271.5,766.6z"/>
		<path id="XMLID_662_" class="st6" d="M239.7,707.8c-0.9-0.4-1.9-0.6-2.2,0.8c-0.3,1.4,0.8,1.6,1.7,1.9c2.6,1,4.8,2.3,4.9,5.6
			c0,3.4-1.9,5.1-4.9,5.9c-1.2,0.3-1.4,1.1-1.8,2.1c-0.4,1.2-2.1,1.5-2.2,0.8c-0.8-3.4-3.9-3-6.1-4.1c-1.2-0.6-2.4-1.1-1.3-2.8
			c0.8-1.2,1.3-2.4,3.2-1.5c1,0.5,2.5,2.4,3.4,0.4c1-2.3-1.3-2.6-2.8-3.2c-2.5-1-3.9-2.6-3.8-5.4s1.9-3.9,3.9-5.4
			c3.5-2.6,6.3-1.1,9.3,0.5c1.1,0.6,2.7,0.9,1.7,2.6C242.2,707.1,241.8,709,239.7,707.8z"/>
		<path id="XMLID_654_" class="st7" d="M271.4,752.4c10.6,0,21.1,0,31.7,0c2.2,0,4.7-0.1,4.7,2.8c0,3-2.7,2.7-4.8,2.7
			c-21,0-41.9,0-62.9,0c-2.2,0-4.6,0-4.5-3.1c0.2-2.7,2.6-2.5,4.5-2.5C250.6,752.4,261,752.4,271.4,752.4z"/>
		<path id="XMLID_653_" class="st7" d="M271.8,788.1c-10.6,0-21.1,0-31.7,0c-2,0-4.3,0.2-4.4-2.6c0-2.8,2.3-2.7,4.3-2.7
			c21.1,0,42.2,0,63.3,0c2,0,4.3-0.3,4.3,2.6c0,2.8-2.2,2.7-4.3,2.7C292.9,788.1,282.3,788.1,271.8,788.1L271.8,788.1z"/>
		<path id="XMLID_652_" class="st7" d="M271.5,766.6c10.3,0,20.5,0,30.8,0c0.8,0,1.7,0,2.5,0c1.6,0.1,2.7,0.8,2.8,2.5
			c0.1,1.9-1.1,2.8-2.9,2.8c-3.2,0-6.5,0-9.7,0c-17.7,0-35.5,0-53.2,0c-1,0-2,0-3,0c-1.8,0-3.1-0.6-3.3-2.5
			c-0.1-2.2,1.4-2.8,3.4-2.8c5.5,0,11,0,16.5,0C260.8,766.6,266.2,766.6,271.5,766.6L271.5,766.6z"/>
	</g>
</g>
</svg>
