<?xml version="1.0" encoding="utf-8"?>
<!-- Generator: Adobe Illustrator 19.0.0, SVG Export Plug-In . SVG Version: 6.00 Build 0)  -->
<svg version="1.1" xmlns="http://www.w3.org/2000/svg" xmlns:xlink="http://www.w3.org/1999/xlink" x="0px" y="0px"
	 viewBox="0 0 600 600" style="enable-background:new 0 0 600 600;" xml:space="preserve">
<style type="text/css">
	.st0{fill:none;}
	.st1{display:none;}
	.st2{fill:#033347;}
	.st3{fill:#68973C;}
	.st4{fill:#FBFCFA;}
	.st5{fill:#F4F8EF;}
	.st6{fill:#719C48;}
	.st7{font-family:'Gotham-Bold';}
	.st8{font-size:46.1471px;}
	.st9{letter-spacing:-2;}
	.st10{font-size:79.7086px;}
	.st11{letter-spacing:3;}
	.st12{fill:#FDFDFD;}
</style>
<g id="Capa_2">
	<rect id="XMLID_17_" x="-676" class="st0" width="600" height="600"/>
	<rect id="XMLID_611_" class="st0" width="600" height="600"/>
</g>
<g id="Capa_1" class="st1">
	
		<image style="display:inline;overflow:visible;" width="591" height="591" id="XMLID_467_" xlink:href="demo/9d7bc7ae-ba3d-4eed-9e82-3f886f28eb9e.jpg"  transform="matrix(0.846 0 0 0.846 -626 50)">
	</image>
</g>
<g id="Capa_3">
	<g id="XMLID_557_">
		<path id="XMLID_217_" class="st2" d="M-388.5,362.8c-26,0-52,0.1-77.9-0.1c-3.2,0-4,0.7-4,3.9c0.1,32.9,0.1,65.9,0,98.8
			c0,2.8,0.6,3.9,3.7,3.8c13.6-0.2,27.3-0.2,40.9,0c3,0,3.8-0.8,3.8-3.8c-0.2-10.5-0.1-21-0.1-31.5c0-11,6.5-17.5,17.5-17.5
			c7.7,0,15.3,0.1,23-0.1c2.2,0,2.9,0.6,2.9,2.9c-0.1,22.6-0.1,45.1,0,67.7c0,2.2-0.5,2.9-2.8,2.9c-33.1-0.1-66.2,0-99.2-0.1
			c-5.5,0-9.6-3.9-10.3-9.5c-0.3-2.1-0.2-4.3-0.2-6.4c0-35.8-0.1-71.5,0.1-107.3c0-3.3-0.9-4.3-4.2-4.2c-9.1,0.2-18.2-0.3-27.2-0.1
			c-3.8,0.1-5-1.9-5.5-5c-0.8-5.3,1.6-9.2,5.2-12.8c27-26.8,53.9-53.7,80.8-80.6c14.5-14.4,28.9-28.9,43.4-43.3
			c7.5-7.4,13.3-7.3,20.7,0.1c41.7,41.6,83.4,83.2,125.1,124.8c2.9,2.9,4.8,5.9,4.3,10.1c-0.6,5.8-3.1,8.1-8.9,8.1
			c-8.2,0-16.5,0.1-24.7-0.2c-2.9-0.1-3.5,0.9-3.5,3.6c0.2,7.8-0.1,15.6,0.1,23.4c0.1,2.8-0.5,3.9-3.6,3.9c-4.4,0-8.5,0.2-10.3-5
			c-0.2-0.5-0.6-1.1-1.1-1.3c-6.7-3-6-8.9-5.9-14.7c0.2-9.9,0-10-9.7-10c-24.1,0-48.3,0-72.4,0C-388.5,363.3-388.5,363-388.5,362.8z
			"/>
		<g id="XMLID_503_">
			<path id="XMLID_180_" class="st3" d="M-295.8,523.1c-19.7,0-39.4,0-59.2,0c-7.5,0-9.6-2.1-9.6-9.6c0-31.6,0-63.3,0-94.9
				c0-7.3,0.8-8.4,8-9.9c2-0.4,1.9-1.6,2-3.1c0.5-8.3,2-9.7,10.3-9.7c8.9,0,17.9,0,26.8,0c6.1,0,8.6,2.3,8.4,8.5
				c-0.1,3.4,0.9,4.3,4.3,4.3c22.8-0.1,45.7-0.1,68.5-0.1c7.1,0,9.5,2.3,9.5,9.4c0,31.9,0,63.9,0,95.8c0,6.8-2.4,9.3-9.1,9.3
				C-255.8,523.2-275.8,523.1-295.8,523.1C-295.8,523.1-295.8,523.1-295.8,523.1z M-295.6,509.3c17,0,34-0.1,51.1,0.1
				c2.9,0,3.9-0.6,3.9-3.7c-0.1-21.3-0.1-42.5,0-63.8c0-3.2-0.9-4-4.1-4c-34,0.1-68.1,0.1-102.1,0c-2.9,0-3.9,0.7-3.9,3.8
				c0.1,21.3,0.1,42.6,0,63.8c0,3.3,1,3.9,4.1,3.9C-329.6,509.2-312.6,509.3-295.6,509.3z M-328.8,411.5c2.2,1.4,2.9-0.5,3.4-1.8
				c0.8-2-1.2-2-2.3-2.7c-2.7-1.6-5.1-2.8-8.4-0.5c-2.2,1.6-4.3,2.6-4.4,5.6c-0.1,3.1,1.8,4.6,4.3,5.6c1.3,0.5,3.1,0.8,2.4,2.7
				c-0.9,2.3-2.5,0.5-3.4,0c-2.2-1.3-2.8,0.5-3.5,1.7c-1.1,1.9,0.7,2,1.7,2.6c2,1.2,5.2,0.5,5.7,4c0.1,0.7,2,0.6,2.1-0.1
				c0.5-2.7,3-2.7,4.6-3.8c3.5-2.4,3.3-7.3-0.3-9.5c-0.8-0.5-1.8-0.9-2.7-1.2c-1-0.4-1.2-1.2-0.9-2.1
				C-330.3,411.1-329.5,411.2-328.8,411.5z"/>
			<path id="XMLID_175_" class="st4" d="M-295.6,509.3c-17,0-34-0.1-51.1,0.1c-3.1,0-4.1-0.6-4.1-3.9c0.2-21.3,0.1-42.5,0-63.8
				c0-3,0.9-3.8,3.9-3.8c34,0.1,68.1,0.1,102.1,0c3.2,0,4.1,0.8,4.1,4c-0.1,21.3-0.1,42.5,0,63.8c0,3.1-1,3.7-3.9,3.7
				C-261.6,509.2-278.6,509.3-295.6,509.3z M-296.3,456.5c-10.6,0-21.3,0-31.9,0c-2,0-4.4-0.2-4.5,2.6c-0.1,3,2.3,3.1,4.5,3.1
				c21.1,0,42.3,0,63.4,0c2.1,0,4.8,0.2,4.7-2.9c-0.1-2.9-2.6-2.8-4.8-2.8C-275.3,456.5-285.8,456.5-296.3,456.5z M-296,486.9
				c-10.9,0-21.9,0-32.8,0c-2,0-3.9,0.2-3.9,2.7c0,2.5,2,2.7,3.9,2.7c21.4,0,42.9,0,64.3,0c2.1,0,4.4,0,4.4-2.8
				c0-2.9-2.4-2.6-4.4-2.6C-275,486.9-285.5,486.9-296,486.9z M-295.9,470.8c-10.8,0-21.6,0-32.3,0c-2,0-4.4-0.2-4.5,2.6
				c-0.1,3.2,2.5,2.8,4.6,2.8c21.1,0,42.3,0,63.4,0c2,0,4.4,0.3,4.5-2.6c0.1-3.2-2.5-2.8-4.6-2.8
				C-275.2,470.7-285.5,470.8-295.9,470.8z"/>
			<path id="XMLID_167_" class="st5" d="M-328.8,411.5c-0.7-0.2-1.5-0.4-1.7,0.5c-0.3,0.9-0.1,1.7,0.9,2.1c0.9,0.4,1.9,0.7,2.7,1.2
				c3.7,2.2,3.9,7.2,0.3,9.5c-1.6,1.1-4.1,1.1-4.6,3.8c-0.1,0.7-2,0.8-2.1,0.1c-0.5-3.5-3.8-2.8-5.7-4c-1-0.6-2.8-0.8-1.7-2.6
				c0.7-1.2,1.3-3,3.5-1.7c0.9,0.5,2.5,2.3,3.4,0c0.7-1.9-1.1-2.3-2.4-2.7c-2.6-1-4.5-2.5-4.3-5.6c0.1-3,2.3-4,4.4-5.6
				c3.3-2.4,5.6-1.2,8.4,0.5c1.2,0.7,3.1,0.7,2.3,2.7C-326,411-326.6,412.8-328.8,411.5z"/>
			<path id="XMLID_166_" class="st6" d="M-296.3,456.5c10.5,0,21,0,31.5,0c2.2,0,4.7-0.1,4.8,2.8c0.1,3.1-2.7,2.9-4.7,2.9
				c-21.1,0-42.3,0-63.4,0c-2.2,0-4.6-0.1-4.5-3.1c0.1-2.8,2.5-2.6,4.5-2.6C-317.6,456.5-307,456.5-296.3,456.5z"/>
			<path id="XMLID_165_" class="st3" d="M-296,486.9c10.5,0,21,0,31.5,0c2,0,4.4-0.2,4.4,2.6c0,2.7-2.3,2.8-4.4,2.8
				c-21.4,0-42.9,0-64.3,0c-2,0-3.9-0.1-3.9-2.7c0-2.5,1.9-2.7,3.9-2.7C-317.9,487-306.9,486.9-296,486.9z"/>
			<path id="XMLID_18_" class="st3" d="M-295.9,470.8c10.3,0,20.7,0,31,0c2.1,0,4.7-0.4,4.6,2.8c-0.1,2.8-2.5,2.6-4.5,2.6
				c-21.1,0-42.3,0-63.4,0c-2.1,0-4.7,0.3-4.6-2.8c0.1-2.8,2.5-2.6,4.5-2.6C-317.4,470.8-306.7,470.8-295.9,470.8z"/>
		</g>
	</g>
	<text id="XMLID_9_" transform="matrix(1 0 0 1 -584.127 110.8594)" class="st2 st7 st8 st9">ACTUALIZACIÓN/</text>
	<text id="XMLID_3_" transform="matrix(1 0 0 1 -511.8428 189.5571)" class="st2 st7 st10 st11">PAGO</text>
	<text id="XMLID_346_" transform="matrix(1 0 0 1 91.873 110.8594)" class="st2 st7 st8 st9">ACTUALIZACIÓN/</text>
	<text id="XMLID_218_" transform="matrix(1 0 0 1 164.1572 189.5571)" class="st2 st7 st10 st11">PAGO</text>
	<g id="XMLID_517_">
		<path id="XMLID_707_" class="st2" d="M372.4,382.6c-10.5,0-20.2,0-29.9,0c-10,0-17.3,4.3-21.2,13.7c-0.7,1.6-1.7,2.4-3,3.4
			c-5.3,4.1-8.3,9.6-8.3,16.3c0,3.4-1.1,3.8-4.1,3.8c-32.8-0.1-65.7,0-98.5-0.2c-3.7,0-4.9,0.9-4.6,4.6c0.3,4.5,0.3,9-0.1,13.5
			c-1.2,13.7-11.9,23-25.7,22.6c-12.8-0.4-23.1-10.9-23.5-24.2c-0.2-7.9-0.1-15.8,0-23.7c0-2.1-0.4-3.7-2-5.2
			c-8.5-8.5-12.6-18.8-12.5-30.8c0.1-6.5-0.4-12.9,0.6-19.4c1.5-9.7,5.9-17.9,13.1-24.4c2.1-1.9,3.2-3.9,3.6-6.7
			c3.1-22.2,6.9-44.2,9.3-66.5c1.4-12.5,5.1-23.3,14.7-31.6c7.8-6.8,17-10.4,27.4-10.4c47.8,0,95.6-0.1,143.4,0
			c23.8,0.1,41.1,17.4,42.8,41.3c0.9,12.9,3.4,25.7,5.2,38.5c1.3,9.1,2.7,18.1,3.9,27.2c0.4,3.5,1.4,6.2,4.2,8.7
			c7.6,6.9,12.1,15.6,12.8,25.8c0.8,10.8,1.5,21.7-1.8,32.3c-0.9,2.9-2.2,4.3-5.6,4.2c-5.9-0.3-11.8-0.2-17.8,0
			c-2.1,0-3.4-0.4-4.4-2.4c-1.6-3.2-4.4-5.4-7.6-7.7c5.6-0.9,10.4-2.5,14.1-6.4c3.8-4,5.6-8.7,5.5-14.2c-0.2-9.2-6.7-17.1-15.7-19.1
			c-8.7-1.9-18,2.5-22,10.5C360.3,365.1,362.7,374.1,372.4,382.6z M279.6,312.6c14.1,0,28.2,0,42.3,0c14.8,0,29.6,0,44.4,0
			c7.2,0,9.7-2.9,8.8-10c-2.4-17.7-4.8-35.4-7.3-53.1c-1.1-7.4-3.1-9-10.5-9c-51.7,0-103.5,0-155.2,0c-7.3,0-9.5,2-10.5,9.2
			c-2.3,17.3-4.7,34.6-7.1,51.9c-1.2,8.3,1.2,11.1,9.7,11.1C222.6,312.6,251.1,312.6,279.6,312.6z M158.3,364.9
			c0,11,8.8,19.9,19.7,20c11,0.1,20.2-9.1,20.1-20.1c-0.1-10.9-9-19.7-20-19.7C167.1,345.2,158.4,353.9,158.3,364.9z"/>
		<path id="XMLID_669_" class="st12" d="M279.6,312.6c-28.5,0-57,0-85.4,0c-8.5,0-10.8-2.8-9.7-11.1c2.4-17.3,4.7-34.6,7.1-51.9
			c1-7.2,3.1-9.2,10.5-9.2c51.7,0,103.5,0,155.2,0c7.5,0,9.5,1.6,10.5,9c2.5,17.7,4.9,35.4,7.3,53.1c1,7.1-1.6,10-8.8,10
			c-14.8,0.1-29.6,0-44.4,0C307.8,312.6,293.7,312.6,279.6,312.6z"/>
		<path id="XMLID_668_" class="st4" d="M158.3,364.9c0-11,8.8-19.7,19.8-19.8c11,0,19.9,8.8,20,19.7c0.1,11-9.1,20.2-20.1,20.1
			C167.1,384.9,158.3,375.9,158.3,364.9z"/>
		<g id="XMLID_361_">
			<path id="XMLID_703_" class="st3" d="M392.2,523.1c-19.6,0-39.2,0-58.8,0c-7.3,0-9.3-2.1-9.3-9.2c0-31.9,0-63.7,0-95.6
				c0-6.1,1.5-8,7.7-8.8c2-0.3,2.1-1.1,2.2-2.7c0.3-8.5,1.9-10,10.4-10c8.7,0,17.5,0,26.2,0c6.4,0,8.8,2.2,8.7,8.5
				c-0.1,3.4,1,4.2,4.3,4.2c22.7-0.1,45.4-0.1,68.1-0.1c7,0,9.3,2.3,9.3,9.4c0,31.7,0,63.4,0,95.1c0,6.8-2.3,9.1-9.2,9.1
				C432,523.2,412.1,523.1,392.2,523.1z M392.6,509.4c16.9,0,33.8-0.1,50.7,0.1c2.9,0,3.8-0.6,3.8-3.7c-0.1-21.3-0.1-42.6,0-63.8
				c0-2.9-1-3.5-3.6-3.5c-34,0.1-67.9,0.1-101.9,0c-2.9,0-3.8,0.7-3.8,3.7c0.1,21.1,0.2,42.3,0,63.4c0,3.3,1,3.9,4.1,3.9
				C358.7,509.4,375.7,509.4,392.6,509.4z M359.7,412.3c2.1,1.2,2.5-0.7,3.1-1.8c1-1.7-0.6-2.1-1.7-2.6c-3-1.6-5.8-3.1-9.3-0.5
				c-2,1.5-3.9,2.6-3.9,5.4c-0.1,2.8,1.4,4.4,3.8,5.4c1.5,0.6,3.8,0.9,2.8,3.2c-0.9,2-2.5,0.1-3.4-0.4c-1.9-0.9-2.5,0.3-3.2,1.5
				c-1,1.7,0.2,2.1,1.3,2.8c2.1,1.1,5.3,0.7,6.1,4.1c0.2,0.7,1.8,0.4,2.2-0.8c0.3-1,0.6-1.8,1.8-2.1c3-0.8,5-2.4,4.9-5.9
				c0-3.3-2.3-4.6-4.9-5.6c-0.9-0.3-2-0.5-1.7-1.9C357.9,411.7,358.8,412,359.7,412.3z"/>
			<path id="XMLID_663_" class="st4" d="M392.6,509.4c-16.9,0-33.8-0.1-50.7,0.1c-3,0-4.1-0.6-4.1-3.9c0.2-21.1,0.1-42.3,0-63.4
				c0-3,0.9-3.8,3.8-3.7c34,0.1,67.9,0.1,101.9,0c2.7,0,3.7,0.6,3.6,3.5c-0.1,21.3-0.1,42.6,0,63.8c0,3.1-1,3.7-3.8,3.7
				C426.4,509.4,409.5,509.4,392.6,509.4z M391.4,456.9c-10.4,0-20.8,0-31.2,0c-2,0-4.4-0.2-4.5,2.5c-0.2,3,2.3,3.1,4.5,3.1
				c21,0,41.9,0,62.9,0c2,0,4.8,0.3,4.8-2.7c0-2.9-2.5-2.8-4.7-2.8C412.5,456.9,402,456.9,391.4,456.9z M391.8,492.6
				C391.8,492.6,391.8,492.6,391.8,492.6c10.6,0,21.1,0,31.7,0c2,0,4.3,0.1,4.3-2.7c0-2.9-2.4-2.6-4.3-2.6c-21.1,0-42.2,0-63.3,0
				c-2,0-4.3-0.1-4.3,2.7c0,2.8,2.4,2.6,4.4,2.6C370.6,492.6,381.2,492.6,391.8,492.6z M391.5,471.1
				C391.5,471.1,391.5,471.1,391.5,471.1c-5.3,0-10.7,0-16,0c-5.5,0-11,0-16.5,0c-1.9,0-3.5,0.6-3.4,2.8c0.1,1.9,1.5,2.5,3.3,2.5
				c1,0,2,0,3,0c17.7,0,35.5,0,53.2,0c3.2,0,6.5,0,9.7,0c1.8,0,3-0.9,2.9-2.8c-0.1-1.7-1.2-2.4-2.8-2.5c-0.8,0-1.7,0-2.5,0
				C412.1,471.1,401.8,471.1,391.5,471.1z"/>
			<path id="XMLID_662_" class="st4" d="M359.7,412.3c-0.9-0.4-1.9-0.6-2.2,0.8c-0.3,1.4,0.8,1.6,1.7,1.9c2.6,1,4.8,2.3,4.9,5.6
				c0,3.4-1.9,5.1-4.9,5.9c-1.2,0.3-1.4,1.1-1.8,2.1c-0.4,1.2-2.1,1.5-2.2,0.8c-0.8-3.4-3.9-3-6.1-4.1c-1.2-0.6-2.4-1.1-1.3-2.8
				c0.8-1.2,1.3-2.4,3.2-1.5c1,0.5,2.5,2.4,3.4,0.4c1-2.3-1.3-2.6-2.8-3.2c-2.5-1-3.9-2.6-3.8-5.4c0.1-2.8,1.9-3.9,3.9-5.4
				c3.5-2.6,6.3-1.1,9.3,0.5c1.1,0.6,2.7,0.9,1.7,2.6C362.2,411.6,361.8,413.5,359.7,412.3z"/>
			<path id="XMLID_654_" class="st3" d="M391.4,456.9c10.6,0,21.1,0,31.7,0c2.2,0,4.7-0.1,4.7,2.8c0,3-2.7,2.7-4.8,2.7
				c-21,0-41.9,0-62.9,0c-2.2,0-4.6,0-4.5-3.1c0.2-2.7,2.6-2.5,4.5-2.5C370.6,456.9,381,456.9,391.4,456.9z"/>
			<path id="XMLID_653_" class="st3" d="M391.8,492.6c-10.6,0-21.1,0-31.7,0c-2,0-4.3,0.2-4.4-2.6c0-2.8,2.3-2.7,4.3-2.7
				c21.1,0,42.2,0,63.3,0c2,0,4.3-0.3,4.3,2.6c0,2.8-2.2,2.7-4.3,2.7C412.9,492.6,402.3,492.6,391.8,492.6
				C391.8,492.6,391.8,492.6,391.8,492.6z"/>
			<path id="XMLID_652_" class="st3" d="M391.5,471.1c10.3,0,20.5,0,30.8,0c0.8,0,1.7,0,2.5,0c1.6,0.1,2.7,0.8,2.8,2.5
				c0.1,1.9-1.1,2.8-2.9,2.8c-3.2,0-6.5,0-9.7,0c-17.7,0-35.5,0-53.2,0c-1,0-2,0-3,0c-1.8,0-3.1-0.6-3.3-2.5
				c-0.1-2.2,1.4-2.8,3.4-2.8c5.5,0,11,0,16.5,0C380.8,471.1,386.2,471.1,391.5,471.1C391.5,471.1,391.5,471.1,391.5,471.1z"/>
		</g>
	</g>
</g>
</svg>
