<?xml version="1.0" encoding="utf-8"?>
<!-- Generator: Adobe Illustrator 19.0.0, SVG Export Plug-In . SVG Version: 6.00 Build 0)  -->
<svg version="1.1" id="Capa_1" xmlns="http://www.w3.org/2000/svg" xmlns:xlink="http://www.w3.org/1999/xlink" x="0px" y="0px"
	 viewBox="-120 295.5 600 600" style="enable-background:new -120 295.5 600 600;" xml:space="preserve">
<style type="text/css">
	.st0{fill:none;}
	.st1{fill:#033347;}
	.st2{fill:#68973C;}
	.st3{fill:#FBFCFA;}
	.st4{fill:#F4F8EF;}
	.st5{fill:#719C48;}
	.st6{enable-background:new    ;}
</style>
<g>
	<rect id="XMLID_17_" x="-120" y="295.5" class="st0" width="600" height="600"/>
	<g id="XMLID_557_">
		<path id="XMLID_217_" class="st1" d="M169,658.3c-26,0-52,0.1-77.9-0.1c-3.2,0-4,0.7-4,3.9c0.1,32.9,0.1,65.9,0,98.8
			c0,2.8,0.6,3.9,3.7,3.8c13.6-0.2,27.3-0.2,40.9,0c3,0,3.8-0.8,3.8-3.8c-0.2-10.5-0.1-21-0.1-31.5c0-11,6.5-17.5,17.5-17.5
			c7.7,0,15.3,0.1,23-0.1c2.2,0,2.9,0.6,2.9,2.9c-0.1,22.6-0.1,45.1,0,67.7c0,2.2-0.5,2.9-2.8,2.9c-33.1-0.1-66.2,0-99.2-0.1
			c-5.5,0-9.6-3.9-10.3-9.5c-0.3-2.1-0.2-4.3-0.2-6.4c0-35.8-0.1-71.5,0.1-107.3c0-3.3-0.9-4.3-4.2-4.2c-9.1,0.2-18.2-0.3-27.2-0.1
			c-3.8,0.1-5-1.9-5.5-5c-0.8-5.3,1.6-9.2,5.2-12.8c27-26.8,53.9-53.7,80.8-80.6c14.5-14.4,28.9-28.9,43.4-43.3
			c7.5-7.4,13.3-7.3,20.7,0.1c41.7,41.6,83.4,83.2,125.1,124.8c2.9,2.9,4.8,5.9,4.3,10.1c-0.6,5.8-3.1,8.1-8.9,8.1
			c-8.2,0-16.5,0.1-24.7-0.2c-2.9-0.1-3.5,0.9-3.5,3.6c0.2,7.8-0.1,15.6,0.1,23.4c0.1,2.8-0.5,3.9-3.6,3.9c-4.4,0-8.5,0.2-10.3-5
			c-0.2-0.5-0.6-1.1-1.1-1.3c-6.7-3-6-8.9-5.9-14.7c0.2-9.9,0-10-9.7-10c-24.1,0-48.3,0-72.4,0C169,658.8,169,658.5,169,658.3z"/>
		<g id="XMLID_503_">
			<path id="XMLID_180_" class="st2" d="M261.7,818.6c-19.7,0-39.4,0-59.2,0c-7.5,0-9.6-2.1-9.6-9.6c0-31.6,0-63.3,0-94.9
				c0-7.3,0.8-8.4,8-9.9c2-0.4,1.9-1.6,2-3.1c0.5-8.3,2-9.7,10.3-9.7c8.9,0,17.9,0,26.8,0c6.1,0,8.6,2.3,8.4,8.5
				c-0.1,3.4,0.9,4.3,4.3,4.3c22.8-0.1,45.7-0.1,68.5-0.1c7.1,0,9.5,2.3,9.5,9.4c0,31.9,0,63.9,0,95.8c0,6.8-2.4,9.3-9.1,9.3
				C301.7,818.8,281.7,818.6,261.7,818.6L261.7,818.6z M261.9,804.8c17,0,34-0.1,51.1,0.1c2.9,0,3.9-0.6,3.9-3.7
				c-0.1-21.3-0.1-42.5,0-63.8c0-3.2-0.9-4-4.1-4c-34,0.1-68.1,0.1-102.1,0c-2.9,0-3.9,0.7-3.9,3.8c0.1,21.3,0.1,42.6,0,63.8
				c0,3.3,1,3.9,4.1,3.9C227.9,804.8,244.9,804.8,261.9,804.8z M228.7,707c2.2,1.4,2.9-0.5,3.4-1.8c0.8-2-1.2-2-2.3-2.7
				c-2.7-1.6-5.1-2.8-8.4-0.5c-2.2,1.6-4.3,2.6-4.4,5.6c-0.1,3.1,1.8,4.6,4.3,5.6c1.3,0.5,3.1,0.8,2.4,2.7c-0.9,2.3-2.5,0.5-3.4,0
				c-2.2-1.3-2.8,0.5-3.5,1.7c-1.1,1.9,0.7,2,1.7,2.6c2,1.2,5.2,0.5,5.7,4c0.1,0.7,2,0.6,2.1-0.1c0.5-2.7,3-2.7,4.6-3.8
				c3.5-2.4,3.3-7.3-0.3-9.5c-0.8-0.5-1.8-0.9-2.7-1.2c-1-0.4-1.2-1.2-0.9-2.1C227.2,706.7,228,706.8,228.7,707z"/>
			<path id="XMLID_175_" class="st3" d="M261.9,804.8c-17,0-34-0.1-51.1,0.1c-3.1,0-4.1-0.6-4.1-3.9c0.2-21.3,0.1-42.5,0-63.8
				c0-3,0.9-3.8,3.9-3.8c34,0.1,68.1,0.1,102.1,0c3.2,0,4.1,0.8,4.1,4c-0.1,21.3-0.1,42.5,0,63.8c0,3.1-1,3.7-3.9,3.7
				C295.9,804.8,278.9,804.8,261.9,804.8z M261.2,752c-10.6,0-21.3,0-31.9,0c-2,0-4.4-0.2-4.5,2.6c-0.1,3,2.3,3.1,4.5,3.1
				c21.1,0,42.3,0,63.4,0c2.1,0,4.8,0.2,4.7-2.9c-0.1-2.9-2.6-2.8-4.8-2.8C282.2,752,271.7,752,261.2,752z M261.5,782.5
				c-10.9,0-21.9,0-32.8,0c-2,0-3.9,0.2-3.9,2.7s2,2.7,3.9,2.7c21.4,0,42.9,0,64.3,0c2.1,0,4.4,0,4.4-2.8c0-2.9-2.4-2.6-4.4-2.6
				C282.5,782.5,272,782.5,261.5,782.5z M261.6,766.3c-10.8,0-21.6,0-32.3,0c-2,0-4.4-0.2-4.5,2.6c-0.1,3.2,2.5,2.8,4.6,2.8
				c21.1,0,42.3,0,63.4,0c2,0,4.4,0.3,4.5-2.6c0.1-3.2-2.5-2.8-4.6-2.8C282.3,766.3,272,766.3,261.6,766.3z"/>
			<path id="XMLID_167_" class="st4" d="M228.7,707c-0.7-0.2-1.5-0.4-1.7,0.5c-0.3,0.9-0.1,1.7,0.9,2.1c0.9,0.4,1.9,0.7,2.7,1.2
				c3.7,2.2,3.9,7.2,0.3,9.5c-1.6,1.1-4.1,1.1-4.6,3.8c-0.1,0.7-2,0.8-2.1,0.1c-0.5-3.5-3.8-2.8-5.7-4c-1-0.6-2.8-0.8-1.7-2.6
				c0.7-1.2,1.3-3,3.5-1.7c0.9,0.5,2.5,2.3,3.4,0c0.7-1.9-1.1-2.3-2.4-2.7c-2.6-1-4.5-2.5-4.3-5.6c0.1-3,2.3-4,4.4-5.6
				c3.3-2.4,5.6-1.2,8.4,0.5c1.2,0.7,3.1,0.7,2.3,2.7C231.5,706.5,230.9,708.3,228.7,707z"/>
			<path id="XMLID_166_" class="st5" d="M261.2,752c10.5,0,21,0,31.5,0c2.2,0,4.7-0.1,4.8,2.8c0.1,3.1-2.7,2.9-4.7,2.9
				c-21.1,0-42.3,0-63.4,0c-2.2,0-4.6-0.1-4.5-3.1c0.1-2.8,2.5-2.6,4.5-2.6C239.9,752,250.5,752,261.2,752z"/>
			<path id="XMLID_165_" class="st2" d="M261.5,782.5c10.5,0,21,0,31.5,0c2,0,4.4-0.2,4.4,2.6c0,2.7-2.3,2.8-4.4,2.8
				c-21.4,0-42.9,0-64.3,0c-2,0-3.9-0.1-3.9-2.7c0-2.5,1.9-2.7,3.9-2.7C239.6,782.5,250.6,782.5,261.5,782.5z"/>
			<path id="XMLID_18_" class="st2" d="M261.6,766.3c10.3,0,20.7,0,31,0c2.1,0,4.7-0.4,4.6,2.8c-0.1,2.8-2.5,2.6-4.5,2.6
				c-21.1,0-42.3,0-63.4,0c-2.1,0-4.7,0.3-4.6-2.8c0.1-2.8,2.5-2.6,4.5-2.6C240.1,766.3,250.8,766.3,261.6,766.3z"/>
		</g>
	</g>
	<g class="st6">
		<path class="st1" d="M-74.6,453.1v-50.4h11.1v50.4H-74.6z"/>
		<path class="st1" d="M-17.4,453.1l-24.4-32v32h-10.9v-50.4h10.2l23.6,31v-31h10.9v50.4H-17.4z"/>
		<path class="st1" d="M41.7,453.1v-32.9l-14.2,21.5h-0.3l-14-21.3v32.7H2.4v-50.4h12L27.6,424l13.2-21.3h12v50.4H41.7z"/>
		<path class="st1" d="M87.5,454C72,454,60.8,442.4,60.8,428v-0.1c0-14.3,11.3-26.1,26.9-26.1c15.6,0,26.7,11.6,26.7,25.9v0.1
			C114.4,442.2,103.1,454,87.5,454z M102.8,427.9c0-8.6-6.3-15.8-15.3-15.8s-15.1,7.1-15.1,15.7v0.1c0,8.6,6.3,15.8,15.3,15.8
			s15.1-7.1,15.1-15.7V427.9z"/>
		<path class="st1" d="M146.4,453.1h-24v-50.4h23.4c10.3,0,16.6,5.1,16.6,13v0.1c0,5.7-3,8.9-6.6,10.9c5.8,2.2,9.4,5.6,9.4,12.4v0.1
			C165.3,448.5,157.8,453.1,146.4,453.1z M151.5,417.6c0-3.3-2.6-5.2-7.3-5.2h-10.9v10.7h10.2c4.9,0,8-1.6,8-5.3V417.6z
			 M154.3,437.8c0-3.4-2.5-5.5-8.2-5.5h-12.8v11.1h13.2c4.9,0,7.8-1.7,7.8-5.5V437.8z"/>
		<path class="st1" d="M173.1,453.1v-50.4h11.1v50.4H173.1z"/>
		<path class="st1" d="M195,453.1v-50.4h11.1V443h25.1v10.1H195z"/>
		<path class="st1" d="M238.3,453.1v-50.4h11.1v50.4H238.3z"/>
		<path class="st1" d="M297.7,453.1l-4.6-11.3h-21.3l-4.6,11.3h-11.3l21.6-50.8h10.2l21.6,50.8H297.7z M282.4,415.7l-6.7,16.3h13.4
			L282.4,415.7z"/>
		<path class="st1" d="M345.9,453.1L335.1,437h-8.7v16.1h-11.1v-50.4h23c11.9,0,19,6.3,19,16.6v0.1c0,8.1-4.4,13.2-10.8,15.6
			l12.3,18H345.9z M346.1,419.9c0-4.8-3.3-7.2-8.7-7.2h-11v14.5h11.2c5.4,0,8.5-2.9,8.5-7.1V419.9z"/>
		<path class="st1" d="M366,453.1v-50.4h11.1v50.4H366z"/>
		<path class="st1" d="M412.4,454c-15.6,0-26.7-11.6-26.7-25.9v-0.1c0-14.3,11.3-26.1,26.9-26.1s26.7,11.6,26.7,25.9v0.1
			C439.3,442.2,427.9,454,412.4,454z M427.7,427.9c0-8.6-6.3-15.8-15.3-15.8s-15.1,7.1-15.1,15.7v0.1c0,8.6,6.3,15.8,15.3,15.8
			s15.1-7.1,15.1-15.7V427.9z"/>
	</g>
</g>
</svg>
